<?xml version="1.0" standalone="no"?>
<!DOCTYPE svg PUBLIC "-//W3C//DTD SVG 1.1//EN" "http://www.w3.org/Graphics/SVG/1.1/DTD/svg11.dtd">
<svg xmlns="http://www.w3.org/2000/svg">
<defs >
<font id="Gelasio" horiz-adv-x="1227" ><font-face
    font-family="Gelasio Medium"
    units-per-em="2048"
    panose-1="0 0 0 0 0 0 0 0 0 0"
    ascent="1900"
    descent="-700"
    alphabetic="0" />
<glyph unicode=" " glyph-name="space" horiz-adv-x="499" />
<glyph unicode="!" glyph-name="exclam" horiz-adv-x="695" d="M305 453Q282 740 258 928T217 1222T200 1371Q200 1437 242 1482T348 1528Q410 1528 453 1483T496 1371Q496 1328 476 1222T430 928T391 453H305ZM348 -20Q284 -20 241 26T198 132Q198 192 241 234T348
277Q411 277 455 235T499 132Q499 72 455 26T348 -20Z" />
<glyph unicode="&quot;" glyph-name="quotedbl" horiz-adv-x="881" d="M159 960Q163 1043 163 1132T163 1304T163 1447T168 1536Q177 1595 211 1637T306 1679Q365 1679 386 1637T398 1536Q394 1509 375 1448T330 1304T276 1133T224 960H159ZM582 960Q586 1043
586 1132T586 1304T586 1447T591 1536Q600 1595 634 1637T729 1679Q788 1679 809 1637T821 1536Q817 1509 798 1448T753 1304T699 1133T647 960H582Z" />
<glyph unicode="#" glyph-name="numbersign" horiz-adv-x="1340" d="M243 0L318 400H109V526H342L412 900H158V1026H436L510 1419H657L583 1026H877L951 1419H1098L1024 1026H1232V900H1000L929 526H1162V400H905L829 0H684L759 400H464L388 0H243ZM488 526H783L853
900H559L488 526Z" />
<glyph unicode="$" glyph-name="dollar" horiz-adv-x="1261" d="M600 -244V-26Q517 -16 467 6T388 40Q360 51 342 64T308 78Q291 78 276 61Q240 20 208 20Q167 20 170 68Q171 90 171 111T172 153Q172 218 167 284T157 397T151 454Q150 480 164 492T197 505Q213
505 227 495T246 464Q251 438 263 399T317 274Q353 198 413 151T540 81T659 58Q751 58 822 113T894 299Q894 359 850 406T735 494T582 573Q491 616 404 673T260 811T203 1004Q203 1117 264 1192T417 1306T605 1349V1548H712V1346Q774 1338 816 1323T878 1303Q892
1300 903 1300Q927 1300 935 1309T959 1328Q970 1334 983 1334Q1002 1334 1017 1323T1032 1297Q1032 1285 1034 1239T1043 1132T1056 1016Q1057 1010 1057 999Q1057 969 1043 957T1011 945Q997 945 984 952T970 968Q940 1131 849 1201T653 1272Q550 1272 485 1225T420
1059Q420 999 465 948T583 853T736 770Q831 723 918 666T1062 533T1118 357Q1118 176 1002 77T707 -29V-244H600Z" />
<glyph unicode="%" glyph-name="percent" horiz-adv-x="1698" d="M444 711Q289 711 198 809T106 1076Q106 1248 199 1348T448 1449Q607 1449 700 1349T794 1076Q794 908 699 810T444 711ZM366 0L1174 1419H1321L511 0H366ZM446 788Q537 788 572 859T608 1076Q608
1229 572 1300T444 1372Q354 1372 318 1299T282 1076Q282 931 319 860T446 788ZM1242 -30Q1087 -30 995 68T903 335Q903 507 997 607T1246 708Q1405 708 1498 608T1592 335Q1592 167 1497 69T1242 -30ZM1244 47Q1335 47 1370 118T1406 335Q1406 488 1370 559T1242
631Q1152 631 1116 557T1080 335Q1080 189 1117 118T1244 47Z" />
<glyph unicode="&amp;" glyph-name="ampersand" horiz-adv-x="1489" d="M542 -29Q399 -29 292 21T125 161T66 364Q66 505 152 603T392 758Q325 839 275 929T225 1112Q225 1205 268 1282T396 1404T607 1450Q774 1450 862 1380T950 1194Q950 1103 920 1040T819 921T631
796L997 388Q1016 428 1038 485T1079 599T1110 699T1123 752Q1123 777 1100 790T1048 810T997 818Q977 820 972 829T966 855Q966 870 974 883T1000 896H1404Q1421 896 1429 883T1438 855Q1438 818 1405 818Q1302 818 1256 735Q1219 662 1172 551T1058 321L1193
171Q1224 140 1280 112T1387 78Q1408 76 1415 70T1423 41Q1423 26 1415 13T1389 0H1063L934 144Q863 66 766 19T542 -29ZM576 858Q653 907 695 949T755 1047T772 1187Q773 1221 756 1265T702 1343T605 1377Q535 1377 485 1324T434 1192Q434 1086 469 1012T576 858ZM568
81Q644 81 721 110T871 216L450 697Q358 637 331 551T304 376Q304 299 333 232T420 123T568 81Z" />
<glyph unicode="&apos;" glyph-name="quotesingle" horiz-adv-x="462" d="M142 960Q146 1043 146 1132T146 1304T146 1447T151 1536Q160 1595 194 1637T289 1679Q348 1679 369 1637T381 1536Q377 1509 358 1448T313 1304T259 1133T207 960H142Z" />
<glyph unicode="(" glyph-name="parenleft" horiz-adv-x="796" d="M702 -340Q634 -340 553 -311T391 -215T243 -41T136 225T95 596Q95 809 135 966T243 1232T390 1407T552 1502T702 1532V1445Q671 1445 624 1429T524 1365T427 1224T353 977T324 596Q324 368 353
215T427 -31T524 -173T623 -237T702 -253V-340Z" />
<glyph unicode=")" glyph-name="parenright" horiz-adv-x="796" d="M91 -340V-253Q122 -253 169 -237T269 -173T366 -32T440 215T469 596Q469 824 441 977T367 1223T269 1365T170 1429T91 1445V1532Q159 1532 240 1503T402 1407T550 1233T657 967T698 596Q698
383 658 226T550 -40T403 -215T241 -310T91 -340Z" />
<glyph unicode="*" glyph-name="asterisk" horiz-adv-x="971" d="M284 702Q246 702 216 730T186 801Q186 841 212 876Q220 886 252 915T323 979Q352 1005 384 1032T434 1076Q412 1079 372 1079T286 1080T203 1082T151 1089Q115 1101 91 1127T66 1189Q66 1239 98
1265T168 1292Q193 1292 214 1284Q232 1277 278 1247T374 1184T453 1137Q437 1236 409 1312T380 1431Q380 1481 408 1515T487 1549Q536 1549 564 1515T593 1431Q593 1379 566 1308T519 1137Q539 1148 570 1168T642 1215Q699 1251 727 1267T769 1287T803 1292Q841
1292 873 1266T905 1186Q905 1152 881 1127T819 1089Q802 1084 765 1083T683 1081T599 1080T539 1076Q564 1050 605 1018T687 950T757 876T786 801Q786 762 758 732T688 702Q661 702 636 717T592 757Q585 767 571 804T541 887T510 976T486 1038Q477 1017 462 976T431
888T401 805T379 757Q340 702 284 702Z" />
<glyph unicode="+" glyph-name="plus" horiz-adv-x="1340" d="M587 75V501H185V647H587V1062H753V647H1155V501H753V75H587Z" />
<glyph unicode="," glyph-name="comma" horiz-adv-x="575" d="M202 -364Q185 -364 171 -355T156 -328Q156 -310 177 -286Q216 -243 237 -180T259 -65Q259 -29 251 -9Q209 -3 169 28T128 127Q128 197 169 235T269 273Q341 273 388 220T435 57Q435 -37 398 -122T312
-269T229 -356Q218 -364 202 -364Z" />
<glyph unicode="-" glyph-name="hyphen" horiz-adv-x="768" d="M104 492V622H664V492H104Z" />
<glyph unicode="." glyph-name="period" horiz-adv-x="575" d="M137 132Q137 192 180 234T287 277Q351 277 394 235T438 132Q438 72 395 26T287 -20Q224 -20 181 26T137 132Z" />
<glyph unicode="/" glyph-name="slash" horiz-adv-x="961" d="M163 -440L657 1600H798L302 -440H163Z" />
<glyph unicode="0" glyph-name="zero" horiz-adv-x="1291" d="M644 -29Q403 -29 270 135T136 582Q136 774 198 913T375 1129T651 1205Q892 1205 1023 1037T1155 582Q1155 394 1094 257T919 46T644 -29ZM647 66Q803 66 857 193T912 582Q912 848 856 979T643 1110Q485
1110 432 979T378 582Q378 321 433 194T647 66Z" />
<glyph unicode="1" glyph-name="one" horiz-adv-x="903" d="M190 0Q173 0 165 15T156 41Q156 76 189 79Q221 82 263 88T336 108T368 143L369 1009Q326 983 281 965T193 947Q165 947 156 974T146 1012Q146 1062 182 1065Q212 1067 265 1083T376 1126T475 1189H590L589
156Q589 128 617 113T687 90T771 79Q792 78 799 71T807 41Q807 30 799 15T773 0H190Z" />
<glyph unicode="2" glyph-name="two" horiz-adv-x="1170" d="M121 0V34Q124 63 142 86Q257 166 367 256T567 444T709 644T762 850Q762 901 743 961T673 1065T531 1109Q461 1109 426 1091T376 1049T349 1002Q339 962 331 920T314 844Q308 813 292 790T241 766Q219
766 189 776T135 812T112 886Q112 919 128 962Q150 1022 211 1078T362 1169T558 1205Q769 1205 883 1114T997 851Q997 755 942 661T800 479T611 316T419 181H1060L1050 0H121Z" />
<glyph unicode="3" glyph-name="three" horiz-adv-x="1158" d="M536 -394Q465 -394 387 -375T240 -317T129 -217T86 -70Q86 3 130 49T221 95Q257 95 289 77T322 14L272 -172Q283 -196 311 -226T392 -277T523 -299Q666 -299 755 -209T844 46Q844 150 809 217T718
322T603 376T491 391H423Q417 391 414 410T411 448Q411 466 413 485T423 505H488Q542 505 609 539T725 643T774 821Q774 859 766 908T735 1003T668 1079T554 1109Q484 1109 449 1093T396 1052T365 1002Q355 962 348 919T333 846Q326 813 308 792T259 770Q238 770
207 781T153 819T129 893Q129 959 168 1016T271 1115T415 1181T574 1205Q773 1205 889 1108T1006 840Q1006 737 953 656T823 523T672 456Q770 455 862 416T1013 291T1073 65Q1073 -70 1006 -173T817 -335T536 -394Z" />
<glyph unicode="4" glyph-name="four" horiz-adv-x="1189" d="M722 -328V0H92Q81 0 71 21T60 71Q60 107 77 133L609 1168Q616 1180 632 1191T674 1203Q711 1203 746 1185T806 1138T830 1082L251 164H722L726 533L906 547V164H1143L1133 0H906V-328H722Z" />
<glyph unicode="5" glyph-name="five" horiz-adv-x="1109" d="M482 -392Q415 -392 342 -372T206 -315T104 -224T64 -105Q64 -49 88 -11T143 48T199 68Q243 68 278 56T320 9L275 -224Q342 -298 505 -298Q609 -298 670 -231T758 -58T784 164Q784 332 712 421T526
510Q445 510 359 477T224 373L156 406L195 1189H980L968 1000H336L292 535Q347 573 427 598T576 623Q794 623 911 500T1028 182Q1028 10 958 -119T764 -320T482 -392Z" />
<glyph unicode="6" glyph-name="six" horiz-adv-x="1191" d="M596 -29Q434 -29 323 51T154 260T96 533Q96 650 125 778T218 1029T380 1258T620 1435T944 1533L945 1441Q797 1407 694 1341T523 1187T418 1003T360 811Q405 857 476 898T662 939Q814 939 909 878T1050
712T1095 478Q1095 338 1036 223T866 40T596 -29ZM592 66Q693 66 749 116T828 257T851 472Q851 629 795 725T617 821Q528 821 457 781T343 688Q337 634 336 585T334 496Q334 366 357 270T436 120T592 66Z" />
<glyph unicode="7" glyph-name="seven" horiz-adv-x="1049" d="M236 -349L842 1006H342Q296 1006 264 978T211 908T179 829T163 772Q161 753 146 746T115 739Q104 739 88 747T72 773L107 1190L963 1189L1014 1128L462 -350L236 -349Z" />
<glyph unicode="8" glyph-name="eight" horiz-adv-x="1252" d="M630 -30Q465 -30 355 24T189 169T133 373Q133 471 178 544T289 666T419 738Q328 805 266 890T203 1098Q203 1182 254 1263T402 1396T639 1449Q788 1449 881 1401T1018 1273T1061 1095Q1061 1016
1025 953T932 842T818 764Q899 718 967 663T1076 533T1118 358Q1118 252 1063 164T900 23T630 -30ZM731 811Q783 843 820 909T857 1106Q857 1170 836 1227T766 1319T636 1354Q527 1354 472 1291T417 1115Q417 1057 446 1012T544 919T731 811ZM635 65Q762 65 832
130T902 312Q902 396 859 452T750 546T622 618Q590 633 559 650T496 686Q431 650 388 570T343 367Q343 305 370 235T460 115T635 65Z" />
<glyph unicode="9" glyph-name="nine" horiz-adv-x="1191" d="M246 -357L245 -265Q394 -231 497 -165T668 -11T773 172T830 365Q785 319 715 278T528 237Q376 237 281 298T141 464T96 698Q96 838 155 953T325 1136T595 1205Q756 1205 867 1125T1037 916T1095 643Q1095
526 1066 398T973 147T811 -82T571 -259T246 -357ZM573 355Q662 355 733 395T848 488Q854 542 855 590T856 679Q856 810 834 906T755 1056T599 1110Q497 1110 441 1060T362 919T339 704Q339 547 395 451T573 355Z" />
<glyph unicode=":" glyph-name="colon" horiz-adv-x="661" d="M203 132Q203 192 246 234T353 277Q417 277 460 235T504 132Q504 72 461 26T353 -20Q290 -20 247 26T203 132ZM203 850Q203 910 246 952T353 995Q417 995 460 953T504 850Q504 790 461 744T353 698Q290
698 247 744T203 850Z" />
<glyph unicode=";" glyph-name="semicolon" horiz-adv-x="661" d="M178 850Q178 910 221 952T328 995Q392 995 435 953T479 850Q479 790 436 744T328 698Q265 698 222 744T178 850ZM241 -364Q224 -364 210 -355T195 -328Q195 -310 216 -286Q255 -243 276 -180T298
-65Q298 -29 290 -9Q248 -3 208 28T167 127Q167 197 208 235T308 273Q380 273 427 220T474 57Q474 -37 437 -122T351 -269T268 -356Q257 -364 241 -364Z" />
<glyph unicode="&lt;" glyph-name="less" horiz-adv-x="1340" d="M1110 14L177 499V618L1110 1104V952L335 557L1110 164V14Z" />
<glyph unicode="=" glyph-name="equal" horiz-adv-x="1340" d="M202 733V879H1138V733H202ZM202 231V377H1138V231H202Z" />
<glyph unicode="&gt;" glyph-name="greater" horiz-adv-x="1340" d="M214 14V164L990 557L214 952V1104L1147 618V499L214 14Z" />
<glyph unicode="?" glyph-name="question" horiz-adv-x="1007" d="M407 396V499Q407 591 438 655T515 771T607 872T684 986T715 1139Q715 1202 698 1272T631 1393T488 1443Q421 1443 378 1420T315 1374T294 1351L258 1111Q252 1089 234 1081T181 1073Q150 1073
112 1103T74 1199Q74 1239 92 1284Q114 1343 169 1399T309 1491T506 1528Q660 1528 754 1472T892 1327T936 1145Q935 1059 894 992T793 865T672 747T570 622T529 474V396H407ZM472 -20Q408 -20 365 26T322 132Q322 192 365 234T472 277Q535 277 579 235T623 132Q623
72 579 26T472 -20Z" />
<glyph unicode="@" glyph-name="at" horiz-adv-x="1917" d="M943 -338Q818 -338 683 -302T429 -186T233 26T145 351Q144 368 144 384T143 417Q143 655 226 837T448 1145T755 1334T1094 1398Q1211 1398 1328 1367T1542 1267T1702 1089T1773 822Q1774 811 1774 800T1774
778Q1774 610 1715 482T1565 266T1380 133T1214 88Q1123 88 1081 142T1034 255Q1017 214 978 178T893 119T806 96Q747 96 690 126T594 220T548 389Q547 397 547 405T547 423Q547 525 577 627T667 813T809 948T999 999Q1057 999 1097 973T1157 908T1178 834L1217
973H1411L1197 365Q1193 353 1187 330T1181 281Q1181 256 1197 237T1261 217Q1306 217 1372 255T1502 365T1609 540T1652 772Q1652 781 1652 789T1651 807Q1645 929 1595 1019T1463 1169T1282 1258T1080 1288Q903 1288 755 1220T497 1031T329 752T269 411Q269 398
269 384T270 356Q278 206 330 103T462 -67T632 -170T806 -221T952 -235Q1081 -235 1178 -205T1339 -135T1436 -65T1468 -34L1532 -92Q1487 -145 1411 -202T1219 -298T943 -338ZM830 227Q870 227 910 262T981 341T1020 412L1123 722Q1123 727 1123 732T1124 742Q1124
769 1116 799T1083 849T1011 870Q955 870 911 833T833 738T779 614T747 491T738 399Q741 333 757 280T830 227Z" />
<glyph unicode="A" glyph-name="A" horiz-adv-x="1408" d="M10 0Q-6 0 -15 15T-24 51Q-24 74 -17 80T12 88Q37 91 66 91T122 106T165 165L627 1441H801L1252 165Q1267 121 1294 107T1350 92T1405 88Q1426 86 1433 80T1441 51Q1441 40 1432 20T1407 0H883Q866 0
858 20T849 51Q849 84 882 88Q942 91 979 93T1017 118Q1017 124 1014 132L892 491H412L290 132Q288 127 288 120Q288 95 330 94T434 88Q467 84 467 51Q467 40 459 20T433 0H10ZM664 1188L442 577H864L664 1188Z" />
<glyph unicode="B" glyph-name="B" horiz-adv-x="1379" d="M108 0Q91 0 83 20T74 51Q74 84 107 88Q147 91 187 97T255 117T282 152L283 1234Q283 1277 253 1296T181 1322T101 1331Q80 1333 73 1339T65 1368Q65 1379 73 1399T99 1419H722Q853 1419 964 1391T1143
1293T1211 1102Q1211 1006 1170 938T1061 829T914 774Q1005 765 1093 729T1240 618T1298 417Q1298 272 1222 180T1025 44T770 0H108ZM511 812H664Q741 812 812 837T928 921T973 1083Q973 1220 890 1276T680 1332H511V812ZM693 102Q745 102 806 113T923 156T1014
251T1049 420Q1049 534 1007 595T901 681T767 711T642 716H511V139Q511 139 517 130T561 111T693 102Z" />
<glyph unicode="C" glyph-name="C" horiz-adv-x="1343" d="M778 -30Q652 -30 526 6T297 127T130 353T67 706Q67 904 131 1045T299 1276T523 1407T757 1449Q895 1449 984 1432T1129 1395T1218 1361L1239 1047Q1241 1029 1221 1018T1189 1007Q1186 1007 1184 1007T1177
1006Q1163 1006 1150 1012T1134 1035Q1112 1119 1067 1191T946 1308T755 1353Q691 1353 621 1333T489 1248T388 1055T349 706Q349 498 392 371T503 178T643 88T777 65Q888 65 961 109T1077 227T1136 389Q1142 422 1175 422Q1187 422 1212 414T1238 388L1207 108Q1205
94 1149 61T997 -1T778 -30Z" />
<glyph unicode="D" glyph-name="D" horiz-adv-x="1567" d="M141 0Q124 0 116 20T107 51Q107 84 140 88Q188 92 236 105T285 152V1234Q285 1277 260 1296T199 1321T133 1331Q112 1333 105 1339T97 1368Q97 1379 105 1399T131 1419H746Q950 1418 1092 1361T1322
1207T1450 989T1491 738Q1491 543 1427 403T1259 174T1035 43T801 0H141ZM520 168Q520 154 536 139T596 112T728 101Q820 101 907 120T1064 202T1176 392T1218 734Q1218 920 1174 1035T1056 1213T894 1299T718 1322H521L520 168Z" />
<glyph unicode="E" glyph-name="E" horiz-adv-x="1364" d="M106 51Q106 84 139 88Q187 92 236 105T285 152V1234Q285 1277 260 1296T199 1321T133 1331Q112 1333 105 1339T97 1368Q97 1379 105 1399T131 1419L1145 1420L1180 1095Q1181 1078 1167 1070T1141 1061Q1125
1061 1106 1066T1075 1094Q1035 1169 1010 1219T955 1295T871 1321L521 1320V778L762 779Q788 782 810 816T846 890T863 950Q865 969 879 975T909 982Q920 982 936 974T952 948V505Q952 488 936 480T909 471Q893 471 878 477T860 504Q858 525 844 568T807 647T756
683L521 682V197Q521 142 549 123T611 101L897 102Q987 102 1052 162T1160 374Q1165 392 1188 399T1228 407Q1246 407 1261 399T1279 373L1231 1L140 0Q123 0 115 20T106 51Z" />
<glyph unicode="F" glyph-name="F" horiz-adv-x="1255" d="M140 0Q123 0 115 20T106 51Q106 84 139 88Q198 92 252 105T307 152V1234Q307 1277 279 1296T210 1322T133 1331Q112 1333 105 1339T97 1368Q97 1379 105 1399T131 1419L1175 1418L1213 1070Q1213 1053
1199 1045T1172 1036Q1157 1036 1142 1042T1123 1069Q1116 1091 1098 1132T1052 1217T990 1290T915 1320H538V742H803Q829 745 849 780T883 855T899 916Q901 936 917 942T950 949Q961 949 976 941T991 915V472Q991 455 976 447T950 438Q934 438 918 445T898 471Q896
493 883 536T847 617T797 654H538V197Q538 154 577 131T671 98T767 88Q784 88 793 81T803 51Q803 40 795 20T769 0H140Z" />
<glyph unicode="G" glyph-name="G" horiz-adv-x="1517" d="M779 -30Q695 -30 600 -7T413 69T247 208T128 417T83 706Q83 912 151 1054T329 1284T564 1410T804 1449Q998 1449 1108 1417T1272 1361L1294 1051Q1296 1034 1281 1023T1254 1011Q1251 1011 1249 1011T1242
1010Q1228 1010 1215 1016T1199 1039Q1175 1123 1127 1194T998 1308T802 1353Q757 1353 699 1339T580 1285T470 1174T388 987T356 706Q356 523 403 400T524 203T676 97T819 65Q921 65 978 85T1058 135T1081 198V456Q1081 499 1052 518T982 544T901 553Q880 555
873 561T865 590Q865 601 873 621T899 641H1435Q1452 641 1460 621T1469 590Q1469 556 1436 553Q1391 549 1350 536T1308 489L1314 123Q1298 101 1233 65T1054 -1T779 -30Z" />
<glyph unicode="H" glyph-name="H" horiz-adv-x="1707" d="M140 0Q123 0 115 20T106 51Q106 85 139 88Q187 92 230 105T274 152L275 1234Q275 1277 252 1296T196 1322T133 1331Q112 1333 105 1339T97 1368Q97 1379 105 1399T131 1419H648Q665 1419 673 1399T682
1368Q682 1334 649 1331Q600 1327 552 1314T504 1267V799H1204V1234Q1204 1277 1179 1296T1119 1321T1052 1331Q1031 1333 1024 1339T1016 1368Q1016 1379 1024 1399T1050 1419H1577Q1595 1419 1603 1399T1611 1368Q1611 1334 1578 1331Q1530 1327 1482 1314T1433
1267V185Q1433 142 1458 123T1518 98T1584 88Q1605 86 1612 80T1620 51Q1620 40 1612 20T1586 0H1059Q1042 0 1034 20T1025 51Q1025 85 1058 88Q1106 92 1155 105T1204 152V689H503V185Q503 142 528 123T589 97T655 88Q676 86 683 80T691 51Q691 40 683 20T657
0H140Z" />
<glyph unicode="I" glyph-name="I" horiz-adv-x="820" d="M150 0Q132 0 124 20T116 51Q116 85 149 88Q197 92 245 105T294 152L295 1234Q295 1277 270 1296T209 1322T143 1331Q122 1333 115 1339T107 1368Q107 1379 115 1399T141 1419H670Q687 1419 695 1399T704
1368Q704 1334 671 1331Q623 1327 575 1314T526 1267L525 185Q525 142 550 123T611 97T677 88Q698 86 705 80T713 51Q713 40 705 20T679 0H150Z" />
<glyph unicode="J" glyph-name="J" horiz-adv-x="1090" d="M412 -30Q344 -30 271 -4T130 79Q82 125 63 180T43 286Q43 377 88 430T209 484Q245 484 269 471T293 443L246 108Q275 87 315 73T403 59Q509 59 569 140T629 406L630 1234Q630 1299 585 1313T484 1331Q463
1333 456 1339T448 1368Q448 1379 456 1399T482 1419H992Q1009 1419 1017 1399T1026 1368Q1026 1333 993 1331Q942 1327 901 1314T859 1267V439Q859 292 814 200T698 58T551 -11T412 -30Z" />
<glyph unicode="K" glyph-name="K" horiz-adv-x="1469" d="M140 0Q123 0 115 20T106 51Q106 84 139 88Q187 92 235 106T284 154L285 1234Q285 1277 260 1296T199 1321T133 1331Q112 1333 105 1339T97 1368Q97 1379 105 1399T131 1419H650Q668 1419 676 1399T684
1368Q684 1335 651 1331Q605 1327 561 1314T516 1267L515 185Q515 142 538 123T594 98T657 88Q678 86 685 80T693 51Q693 40 685 20T659 0H140ZM1134 0Q1112 0 1084 19T1021 90Q982 147 937 224T842 382T743 535T644 651T551 700L1029 1276Q1038 1286 1038 1293Q1038
1307 1017 1314T968 1325T923 1330Q904 1332 898 1341T892 1367Q892 1378 900 1398T926 1419H1385Q1402 1419 1410 1399T1419 1367Q1419 1330 1386 1330Q1335 1330 1281 1312T1188 1262L795 811Q840 782 897 713T1014 556T1132 383T1236 235Q1279 176 1335 135T1428
89Q1449 87 1456 72T1464 35Q1464 23 1456 12T1430 0H1134Z" />
<glyph unicode="L" glyph-name="L" horiz-adv-x="1268" d="M140 0Q123 0 115 20T106 51Q106 84 139 88Q187 92 231 106T276 154L277 1234Q277 1277 254 1296T198 1322T133 1331Q112 1333 105 1339T97 1368Q97 1379 105 1399T131 1419H676Q693 1419 701 1399T710
1368Q710 1331 677 1331Q640 1331 601 1323T534 1295T506 1237V177Q506 128 538 115T608 101H890Q937 101 981 155T1062 289T1123 440Q1129 458 1145 465T1177 473Q1195 473 1208 465T1220 439L1169 0H140Z" />
<glyph unicode="M" glyph-name="M" horiz-adv-x="1936" d="M121 0Q104 0 96 20T87 51Q87 84 120 88Q160 91 200 97T267 122T295 184V1234Q295 1277 265 1296T193 1322T114 1331Q93 1333 86 1339T78 1368Q78 1379 86 1398T112 1419H636L926 563L998 388L1298 1262Q1316
1313 1327 1350T1344 1419H1813Q1831 1419 1839 1399T1847 1368Q1847 1335 1814 1331Q1766 1327 1718 1314T1669 1267V185Q1669 142 1694 123T1756 98T1823 88Q1844 86 1851 80T1859 51Q1859 40 1851 20T1825 0H1287Q1270 0 1262 20T1253 51Q1253 84 1286 88Q1318
91 1353 97T1414 117T1439 152L1440 1281H1405L966 0H914L429 1281H392V185Q392 142 425 123T503 97T584 88Q605 86 612 80T620 51Q620 40 612 20T586 0H121Z" />
<glyph unicode="N" glyph-name="N" horiz-adv-x="1599" d="M94 0Q76 0 68 20T60 51Q60 84 93 88Q125 91 162 98T226 122T253 172V1224Q253 1267 224 1288T156 1319T87 1331Q66 1333 59 1339T51 1368Q51 1379 59 1399T85 1419H451L1234 342H1246V1234Q1246 1277
1214 1296T1139 1321T1066 1331Q1045 1333 1038 1339T1030 1368Q1030 1379 1038 1399T1064 1419H1522Q1540 1419 1548 1399T1556 1368Q1556 1335 1523 1331Q1493 1328 1452 1321T1379 1295T1348 1235V113Q1348 94 1350 82T1354 40Q1357 -1 1333 -15T1285 -30Q1249
-30 1231 -8L374 1142H357V185Q357 142 388 123T461 98T533 88Q554 86 561 80T569 51Q569 40 561 20T535 0H94Z" />
<glyph unicode="O" glyph-name="O" horiz-adv-x="1553" d="M774 -29Q613 -29 487 29T274 189T140 427T94 716Q94 921 176 1087T413 1351T782 1449Q997 1449 1148 1351T1379 1087T1459 716Q1459 562 1413 427T1278 190T1062 29T774 -29ZM778 65Q936 65 1024 143T1148
367T1184 714Q1184 915 1147 1059T1021 1279T773 1356Q614 1356 526 1280T403 1059T367 714Q367 513 404 368T530 144T778 65Z" />
<glyph unicode="P" glyph-name="P" horiz-adv-x="1284" d="M142 0Q125 0 117 20T108 51Q108 84 141 88Q189 92 235 105T282 152L283 1234Q283 1277 259 1296T199 1321T133 1331Q112 1333 105 1339T97 1368Q97 1379 105 1399T131 1419H367Q468 1419 548 1425T728
1431Q854 1431 966 1391T1148 1258T1218 1010Q1218 876 1153 774T968 613T689 555H513V185Q513 142 549 123T634 97T721 88Q742 86 749 80T757 51Q757 40 749 20T723 0H142ZM513 643H673Q706 643 754 659T851 715T931 822T963 989Q963 1127 918 1203T801 1310T646
1340H514L513 643Z" />
<glyph unicode="Q" glyph-name="Q" horiz-adv-x="1553" d="M939 -11Q952 -84 993 -155T1124 -274T1369 -320V-393Q1348 -402 1300 -413T1181 -425Q1107 -425 1026 -411T871 -356T742 -235T663 -21Q482 5 355 109T161 371T94 716Q94 921 176 1087T413 1351T782
1449Q997 1449 1148 1351T1379 1087T1459 716Q1459 539 1398 388T1220 131T939 -11ZM367 714Q367 513 404 368T530 144T778 65Q936 65 1024 143T1148 367T1184 714Q1184 915 1147 1059T1021 1279T773 1356Q614 1356 526 1280T403 1059T367 714Z" />
<glyph unicode="R" glyph-name="R" horiz-adv-x="1474" d="M133 0Q115 0 107 20T99 51Q99 84 132 88Q180 92 227 105T275 152L276 1234Q276 1277 253 1296T197 1321T134 1331Q113 1333 106 1339T98 1368Q98 1379 106 1399T132 1419Q192 1419 235 1419T319 1420Q399
1420 453 1422T561 1427T694 1428Q843 1427 960 1390T1144 1271T1212 1050Q1212 889 1126 794T882 657Q981 648 1037 603T1127 491T1188 350T1259 206Q1293 141 1332 117T1408 89Q1444 85 1444 46Q1444 35 1436 18T1410 0H1130Q1082 0 1050 45T991 161T939 312T877
463T792 580T669 625H502V185Q502 142 529 123T597 97T673 88Q694 86 701 80T709 51Q709 40 701 20T675 0H133ZM503 711H666Q749 711 818 737T930 831T972 1019Q972 1137 931 1205T816 1303T647 1332H503V711Z" />
<glyph unicode="S" glyph-name="S" horiz-adv-x="1183" d="M642 -30Q525 -30 459 -1T359 44Q330 58 313 69T280 80Q263 80 248 61Q229 39 211 30T176 20Q156 20 144 33T133 68Q134 90 134 109T135 152Q135 250 125 334T114 463Q114 492 130 505T165 518Q208 518
219 476Q225 450 239 404T293 278Q348 165 444 112T629 59Q689 59 745 78T837 148T873 289Q873 366 825 426T702 533T545 623Q453 670 366 727T220 865T159 1066Q157 1167 194 1239T295 1357T436 1426T590 1449Q672 1449 726 1436T813 1411T862 1398Q886 1398 895
1407T919 1425Q930 1432 946 1432Q966 1432 985 1421T1004 1394Q1004 1305 1017 1220T1030 1084Q1030 1053 1013 1041T976 1028Q960 1028 947 1035T930 1051Q915 1139 873 1211T763 1325T607 1368Q505 1368 437 1318T368 1140Q368 1072 416 1017T538 913T692 820Q759
782 830 739T961 644T1059 525T1097 373Q1097 243 1036 153T871 17T642 -30Z" />
<glyph unicode="T" glyph-name="T" horiz-adv-x="1292" d="M328 0Q310 0 302 20T294 51Q294 84 327 88Q374 91 421 98T500 125T532 182L533 1320H279Q237 1320 209 1280T164 1184T139 1075T129 999Q127 980 116 973T89 966Q77 966 57 974T38 1000Q40 1049 43 1119T51
1258T61 1373T72 1419H1221Q1227 1419 1232 1373T1242 1259T1250 1120T1255 1000Q1255 983 1235 975T1204 966Q1188 966 1177 973T1163 999Q1161 1023 1153 1075T1129 1183T1085 1280T1014 1320H764L763 185Q763 142 796 123T877 97T965 88Q986 86 993 80T1001
51Q1001 40 993 20T967 0H328Z" />
<glyph unicode="U" glyph-name="U" horiz-adv-x="1579" d="M1324 1230L1322 516Q1321 249 1184 110T804 -29Q530 -29 390 117T249 522L250 1234Q250 1277 228 1296T172 1322T108 1331Q87 1333 80 1339T72 1368Q72 1379 80 1399T106 1419H638Q655 1419 663 1399T672
1368Q672 1334 639 1331Q587 1327 536 1314T485 1267L484 524Q484 286 564 176T808 65Q963 65 1050 123T1173 283T1209 514V1244Q1209 1278 1177 1295T1102 1320T1033 1331Q1012 1333 1005 1339T997 1368Q997 1379 1005 1399T1031 1419H1496Q1514 1419 1522 1399T1530
1368Q1530 1332 1497 1331Q1420 1327 1372 1303T1324 1230Z" />
<glyph unicode="V" glyph-name="V" horiz-adv-x="1402" d="M665 -18L158 1254Q142 1298 113 1312T53 1328T-3 1331Q-24 1333 -31 1339T-39 1368Q-39 1379 -30 1399T-5 1419H544Q562 1419 570 1399T578 1368Q578 1335 545 1331Q485 1328 445 1326T404 1300Q404
1295 407 1287L780 254L1129 1257Q1131 1265 1131 1268Q1131 1298 1083 1312T971 1331Q938 1335 938 1368Q938 1379 946 1399T972 1419H1428Q1444 1419 1453 1399T1462 1368Q1462 1346 1455 1340T1426 1331Q1395 1329 1364 1327T1307 1310T1264 1254L788 -18H665Z"
/>
<glyph unicode="W" glyph-name="W" horiz-adv-x="2056" d="M572 -18L179 1245Q162 1289 137 1305T84 1325T26 1331Q5 1333 -2 1339T-10 1368Q-10 1379 -1 1399T24 1419H565Q582 1419 590 1399T599 1368Q599 1335 566 1331Q499 1328 454 1323T408 1291Q408 1286
411 1276L694 311L1029 1397H1149L1510 313L1783 1277Q1785 1282 1785 1289Q1785 1318 1733 1323T1608 1331Q1575 1335 1575 1368Q1575 1379 1583 1399T1609 1419H2061Q2078 1419 2086 1399T2095 1368Q2095 1346 2088 1340T2059 1331Q2009 1328 1965 1318T1899
1240L1512 -18H1389L1024 1035L695 -18H572Z" />
<glyph unicode="X" glyph-name="X" horiz-adv-x="1493" d="M51 0Q35 0 26 20T17 51Q17 74 24 80T53 88Q78 91 114 94T186 112T250 165L613 681L239 1254Q201 1313 152 1320T66 1331Q45 1333 38 1339T30 1368Q30 1379 38 1399T64 1419H621Q638 1419 646 1399T655
1368Q655 1335 622 1331Q563 1328 521 1324T478 1299Q478 1293 483 1285L756 861L1018 1257Q1025 1267 1025 1278Q1025 1300 991 1314T900 1331Q867 1335 867 1368Q867 1379 875 1399T901 1419H1356Q1372 1419 1381 1399T1390 1368Q1390 1346 1383 1340T1354 1331Q1329
1329 1294 1326T1222 1307T1157 1254L805 770L1206 165Q1232 125 1264 111T1329 94T1385 88Q1406 86 1413 80T1421 51Q1421 40 1413 20T1387 0H802Q785 0 777 20T768 51Q768 84 801 88Q863 90 913 94T963 119Q963 126 954 139L666 600L390 162Q381 149 381 139Q381
94 495 88Q528 84 528 51Q528 40 520 20T494 0H51Z" />
<glyph unicode="Y" glyph-name="Y" horiz-adv-x="1305" d="M373 0Q356 0 348 20T339 51Q339 83 382 88Q416 91 454 92T520 105T547 152V532L146 1254Q112 1316 72 1326T-6 1341Q-27 1343 -34 1349T-42 1378Q-42 1389 -34 1404T-8 1419H548Q565 1419 573 1404T582
1378Q582 1345 549 1341Q483 1338 438 1332T392 1302Q392 1296 399 1282L716 653L1043 1285Q1048 1294 1048 1302Q1046 1323 1002 1330T896 1341Q863 1345 863 1378Q863 1389 871 1404T897 1419H1312Q1329 1419 1337 1404T1346 1378Q1346 1356 1339 1350T1310 1341Q1273
1337 1233 1326T1159 1254L779 561V165Q779 122 808 108T877 92T951 88Q972 86 984 80T997 51Q997 40 988 20T963 0H373Z" />
<glyph unicode="Z" glyph-name="Z" horiz-adv-x="1266" d="M91 0Q65 0 65 25V39Q65 49 72 65T107 123L815 1202L908 1336H411Q378 1336 344 1297T279 1203T229 1096T204 1019Q200 986 167 986Q156 986 143 994T131 1020L160 1378Q177 1418 207 1419H1171Q1197
1419 1197 1395V1370Q1197 1357 1187 1340L466 242L358 83H859Q892 83 934 125T1016 229T1084 346T1117 430Q1121 463 1154 463Q1166 463 1184 455T1201 429L1151 41Q1133 1 1104 0H91Z" />
<glyph unicode="[" glyph-name="bracketleft" horiz-adv-x="796" d="M174 -327V1535L638 1536V1435H386V-227H638V-328L174 -327Z" />
<glyph unicode="\" glyph-name="backslash" horiz-adv-x="961" d="M680 -540H541L45 1500H186L680 -540Z" />
<glyph unicode="]" glyph-name="bracketright" horiz-adv-x="796" d="M157 -328V-227H410V1435H157V1536L619 1535V-327L157 -328Z" />
<glyph unicode="^" glyph-name="asciicircum" horiz-adv-x="1340" d="M135 300L610 1428H729L1206 300H1048L669 1244L298 300H135Z" />
<glyph unicode="_" glyph-name="underscore" horiz-adv-x="1340" d="M-25 -276L254 -190L1365 -210L1086 -296L-25 -276Z" />
<glyph unicode="`" glyph-name="grave" horiz-adv-x="1024" d="M729 1105Q576 1238 473 1300T345 1385Q329 1400 318 1421T307 1468Q307 1507 337 1538Q369 1571 411 1571Q436 1571 459 1561T498 1535Q521 1512 592 1409T785 1163L729 1105Z" />
<glyph unicode="a" glyph-name="a" horiz-adv-x="1067" d="M97 243Q97 342 151 406T293 509T485 568T689 599V755Q689 818 646 870T494 923Q450 923 428 918T394 906L267 659Q207 659 162 687T116 780Q116 845 171 898T323 982T538 1014Q688 1014 767 968T875
850T904 698V200Q904 161 915 129T942 96Q967 96 1000 105Q1018 109 1028 92T1038 60Q1038 48 1032 43Q1008 25 951 3T820 -20Q761 -20 734 2T707 101V120Q642 50 564 14T380 -22Q320 -22 254 4T143 88T97 243ZM330 249Q330 188 367 142T471 96Q550 96 605 123T689
180V526Q588 511 507 486T378 407T330 249Z" />
<glyph unicode="b" glyph-name="b" horiz-adv-x="1180" d="M189 -32Q168 -32 161 -20T154 14V1338Q154 1400 126 1422T60 1449T-3 1461Q-14 1466 -20 1474T-27 1501Q-27 1513 -21 1529T-3 1546Q58 1550 124 1552T246 1556T334 1557Q344 1557 353 1547T363 1515V1087L354
875Q404 939 490 976T654 1013Q810 1013 905 939T1044 746T1088 492Q1088 358 1038 239T886 45T625 -30Q534 -30 449 -10T312 68Q277 26 247 -3T189 -32ZM577 67Q683 67 742 122T826 274T850 492Q850 611 826 705T742 854T576 909Q521 909 458 878T363 802V169Q388
122 444 95T577 67Z" />
<glyph unicode="c" glyph-name="c" horiz-adv-x="960" d="M537 -29Q303 -29 186 114T69 498Q69 660 133 775T309 952T560 1014Q658 1014 741 985T871 874Q891 839 899 810T908 757Q908 705 880 679T824 652Q793 652 772 662T738 702L650 900Q649 901 630 910T571
920Q455 920 382 824T309 490Q309 338 352 249T456 120T572 81Q649 81 713 113T812 208Q815 214 819 221T832 224L881 201Q892 196 892 188Q892 185 890 181T886 173Q841 85 752 28T537 -29Z" />
<glyph unicode="d" glyph-name="d" horiz-adv-x="1210" d="M529 -29Q370 -29 274 45T136 238T93 492Q93 627 142 746T294 939T558 1014Q640 1014 709 998T829 937L819 1104V1337Q819 1397 785 1420T706 1450T628 1462Q618 1467 611 1475T604 1502Q604 1514 610
1530T628 1547Q700 1551 774 1553T908 1555T999 1556Q1008 1556 1017 1548T1029 1516V175Q1029 111 1067 97T1141 78Q1162 76 1169 70T1177 41Q1177 30 1169 15T1143 0H897Q840 0 830 25T821 99Q769 40 686 6T529 -29ZM607 75Q662 75 725 106T819 182V812Q766 917
606 917Q496 917 436 862T353 711T330 492Q330 374 354 280T438 131T607 75Z" />
<glyph unicode="e" glyph-name="e" horiz-adv-x="1024" d="M553 -29Q310 -29 190 110T69 500Q69 667 134 781T307 955T540 1014Q737 1014 827 920T945 670Q951 632 953 590T956 504H307Q308 346 350 254T457 121T588 81Q666 81 729 113T828 208Q831 214 834 220T848
224L897 201Q908 197 908 189Q908 185 906 181T902 173Q856 84 771 28T553 -29ZM310 591L713 596Q713 770 664 845T539 920Q471 920 422 895T345 800T310 591Z" />
<glyph unicode="f" glyph-name="f" horiz-adv-x="692" d="M101 0Q84 0 76 15T67 41Q67 74 100 78Q137 82 172 95T207 140V903H80Q68 904 62 915T56 939Q56 972 80 983L206 994L207 1130Q208 1257 255 1357T386 1514T577 1571Q676 1571 726 1531T776 1436Q776 1376
736 1339T666 1303Q657 1303 655 1306L542 1470Q531 1470 511 1465T469 1432T432 1341T417 1161V994H629Q641 993 647 983T653 960Q653 941 647 925T629 903H417V173Q417 131 446 112T516 87T588 78Q609 76 616 70T624 41Q624 30 616 15T590 0H101Z" />
<glyph unicode="g" glyph-name="g" horiz-adv-x="1069" d="M512 -479Q381 -479 278 -441T114 -335T54 -177Q54 -87 106 -40T224 27Q162 54 137 98T112 202Q112 267 159 325T268 402Q190 448 156 526T122 682Q122 822 221 918T503 1014Q592 1014 657 990T770 922Q797
964 840 992T935 1021Q1000 1021 1038 978T1077 865Q1077 814 1054 786T998 757L889 924Q852 917 813 873Q870 792 870 682Q870 590 827 514T699 391T493 345Q441 345 401 350T332 367Q298 353 283 327T267 271Q267 220 307 195T410 170H646Q805 170 893 108T981
-127Q981 -212 929 -293T773 -426T512 -479ZM497 440Q563 440 599 473T649 562T663 684Q663 784 628 853T494 922Q395 922 363 853T330 682Q330 617 344 562T394 473T497 440ZM534 -382Q593 -382 661 -363T777 -297T826 -168Q826 -92 770 -58T626 -23H445Q391 -23
355 -18T296 -4Q280 -26 266 -60T251 -151Q251 -234 293 -284T400 -358T534 -382Z" />
<glyph unicode="h" glyph-name="h" horiz-adv-x="1230" d="M74 0Q57 0 49 15T40 41Q40 74 73 78Q110 82 149 95T189 140V1337Q189 1399 163 1422T102 1449T40 1461Q30 1466 23 1474T16 1501Q16 1513 22 1529T40 1546Q148 1553 235 1554T369 1556Q377 1556 386
1548T399 1516V1083L390 845Q408 863 465 904T604 979T781 1014Q848 1014 905 995T997 922T1032 760V173Q1032 126 1055 108T1111 86T1169 78Q1185 76 1193 70T1202 41Q1202 30 1194 15T1168 0H718Q701 0 693 15T684 41Q684 57 690 66T715 78Q747 80 784 96T821
140V781Q821 799 814 824T780 868T694 888Q633 888 576 867T472 817T399 763V173Q399 131 417 112T461 87T512 78Q533 76 540 70T548 41Q548 30 539 15T514 0H74Z" />
<glyph unicode="i" glyph-name="i" horiz-adv-x="623" d="M104 0Q87 0 79 15T70 41Q70 74 103 78Q140 82 179 95T218 140L219 778Q219 840 193 863T132 890T70 902Q60 907 53 915T46 942Q46 954 52 970T70 986Q178 993 266 995T400 997Q408 997 418 989T430 957V173Q430
131 450 112T498 87T552 78Q573 76 580 70T588 41Q588 30 579 15T554 0H104ZM321 1172Q261 1172 224 1214T187 1320Q187 1382 224 1424T321 1467Q380 1467 417 1425T455 1320Q455 1257 418 1215T321 1172Z" />
<glyph unicode="j" glyph-name="j" horiz-adv-x="619" d="M114 -449Q12 -449 -31 -401T-74 -299Q-74 -243 -35 -213T37 -183Q70 -183 85 -220T150 -347Q198 -345 215 -266T232 -24L233 778Q233 840 205 863T139 890T74 902Q63 907 57 915T50 942Q50 954 56 970T74
986Q181 993 274 995T413 997Q421 997 431 989T443 957L442 30Q442 -98 414 -207T315 -382T114 -449ZM313 1172Q253 1172 216 1214T179 1320Q179 1382 216 1424T313 1467Q372 1467 409 1425T447 1320Q447 1257 410 1215T313 1172Z" />
<glyph unicode="k" glyph-name="k" horiz-adv-x="1134" d="M68 0Q50 0 42 15T34 41Q34 74 67 78Q103 82 141 95T179 140V1337Q179 1399 153 1422T92 1449T30 1461Q19 1466 13 1474T6 1501Q6 1513 12 1529T30 1546Q137 1553 224 1554T358 1556Q367 1556 376 1548T388
1516V472L751 842Q765 852 765 862Q765 883 720 893T635 906Q615 908 610 920T604 949Q604 960 612 977T638 994H1054Q1072 994 1080 977T1088 949Q1088 931 1080 919T1055 906Q1007 906 957 879T868 822L688 634Q717 579 766 493T874 313T988 148Q1011 117 1037
98T1091 78Q1108 78 1116 71T1124 41Q1124 30 1116 15T1090 0H801Q774 42 739 104T665 236T593 372T532 486L388 342V173Q388 110 424 96T497 78Q518 76 525 70T533 41Q533 30 525 15T499 0H68Z" />
<glyph unicode="l" glyph-name="l" horiz-adv-x="608" d="M75 0Q58 0 48 12T38 41Q38 74 71 78Q108 82 148 95T188 140L189 1337Q189 1399 160 1422T92 1449T26 1461Q16 1466 9 1474T2 1501Q2 1513 8 1529T26 1546Q133 1553 226 1554T366 1556Q374 1556 384 1548T396
1516V173Q396 131 416 112T464 87T518 78Q554 74 554 43Q554 27 544 14T516 0H75Z" />
<glyph unicode="m" glyph-name="m" horiz-adv-x="1856" d="M106 0Q89 0 81 15T72 41Q72 74 105 78Q142 82 180 95T219 140V778Q219 840 193 863T131 890T70 902Q60 907 53 915T46 942Q46 954 52 970T70 987Q175 993 260 995T390 997Q398 997 408 989T420 957V845Q438
863 490 904T621 979T797 1014Q845 1014 894 1001T983 953T1038 852Q1061 874 1114 912T1245 982T1421 1014Q1489 1014 1545 995T1635 920T1669 757V173Q1669 126 1692 108T1747 85T1804 78Q1820 76 1828 70T1837 41Q1837 30 1829 15T1803 0H1355Q1338 0 1330 15T1321
41Q1321 57 1327 66T1352 78Q1384 80 1420 96T1456 140V779Q1456 798 1449 824T1415 870T1329 890Q1238 890 1166 849T1049 769Q1049 761 1049 753T1050 736V173Q1050 126 1070 108T1119 85T1173 78Q1190 76 1198 70T1206 41Q1206 30 1198 15T1172 0H736Q719 0
711 15T702 41Q702 57 708 66T733 78Q765 80 802 96T839 140V779Q839 798 832 824T797 870T710 890Q616 890 544 847T430 765V173Q430 110 466 96T540 78Q561 76 568 70T576 41Q576 30 567 15T542 0H106Z" />
<glyph unicode="n" glyph-name="n" horiz-adv-x="1248" d="M103 0Q86 0 78 15T69 41Q69 74 102 78Q139 83 178 96T217 142V778Q217 840 190 863T128 890T68 902Q57 907 51 915T44 942Q44 954 50 970T68 987Q172 993 257 995T387 997Q395 997 404 989T417 957V845Q434
863 490 904T629 979T804 1014Q873 1014 931 995T1024 920T1059 757V175Q1059 127 1082 108T1137 86T1194 78Q1211 76 1219 70T1227 41Q1227 30 1219 15T1193 0H746Q728 0 720 15T712 41Q712 57 717 66T743 78Q774 81 810 97T847 142V779Q847 798 840 824T806 870T720
890Q659 890 602 869T499 819T427 765V175Q427 111 463 97T537 78Q558 76 565 70T573 41Q573 30 565 15T539 0H103Z" />
<glyph unicode="o" glyph-name="o" horiz-adv-x="1141" d="M77 492Q77 641 137 759T309 946T576 1014Q730 1014 839 946T1006 760T1064 492Q1064 343 1005 225T834 39T569 -29Q414 -29 304 39T136 225T77 492ZM317 492Q317 291 370 179T572 66Q719 66 770 178T822
492Q822 693 769 805T568 918Q420 918 369 805T317 492Z" />
<glyph unicode="p" glyph-name="p" horiz-adv-x="1203" d="M60 -426Q44 -426 35 -411T26 -385Q26 -362 33 -356T62 -348Q87 -345 115 -339T163 -314T184 -251V778Q184 840 157 863T95 890T35 902Q25 907 18 915T11 942Q11 954 17 970T35 987Q139 993 228 995T363
997Q371 997 380 989T393 957V891Q445 948 525 981T679 1014Q838 1014 933 940T1071 747T1113 492Q1113 358 1064 239T913 45T650 -30Q573 -30 504 -16T384 37L394 -40V-284Q394 -306 421 -319T490 -338T570 -348Q603 -352 603 -385Q603 -396 595 -411T569 -426H60ZM601
67Q711 67 770 123T853 275T876 492Q876 610 853 704T769 854T601 909Q548 909 488 881T394 809V159Q450 67 601 67Z" />
<glyph unicode="q" glyph-name="q" horiz-adv-x="1180" d="M658 -444Q640 -444 632 -429T624 -403Q624 -370 657 -366Q712 -362 765 -349T819 -302V-24L828 106Q777 43 693 7T531 -30Q373 -30 277 44T137 237T94 491Q94 626 143 745T295 939T559 1014Q657 1014
734 991T854 917Q878 933 901 951T948 984Q959 990 970 996T994 1002Q1029 1002 1029 970V-269Q1029 -312 1048 -331T1096 -357T1151 -366Q1172 -368 1179 -374T1187 -403Q1187 -414 1179 -429T1153 -444H658ZM608 75Q662 75 724 105T819 179V814Q765 916 607 916Q497
916 437 860T354 708T331 491Q331 373 355 279T439 130T608 75Z" />
<glyph unicode="r" glyph-name="r" horiz-adv-x="881" d="M116 0Q99 0 91 15T82 41Q82 74 115 78Q155 82 193 95T231 140V778Q231 840 205 863T144 891T82 903Q71 908 65 916T58 943Q58 955 64 970T82 986Q190 992 272 996T401 1002Q409 1002 419 994T431 962V806Q461
857 500 905T591 983T706 1014Q801 1014 830 967T860 865Q860 825 836 797T781 755T728 740L623 873Q573 873 521 819T441 697V173Q441 131 469 112T538 87T615 78Q636 76 643 70T651 41Q651 30 643 15T617 0H116Z" />
<glyph unicode="s" glyph-name="s" horiz-adv-x="916" d="M454 -28Q372 -28 324 -12T247 14Q210 26 193 26Q169 26 161 17T127 7Q85 7 85 40Q85 78 82 132T75 238T72 318Q72 341 83 351T109 361Q138 361 145 339Q151 317 161 285T206 185Q242 119 307 88T441 57Q527
57 585 92T643 195Q643 253 605 290T506 356T372 419Q306 450 246 490T149 591T111 740Q111 829 164 890T297 982T458 1014Q553 1014 600 993T672 972Q694 972 697 983T707 1005Q719 1026 743 1026Q757 1026 768 1017T780 991Q780 982 779 944T777 861Q777 817
780 787T783 741Q783 718 773 710T750 701Q723 701 718 718Q701 758 675 807T599 892T463 928Q387 928 343 895T299 799Q299 731 367 686T535 596Q615 560 686 519T803 421T848 282Q848 141 745 57T454 -28Z" />
<glyph unicode="t" glyph-name="t" horiz-adv-x="727" d="M437 -30Q303 -30 237 28T171 223V903H57Q45 904 39 915T33 939Q33 981 60 982Q128 991 171 1019T243 1106T295 1268Q300 1294 344 1294Q368 1294 375 1289T382 1268V994H663Q675 993 681 983T687 960Q687
937 678 920T659 903H382V299Q382 172 415 132T489 92Q552 92 593 105T672 143Q682 149 693 135T709 103T707 79Q685 59 641 34T543 -11T437 -30Z" />
<glyph unicode="u" glyph-name="u" horiz-adv-x="1217" d="M496 -27Q420 -27 353 -5T243 82T201 270V819Q201 862 182 881T136 907T84 916Q63 918 56 924T48 953Q48 964 57 979T82 994H376Q413 994 413 958V280Q413 247 421 209T456 143T539 116Q637 116 699 143T810
223V819Q810 862 786 881T728 907T660 916Q639 918 632 924T624 953Q624 964 632 979T658 994H983Q1020 994 1020 958V212Q1020 140 1032 117T1062 94Q1086 94 1110 102Q1127 107 1138 89T1150 53Q1150 41 1144 37Q1132 25 1078 0T934 -25Q875 -25 847 17T813 134Q793
99 744 62T629 -1T496 -27Z" />
<glyph unicode="v" glyph-name="v" horiz-adv-x="1044" d="M480 -9L119 829Q90 879 63 895T-1 916Q-22 918 -29 924T-37 953Q-37 964 -28 979T-3 994H433Q450 994 458 979T467 953Q467 920 434 916Q395 911 361 903T326 864L591 251L836 864Q836 885 815 895T764
909T710 916Q677 920 677 953Q677 964 685 979T711 994H1052Q1068 994 1077 979T1086 953Q1086 931 1079 925T1050 916Q1013 912 985 896T928 829L575 -9H480Z" />
<glyph unicode="w" glyph-name="w" horiz-adv-x="1558" d="M420 -9L110 829Q82 879 54 895T-12 916Q-33 918 -40 924T-48 953Q-48 964 -40 979T-14 994H421Q438 994 446 979T455 953Q455 919 422 916Q383 912 349 904T315 865L528 281L752 978H872L1127 286L1328
864Q1328 895 1284 903T1199 916Q1166 919 1166 953Q1166 964 1174 979T1200 994H1534Q1551 994 1559 979T1568 953Q1568 931 1561 925T1532 916Q1496 912 1472 896T1419 829L1119 -9H1022L758 702L520 -9H420Z" />
<glyph unicode="x" glyph-name="x" horiz-adv-x="1066" d="M51 0Q33 0 25 15T17 41Q17 78 50 78Q101 78 134 108T194 166L430 478L188 829Q151 874 122 892T55 916Q39 918 31 924T22 953Q22 964 30 979T56 994H472Q490 994 498 979T506 953Q506 937 501 928T475
916Q451 913 429 911T407 892Q407 882 420 861L574 594L740 848Q751 863 751 873Q751 894 721 903T664 916Q644 918 639 927T633 953Q633 964 641 979T667 994H993Q1011 994 1019 979T1027 953Q1027 916 994 916Q943 916 909 889T847 829L638 530L895 165Q931 122
952 103T1012 78Q1028 76 1036 70T1045 41Q1045 30 1037 15T1011 0H612Q595 0 587 15T578 41Q578 57 583 66T609 78Q632 80 654 85T677 107Q677 117 665 132L488 404L302 146Q293 132 293 123Q293 99 324 90T381 78Q401 76 406 67T412 41Q412 30 404 15T378 0H51Z"
/>
<glyph unicode="y" glyph-name="y" horiz-adv-x="1035" d="M251 -449Q180 -449 125 -411T69 -317Q69 -251 100 -223T160 -195L281 -318Q328 -312 376 -253T489 -30L137 829Q108 879 80 895T15 916Q-6 918 -13 924T-21 953Q-21 964 -13 979T12 994H454Q471 994
479 979T488 953Q488 920 455 916Q419 912 384 904T349 864L590 215L808 864Q808 895 769 903T693 916Q660 920 660 953Q660 964 668 979T694 994H1032Q1049 994 1057 979T1066 953Q1066 931 1059 925T1030 916Q994 912 971 896T918 829L620 22Q593 -49 560 -130T484
-284T383 -403T251 -449Z" />
<glyph unicode="z" glyph-name="z" horiz-adv-x="940" d="M74 0Q60 0 48 11T35 44Q35 62 47 82T79 133L559 824L629 911H309Q273 911 245 880T195 805T162 721T147 662Q145 642 132 636T103 629Q91 629 81 637T72 663L92 953Q92 971 108 982T139 994H842Q857 994
868 982T879 954Q879 934 869 915T849 881L372 192L284 83L630 85Q664 85 694 117T748 194T786 280T803 340Q806 373 847 373Q859 373 870 365T879 339L859 41Q859 22 843 12T812 0H74Z" />
<glyph unicode="{" glyph-name="braceleft" horiz-adv-x="908" d="M696 -328Q622 -328 542 -300T407 -206T352 -29V358Q352 413 319 456T236 524T133 550H72V658H133Q185 658 235 683T319 752T352 850V1237Q352 1348 407 1413T542 1507T696 1536H836V1445H723Q669
1445 637 1419T591 1353T577 1276V883Q577 802 529 742T405 648T241 611V601Q324 594 401 558T527 463T577 325V-68Q577 -106 591 -145T637 -210T723 -237H836V-328H696Z" />
<glyph unicode="|" glyph-name="bar" horiz-adv-x="773" d="M314 -367V1535H460V-367H314Z" />
<glyph unicode="}" glyph-name="braceright" horiz-adv-x="908" d="M212 -328H72V-237H185Q239 -237 271 -211T317 -145T331 -68V325Q331 403 380 462T506 558T667 601V611Q580 614 503 648T379 742T331 883V1276Q331 1314 317 1353T271 1418T185 1445H72V1536H212Q286
1536 366 1508T501 1414T556 1237V850Q556 796 589 753T672 684T775 658H836V550H775Q723 550 673 525T589 456T556 358V-29Q556 -140 501 -205T366 -299T212 -328Z" />
<glyph unicode="~" glyph-name="asciitilde" horiz-adv-x="1340" d="M867 425Q782 425 721 459T589 524Q551 543 519 551T459 560Q399 560 362 532T301 472T257 432Q253 431 246 431Q231 431 219 444T207 473Q207 484 213 493Q236 531 259 568T312 636Q386 713
483 713Q565 713 624 679T751 614Q790 595 822 587T881 578Q941 578 978 606T1039 666T1083 706Q1087 707 1094 707Q1110 707 1121 694T1133 665Q1133 657 1127 644Q1096 580 1038 512Q1008 476 961 451T867 425Z" />
<glyph unicode="&#xa1;" glyph-name="exclamdown" horiz-adv-x="695" d="M335 1449Q398 1449 442 1403T486 1297Q486 1236 442 1194T335 1152Q271 1152 228 1194T185 1297Q185 1357 228 1403T335 1449ZM292 976H378Q392 688 417 501T462 207T483 58Q483 -9 440
-54T335 -100Q272 -100 230 -55T187 58Q187 100 204 206T245 500T292 976Z" />
<glyph unicode="&#xa2;" glyph-name="cent" horiz-adv-x="1156" d="M540 -228V-25Q338 -4 239 135T139 500Q139 648 191 754T334 924T541 1007V1225H648V1014Q741 1012 819 983T941 875Q961 840 969 811T978 756Q978 705 951 679T895 653Q865 653 845 662T810
703L720 900Q720 900 702 910T639 920Q562 920 504 881T412 747T378 490Q378 338 420 249T522 120T636 81Q714 81 776 114T876 208Q879 214 882 220T896 224L945 201Q956 197 956 189Q956 185 954 181T950 173Q910 91 833 37T648 -27V-228H540Z" />
<glyph unicode="&#xa3;" glyph-name="sterling" horiz-adv-x="1300" d="M819 -16Q712 -16 634 3T499 49T402 95T328 117H316Q305 101 285 73T233 23T152 0Q122 0 88 17T53 92Q53 130 81 155T148 197T225 222T280 238Q299 275 306 343T313 477V681H126Q114 682
108 694T102 719Q102 762 126 772H313V871Q313 1040 359 1170T515 1374T813 1448Q903 1448 968 1422T1074 1356T1135 1278T1155 1213Q1155 1181 1132 1150T1077 1099T1017 1078Q984 1078 968 1105L815 1356H779Q702 1356 649 1311T568 1162T540 882V772H830Q842
771 848 761T854 738Q854 719 848 703T830 681H541V603Q541 455 505 349T421 194Q486 173 529 151T620 111T745 92Q874 87 941 138T1020 258L959 418Q959 433 991 459T1072 485Q1143 485 1185 426T1228 287Q1228 191 1171 123T1021 20T819 -16Z" />
<glyph unicode="&#xa4;" glyph-name="currency" horiz-adv-x="1221" d="M242 97L117 213L278 377Q217 466 217 575Q217 683 278 772L117 936L242 1053L405 887Q497 939 605 939Q659 939 708 926T800 889L962 1053L1087 936L927 773Q987 683 987 575Q987 520 971
470T926 377L1087 213L962 97L800 262Q757 238 707 225T601 211Q494 211 404 261L242 97ZM603 364Q680 364 737 416T794 575Q794 682 736 734T600 786Q523 786 466 734T409 575Q409 469 467 417T603 364Z" />
<glyph unicode="&#xa5;" glyph-name="yen" horiz-adv-x="1304" d="M394 0Q377 0 369 12T360 35Q360 68 395 72Q429 74 468 79T536 100T564 152V302H175Q163 303 157 323T151 356Q151 399 175 409H564V633H176Q164 633 158 654T152 687Q152 729 176 740H539L157
1254Q124 1316 78 1330T-6 1349Q-27 1351 -34 1357T-42 1386Q-42 1397 -34 1408T-8 1419H523Q540 1419 548 1408T557 1386Q557 1353 524 1349Q460 1346 421 1337T382 1304Q382 1297 387 1287L708 796L1044 1287Q1049 1297 1049 1304Q1049 1327 1010 1336T913 1349Q880
1353 880 1386Q880 1397 888 1408T914 1419H1312Q1329 1419 1337 1408T1346 1386Q1346 1364 1339 1358T1310 1349Q1273 1345 1233 1331T1159 1254L789 740H1139Q1151 739 1157 729T1163 706Q1163 687 1156 662T1139 633H767V409H1138Q1150 408 1156 398T1162 375Q1162
356 1155 331T1138 302H767V165Q767 122 794 104T861 80T933 72Q954 70 962 64T971 35Q971 24 962 12T937 0H394Z" />
<glyph unicode="&#xa6;" glyph-name="brokenbar" horiz-adv-x="773" d="M314 765V1535H460V765H314ZM314 -369V401H460V-369H314Z" />
<glyph unicode="&#xa7;" glyph-name="section" horiz-adv-x="1048" d="M477 -449Q393 -449 337 -417T252 -338T224 -250Q224 -196 264 -163T345 -129L490 -370Q568 -366 615 -304T662 -163Q662 -100 630 -55T540 33T405 136T235 286Q177 343 146 409T114 554Q114
645 160 736T291 901Q253 952 232 1004T211 1116Q211 1214 259 1288T393 1404T585 1446Q670 1446 729 1414T820 1335T851 1247Q851 1211 829 1188T775 1154T721 1143L584 1367Q503 1364 445 1301T386 1158Q386 1095 417 1051T506 964T642 862T813 711Q871 654 903
587T935 443Q935 351 889 260T757 95Q795 44 816 -8T838 -122Q838 -219 792 -292T664 -407T477 -449ZM699 162Q715 198 730 242T746 318Q746 397 701 465T616 575Q560 632 484 705T353 835Q337 799 322 754T307 679Q307 599 350 531T432 422Q470 383 518 337T615
245T699 162Z" />
<glyph unicode="&#xa8;" glyph-name="dieresis" horiz-adv-x="1024" d="M283 1346Q270 1393 285 1433T345 1486Q389 1498 419 1477T463 1408Q476 1360 461 1321T402 1268Q356 1255 326 1276T283 1346ZM539 1346Q526 1393 541 1433T601 1486Q645 1498 675 1477T719
1408Q732 1360 717 1321T657 1268Q612 1255 582 1276T539 1346Z" />
<glyph unicode="&#xa9;" glyph-name="copyright" horiz-adv-x="1929" d="M964 -281Q779 -281 617 -212T332 -19T140 266T70 613Q70 798 139 960T332 1246T617 1438T964 1508Q1149 1508 1311 1439T1597 1246T1789 961T1859 613Q1859 428 1790 266T1597 -19T1312
-211T964 -281ZM964 -201Q1131 -201 1276 -137T1533 39T1706 299T1769 613Q1769 780 1707 927T1533 1187T1277 1364T964 1428Q798 1428 652 1364T396 1187T223 927T160 613Q160 447 222 300T395 40T652 -137T964 -201ZM1003 122Q540 122 540 622Q540 789 602 896T772
1054T1012 1105Q1050 1105 1103 1096T1208 1059T1295 979Q1322 938 1333 904T1344 844Q1344 805 1325 784T1281 763Q1229 763 1207 792T1170 855Q1154 888 1147 921T1121 976Q1121 976 1096 994T1027 1013Q946 1013 877 981T766 862T723 612Q723 491 749 414T818
292T909 231T999 213Q1054 213 1108 228T1205 287T1265 414Q1266 420 1268 427T1279 435L1351 436Q1364 436 1365 428T1367 412Q1363 308 1310 244T1175 151T1003 122Z" />
<glyph unicode="&#xaa;" glyph-name="ordfeminine" horiz-adv-x="1044" d="M394 614Q346 614 292 639T200 715T162 842Q162 919 209 972T330 1059T486 1108T639 1124V1241Q639 1373 484 1373Q447 1373 422 1362T386 1341L288 1177Q239 1177 209 1200T178 1258Q178
1306 211 1342T296 1401T406 1436T512 1448Q662 1448 740 1390T819 1229V798Q819 758 829 732T864 706Q887 706 910 712Q924 717 932 707T940 681Q940 677 939 671T936 661Q925 652 870 633T736 614Q694 614 677 634T656 679T652 722Q602 670 532 642T394 614ZM473
717Q540 717 577 740T638 784L639 1056Q563 1056 498 1036T393 972T353 857Q353 812 378 765T473 717Z" />
<glyph unicode="&#xab;" glyph-name="guillemotleft" horiz-adv-x="1201" d="M485 939V842L379 645L578 338L534 161L210 446V512L485 939ZM988 939V842L869 645L1084 338L1036 161L700 446V512L988 939Z" />
<glyph unicode="&#xac;" glyph-name="logicalnot" horiz-adv-x="1340" d="M995 125V497H198V627H1142V125H995Z" />
<glyph unicode="&#xad;" glyph-name="uni00AD" horiz-adv-x="0" />
<glyph unicode="&#xae;" glyph-name="registered" horiz-adv-x="1929" d="M964 -281Q779 -281 617 -212T332 -19T140 266T70 613Q70 798 139 960T332 1246T617 1438T964 1508Q1149 1508 1311 1439T1597 1246T1789 961T1859 613Q1859 428 1790 266T1597 -19T1312
-211T964 -281ZM964 -201Q1131 -201 1276 -137T1533 39T1706 299T1769 613Q1769 780 1707 927T1533 1187T1277 1364T964 1428Q798 1428 652 1364T396 1187T223 927T160 613Q160 447 222 300T395 40T652 -137T964 -201ZM585 136Q574 136 569 148T563 167Q563 177
567 188T584 201Q616 203 644 212T673 243V981Q673 1023 642 1032T580 1044Q567 1046 562 1050T557 1069Q557 1089 579 1089H986Q1079 1089 1154 1067T1273 992T1318 847Q1318 744 1247 691T1071 608Q1139 602 1177 568T1239 483T1282 378T1330 278Q1352 235 1376
220T1426 201Q1459 197 1459 167Q1459 160 1454 148T1437 136H1294Q1240 136 1207 167T1155 247T1120 352T1087 456T1041 537T963 568H829V264Q829 222 867 213T941 201Q965 198 965 167Q965 160 960 148T943 136H585ZM829 645H931Q985 645 1038 657T1126 708T1161
827Q1161 907 1131 946T1050 999T936 1012H829V645Z" />
<glyph unicode="&#xaf;" glyph-name="overscore" horiz-adv-x="1340" d="M-5 1250V1392H582V1250H-5Z" />
<glyph unicode="&#xb0;" glyph-name="degree" horiz-adv-x="859" d="M154 1048Q125 1171 184 1264T367 1387Q490 1416 584 1358T707 1178Q736 1055 677 961T494 838Q371 809 277 867T154 1048ZM269 1072Q285 979 339 943T466 927Q538 947 572 1003T591 1154Q575
1247 520 1282T393 1297Q321 1277 287 1221T269 1072Z" />
<glyph unicode="&#xb1;" glyph-name="plusminus" horiz-adv-x="1340" d="M224 0V130H596V497H203V627H596V1038H746V627H1138V497H746V130H1116V0H224Z" />
<glyph unicode="&#xb2;" glyph-name="uni00B2" horiz-adv-x="1044" d="M145 756V783Q146 807 161 821Q287 902 398 1008T579 1231T649 1465Q649 1516 637 1564T592 1643T495 1674Q419 1674 389 1646T352 1598L312 1480Q304 1458 291 1439T248 1420Q214 1420 177
1440T139 1511Q139 1540 156 1576Q183 1637 279 1688T506 1739Q683 1739 776 1670T869 1466Q869 1388 829 1308T722 1152T571 1013T401 906H892L884 756H145Z" />
<glyph unicode="&#xb3;" glyph-name="uni00B3" horiz-adv-x="1044" d="M469 733Q390 733 314 758T189 833T139 954Q139 1014 176 1047T246 1081Q283 1081 306 1064T328 1025Q323 999 313 966T288 876Q292 871 309 852T363 816T461 799Q564 799 620 854T677 1017Q677
1111 640 1154T549 1208T442 1219H385Q372 1219 372 1257Q372 1297 385 1297H434Q476 1297 523 1316T605 1379T639 1492Q639 1526 627 1568T581 1642T481 1673Q428 1673 402 1654T357 1598Q348 1568 342 1539T328 1488Q310 1433 262 1433Q232 1433 199 1455T166
1521Q165 1530 167 1543Q173 1599 221 1643T344 1713T505 1739Q662 1739 755 1679T849 1504Q849 1433 812 1383T716 1303T596 1262Q678 1261 747 1239T859 1167T901 1034Q901 900 786 817T469 733Z" />
<glyph unicode="&#xb4;" glyph-name="acute" horiz-adv-x="1024" d="M329 1349L273 1407Q395 1549 466 1653T560 1779Q576 1794 599 1804T648 1815Q666 1815 685 1808T721 1782Q750 1751 750 1713Q750 1688 739 1667T713 1630Q690 1607 586 1545T329 1349Z" />
<glyph unicode="&#xb5;" glyph-name="uni00B5" horiz-adv-x="1221" d="M993 988V208Q993 146 1019 123T1080 95T1142 83Q1152 79 1159 71T1166 43Q1166 31 1160 21T1142 9Q1035 2 948 1T814 0Q806 0 796 7T784 39V131Q770 99 735 62T648 -1T538 -27Q453 -27 411
8T325 114Q341 -34 352 -152T364 -307Q364 -365 334 -405T248 -446Q193 -446 163 -406T132 -307Q132 -273 140 -171T157 71T165 358V988H376V301Q376 277 389 232T444 151T573 114Q643 114 695 161T784 260V988H993Z" />
<glyph unicode="&#xb6;" glyph-name="paragraph" horiz-adv-x="1043" d="M204 -287Q186 -287 178 -267T170 -236Q170 -213 177 -207T206 -199Q238 -196 274 -190T336 -165T361 -102V578Q215 620 128 731T41 1000Q41 1156 104 1248T270 1380T487 1421L965 1419Q982
1419 990 1399T999 1368Q999 1346 992 1340T963 1331Q917 1328 879 1314T841 1234V-135Q841 -168 889 -181T985 -199Q1018 -203 1018 -236Q1018 -247 1010 -267T984 -287H694V1302H514V-287H204Z" />
<glyph unicode="&#xb7;" glyph-name="middot" horiz-adv-x="595" d="M147 729Q147 789 190 831T297 874Q361 874 404 832T448 729Q448 669 405 623T297 577Q234 577 191 623T147 729Z" />
<glyph unicode="&#xb8;" glyph-name="cedilla" horiz-adv-x="486" d="M209 -490Q142 -490 92 -473T16 -439Q4 -431 11 -417Q18 -403 27 -385T43 -355Q49 -342 64 -348Q83 -355 113 -364T189 -374Q241 -374 274 -349T308 -281Q308 -245 269 -215T148 -184L181 18H304L268
-117Q370 -126 426 -175T482 -291Q482 -366 415 -428T209 -490Z" />
<glyph unicode="&#xb9;" glyph-name="uni00B9" horiz-adv-x="1044" d="M209 756Q196 756 190 767T184 785Q184 801 189 813T210 827Q230 829 266 832T340 840T404 854T431 875L438 1582Q388 1543 321 1510T187 1477Q172 1477 155 1508T139 1563Q139 1579 146 1592T173
1606Q201 1608 265 1618T397 1653T510 1724H647L640 892Q639 871 665 859T730 840T803 831T857 827Q884 826 883 798Q883 756 856 756H209Z" />
<glyph unicode="&#xba;" glyph-name="ordmasculine" horiz-adv-x="1044" d="M521 612Q393 612 303 668T165 820T117 1031Q117 1147 166 1242T306 1393T526 1450Q653 1450 743 1394T880 1242T927 1031Q927 916 879 821T739 669T521 612ZM522 698Q632 698 678 785T724
1031Q724 1189 676 1276T520 1363Q410 1363 364 1276T318 1031Q318 873 365 786T522 698Z" />
<glyph unicode="&#xbb;" glyph-name="guillemotright" horiz-adv-x="1201" d="M736 150L643 189L842 496L687 833L643 1010L1011 696L1104 519L736 150ZM233 939L521 512V446L185 161L137 338L352 645L233 842V939Z" />
<glyph unicode="&#xbc;" glyph-name="onequarter" horiz-adv-x="2158" d="M158 506Q145 506 139 517T133 535Q133 551 138 563T159 577Q179 579 215 582T289 590T353 604T380 625L387 1332Q337 1293 270 1260T136 1227Q121 1227 104 1258T88 1313Q88 1329 95 1342T122
1356Q150 1358 214 1368T346 1403T459 1474H596L589 642Q588 621 614 609T679 590T752 581T806 577Q833 576 832 548Q832 506 805 506H158ZM683 0L1361 1419H1500L820 0H683ZM1699 0V205H1190Q1183 205 1177 220T1170 251Q1170 273 1181 291L1505 955Q1514 969
1534 977T1575 985Q1612 985 1648 965T1709 918T1733 872L1333 305H1699V568L1894 586V305H2095L2086 205H1894V0H1699Z" />
<glyph unicode="&#xbd;" glyph-name="onehalf" horiz-adv-x="2158" d="M151 506Q138 506 132 517T126 535Q126 551 131 563T152 577Q172 579 208 582T282 590T346 604T373 625L380 1332Q330 1293 263 1260T129 1227Q114 1227 97 1258T81 1313Q81 1329 88 1342T115
1356Q143 1358 207 1368T339 1403T452 1474H589L582 642Q581 621 607 609T672 590T745 581T799 577Q826 576 825 548Q825 506 798 506H151ZM669 0L1347 1419H1486L806 0H669ZM1263 0V27Q1264 51 1279 65Q1405 146 1516 252T1697 475T1767 709Q1767 760 1755 808T1710
887T1613 918Q1537 918 1507 890T1470 842L1430 724Q1422 702 1409 683T1366 664Q1332 664 1295 684T1257 755Q1257 784 1274 820Q1301 881 1397 932T1624 983Q1801 983 1894 914T1987 710Q1987 632 1947 552T1840 396T1689 257T1519 150H2010L2002 0H1263Z" />
<glyph unicode="&#xbe;" glyph-name="threequarters" horiz-adv-x="2158" d="M488 483Q409 483 333 508T208 583T158 704Q158 764 195 797T265 831Q302 831 325 814T347 775Q342 749 332 716T307 626Q311 621 328 602T382 566T480 549Q583 549 639 604T696 767Q696
861 659 904T568 958T461 969H404Q391 969 391 1007Q391 1047 404 1047H453Q495 1047 542 1066T624 1129T658 1242Q658 1276 646 1318T600 1392T500 1423Q447 1423 421 1404T376 1348Q367 1318 361 1289T347 1238Q329 1183 281 1183Q251 1183 218 1205T185 1271Q184
1280 186 1293Q192 1349 240 1393T363 1463T524 1489Q681 1489 774 1429T868 1254Q868 1183 831 1133T735 1053T615 1012Q697 1011 766 989T878 917T920 784Q920 650 805 567T488 483ZM717 0L1395 1419H1534L854 0H717ZM1784 0V205H1275Q1268 205 1262 220T1255
251Q1255 273 1266 291L1590 955Q1599 969 1619 977T1660 985Q1697 985 1733 965T1794 918T1818 872L1418 305H1784V568L1979 586V305H2180L2171 205H1979V0H1784Z" />
<glyph unicode="&#xbf;" glyph-name="questiondown" horiz-adv-x="1007" d="M544 1465Q608 1465 651 1419T694 1313Q694 1252 651 1210T544 1168Q481 1168 437 1210T393 1313Q393 1373 437 1419T544 1465ZM609 1049V946Q609 854 578 790T501 674T409 573T332 459T301
305Q301 243 318 172T385 52T528 2Q595 2 638 25T701 71T722 94L758 333Q764 356 782 363T835 371Q866 371 904 341T942 245Q942 206 924 161Q902 102 847 46T707 -47T510 -83Q356 -83 262 -27T124 118T81 300Q81 385 122 453T223 580T344 697T446 822T488 971V1049H609Z"
/>
<glyph unicode="&#xc0;" glyph-name="Agrave" horiz-adv-x="1408" d="M10 0Q-6 0 -15 15T-24 51Q-24 74 -17 80T12 88Q37 91 66 91T122 106T165 165L627 1441H801L1252 165Q1267 121 1294 107T1350 92T1405 88Q1426 86 1433 80T1441 51Q1441 40 1432 20T1407 0H883Q866
0 858 20T849 51Q849 84 882 88Q942 91 979 93T1017 118Q1017 124 1014 132L892 491H412L290 132Q288 127 288 120Q288 95 330 94T434 88Q467 84 467 51Q467 40 459 20T433 0H10ZM664 1188L442 577H864L664 1188ZM880 1530Q727 1663 624 1726T496 1810Q480 1825
469 1846T458 1893Q458 1932 488 1963Q519 1996 562 1996Q587 1996 610 1986T649 1960Q672 1937 743 1834T936 1588L880 1530Z" />
<glyph unicode="&#xc1;" glyph-name="Aacute" horiz-adv-x="1408" d="M10 0Q-6 0 -15 15T-24 51Q-24 74 -17 80T12 88Q37 91 66 91T122 106T165 165L627 1441H801L1252 165Q1267 121 1294 107T1350 92T1405 88Q1426 86 1433 80T1441 51Q1441 40 1432 20T1407 0H883Q866
0 858 20T849 51Q849 84 882 88Q942 91 979 93T1017 118Q1017 124 1014 132L892 491H412L290 132Q288 127 288 120Q288 95 330 94T434 88Q467 84 467 51Q467 40 459 20T433 0H10ZM664 1188L442 577H864L664 1188ZM589 1530L533 1588Q654 1730 725 1833T820 1960Q835
1975 858 1985T907 1996Q949 1996 981 1963Q1009 1931 1009 1893Q1009 1869 999 1848T972 1810Q949 1788 846 1726T589 1530Z" />
<glyph unicode="&#xc2;" glyph-name="Acircumflex" horiz-adv-x="1408" d="M10 0Q-6 0 -15 15T-24 51Q-24 74 -17 80T12 88Q37 91 66 91T122 106T165 165L627 1441H801L1252 165Q1267 121 1294 107T1350 92T1405 88Q1426 86 1433 80T1441 51Q1441 40 1432 20T1407
0H883Q866 0 858 20T849 51Q849 84 882 88Q942 91 979 93T1017 118Q1017 124 1014 132L892 491H412L290 132Q288 127 288 120Q288 95 330 94T434 88Q467 84 467 51Q467 40 459 20T433 0H10ZM664 1188L442 577H864L664 1188ZM351 1549L597 1897Q613 1918 635 1933T697
1948Q737 1948 759 1930T798 1888L1043 1549H924L697 1766L475 1549H351Z" />
<glyph unicode="&#xc3;" glyph-name="Atilde" horiz-adv-x="1408" d="M10 0Q-6 0 -15 15T-24 51Q-24 74 -17 80T12 88Q37 91 66 91T122 106T165 165L627 1441H801L1252 165Q1267 121 1294 107T1350 92T1405 88Q1426 86 1433 80T1441 51Q1441 40 1432 20T1407 0H883Q866
0 858 20T849 51Q849 84 882 88Q942 91 979 93T1017 118Q1017 124 1014 132L892 491H412L290 132Q288 127 288 120Q288 95 330 94T434 88Q467 84 467 51Q467 40 459 20T433 0H10ZM664 1188L442 577H864L664 1188ZM822 1539Q762 1540 714 1571T620 1633T525 1665Q490
1665 467 1643T429 1598T400 1575Q384 1575 368 1594T352 1635Q352 1664 380 1707T458 1783T569 1817Q626 1817 673 1786T766 1723T865 1691Q900 1691 923 1713T962 1758T991 1781Q1007 1781 1024 1762T1041 1721Q1041 1692 1012 1649T933 1573T822 1539Z" />
<glyph unicode="&#xc4;" glyph-name="Adieresis" horiz-adv-x="1408" d="M10 0Q-6 0 -15 15T-24 51Q-24 74 -17 80T12 88Q37 91 66 91T122 106T165 165L627 1441H801L1252 165Q1267 121 1294 107T1350 92T1405 88Q1426 86 1433 80T1441 51Q1441 40 1432 20T1407
0H883Q866 0 858 20T849 51Q849 84 882 88Q942 91 979 93T1017 118Q1017 124 1014 132L892 491H412L290 132Q288 127 288 120Q288 95 330 94T434 88Q467 84 467 51Q467 40 459 20T433 0H10ZM664 1188L442 577H864L664 1188ZM914 1605Q854 1605 823 1646T792 1748Q792
1810 823 1851T914 1892Q973 1892 1004 1851T1036 1748Q1036 1687 1005 1646T914 1605ZM480 1605Q420 1605 389 1646T358 1748Q358 1810 389 1851T480 1892Q539 1892 570 1851T602 1748Q602 1687 571 1646T480 1605Z" />
<glyph unicode="&#xc5;" glyph-name="Aring" horiz-adv-x="1408" d="M10 0Q-6 0 -15 15T-24 51Q-24 74 -17 80T12 88Q37 91 66 91T122 106T165 165L627 1441H801L1252 165Q1267 121 1294 107T1350 92T1405 88Q1426 86 1433 80T1441 51Q1441 40 1432 20T1407 0H883Q866
0 858 20T849 51Q849 84 882 88Q942 91 979 93T1017 118Q1017 124 1014 132L892 491H412L290 132Q288 127 288 120Q288 95 330 94T434 88Q467 84 467 51Q467 40 459 20T433 0H10ZM664 1188L442 577H864L664 1188ZM697 1406Q578 1406 494 1477T410 1669Q410 1790
494 1860T697 1931Q776 1931 841 1898T945 1806T984 1666Q984 1545 900 1476T697 1406ZM697 1519Q781 1519 817 1564T853 1670Q853 1731 817 1775T697 1819Q613 1819 578 1774T542 1668Q542 1607 577 1563T697 1519Z" />
<glyph unicode="&#xc6;" glyph-name="AE" horiz-adv-x="2026" d="M-58 0Q-74 0 -83 20T-92 51Q-92 72 -85 79T-56 88Q-31 91 -1 92T59 109T110 165L701 1317Q637 1320 573 1324T467 1331Q448 1333 440 1342T431 1378Q431 1394 440 1406T465 1419L1784 1418L1819
1062Q1819 1044 1804 1036T1778 1028Q1762 1028 1747 1034T1728 1061Q1723 1081 1706 1123T1662 1211T1600 1288T1522 1320H1128L1127 750H1390Q1416 753 1437 788T1471 863T1486 924Q1489 943 1507 950T1541 957Q1552 957 1567 949T1582 923V480Q1582 462 1567
454T1541 446Q1525 446 1507 452T1486 479Q1483 500 1470 544T1434 625T1384 662H1127V197Q1127 142 1155 122T1216 101H1594Q1633 101 1670 140T1738 234T1789 337T1812 405Q1815 424 1830 431T1863 439Q1875 439 1890 431T1905 405L1870 1L741 0Q724 0 716 20T707
51Q707 84 740 88Q772 91 808 97T869 117T895 152V637H478L248 150Q242 137 242 127Q242 106 286 98T403 88Q440 87 440 51Q440 32 430 16T406 0H-58ZM524 725H896V1306Q884 1307 854 1308T808 1311L524 725Z" />
<glyph unicode="&#xc7;" glyph-name="Ccedilla" horiz-adv-x="1343" d="M778 -30Q652 -30 526 6T297 127T130 353T67 706Q67 904 131 1045T299 1276T523 1407T757 1449Q895 1449 984 1432T1129 1395T1218 1361L1239 1047Q1241 1029 1221 1018T1189 1007Q1186 1007
1184 1007T1177 1006Q1163 1006 1150 1012T1134 1035Q1112 1119 1067 1191T946 1308T755 1353Q691 1353 621 1333T489 1248T388 1055T349 706Q349 498 392 371T503 178T643 88T777 65Q888 65 961 109T1077 227T1136 389Q1142 422 1175 422Q1187 422 1212 414T1238
388L1207 108Q1205 94 1149 61T997 -1T778 -30ZM718 -490Q651 -490 601 -473T525 -439Q513 -431 520 -417Q527 -403 536 -385T552 -355Q558 -342 573 -348Q592 -355 622 -364T698 -374Q750 -374 783 -349T817 -281Q817 -245 778 -215T657 -184L690 18H813L777 -117Q879
-126 935 -175T991 -291Q991 -366 924 -428T718 -490Z" />
<glyph unicode="&#xc8;" glyph-name="Egrave" horiz-adv-x="1364" d="M106 51Q106 84 139 88Q187 92 236 105T285 152V1234Q285 1277 260 1296T199 1321T133 1331Q112 1333 105 1339T97 1368Q97 1379 105 1399T131 1419L1145 1420L1180 1095Q1181 1078 1167 1070T1141
1061Q1125 1061 1106 1066T1075 1094Q1035 1169 1010 1219T955 1295T871 1321L521 1320V778L762 779Q788 782 810 816T846 890T863 950Q865 969 879 975T909 982Q920 982 936 974T952 948V505Q952 488 936 480T909 471Q893 471 878 477T860 504Q858 525 844 568T807
647T756 683L521 682V197Q521 142 549 123T611 101L897 102Q987 102 1052 162T1160 374Q1165 392 1188 399T1228 407Q1246 407 1261 399T1279 373L1231 1L140 0Q123 0 115 20T106 51ZM879 1530Q726 1663 623 1726T495 1810Q479 1825 468 1846T457 1893Q457 1932
487 1963Q518 1996 561 1996Q586 1996 609 1986T648 1960Q671 1937 742 1834T935 1588L879 1530Z" />
<glyph unicode="&#xc9;" glyph-name="Eacute" horiz-adv-x="1364" d="M106 51Q106 84 139 88Q187 92 236 105T285 152V1234Q285 1277 260 1296T199 1321T133 1331Q112 1333 105 1339T97 1368Q97 1379 105 1399T131 1419L1145 1420L1180 1095Q1181 1078 1167 1070T1141
1061Q1125 1061 1106 1066T1075 1094Q1035 1169 1010 1219T955 1295T871 1321L521 1320V778L762 779Q788 782 810 816T846 890T863 950Q865 969 879 975T909 982Q920 982 936 974T952 948V505Q952 488 936 480T909 471Q893 471 878 477T860 504Q858 525 844 568T807
647T756 683L521 682V197Q521 142 549 123T611 101L897 102Q987 102 1052 162T1160 374Q1165 392 1188 399T1228 407Q1246 407 1261 399T1279 373L1231 1L140 0Q123 0 115 20T106 51ZM587 1530L531 1588Q652 1730 723 1833T818 1960Q833 1975 856 1985T905 1996Q947
1996 979 1963Q1007 1931 1007 1893Q1007 1869 997 1848T970 1810Q947 1788 844 1726T587 1530Z" />
<glyph unicode="&#xca;" glyph-name="Ecircumflex" horiz-adv-x="1364" d="M106 51Q106 84 139 88Q187 92 236 105T285 152V1234Q285 1277 260 1296T199 1321T133 1331Q112 1333 105 1339T97 1368Q97 1379 105 1399T131 1419L1145 1420L1180 1095Q1181 1078 1167
1070T1141 1061Q1125 1061 1106 1066T1075 1094Q1035 1169 1010 1219T955 1295T871 1321L521 1320V778L762 779Q788 782 810 816T846 890T863 950Q865 969 879 975T909 982Q920 982 936 974T952 948V505Q952 488 936 480T909 471Q893 471 878 477T860 504Q858 525
844 568T807 647T756 683L521 682V197Q521 142 549 123T611 101L897 102Q987 102 1052 162T1160 374Q1165 392 1188 399T1228 407Q1246 407 1261 399T1279 373L1231 1L140 0Q123 0 115 20T106 51ZM350 1549L596 1897Q612 1918 634 1933T696 1948Q736 1948 758 1930T797
1888L1042 1549H923L696 1766L474 1549H350Z" />
<glyph unicode="&#xcb;" glyph-name="Edieresis" horiz-adv-x="1364" d="M106 51Q106 84 139 88Q187 92 236 105T285 152V1234Q285 1277 260 1296T199 1321T133 1331Q112 1333 105 1339T97 1368Q97 1379 105 1399T131 1419L1145 1420L1180 1095Q1181 1078 1167
1070T1141 1061Q1125 1061 1106 1066T1075 1094Q1035 1169 1010 1219T955 1295T871 1321L521 1320V778L762 779Q788 782 810 816T846 890T863 950Q865 969 879 975T909 982Q920 982 936 974T952 948V505Q952 488 936 480T909 471Q893 471 878 477T860 504Q858 525
844 568T807 647T756 683L521 682V197Q521 142 549 123T611 101L897 102Q987 102 1052 162T1160 374Q1165 392 1188 399T1228 407Q1246 407 1261 399T1279 373L1231 1L140 0Q123 0 115 20T106 51ZM913 1605Q853 1605 822 1646T791 1748Q791 1810 822 1851T913 1892Q972
1892 1003 1851T1035 1748Q1035 1687 1004 1646T913 1605ZM479 1605Q419 1605 388 1646T357 1748Q357 1810 388 1851T479 1892Q538 1892 569 1851T601 1748Q601 1687 570 1646T479 1605Z" />
<glyph unicode="&#xcc;" glyph-name="Igrave" horiz-adv-x="820" d="M150 0Q132 0 124 20T116 51Q116 85 149 88Q197 92 245 105T294 152L295 1234Q295 1277 270 1296T209 1322T143 1331Q122 1333 115 1339T107 1368Q107 1379 115 1399T141 1419H670Q687 1419
695 1399T704 1368Q704 1334 671 1331Q623 1327 575 1314T526 1267L525 185Q525 142 550 123T611 97T677 88Q698 86 705 80T713 51Q713 40 705 20T679 0H150ZM591 1530Q438 1663 335 1726T207 1810Q191 1825 180 1846T169 1893Q169 1932 199 1963Q230 1996 273
1996Q298 1996 321 1986T360 1960Q383 1937 454 1834T647 1588L591 1530Z" />
<glyph unicode="&#xcd;" glyph-name="Iacute" horiz-adv-x="820" d="M150 0Q132 0 124 20T116 51Q116 85 149 88Q197 92 245 105T294 152L295 1234Q295 1277 270 1296T209 1322T143 1331Q122 1333 115 1339T107 1368Q107 1379 115 1399T141 1419H670Q687 1419
695 1399T704 1368Q704 1334 671 1331Q623 1327 575 1314T526 1267L525 185Q525 142 550 123T611 97T677 88Q698 86 705 80T713 51Q713 40 705 20T679 0H150ZM299 1530L243 1588Q364 1730 435 1833T530 1960Q545 1975 568 1985T617 1996Q659 1996 691 1963Q719
1931 719 1893Q719 1869 709 1848T682 1810Q659 1788 556 1726T299 1530Z" />
<glyph unicode="&#xce;" glyph-name="Icircumflex" horiz-adv-x="820" d="M150 0Q132 0 124 20T116 51Q116 85 149 88Q197 92 245 105T294 152L295 1234Q295 1277 270 1296T209 1322T143 1331Q122 1333 115 1339T107 1368Q107 1379 115 1399T141 1419H670Q687
1419 695 1399T704 1368Q704 1334 671 1331Q623 1327 575 1314T526 1267L525 185Q525 142 550 123T611 97T677 88Q698 86 705 80T713 51Q713 40 705 20T679 0H150ZM62 1549L308 1897Q324 1918 346 1933T408 1948Q448 1948 470 1930T509 1888L754 1549H635L408 1766L186
1549H62Z" />
<glyph unicode="&#xcf;" glyph-name="Idieresis" horiz-adv-x="820" d="M150 0Q132 0 124 20T116 51Q116 85 149 88Q197 92 245 105T294 152L295 1234Q295 1277 270 1296T209 1322T143 1331Q122 1333 115 1339T107 1368Q107 1379 115 1399T141 1419H670Q687 1419
695 1399T704 1368Q704 1334 671 1331Q623 1327 575 1314T526 1267L525 185Q525 142 550 123T611 97T677 88Q698 86 705 80T713 51Q713 40 705 20T679 0H150ZM625 1605Q565 1605 534 1646T503 1748Q503 1810 534 1851T625 1892Q684 1892 715 1851T747 1748Q747
1687 716 1646T625 1605ZM191 1605Q131 1605 100 1646T69 1748Q69 1810 100 1851T191 1892Q250 1892 281 1851T313 1748Q313 1687 282 1646T191 1605Z" />
<glyph unicode="&#xd0;" glyph-name="Eth" horiz-adv-x="1567" d="M135 0Q118 0 110 20T101 51Q101 84 134 88Q182 92 230 105T279 152V694H143Q131 695 125 705T119 728Q119 773 143 783H279V1234Q279 1277 254 1296T193 1321T127 1331Q106 1333 99 1339T91 1368Q91
1379 99 1399T125 1419H740Q944 1418 1086 1361T1316 1207T1444 989T1485 738Q1485 543 1421 403T1253 174T1029 43T795 0H135ZM514 168Q514 154 530 139T590 112T722 101Q813 101 900 120T1058 202T1170 392T1212 734Q1212 920 1168 1035T1050 1213T888 1299T712
1322H515V783H806Q818 782 824 771T830 747Q830 704 806 694H515L514 168Z" />
<glyph unicode="&#xd1;" glyph-name="Ntilde" horiz-adv-x="1599" d="M94 0Q76 0 68 20T60 51Q60 84 93 88Q125 91 162 98T226 122T253 172V1224Q253 1267 224 1288T156 1319T87 1331Q66 1333 59 1339T51 1368Q51 1379 59 1399T85 1419H451L1234 342H1246V1234Q1246
1277 1214 1296T1139 1321T1066 1331Q1045 1333 1038 1339T1030 1368Q1030 1379 1038 1399T1064 1419H1522Q1540 1419 1548 1399T1556 1368Q1556 1335 1523 1331Q1493 1328 1452 1321T1379 1295T1348 1235V113Q1348 94 1350 82T1354 40Q1357 -1 1333 -15T1285 -30Q1249
-30 1231 -8L374 1142H357V185Q357 142 388 123T461 98T533 88Q554 86 561 80T569 51Q569 40 561 20T535 0H94ZM952 1539Q892 1540 844 1571T750 1633T655 1665Q620 1665 597 1643T559 1598T530 1575Q514 1575 498 1594T482 1635Q482 1664 510 1707T588 1783T699
1817Q756 1817 803 1786T896 1723T995 1691Q1030 1691 1053 1713T1092 1758T1121 1781Q1137 1781 1154 1762T1171 1721Q1171 1692 1142 1649T1063 1573T952 1539Z" />
<glyph unicode="&#xd2;" glyph-name="Ograve" horiz-adv-x="1553" d="M774 -29Q613 -29 487 29T274 189T140 427T94 716Q94 921 176 1087T413 1351T782 1449Q997 1449 1148 1351T1379 1087T1459 716Q1459 562 1413 427T1278 190T1062 29T774 -29ZM778 65Q936 65
1024 143T1148 367T1184 714Q1184 915 1147 1059T1021 1279T773 1356Q614 1356 526 1280T403 1059T367 714Q367 513 404 368T530 144T778 65ZM948 1530Q795 1663 692 1726T564 1810Q548 1825 537 1846T526 1893Q526 1932 556 1963Q587 1996 630 1996Q655 1996 678
1986T717 1960Q740 1937 811 1834T1004 1588L948 1530Z" />
<glyph unicode="&#xd3;" glyph-name="Oacute" horiz-adv-x="1553" d="M774 -29Q613 -29 487 29T274 189T140 427T94 716Q94 921 176 1087T413 1351T782 1449Q997 1449 1148 1351T1379 1087T1459 716Q1459 562 1413 427T1278 190T1062 29T774 -29ZM778 65Q936 65
1024 143T1148 367T1184 714Q1184 915 1147 1059T1021 1279T773 1356Q614 1356 526 1280T403 1059T367 714Q367 513 404 368T530 144T778 65ZM657 1530L601 1588Q722 1730 793 1833T888 1960Q903 1975 926 1985T975 1996Q1017 1996 1049 1963Q1077 1931 1077 1893Q1077
1869 1067 1848T1040 1810Q1017 1788 914 1726T657 1530Z" />
<glyph unicode="&#xd4;" glyph-name="Ocircumflex" horiz-adv-x="1553" d="M774 -29Q613 -29 487 29T274 189T140 427T94 716Q94 921 176 1087T413 1351T782 1449Q997 1449 1148 1351T1379 1087T1459 716Q1459 562 1413 427T1278 190T1062 29T774 -29ZM778 65Q936
65 1024 143T1148 367T1184 714Q1184 915 1147 1059T1021 1279T773 1356Q614 1356 526 1280T403 1059T367 714Q367 513 404 368T530 144T778 65ZM419 1549L665 1897Q681 1918 703 1933T765 1948Q805 1948 827 1930T866 1888L1111 1549H992L765 1766L543 1549H419Z"
/>
<glyph unicode="&#xd5;" glyph-name="Otilde" horiz-adv-x="1553" d="M774 -29Q613 -29 487 29T274 189T140 427T94 716Q94 921 176 1087T413 1351T782 1449Q997 1449 1148 1351T1379 1087T1459 716Q1459 562 1413 427T1278 190T1062 29T774 -29ZM778 65Q936 65
1024 143T1148 367T1184 714Q1184 915 1147 1059T1021 1279T773 1356Q614 1356 526 1280T403 1059T367 714Q367 513 404 368T530 144T778 65ZM890 1539Q830 1540 782 1571T688 1633T593 1665Q558 1665 535 1643T497 1598T468 1575Q452 1575 436 1594T420 1635Q420
1664 448 1707T526 1783T637 1817Q694 1817 741 1786T834 1723T933 1691Q968 1691 991 1713T1030 1758T1059 1781Q1075 1781 1092 1762T1109 1721Q1109 1692 1080 1649T1001 1573T890 1539Z" />
<glyph unicode="&#xd6;" glyph-name="Odieresis" horiz-adv-x="1553" d="M774 -29Q613 -29 487 29T274 189T140 427T94 716Q94 921 176 1087T413 1351T782 1449Q997 1449 1148 1351T1379 1087T1459 716Q1459 562 1413 427T1278 190T1062 29T774 -29ZM778 65Q936
65 1024 143T1148 367T1184 714Q1184 915 1147 1059T1021 1279T773 1356Q614 1356 526 1280T403 1059T367 714Q367 513 404 368T530 144T778 65ZM982 1605Q922 1605 891 1646T860 1748Q860 1810 891 1851T982 1892Q1041 1892 1072 1851T1104 1748Q1104 1687 1073
1646T982 1605ZM548 1605Q488 1605 457 1646T426 1748Q426 1810 457 1851T548 1892Q607 1892 638 1851T670 1748Q670 1687 639 1646T548 1605Z" />
<glyph unicode="&#xd7;" glyph-name="multiply" horiz-adv-x="1340" d="M309 103L207 208L567 573L207 939L309 1045L670 678L1031 1045L1133 939L773 573L1133 208L1031 103L670 469L309 103Z" />
<glyph unicode="&#xd8;" glyph-name="Oslash" horiz-adv-x="1553" d="M774 -29Q694 -29 622 -14T487 30L387 -164Q381 -171 370 -171Q352 -171 338 -162Q301 -139 305 -114L403 76Q254 173 174 342T94 716Q94 921 176 1087T413 1351T782 1449Q867 1449 942 1433T1083
1386L1181 1575Q1187 1584 1201 1584Q1212 1584 1223 1578Q1238 1569 1251 1553T1264 1525L1167 1338Q1308 1242 1383 1079T1459 716Q1459 562 1413 427T1278 190T1062 29T774 -29ZM367 714Q367 549 391 421T472 209L1025 1275Q931 1356 773 1356Q614 1356 526
1280T403 1059T367 714ZM778 65Q936 65 1024 143T1148 367T1184 714Q1184 869 1163 990T1092 1194L542 135Q633 65 778 65Z" />
<glyph unicode="&#xd9;" glyph-name="Ugrave" horiz-adv-x="1579" d="M1324 1230L1322 516Q1321 249 1184 110T804 -29Q530 -29 390 117T249 522L250 1234Q250 1277 228 1296T172 1322T108 1331Q87 1333 80 1339T72 1368Q72 1379 80 1399T106 1419H638Q655 1419
663 1399T672 1368Q672 1334 639 1331Q587 1327 536 1314T485 1267L484 524Q484 286 564 176T808 65Q963 65 1050 123T1173 283T1209 514V1244Q1209 1278 1177 1295T1102 1320T1033 1331Q1012 1333 1005 1339T997 1368Q997 1379 1005 1399T1031 1419H1496Q1514
1419 1522 1399T1530 1368Q1530 1332 1497 1331Q1420 1327 1372 1303T1324 1230ZM1013 1530Q860 1663 757 1726T629 1810Q613 1825 602 1846T591 1893Q591 1932 621 1963Q652 1996 695 1996Q720 1996 743 1986T782 1960Q805 1937 876 1834T1069 1588L1013 1530Z"
/>
<glyph unicode="&#xda;" glyph-name="Uacute" horiz-adv-x="1579" d="M1324 1230L1322 516Q1321 249 1184 110T804 -29Q530 -29 390 117T249 522L250 1234Q250 1277 228 1296T172 1322T108 1331Q87 1333 80 1339T72 1368Q72 1379 80 1399T106 1419H638Q655 1419
663 1399T672 1368Q672 1334 639 1331Q587 1327 536 1314T485 1267L484 524Q484 286 564 176T808 65Q963 65 1050 123T1173 283T1209 514V1244Q1209 1278 1177 1295T1102 1320T1033 1331Q1012 1333 1005 1339T997 1368Q997 1379 1005 1399T1031 1419H1496Q1514
1419 1522 1399T1530 1368Q1530 1332 1497 1331Q1420 1327 1372 1303T1324 1230ZM722 1530L666 1588Q787 1730 858 1833T953 1960Q968 1975 991 1985T1040 1996Q1082 1996 1114 1963Q1142 1931 1142 1893Q1142 1869 1132 1848T1105 1810Q1082 1788 979 1726T722
1530Z" />
<glyph unicode="&#xdb;" glyph-name="Ucircumflex" horiz-adv-x="1579" d="M1324 1230L1322 516Q1321 249 1184 110T804 -29Q530 -29 390 117T249 522L250 1234Q250 1277 228 1296T172 1322T108 1331Q87 1333 80 1339T72 1368Q72 1379 80 1399T106 1419H638Q655
1419 663 1399T672 1368Q672 1334 639 1331Q587 1327 536 1314T485 1267L484 524Q484 286 564 176T808 65Q963 65 1050 123T1173 283T1209 514V1244Q1209 1278 1177 1295T1102 1320T1033 1331Q1012 1333 1005 1339T997 1368Q997 1379 1005 1399T1031 1419H1496Q1514
1419 1522 1399T1530 1368Q1530 1332 1497 1331Q1420 1327 1372 1303T1324 1230ZM484 1549L730 1897Q746 1918 768 1933T830 1948Q870 1948 892 1930T931 1888L1176 1549H1057L830 1766L608 1549H484Z" />
<glyph unicode="&#xdc;" glyph-name="Udieresis" horiz-adv-x="1579" d="M1324 1230L1322 516Q1321 249 1184 110T804 -29Q530 -29 390 117T249 522L250 1234Q250 1277 228 1296T172 1322T108 1331Q87 1333 80 1339T72 1368Q72 1379 80 1399T106 1419H638Q655
1419 663 1399T672 1368Q672 1334 639 1331Q587 1327 536 1314T485 1267L484 524Q484 286 564 176T808 65Q963 65 1050 123T1173 283T1209 514V1244Q1209 1278 1177 1295T1102 1320T1033 1331Q1012 1333 1005 1339T997 1368Q997 1379 1005 1399T1031 1419H1496Q1514
1419 1522 1399T1530 1368Q1530 1332 1497 1331Q1420 1327 1372 1303T1324 1230ZM1047 1605Q987 1605 956 1646T925 1748Q925 1810 956 1851T1047 1892Q1106 1892 1137 1851T1169 1748Q1169 1687 1138 1646T1047 1605ZM613 1605Q553 1605 522 1646T491 1748Q491
1810 522 1851T613 1892Q672 1892 703 1851T735 1748Q735 1687 704 1646T613 1605Z" />
<glyph unicode="&#xdd;" glyph-name="Yacute" horiz-adv-x="1305" d="M373 0Q356 0 348 20T339 51Q339 83 382 88Q416 91 454 92T520 105T547 152V532L146 1254Q112 1316 72 1326T-6 1341Q-27 1343 -34 1349T-42 1378Q-42 1389 -34 1404T-8 1419H548Q565 1419
573 1404T582 1378Q582 1345 549 1341Q483 1338 438 1332T392 1302Q392 1296 399 1282L716 653L1043 1285Q1048 1294 1048 1302Q1046 1323 1002 1330T896 1341Q863 1345 863 1378Q863 1389 871 1404T897 1419H1312Q1329 1419 1337 1404T1346 1378Q1346 1356 1339
1350T1310 1341Q1273 1337 1233 1326T1159 1254L779 561V165Q779 122 808 108T877 92T951 88Q972 86 984 80T997 51Q997 40 988 20T963 0H373ZM570 1530L514 1588Q635 1730 706 1833T801 1960Q816 1975 839 1985T888 1996Q930 1996 962 1963Q990 1931 990 1893Q990
1869 980 1848T953 1810Q930 1788 827 1726T570 1530Z" />
<glyph unicode="&#xde;" glyph-name="Thorn" horiz-adv-x="1294" d="M140 0Q123 0 115 20T106 51Q106 84 139 88Q187 92 234 105T282 152L283 1234Q283 1277 258 1296T198 1322T133 1331Q112 1333 105 1339T97 1368Q97 1379 105 1399T131 1419H658Q676 1419 684
1399T692 1368Q692 1335 659 1331Q611 1327 563 1314T514 1267V1150L750 1152Q883 1153 991 1115T1165 990T1230 753Q1230 624 1170 524T996 368T722 311H514V185Q514 142 549 123T630 97T706 88Q727 86 734 80T742 51Q742 40 734 20T708 0H140ZM514 396H700Q728
396 774 411T868 464T948 567T981 732Q981 868 936 942T818 1044T666 1073H514V396Z" />
<glyph unicode="&#xdf;" glyph-name="germandbls" horiz-adv-x="1165" d="M46 0Q28 0 20 19T12 49Q12 82 45 86Q81 91 113 103T145 148V1055Q145 1187 200 1302T362 1488T624 1559Q714 1559 794 1533T925 1451T976 1302Q976 1228 950 1184T884 1113T805 1062T738
1009T711 928Q711 896 750 859T846 774T961 666T1057 528T1096 352Q1096 243 1049 158T921 23T744 -27Q595 -27 530 30T465 161Q465 206 501 240T596 274L669 88Q669 88 685 73T737 58Q788 58 833 109T878 293Q878 374 845 435T762 546T664 644T581 749T548 878Q548
934 569 970T622 1036T685 1097T738 1173T760 1285Q760 1372 715 1422T595 1473Q560 1473 519 1464T440 1418T378 1305T354 1093V0H46Z" />
<glyph unicode="&#xe0;" glyph-name="agrave" horiz-adv-x="1067" d="M97 243Q97 342 151 406T293 509T485 568T689 599V755Q689 818 646 870T494 923Q450 923 428 918T394 906L267 659Q207 659 162 687T116 780Q116 845 171 898T323 982T538 1014Q688 1014 767
968T875 850T904 698V200Q904 161 915 129T942 96Q967 96 1000 105Q1018 109 1028 92T1038 60Q1038 48 1032 43Q1008 25 951 3T820 -20Q761 -20 734 2T707 101V120Q642 50 564 14T380 -22Q320 -22 254 4T143 88T97 243ZM330 249Q330 188 367 142T471 96Q550 96
605 123T689 180V526Q588 511 507 486T378 407T330 249ZM869 1099Q716 1232 613 1295T485 1380Q469 1394 458 1415T447 1462Q447 1501 477 1532Q508 1565 551 1565Q576 1565 599 1555T638 1529Q661 1506 732 1403T925 1157L869 1099Z" />
<glyph unicode="&#xe1;" glyph-name="aacute" horiz-adv-x="1067" d="M97 243Q97 342 151 406T293 509T485 568T689 599V755Q689 818 646 870T494 923Q450 923 428 918T394 906L267 659Q207 659 162 687T116 780Q116 845 171 898T323 982T538 1014Q688 1014 767
968T875 850T904 698V200Q904 161 915 129T942 96Q967 96 1000 105Q1018 109 1028 92T1038 60Q1038 48 1032 43Q1008 25 951 3T820 -20Q761 -20 734 2T707 101V120Q642 50 564 14T380 -22Q320 -22 254 4T143 88T97 243ZM330 249Q330 188 367 142T471 96Q550 96
605 123T689 180V526Q588 511 507 486T378 407T330 249ZM415 1097L359 1155Q481 1297 552 1401T646 1527Q662 1542 685 1552T734 1563Q752 1563 771 1556T807 1530Q836 1499 836 1461Q836 1436 825 1415T799 1378Q776 1355 672 1293T415 1097Z" />
<glyph unicode="&#xe2;" glyph-name="acircumflex" horiz-adv-x="1067" d="M97 243Q97 342 151 406T293 509T485 568T689 599V755Q689 818 646 870T494 923Q450 923 428 918T394 906L267 659Q207 659 162 687T116 780Q116 845 171 898T323 982T538 1014Q688 1014
767 968T875 850T904 698V200Q904 161 915 129T942 96Q967 96 1000 105Q1018 109 1028 92T1038 60Q1038 48 1032 43Q1008 25 951 3T820 -20Q761 -20 734 2T707 101V120Q642 50 564 14T380 -22Q320 -22 254 4T143 88T97 243ZM330 249Q330 188 367 142T471 96Q550
96 605 123T689 180V526Q588 511 507 486T378 407T330 249ZM428 1116L674 1500Q690 1521 712 1536T774 1551Q814 1551 836 1533T875 1491L1120 1116H1001L774 1367L552 1116H428Z" />
<glyph unicode="&#xe3;" glyph-name="atilde" horiz-adv-x="1067" d="M97 243Q97 342 151 406T293 509T485 568T689 599V755Q689 818 646 870T494 923Q450 923 428 918T394 906L267 659Q207 659 162 687T116 780Q116 845 171 898T323 982T538 1014Q688 1014 767
968T875 850T904 698V200Q904 161 915 129T942 96Q967 96 1000 105Q1018 109 1028 92T1038 60Q1038 48 1032 43Q1008 25 951 3T820 -20Q761 -20 734 2T707 101V120Q642 50 564 14T380 -22Q320 -22 254 4T143 88T97 243ZM330 249Q330 188 367 142T471 96Q550 96
605 123T689 180V526Q588 511 507 486T378 407T330 249ZM623 1117Q584 1117 550 1137T486 1184T428 1231T370 1251Q335 1251 313 1227T275 1179T247 1155Q230 1155 215 1175T199 1219Q199 1249 227 1294T305 1374T414 1410Q448 1410 479 1390T540 1343T602 1296T666
1276Q701 1276 724 1300T762 1348T790 1372Q807 1372 823 1352T840 1307Q840 1277 811 1232T733 1152T623 1117Z" />
<glyph unicode="&#xe4;" glyph-name="adieresis" horiz-adv-x="1067" d="M97 243Q97 342 151 406T293 509T485 568T689 599V755Q689 818 646 870T494 923Q450 923 428 918T394 906L267 659Q207 659 162 687T116 780Q116 845 171 898T323 982T538 1014Q688 1014
767 968T875 850T904 698V200Q904 161 915 129T942 96Q967 96 1000 105Q1018 109 1028 92T1038 60Q1038 48 1032 43Q1008 25 951 3T820 -20Q761 -20 734 2T707 101V120Q642 50 564 14T380 -22Q320 -22 254 4T143 88T97 243ZM330 249Q330 188 367 142T471 96Q550
96 605 123T689 180V526Q588 511 507 486T378 407T330 249ZM735 1182Q675 1182 644 1222T613 1325Q613 1387 644 1427T735 1468Q794 1468 825 1428T857 1325Q857 1263 826 1223T735 1182ZM301 1182Q242 1182 211 1222T179 1325Q179 1387 210 1427T301 1468Q360
1468 391 1428T423 1325Q423 1263 392 1223T301 1182Z" />
<glyph unicode="&#xe5;" glyph-name="aring" horiz-adv-x="1067" d="M97 243Q97 342 151 406T293 509T485 568T689 599V755Q689 818 646 870T494 923Q450 923 428 918T394 906L267 659Q207 659 162 687T116 780Q116 845 171 898T323 982T538 1014Q688 1014 767
968T875 850T904 698V200Q904 161 915 129T942 96Q967 96 1000 105Q1018 109 1028 92T1038 60Q1038 48 1032 43Q1008 25 951 3T820 -20Q761 -20 734 2T707 101V120Q642 50 564 14T380 -22Q320 -22 254 4T143 88T97 243ZM330 249Q330 188 367 142T471 96Q550 96
605 123T689 180V526Q588 511 507 486T378 407T330 249ZM518 1121Q399 1121 315 1192T231 1384Q231 1505 315 1575T518 1646Q597 1646 662 1613T766 1521T805 1381Q805 1260 721 1191T518 1121ZM518 1234Q602 1234 638 1279T674 1385Q674 1446 638 1490T518 1534Q434
1534 399 1489T363 1383Q363 1322 398 1278T518 1234Z" />
<glyph unicode="&#xe6;" glyph-name="ae" horiz-adv-x="1555" d="M378 -24Q321 -24 256 2T146 87T100 243Q100 338 150 401T281 504T461 565T654 599V759Q654 840 611 881T492 923Q445 923 407 917T368 911L236 661Q176 661 141 693T106 781Q106 832 145 874T248
948T389 996T542 1013Q629 1013 689 985T790 907Q912 1014 1079 1014Q1218 1014 1302 967T1429 834T1482 636Q1485 605 1486 572T1487 504H857Q858 346 898 254T998 121T1119 81Q1198 81 1261 113T1361 208Q1364 214 1367 220T1381 224L1430 201Q1441 197 1441
189Q1441 185 1439 181T1435 173Q1389 84 1304 28T1084 -29Q832 -29 729 130Q667 53 583 15T378 -24ZM859 591L1245 596Q1245 770 1200 845T1078 920Q1017 920 970 895T895 800T859 591ZM469 96Q533 96 578 112T653 151L654 522Q574 511 501 485T381 405T334 252Q334
196 368 146T469 96Z" />
<glyph unicode="&#xe7;" glyph-name="ccedilla" horiz-adv-x="960" d="M537 -29Q303 -29 186 114T69 498Q69 660 133 775T309 952T560 1014Q658 1014 741 985T871 874Q891 839 899 810T908 757Q908 705 880 679T824 652Q793 652 772 662T738 702L650 900Q649 901
630 910T571 920Q455 920 382 824T309 490Q309 338 352 249T456 120T572 81Q649 81 713 113T812 208Q815 214 819 221T832 224L881 201Q892 196 892 188Q892 185 890 181T886 173Q841 85 752 28T537 -29ZM472 -490Q405 -490 355 -473T279 -439Q267 -431 274 -417Q281
-403 290 -385T306 -355Q312 -342 327 -348Q346 -355 376 -364T452 -374Q504 -374 537 -349T571 -281Q571 -245 532 -215T411 -184L444 18H567L531 -117Q633 -126 689 -175T745 -291Q745 -366 678 -428T472 -490Z" />
<glyph unicode="&#xe8;" glyph-name="egrave" horiz-adv-x="1024" d="M553 -29Q310 -29 190 110T69 500Q69 667 134 781T307 955T540 1014Q737 1014 827 920T945 670Q951 632 953 590T956 504H307Q308 346 350 254T457 121T588 81Q666 81 729 113T828 208Q831
214 834 220T848 224L897 201Q908 197 908 189Q908 185 906 181T902 173Q856 84 771 28T553 -29ZM310 591L713 596Q713 770 664 845T539 920Q471 920 422 895T345 800T310 591ZM892 1099Q739 1232 636 1295T508 1380Q492 1394 481 1415T470 1462Q470 1501 500 1532Q531
1565 574 1565Q599 1565 622 1555T661 1529Q684 1506 755 1403T948 1157L892 1099Z" />
<glyph unicode="&#xe9;" glyph-name="eacute" horiz-adv-x="1024" d="M553 -29Q310 -29 190 110T69 500Q69 667 134 781T307 955T540 1014Q737 1014 827 920T945 670Q951 632 953 590T956 504H307Q308 346 350 254T457 121T588 81Q666 81 729 113T828 208Q831
214 834 220T848 224L897 201Q908 197 908 189Q908 185 906 181T902 173Q856 84 771 28T553 -29ZM310 591L713 596Q713 770 664 845T539 920Q471 920 422 895T345 800T310 591ZM438 1097L382 1155Q504 1297 575 1401T669 1527Q685 1542 708 1552T757 1563Q775 1563
794 1556T830 1530Q859 1499 859 1461Q859 1436 848 1415T822 1378Q799 1355 695 1293T438 1097Z" />
<glyph unicode="&#xea;" glyph-name="ecircumflex" horiz-adv-x="1024" d="M553 -29Q310 -29 190 110T69 500Q69 667 134 781T307 955T540 1014Q737 1014 827 920T945 670Q951 632 953 590T956 504H307Q308 346 350 254T457 121T588 81Q666 81 729 113T828 208Q831
214 834 220T848 224L897 201Q908 197 908 189Q908 185 906 181T902 173Q856 84 771 28T553 -29ZM310 591L713 596Q713 770 664 845T539 920Q471 920 422 895T345 800T310 591ZM195 1116L441 1500Q457 1521 479 1536T541 1551Q581 1551 603 1533T642 1491L887 1116H768L541
1367L319 1116H195Z" />
<glyph unicode="&#xeb;" glyph-name="edieresis" horiz-adv-x="1024" d="M553 -29Q310 -29 190 110T69 500Q69 667 134 781T307 955T540 1014Q737 1014 827 920T945 670Q951 632 953 590T956 504H307Q308 346 350 254T457 121T588 81Q666 81 729 113T828 208Q831
214 834 220T848 224L897 201Q908 197 908 189Q908 185 906 181T902 173Q856 84 771 28T553 -29ZM310 591L713 596Q713 770 664 845T539 920Q471 920 422 895T345 800T310 591ZM758 1182Q698 1182 667 1222T636 1325Q636 1387 667 1427T758 1468Q817 1468 848 1428T880
1325Q880 1263 849 1223T758 1182ZM324 1182Q265 1182 234 1222T202 1325Q202 1387 233 1427T324 1468Q383 1468 414 1428T446 1325Q446 1263 415 1223T324 1182Z" />
<glyph unicode="&#xec;" glyph-name="igrave" horiz-adv-x="623" d="M104 0Q87 0 79 15T70 41Q70 74 103 78Q140 82 179 95T218 140L219 778Q219 840 193 863T132 890T70 902Q60 907 53 915T46 942Q46 954 52 970T70 986Q178 993 266 995T400 997Q408 997 418
989T430 957V173Q430 131 450 112T498 87T552 78Q573 76 580 70T588 41Q588 30 579 15T554 0H104ZM415 1099Q262 1232 159 1295T31 1380Q15 1394 4 1415T-7 1462Q-7 1501 23 1532Q54 1565 97 1565Q122 1565 145 1555T184 1529Q207 1506 278 1403T471 1157L415 1099Z"
/>
<glyph unicode="&#xed;" glyph-name="iacute" horiz-adv-x="623" d="M104 0Q87 0 79 15T70 41Q70 74 103 78Q140 82 179 95T218 140L219 778Q219 840 193 863T132 890T70 902Q60 907 53 915T46 942Q46 954 52 970T70 986Q178 993 266 995T400 997Q408 997 418
989T430 957V173Q430 131 450 112T498 87T552 78Q573 76 580 70T588 41Q588 30 579 15T554 0H104ZM474 1097L418 1155Q540 1297 611 1401T705 1527Q721 1542 744 1552T793 1563Q811 1563 830 1556T866 1530Q895 1499 895 1461Q895 1436 884 1415T858 1378Q835 1355
731 1293T474 1097Z" />
<glyph unicode="&#xee;" glyph-name="icircumflex" horiz-adv-x="623" d="M104 0Q87 0 79 15T70 41Q70 74 103 78Q140 82 179 95T218 140L219 778Q219 840 193 863T132 890T70 902Q60 907 53 915T46 942Q46 954 52 970T70 986Q178 993 266 995T400 997Q408 997
418 989T430 957V173Q430 131 450 112T498 87T552 78Q573 76 580 70T588 41Q588 30 579 15T554 0H104ZM-25 1116L221 1500Q237 1521 259 1536T321 1551Q361 1551 383 1533T422 1491L667 1116H548L321 1367L99 1116H-25Z" />
<glyph unicode="&#xef;" glyph-name="idieresis" horiz-adv-x="623" d="M104 0Q87 0 79 15T70 41Q70 74 103 78Q140 82 179 95T218 140L219 778Q219 840 193 863T132 890T70 902Q60 907 53 915T46 942Q46 954 52 970T70 986Q178 993 266 995T400 997Q408 997 418
989T430 957V173Q430 131 450 112T498 87T552 78Q573 76 580 70T588 41Q588 30 579 15T554 0H104ZM538 1182Q478 1182 447 1222T416 1325Q416 1387 447 1427T538 1468Q597 1468 628 1428T660 1325Q660 1263 629 1223T538 1182ZM104 1182Q45 1182 14 1222T-18 1325Q-18
1387 13 1427T104 1468Q163 1468 194 1428T226 1325Q226 1263 195 1223T104 1182Z" />
<glyph unicode="&#xf0;" glyph-name="eth" horiz-adv-x="1130" d="M72 458Q72 606 129 723T291 909T542 978Q581 978 629 967T721 936T790 887Q772 974 731 1060T637 1219T530 1345L329 1184Q320 1180 310 1188T294 1205Q280 1228 280 1248Q280 1256 283 1261L459
1402Q409 1436 353 1459T227 1492Q220 1493 216 1506T212 1536Q212 1551 215 1563Q220 1582 226 1592T245 1603Q338 1595 422 1564T578 1492L760 1634Q765 1638 771 1638Q784 1638 793 1622Q810 1595 810 1569Q810 1564 808 1558L657 1441Q787 1330 872 1188T1001
895T1044 609Q1044 437 993 294T835 64T560 -22Q413 -22 303 39T133 209T72 458ZM308 454Q308 271 373 172T557 73Q639 73 688 114T761 227T792 390T800 583V588Q800 741 752 809T556 875Q465 874 411 812T332 653T308 454Z" />
<glyph unicode="&#xf1;" glyph-name="ntilde" horiz-adv-x="1248" d="M103 0Q86 0 78 15T69 41Q69 74 102 78Q139 83 178 96T217 142V778Q217 840 190 863T128 890T68 902Q57 907 51 915T44 942Q44 954 50 970T68 987Q172 993 257 995T387 997Q395 997 404 989T417
957V845Q434 863 490 904T629 979T804 1014Q873 1014 931 995T1024 920T1059 757V175Q1059 127 1082 108T1137 86T1194 78Q1211 76 1219 70T1227 41Q1227 30 1219 15T1193 0H746Q728 0 720 15T712 41Q712 57 717 66T743 78Q774 81 810 97T847 142V779Q847 798 840
824T806 870T720 890Q659 890 602 869T499 819T427 765V175Q427 111 463 97T537 78Q558 76 565 70T573 41Q573 30 565 15T539 0H103ZM744 1117Q705 1117 671 1137T607 1184T549 1231T491 1251Q456 1251 434 1227T396 1179T368 1155Q351 1155 336 1175T320 1219Q320
1249 348 1294T426 1374T535 1410Q569 1410 600 1390T661 1343T723 1296T787 1276Q822 1276 845 1300T883 1348T911 1372Q928 1372 944 1352T961 1307Q961 1277 932 1232T854 1152T744 1117Z" />
<glyph unicode="&#xf2;" glyph-name="ograve" horiz-adv-x="1141" d="M77 492Q77 641 137 759T309 946T576 1014Q730 1014 839 946T1006 760T1064 492Q1064 343 1005 225T834 39T569 -29Q414 -29 304 39T136 225T77 492ZM317 492Q317 291 370 179T572 66Q719 66
770 178T822 492Q822 693 769 805T568 918Q420 918 369 805T317 492ZM916 1099Q763 1232 660 1295T532 1380Q516 1394 505 1415T494 1462Q494 1501 524 1532Q555 1565 598 1565Q623 1565 646 1555T685 1529Q708 1506 779 1403T972 1157L916 1099Z" />
<glyph unicode="&#xf3;" glyph-name="oacute" horiz-adv-x="1141" d="M77 492Q77 641 137 759T309 946T576 1014Q730 1014 839 946T1006 760T1064 492Q1064 343 1005 225T834 39T569 -29Q414 -29 304 39T136 225T77 492ZM317 492Q317 291 370 179T572 66Q719 66
770 178T822 492Q822 693 769 805T568 918Q420 918 369 805T317 492ZM462 1097L406 1155Q528 1297 599 1401T693 1527Q709 1542 732 1552T781 1563Q799 1563 818 1556T854 1530Q883 1499 883 1461Q883 1436 872 1415T846 1378Q823 1355 719 1293T462 1097Z" />
<glyph unicode="&#xf4;" glyph-name="ocircumflex" horiz-adv-x="1141" d="M77 492Q77 641 137 759T309 946T576 1014Q730 1014 839 946T1006 760T1064 492Q1064 343 1005 225T834 39T569 -29Q414 -29 304 39T136 225T77 492ZM317 492Q317 291 370 179T572 66Q719
66 770 178T822 492Q822 693 769 805T568 918Q420 918 369 805T317 492ZM219 1116L465 1500Q481 1521 503 1536T565 1551Q605 1551 627 1533T666 1491L911 1116H792L565 1367L343 1116H219Z" />
<glyph unicode="&#xf5;" glyph-name="otilde" horiz-adv-x="1141" d="M77 492Q77 641 137 759T309 946T576 1014Q730 1014 839 946T1006 760T1064 492Q1064 343 1005 225T834 39T569 -29Q414 -29 304 39T136 225T77 492ZM317 492Q317 291 370 179T572 66Q719 66
770 178T822 492Q822 693 769 805T568 918Q420 918 369 805T317 492ZM670 1117Q631 1117 597 1137T533 1184T475 1231T417 1251Q382 1251 360 1227T322 1179T294 1155Q277 1155 262 1175T246 1219Q246 1249 274 1294T352 1374T461 1410Q495 1410 526 1390T587 1343T649
1296T713 1276Q748 1276 771 1300T809 1348T837 1372Q854 1372 870 1352T887 1307Q887 1277 858 1232T780 1152T670 1117Z" />
<glyph unicode="&#xf6;" glyph-name="odieresis" horiz-adv-x="1141" d="M77 492Q77 641 137 759T309 946T576 1014Q730 1014 839 946T1006 760T1064 492Q1064 343 1005 225T834 39T569 -29Q414 -29 304 39T136 225T77 492ZM317 492Q317 291 370 179T572 66Q719
66 770 178T822 492Q822 693 769 805T568 918Q420 918 369 805T317 492ZM782 1182Q722 1182 691 1222T660 1325Q660 1387 691 1427T782 1468Q841 1468 872 1428T904 1325Q904 1263 873 1223T782 1182ZM348 1182Q289 1182 258 1222T226 1325Q226 1387 257 1427T348
1468Q407 1468 438 1428T470 1325Q470 1263 439 1223T348 1182Z" />
<glyph unicode="&#xf7;" glyph-name="divide" horiz-adv-x="1340" d="M572 960Q572 1020 615 1062T722 1104Q785 1104 829 1062T873 960Q873 899 829 854T722 808Q658 808 615 853T572 960ZM256 497V627H1191V497H256ZM572 172Q572 232 615 274T722 316Q785 316
829 274T873 172Q873 111 829 66T722 20Q658 20 615 65T572 172Z" />
<glyph unicode="&#xf8;" glyph-name="oslash" horiz-adv-x="1141" d="M77 492Q77 641 137 759T309 946T576 1014Q730 1014 839 946T1006 760T1064 492Q1064 343 1005 225T834 39T569 -29Q414 -29 304 39T136 225T77 492ZM317 492Q317 291 370 179T572 66Q719 66
770 178T822 492Q822 693 769 805T568 918Q420 918 369 805T317 492ZM834 1117Q840 1126 854 1126Q865 1126 876 1120Q891 1111 904 1095T917 1067L287 -131Q281 -138 270 -138Q252 -138 238 -129Q202 -106 205 -81L834 1117Z" />
<glyph unicode="&#xf9;" glyph-name="ugrave" horiz-adv-x="1217" d="M496 -27Q420 -27 353 -5T243 82T201 270V819Q201 862 182 881T136 907T84 916Q63 918 56 924T48 953Q48 964 57 979T82 994H376Q413 994 413 958V280Q413 247 421 209T456 143T539 116Q637
116 699 143T810 223V819Q810 862 786 881T728 907T660 916Q639 918 632 924T624 953Q624 964 632 979T658 994H983Q1020 994 1020 958V212Q1020 140 1032 117T1062 94Q1086 94 1110 102Q1127 107 1138 89T1150 53Q1150 41 1144 37Q1132 25 1078 0T934 -25Q875
-25 847 17T813 134Q793 99 744 62T629 -1T496 -27ZM951 1099Q798 1232 695 1295T567 1380Q551 1394 540 1415T529 1462Q529 1501 559 1532Q590 1565 633 1565Q658 1565 681 1555T720 1529Q743 1506 814 1403T1007 1157L951 1099Z" />
<glyph unicode="&#xfa;" glyph-name="uacute" horiz-adv-x="1217" d="M496 -27Q420 -27 353 -5T243 82T201 270V819Q201 862 182 881T136 907T84 916Q63 918 56 924T48 953Q48 964 57 979T82 994H376Q413 994 413 958V280Q413 247 421 209T456 143T539 116Q637
116 699 143T810 223V819Q810 862 786 881T728 907T660 916Q639 918 632 924T624 953Q624 964 632 979T658 994H983Q1020 994 1020 958V212Q1020 140 1032 117T1062 94Q1086 94 1110 102Q1127 107 1138 89T1150 53Q1150 41 1144 37Q1132 25 1078 0T934 -25Q875
-25 847 17T813 134Q793 99 744 62T629 -1T496 -27ZM498 1097L442 1155Q564 1297 635 1401T729 1527Q745 1542 768 1552T817 1563Q835 1563 854 1556T890 1530Q919 1499 919 1461Q919 1436 908 1415T882 1378Q859 1355 755 1293T498 1097Z" />
<glyph unicode="&#xfb;" glyph-name="ucircumflex" horiz-adv-x="1217" d="M496 -27Q420 -27 353 -5T243 82T201 270V819Q201 862 182 881T136 907T84 916Q63 918 56 924T48 953Q48 964 57 979T82 994H376Q413 994 413 958V280Q413 247 421 209T456 143T539 116Q637
116 699 143T810 223V819Q810 862 786 881T728 907T660 916Q639 918 632 924T624 953Q624 964 632 979T658 994H983Q1020 994 1020 958V212Q1020 140 1032 117T1062 94Q1086 94 1110 102Q1127 107 1138 89T1150 53Q1150 41 1144 37Q1132 25 1078 0T934 -25Q875
-25 847 17T813 134Q793 99 744 62T629 -1T496 -27ZM255 1116L501 1500Q517 1521 539 1536T601 1551Q641 1551 663 1533T702 1491L947 1116H828L601 1367L379 1116H255Z" />
<glyph unicode="&#xfc;" glyph-name="udieresis" horiz-adv-x="1217" d="M496 -27Q420 -27 353 -5T243 82T201 270V819Q201 862 182 881T136 907T84 916Q63 918 56 924T48 953Q48 964 57 979T82 994H376Q413 994 413 958V280Q413 247 421 209T456 143T539 116Q637
116 699 143T810 223V819Q810 862 786 881T728 907T660 916Q639 918 632 924T624 953Q624 964 632 979T658 994H983Q1020 994 1020 958V212Q1020 140 1032 117T1062 94Q1086 94 1110 102Q1127 107 1138 89T1150 53Q1150 41 1144 37Q1132 25 1078 0T934 -25Q875
-25 847 17T813 134Q793 99 744 62T629 -1T496 -27ZM817 1182Q757 1182 726 1222T695 1325Q695 1387 726 1427T817 1468Q876 1468 907 1428T939 1325Q939 1263 908 1223T817 1182ZM383 1182Q324 1182 293 1222T261 1325Q261 1387 292 1427T383 1468Q442 1468 473
1428T505 1325Q505 1263 474 1223T383 1182Z" />
<glyph unicode="&#xfd;" glyph-name="yacute" horiz-adv-x="1035" d="M251 -449Q180 -449 125 -411T69 -317Q69 -251 100 -223T160 -195L281 -318Q328 -312 376 -253T489 -30L137 829Q108 879 80 895T15 916Q-6 918 -13 924T-21 953Q-21 964 -13 979T12 994H454Q471
994 479 979T488 953Q488 920 455 916Q419 912 384 904T349 864L590 215L808 864Q808 895 769 903T693 916Q660 920 660 953Q660 964 668 979T694 994H1032Q1049 994 1057 979T1066 953Q1066 931 1059 925T1030 916Q994 912 971 896T918 829L620 22Q593 -49 560
-130T484 -284T383 -403T251 -449ZM429 1097L373 1155Q495 1297 566 1401T660 1527Q676 1542 699 1552T748 1563Q766 1563 785 1556T821 1530Q850 1499 850 1461Q850 1436 839 1415T813 1378Q790 1355 686 1293T429 1097Z" />
<glyph unicode="&#xfe;" glyph-name="thorn" horiz-adv-x="1178" d="M29 -444Q12 -444 4 -429T-5 -403Q-5 -380 2 -374T31 -366Q55 -363 83 -357T132 -332T153 -269V1337Q153 1399 125 1422T59 1450T-4 1462Q-15 1467 -21 1475T-28 1502Q-28 1514 -22 1530T-4
1547Q103 1553 194 1554T332 1556Q342 1556 351 1547T362 1515V1087L353 875Q404 939 490 976T654 1013Q809 1013 904 939T1042 746T1085 492Q1085 358 1036 239T884 45T624 -30Q550 -30 481 -17T360 32L362 -57V-302Q362 -335 414 -348T525 -366Q558 -370 558
-403Q558 -414 550 -429T524 -444H29ZM576 67Q682 67 741 122T824 274T848 492Q848 611 824 705T740 854T576 909Q520 909 457 878T362 802V169Q388 122 443 95T576 67Z" />
<glyph unicode="&#xff;" glyph-name="ydieresis" horiz-adv-x="1035" d="M251 -449Q180 -449 125 -411T69 -317Q69 -251 100 -223T160 -195L281 -318Q328 -312 376 -253T489 -30L137 829Q108 879 80 895T15 916Q-6 918 -13 924T-21 953Q-21 964 -13 979T12 994H454Q471
994 479 979T488 953Q488 920 455 916Q419 912 384 904T349 864L590 215L808 864Q808 895 769 903T693 916Q660 920 660 953Q660 964 668 979T694 994H1032Q1049 994 1057 979T1066 953Q1066 931 1059 925T1030 916Q994 912 971 896T918 829L620 22Q593 -49 560
-130T484 -284T383 -403T251 -449ZM749 1182Q689 1182 658 1222T627 1325Q627 1387 658 1427T749 1468Q808 1468 839 1428T871 1325Q871 1263 840 1223T749 1182ZM315 1182Q256 1182 225 1222T193 1325Q193 1387 224 1427T315 1468Q374 1468 405 1428T437 1325Q437
1263 406 1223T315 1182Z" />
<glyph unicode="&#x2013;" glyph-name="endash" horiz-adv-x="1340" d="M104 492V622H1236V492H104Z" />
<glyph unicode="&#x2014;" glyph-name="emdash" horiz-adv-x="1782" d="M104 492V622H1678V492H104Z" />
<glyph unicode="&#x2018;" glyph-name="quoteleft" horiz-adv-x="480" d="M317 1690Q331 1697 347 1697Q366 1697 380 1687T395 1659Q395 1643 386 1628Q325 1563 301 1481T277 1353Q277 1340 278 1334Q279 1329 298 1322T342 1300T385 1257T404 1183Q404 1123
360 1082T254 1040Q218 1040 179 1057T114 1117T87 1238Q87 1306 113 1378T177 1514T254 1626T317 1690Z" />
<glyph unicode="&#x2019;" glyph-name="quoteright" horiz-adv-x="480" d="M178 1040Q164 1033 148 1033Q129 1033 115 1043T100 1071Q100 1087 110 1102Q170 1168 194 1250T218 1377Q218 1390 217 1397Q216 1401 197 1408T154 1431T110 1473T91 1547Q91 1608
135 1649T241 1690Q278 1690 316 1673T381 1614T408 1493Q408 1425 382 1353T318 1216T241 1105T178 1040Z" />
<glyph unicode="&#x201a;" glyph-name="quotesinglbase" horiz-adv-x="480" d="M160 -340Q146 -347 130 -347Q111 -347 97 -337T82 -309Q82 -293 92 -278Q152 -212 176 -130T200 -3Q200 10 199 17Q198 21 179 28T136 51T92 93T73 167Q73 228 117 269T223 310Q260
310 298 293T363 234T390 113Q390 45 364 -27T300 -164T223 -275T160 -340Z" />
<glyph unicode="&#x201c;" glyph-name="quotedblleft" horiz-adv-x="882" d="M314 1687Q327 1695 343 1695Q362 1695 376 1685T391 1656Q391 1640 382 1625Q321 1560 297 1478T273 1350Q273 1337 274 1331Q275 1326 294 1319T338 1297T381 1254T400 1180Q400 1120
357 1079T250 1038Q214 1038 175 1054T110 1114T83 1235Q83 1303 109 1375T173 1511T250 1623T314 1687ZM709 1687Q722 1695 739 1695Q757 1695 771 1685T786 1656Q786 1640 777 1625Q717 1560 693 1478T668 1350Q668 1337 669 1331Q670 1326 689 1319T733 1297T777
1254T796 1180Q796 1120 752 1079T646 1038Q609 1038 571 1054T505 1114T478 1235Q478 1303 504 1375T568 1511T645 1623T709 1687Z" />
<glyph unicode="&#x201d;" glyph-name="quotedblright" horiz-adv-x="882" d="M433 1040Q419 1033 403 1033Q384 1033 370 1043T355 1071Q355 1087 365 1102Q425 1168 449 1250T473 1377Q473 1390 472 1397Q471 1401 452 1408T409 1431T365 1473T346 1547Q346
1608 390 1649T496 1690Q533 1690 571 1673T636 1614T663 1493Q663 1425 637 1353T573 1216T496 1105T433 1040ZM579 1040Q565 1033 549 1033Q530 1033 516 1043T501 1071Q501 1087 511 1102Q571 1168 595 1250T619 1377Q619 1390 618 1397Q617 1401 598 1408T555
1431T511 1473T492 1547Q492 1608 536 1649T642 1690Q679 1690 717 1673T782 1614T809 1493Q809 1425 783 1353T719 1216T642 1105T579 1040Z" />
<glyph unicode="&#x201e;" glyph-name="quotedblbase" horiz-adv-x="882" d="M148 -339Q134 -346 118 -346Q99 -346 85 -336T70 -308Q70 -292 80 -277Q140 -211 164 -129T188 -2Q188 11 187 18Q186 22 167 29T124 52T80 94T61 168Q61 229 105 270T211 311Q248
311 286 294T351 235T378 114Q378 46 352 -26T288 -163T211 -274T148 -339ZM589 -339Q575 -346 559 -346Q540 -346 526 -336T511 -308Q511 -292 521 -277Q581 -211 605 -129T629 -2Q629 11 628 18Q627 22 608 29T565 52T521 94T502 168Q502 229 546 270T652 311Q689
311 727 294T792 235T819 114Q819 46 793 -26T729 -163T652 -274T589 -339Z" />
<glyph unicode="&#x2022;" glyph-name="bullet" horiz-adv-x="821" d="M202 534Q176 633 218 710T351 811Q441 839 517 798T619 657Q645 558 603 484T469 380Q378 352 303 394T202 534Z" />
<glyph unicode="&#x2039;" glyph-name="guilsinglleft" horiz-adv-x="843" d="M554 939V842L435 645L650 338L602 161L266 446V512L554 939Z" />
<glyph unicode="&#x203a;" glyph-name="guilsinglright" horiz-adv-x="843" d="M281 939L569 512V446L232 161L185 338L400 645L281 842V939Z" />
</font>
</defs>
</svg>
