<?xml version="1.0" standalone="no"?>
<!DOCTYPE svg PUBLIC "-//W3C//DTD SVG 1.1//EN" "http://www.w3.org/Graphics/SVG/1.1/DTD/svg11.dtd">
<svg xmlns="http://www.w3.org/2000/svg">
<defs >
<font id="Gelasio" horiz-adv-x="1366" ><font-face
    font-family="Gelasio"
    units-per-em="2048"
    panose-1="0 0 0 0 0 0 0 0 0 0"
    ascent="1900"
    descent="-700"
    alphabetic="0" />
<glyph unicode=" " glyph-name="space" horiz-adv-x="520" />
<glyph unicode="!" glyph-name="exclam" horiz-adv-x="771" d="M324 541Q335 730 334 903T332 1204T344 1389Q358 1447 409 1487T534 1528Q615 1528 660 1489T706 1389Q706 1365 702 1344Q693 1294 668 1231T606 1078T523 858T424 541H324ZM126 163Q126 210 150
256T219 333T321 364Q402 364 447 313T492 188Q492 105 435 43T295 -20Q214 -20 170 34T126 163Z" />
<glyph unicode="&quot;" glyph-name="quotedbl" horiz-adv-x="1044" d="M266 967Q278 1032 286 1113T301 1275T313 1419T323 1513Q334 1585 389 1633T521 1681Q581 1681 609 1654T637 1582Q637 1568 634 1551T626 1522Q618 1498 587 1435T512 1288T425 1120T346
967H266ZM723 967Q735 1032 743 1113T758 1275T770 1419T780 1513Q791 1585 846 1633T978 1681Q1038 1681 1066 1654T1094 1582Q1094 1568 1091 1551T1083 1522Q1075 1498 1044 1435T969 1288T882 1120T803 967H723Z" />
<glyph unicode="#" glyph-name="numbersign" horiz-adv-x="1440" d="M209 0L354 420H120L135 526H389L519 900H245L261 1006H555L699 1419H826L681 1006H1012L1156 1419H1283L1138 1006H1391L1375 900H1102L971 526H1245L1230 420H936L791 0H666L811 420H479L334
0H209ZM514 526H846L976 900H645L514 526Z" />
<glyph unicode="$" glyph-name="dollar" horiz-adv-x="1312" d="M82 66Q97 133 108 206T127 342T137 443Q138 473 155 481T192 489Q209 489 228 479T248 450Q250 426 254 378T280 260Q314 153 402 114T593 74Q720 74 789 121T858 262Q858 329 813 381T697 481T551
581Q480 631 413 692T303 830T260 1004Q260 1110 321 1191T496 1319T764 1367L785 1533Q803 1548 820 1553T851 1559Q872 1559 885 1551T899 1536Q899 1531 891 1531L869 1360Q936 1351 983 1336T1046 1312Q1053 1308 1064 1307T1079 1305Q1099 1305 1108 1316T1126
1339T1153 1351Q1176 1351 1192 1344T1207 1324Q1201 1272 1193 1192T1181 1025Q1180 986 1165 978T1130 969Q1115 969 1096 977T1074 999Q1056 1110 1011 1169T904 1250T767 1272Q718 1272 667 1259T582 1209T547 1106Q547 1039 587 988T691 894T825 806Q903 757
977 697T1098 558T1146 376Q1146 280 1091 188T919 35T621 -30L600 -202Q580 -227 561 -236T527 -246Q508 -246 497 -236T485 -218Q485 -211 493 -209L516 -24Q422 -11 343 18T230 72Q219 80 199 56Q183 36 163 27T129 17Q109 17 94 33T82 66Z" />
<glyph unicode="%" glyph-name="percent" horiz-adv-x="1801" d="M458 711Q292 711 198 794T104 1023Q104 1140 158 1236T316 1391T566 1449Q736 1449 832 1364T928 1130Q928 1011 872 916T711 766T458 711ZM366 0L1332 1419H1499L531 0H366ZM471 798Q541 798
584 835T650 931T681 1054T690 1170Q690 1272 657 1317T550 1362Q473 1362 425 1308T354 1167T331 984Q331 885 364 842T471 798ZM1291 -28Q1125 -28 1031 55T937 284Q937 401 991 498T1149 652T1399 710Q1569 710 1665 625T1761 391Q1761 272 1707 177T1549 27T1291
-28ZM1304 59Q1374 59 1417 96T1483 192T1514 315T1523 431Q1523 533 1490 578T1383 623Q1306 623 1258 569T1187 428T1164 245Q1164 146 1197 103T1304 59Z" />
<glyph unicode="&amp;" glyph-name="ampersand" horiz-adv-x="1637" d="M1608 896Q1625 896 1632 883T1637 855Q1631 818 1598 818Q1555 818 1513 790T1446 711Q1413 662 1386 605T1322 478T1221 322Q1253 284 1276 255T1313 212Q1345 175 1403 130T1529 78Q1546
77 1553 73T1561 54Q1561 38 1552 19T1521 0H1054Q1051 2 1027 31T965 107Q879 42 773 2T551 -39Q371 -39 257 14T88 147T33 307Q33 423 88 503T238 643T455 758Q403 827 366 903T328 1073Q328 1171 370 1243T484 1363T644 1434T824 1458Q998 1458 1094 1396T1191
1232Q1191 1141 1133 1062T989 920T821 811Q888 729 977 619T1146 412Q1182 462 1213 523T1262 640T1281 731Q1281 764 1257 781T1200 807T1141 818Q1115 821 1115 843Q1115 896 1155 896H1608ZM835 1369Q644 1369 644 1152Q644 1076 674 1018T757 893Q820 923
868 975T943 1092T971 1218Q971 1268 940 1318T835 1369ZM633 131Q700 131 765 141T898 191Q832 272 758 364T623 538T530 663Q467 618 426 546T385 351Q385 296 414 246T500 163T633 131Z" />
<glyph unicode="&apos;" glyph-name="quotesingle" horiz-adv-x="551" d="M243 967Q255 1032 263 1113T278 1275T290 1419T300 1513Q311 1585 366 1633T498 1681Q558 1681 586 1654T614 1582Q614 1568 611 1551T603 1522Q595 1498 564 1435T489 1288T402 1120T323
967H243Z" />
<glyph unicode="(" glyph-name="parenleft" horiz-adv-x="915" d="M214 483Q214 696 281 888T464 1229T731 1463T1048 1549Q1055 1549 1062 1549T1076 1548L1054 1461Q1049 1460 1038 1460T1020 1457Q857 1413 744 1273T571 919T512 444Q512 359 519 262T548 67T608
-114T710 -259L695 -342Q609 -325 524 -265T369 -100T256 150T214 483Z" />
<glyph unicode=")" glyph-name="parenright" horiz-adv-x="915" d="M739 725Q739 512 672 320T489 -21T222 -255T-95 -341Q-102 -341 -108 -341T-123 -340L-101 -253Q-96 -252 -85 -252T-67 -249Q77 -204 191 -64T373 289T440 764Q440 849 433 946T404 1141T345
1322T243 1467L258 1550Q344 1533 429 1473T584 1308T697 1058T739 725Z" />
<glyph unicode="*" glyph-name="asterisk" horiz-adv-x="987" d="M316 634Q278 634 246 660T214 727Q214 750 224 776T255 822Q320 882 393 928T539 1036Q523 1039 478 1042T381 1048T284 1056T225 1065Q191 1076 169 1104T147 1168Q147 1221 185 1252T275 1283Q287
1283 303 1279T341 1264Q355 1257 384 1233T449 1180T515 1125T563 1091Q562 1123 556 1173T543 1276T530 1369T524 1421Q524 1480 561 1514T653 1549Q717 1549 733 1511T750 1438Q750 1410 732 1359T689 1252T645 1151T622 1091Q635 1097 660 1120T717 1169T774
1210Q850 1254 889 1268T961 1283Q998 1283 1027 1264T1056 1198Q1056 1155 1025 1117T946 1065Q927 1060 884 1056T789 1049T694 1042T632 1036Q656 1008 697 975T781 906T853 831T882 754Q882 709 850 672T770 635Q742 635 712 651T666 694Q660 705 649 745T624
837T599 935T580 1003Q567 980 546 934T501 837T457 746T427 694Q375 634 316 634Z" />
<glyph unicode="+" glyph-name="plus" horiz-adv-x="1440" d="M605 75L642 501H240L253 647H655L691 1062H857L821 647H1223L1210 501H808L771 75H605Z" />
<glyph unicode="," glyph-name="comma" horiz-adv-x="672" d="M79 162Q79 246 136 301T272 356Q359 356 407 301T455 161Q455 73 418 -15T328 -177T224 -300T146 -362Q139 -365 132 -367T118 -370Q81 -370 68 -352T54 -320Q54 -302 84 -271Q124 -229 152 -154T186
-7Q136 14 108 60T79 162Z" />
<glyph unicode="-" glyph-name="hyphen" horiz-adv-x="776" d="M109 496L128 632H685L666 496H109Z" />
<glyph unicode="." glyph-name="period" horiz-adv-x="672" d="M107 163Q107 240 160 302T302 364Q383 364 428 313T473 188Q473 105 416 43T276 -20Q195 -20 151 34T107 163Z" />
<glyph unicode="/" glyph-name="slash" horiz-adv-x="966" d="M-37 -415L844 1625H1010L127 -415H-37Z" />
<glyph unicode="0" glyph-name="zero" horiz-adv-x="1436" d="M649 -29Q394 -29 264 113T134 507Q134 699 214 857T447 1110T818 1205Q1073 1205 1204 1067T1336 686Q1336 486 1254 324T1018 67T649 -29ZM666 66Q756 66 818 123T920 277T976 493T994 738Q994 845
978 929T920 1061T797 1110Q710 1110 649 1055T549 905T493 691T475 443Q475 338 488 253T543 117T666 66Z" />
<glyph unicode="1" glyph-name="one" horiz-adv-x="1003" d="M77 30Q77 47 85 64T113 84Q169 89 221 97T308 121T346 158L476 973Q448 960 386 930T246 899Q230 899 215 921T200 964Q200 987 204 1020T219 1054Q337 1054 434 1096T591 1189H831L675 171Q671 143
701 125T780 98T882 84Q903 83 910 77T915 47Q914 36 907 18T882 0H112Q96 0 87 9T77 30Z" />
<glyph unicode="2" glyph-name="two" horiz-adv-x="1283" d="M27 0L38 75Q167 160 298 254T537 451T712 668T778 905Q778 946 762 992T708 1070T607 1103Q533 1103 506 1082T462 1043L377 776Q367 745 340 728T283 710Q249 710 211 728T146 782T119 874Q119 942
164 1002T286 1107T456 1179T646 1205Q826 1205 932 1163T1084 1048T1131 883Q1131 786 1077 698T930 531T718 382T467 249H1137L1099 0H27Z" />
<glyph unicode="3" glyph-name="three" horiz-adv-x="1279" d="M504 -451Q426 -451 340 -434T179 -376T56 -266T9 -92Q9 -8 40 48T119 132T215 161Q256 161 287 138T319 81L241 -245Q263 -285 314 -320T456 -356Q509 -356 569 -334T683 -266T771 -147T805 28Q805
153 761 231T652 346T527 383H464L484 497H547Q645 497 723 553T845 706T887 926Q887 970 870 1011T811 1080T690 1107Q656 1107 619 1103T563 1086L463 776Q453 745 426 728T369 710Q335 710 297 728T232 782T205 872Q205 950 252 1011T376 1116T545 1182T730
1205Q984 1205 1099 1111T1219 868Q1221 751 1148 660T956 513T706 448Q834 447 937 395T1102 257T1165 67Q1168 -64 1112 -161T959 -323T745 -419T504 -451Z" />
<glyph unicode="4" glyph-name="four" horiz-adv-x="1330" d="M638 -384L680 0H38L4 87L638 1217Q646 1232 684 1245T762 1258Q811 1258 857 1243T933 1204T963 1155Q963 1136 955 1125L239 164H693L737 536L794 576H1044L996 164H1211L1193 0H983L941 -384H638Z" />
<glyph unicode="5" glyph-name="five" horiz-adv-x="1227" d="M401 -451Q277 -451 177 -402T19 -275T-40 -108Q-40 -52 -16 -16T43 37T107 55Q146 55 174 35T211 -20Q215 -38 225 -83T248 -180T271 -275T285 -330Q285 -330 310 -343T394 -357Q498 -357 566 -309T674
-184T730 -16T747 160Q747 314 691 404T545 494Q467 494 373 463T217 358L156 391L353 1189H1111L1075 910H423L312 523Q374 561 460 584T635 607Q791 607 889 551T1033 397T1079 178Q1079 57 1030 -55T891 -257T676 -399T401 -451Z" />
<glyph unicode="6" glyph-name="six" horiz-adv-x="1327" d="M613 -29Q436 -29 323 44T155 233T101 479Q101 664 167 836T359 1154T665 1402T1076 1548L1059 1456Q901 1408 792 1309T614 1084T511 830Q543 862 599 892T722 943T852 964Q999 964 1091 914T1226
781T1270 602Q1270 426 1189 283T960 55T613 -29ZM618 66Q722 66 795 142T907 341T946 598Q946 698 903 764T763 831Q705 831 640 806T526 749T468 696Q431 606 420 509T408 317Q408 208 452 137T618 66Z" />
<glyph unicode="7" glyph-name="seven" horiz-adv-x="1160" d="M281 -382L920 879H387Q346 879 314 853T262 797T237 759Q227 740 206 733T163 726Q152 726 139 734T129 760L211 1190L1148 1189L1187 1122L529 -383L281 -382Z" />
<glyph unicode="8" glyph-name="eight" horiz-adv-x="1385" d="M115 361Q115 460 158 543T279 684T456 758Q289 882 289 1079Q289 1193 361 1279T558 1413T838 1462Q974 1462 1077 1422T1238 1308T1296 1135Q1296 1044 1249 970T1130 841T981 751Q1052 707 1112
656T1208 542T1245 398Q1245 282 1179 185T977 30T638 -29Q472 -29 355 24T177 166T115 361ZM856 828L903 801Q965 846 1001 937T1037 1122Q1037 1239 975 1302T802 1365Q681 1365 628 1304T575 1135Q575 1076 614 1022T718 920T856 828ZM528 705Q478 663 432 588T385
394Q385 246 465 156T683 66Q745 66 807 92T911 170T953 303Q953 365 912 420T804 526T665 620T528 705Z" />
<glyph unicode="9" glyph-name="nine" horiz-adv-x="1327" d="M281 -372L299 -272Q431 -248 527 -185T691 -35T801 151T871 346Q823 299 727 256T505 212Q359 212 268 267T136 410T94 594Q94 771 180 909T413 1126T744 1205Q925 1205 1037 1129T1200 933T1252
679Q1252 551 1216 414T1105 145T915 -95T642 -278T281 -372ZM594 340Q681 340 763 380T894 475Q921 563 935 663T949 859Q949 969 905 1039T739 1110Q635 1110 562 1034T450 836T411 578Q411 478 454 409T594 340Z" />
<glyph unicode=":" glyph-name="colon" horiz-adv-x="752" d="M130 411Q130 488 183 550T325 612Q406 612 451 561T496 436Q496 353 439 291T299 228Q218 228 174 282T130 411ZM245 900Q245 977 298 1039T440 1101Q521 1101 566 1050T611 925Q611 842 554 780T414
717Q333 717 289 771T245 900Z" />
<glyph unicode=";" glyph-name="semicolon" horiz-adv-x="752" d="M159 162Q159 246 216 301T352 356Q439 356 487 301T535 161Q535 73 498 -15T408 -177T304 -300T226 -362Q219 -365 212 -367T198 -370Q161 -370 148 -352T134 -320Q134 -302 164 -271Q204 -229
232 -154T266 -7Q216 14 188 60T159 162ZM272 900Q272 977 325 1039T467 1101Q548 1101 593 1050T638 925Q638 842 581 780T441 717Q360 717 316 771T272 900Z" />
<glyph unicode="&lt;" glyph-name="less" horiz-adv-x="1440" d="M1120 34L168 519L178 628L1222 1115L1207 952L371 570L1135 195L1120 34Z" />
<glyph unicode="=" glyph-name="equal" horiz-adv-x="1440" d="M256 700L269 846H1239L1226 700H256ZM219 272L232 418H1202L1189 272H219Z" />
<glyph unicode="&gt;" glyph-name="greater" horiz-adv-x="1440" d="M236 34L251 195L1087 570L323 952L338 1115L1290 628L1280 519L236 34Z" />
<glyph unicode="?" glyph-name="question" horiz-adv-x="1123" d="M489 483L497 537Q513 646 550 710T636 817T732 897T819 990T875 1134Q880 1161 882 1192T885 1259Q885 1305 870 1347T816 1416T701 1443Q640 1443 602 1427T546 1395T528 1378L459 1075Q453
1049 416 1028T334 1006Q176 1006 176 1157Q176 1246 225 1315T353 1431T527 1503T711 1528Q895 1528 1000 1482T1148 1365T1192 1219Q1192 1170 1185 1129T1163 1053Q1132 975 1078 922T961 828T838 750T737 666T683 554L671 483H489ZM358 163Q358 210 382 256T451
333T553 364Q634 364 679 313T724 188Q724 105 667 43T527 -20Q446 -20 402 34T358 163Z" />
<glyph unicode="@" glyph-name="at" horiz-adv-x="1980" d="M931 -330Q769 -330 626 -290T374 -166T202 52T139 372Q139 578 203 747T378 1047T629 1267T921 1403T1222 1449Q1350 1449 1471 1415T1689 1309T1844 1128T1902 869Q1902 725 1859 605T1744 392T1588
234T1418 137T1263 103Q1170 103 1119 137T1049 217Q993 160 929 136T815 111Q757 111 695 129T590 200T547 361Q547 481 588 597T706 808T888 958T1120 1014Q1176 1014 1210 994T1258 943L1296 994H1520L1262 362Q1255 349 1250 322T1244 279Q1244 256 1255 238T1297
220Q1364 220 1443 266T1594 396T1712 594T1758 846Q1758 1006 1678 1116T1469 1284T1194 1341Q1078 1341 953 1302T710 1184T498 990T348 724T292 387Q292 238 335 132T450 -43T608 -153T783 -209T945 -225Q1064 -225 1156 -200T1315 -140T1426 -70T1491 -17L1545
-100Q1524 -119 1475 -156T1348 -234T1166 -302T931 -330ZM858 222Q894 222 946 267T1036 404L1184 799Q1185 807 1185 814T1186 828Q1186 866 1169 891T1116 916Q1054 916 1004 870T917 752T855 600T818 449T805 337Q805 297 815 260T858 222Z" />
<glyph unicode="A" glyph-name="A" horiz-adv-x="1553" d="M1011 142L955 423H367L243 201Q238 191 232 174T225 146Q225 121 268 108T373 87Q399 84 405 76T412 52Q412 35 405 18T377 0H-92Q-107 0 -113 15T-120 44Q-120 70 -107 78T-82 88Q-17 101 26 122T94
186L832 1451H1065L1368 184Q1379 144 1411 116T1495 88Q1539 88 1539 53Q1539 34 1528 17T1500 0H884Q868 0 862 18T855 48Q855 85 891 88Q958 93 986 94T1014 122Q1014 127 1011 142ZM800 1195L418 514H936L800 1195Z" />
<glyph unicode="B" glyph-name="B" horiz-adv-x="1555" d="M30 46Q30 85 68 88Q124 92 173 105T227 152L389 1234Q395 1276 373 1295T315 1321T242 1331Q211 1334 211 1352Q211 1378 224 1398T254 1419H825Q1052 1419 1182 1383T1368 1279T1423 1112Q1423 1026
1381 946T1257 811T1057 747Q1159 742 1249 706T1395 603T1449 437Q1447 301 1371 203T1131 53T701 0H57Q41 0 36 16T30 46ZM774 1331H739L663 790H794Q952 790 1017 872T1082 1132Q1082 1242 1004 1286T774 1331ZM571 137Q569 121 593 113T648 103T695 100Q755
100 821 110T945 156T1040 263T1080 458Q1081 547 1051 597T968 670T853 698T723 704H651L571 137Z" />
<glyph unicode="C" glyph-name="C" horiz-adv-x="1465" d="M794 -27Q552 -27 403 60T185 296T116 629Q116 813 183 963T369 1222T649 1390T996 1449Q1195 1449 1310 1417T1474 1361L1436 1061Q1436 1046 1419 1037T1382 1024T1353 1020Q1318 1020 1305 1036T1292
1080Q1292 1353 979 1353Q859 1353 747 1273T562 1031T489 621Q489 437 532 313T648 127T808 65Q921 65 991 96T1111 196T1210 372Q1226 406 1265 406Q1274 406 1293 403T1330 393T1347 375L1306 98Q1303 88 1260 68T1144 25T982 -12T794 -27Z" />
<glyph unicode="D" glyph-name="D" horiz-adv-x="1708" d="M33 51Q36 84 71 88Q120 92 171 105T226 152L392 1250Q392 1286 369 1302T314 1323T254 1331Q224 1334 224 1353Q224 1362 225 1368Q226 1379 238 1399T267 1419H953Q1200 1418 1352 1341T1575 1141T1646
877Q1646 672 1578 510T1391 233T1118 60T792 0H60Q44 0 38 20T33 51ZM572 135Q572 124 580 114T623 98T738 91Q890 91 1013 176T1208 441T1281 904Q1281 1078 1227 1170T1077 1296T856 1331H753L572 135Z" />
<glyph unicode="E" glyph-name="E" horiz-adv-x="1477" d="M747 1331L669 778H947Q974 782 1000 815T1045 888T1070 948Q1076 968 1100 974T1146 981Q1157 981 1171 973T1183 947L1113 504Q1110 487 1094 479T1066 470Q1043 470 1021 477T1000 503Q1001 525 995
567T974 646T929 682H656L585 176Q585 134 609 119T662 101H1021Q1083 101 1131 136T1213 221T1267 314T1293 373Q1299 392 1317 399T1351 406Q1411 406 1410 372L1341 0H43Q26 0 20 20T16 51Q19 84 54 88Q87 91 126 97T196 117T229 152L390 1247Q390 1284 362
1301T295 1323T228 1331Q197 1334 197 1353Q197 1374 210 1396T241 1419H1439L1414 1104Q1411 1087 1392 1079T1359 1070Q1343 1070 1327 1077T1310 1103Q1310 1118 1306 1155T1286 1232T1238 1302T1150 1331H747Z" />
<glyph unicode="F" glyph-name="F" horiz-adv-x="1375" d="M43 0Q28 0 22 15T15 43Q15 84 54 88Q114 92 169 105T229 152L392 1249Q392 1285 367 1301T305 1323T234 1331Q203 1334 203 1353Q203 1374 216 1396T247 1419H1411L1393 1070Q1388 1053 1365 1045T1325
1036Q1289 1036 1289 1069Q1289 1084 1278 1125T1245 1214T1192 1296T1121 1331H742L655 739H923Q950 743 976 776T1021 849T1046 909Q1052 929 1074 935T1119 942Q1130 942 1146 934T1159 908L1089 465Q1086 448 1070 440T1042 431Q1019 431 997 438T976 464Q977
486 971 528T950 607T905 643H640L572 179Q572 126 632 111T828 88Q860 86 860 61Q860 42 850 21T825 0H43Z" />
<glyph unicode="G" glyph-name="G" horiz-adv-x="1653" d="M823 -30Q614 -30 453 42T201 257T110 609Q110 815 183 971T381 1234T663 1395T990 1449Q1170 1449 1277 1434T1443 1398T1540 1361L1491 1051Q1490 1028 1468 1019T1433 1010Q1405 1010 1384 1013T1361
1039Q1350 1147 1312 1210T1219 1304T1098 1344T964 1353Q862 1353 783 1304T647 1172T554 985T500 773T485 563Q490 317 583 193T816 68Q945 68 1004 103T1075 170L1131 475Q1130 509 1100 524T1028 545T950 553Q919 554 919 577Q919 588 926 614T964 641H1616Q1630
641 1635 627T1641 599Q1641 556 1601 553Q1554 550 1510 536T1465 489L1402 123Q1385 101 1308 65T1106 -1T823 -30Z" />
<glyph unicode="H" glyph-name="H" horiz-adv-x="1870" d="M62 0Q45 0 39 20T33 51Q33 84 73 88Q125 92 173 105T229 152L392 1255Q392 1288 371 1303T318 1323T256 1331Q235 1333 230 1344T225 1377Q225 1390 238 1404T268 1419H893Q907 1419 913 1405T919 1378Q919
1336 880 1331Q831 1327 780 1314T724 1267L651 778H1307L1377 1253Q1377 1303 1333 1314T1241 1331Q1220 1333 1215 1342T1210 1374Q1210 1388 1223 1403T1253 1419H1858Q1872 1419 1878 1405T1884 1377Q1884 1335 1845 1331Q1802 1327 1758 1314T1709 1267L1546
166Q1546 132 1572 117T1634 97T1702 88Q1722 86 1726 76T1731 51Q1731 30 1720 15T1692 0H1047Q1030 0 1024 20T1018 51Q1022 67 1030 77T1058 88Q1107 92 1158 105T1214 152L1293 682H637L561 165Q561 132 583 117T638 96T697 88Q717 86 721 76T726 51Q726 31
715 16T687 0H62Z" />
<glyph unicode="I" glyph-name="I" horiz-adv-x="923" d="M35 41Q35 85 74 88Q123 91 175 105T233 152L396 1234Q398 1246 398 1252Q398 1287 373 1302T313 1323T250 1331Q219 1334 219 1352Q219 1356 221 1368Q223 1379 236 1399T266 1419H911Q925 1419 930 1405T935
1378Q935 1334 894 1331Q843 1327 795 1314T742 1267L581 185Q579 171 579 167Q579 133 605 117T666 96T728 88Q759 85 759 66Q759 63 757 51Q756 40 744 20T714 0H59Q45 0 40 14T35 41Z" />
<glyph unicode="J" glyph-name="J" horiz-adv-x="1219" d="M425 -30Q358 -30 282 -13T138 45T29 152T-14 318Q-14 372 7 421T76 501T201 532Q254 532 290 505T326 447L284 177Q284 122 327 91T430 59Q498 59 542 89T615 194T661 406L789 1259Q789 1307 745 1316T581
1331Q550 1332 550 1352Q550 1369 556 1394T584 1419H1307Q1323 1419 1328 1402T1333 1372Q1333 1334 1293 1331Q1263 1329 1226 1322T1162 1302T1130 1267L1007 439Q985 291 927 199T787 57T612 -11T425 -30Z" />
<glyph unicode="K" glyph-name="K" horiz-adv-x="1673" d="M62 0Q45 0 39 20T35 51Q38 85 73 88Q122 92 172 105T228 152L391 1234Q392 1240 392 1251Q392 1286 369 1302T314 1323T254 1331Q223 1334 223 1353Q223 1374 236 1396T267 1419H881Q898 1419 903 1399T907
1368Q900 1334 867 1331Q816 1327 775 1314T728 1267L562 169Q557 133 584 117T651 96T727 88Q744 86 751 82T759 63Q759 44 746 22T717 0H62ZM1199 0Q1149 0 1130 24T1099 70Q1047 171 990 270T878 456T776 605T698 692L1249 1246Q1264 1263 1264 1275Q1264 1296
1226 1310T1135 1330Q1110 1333 1110 1353Q1110 1373 1123 1395T1154 1418H1676Q1693 1418 1698 1398T1702 1367Q1694 1330 1661 1330Q1581 1330 1522 1308T1425 1257T1370 1211L996 846Q1077 752 1150 648T1282 455T1376 317Q1402 281 1443 229T1532 135T1627
89Q1656 86 1656 53Q1656 0 1617 0H1199Z" />
<glyph unicode="L" glyph-name="L" horiz-adv-x="1404" d="M30 43Q30 84 69 88Q118 93 168 106T224 152L391 1250Q397 1285 374 1301T316 1323T253 1331Q222 1334 222 1353Q222 1374 235 1396T266 1419H931Q948 1419 952 1408T957 1385Q957 1369 947 1350T917
1331Q883 1331 841 1323T767 1295T729 1237L570 159Q565 125 589 113T644 101H909Q954 101 997 142T1081 245T1157 376T1220 498Q1228 516 1247 523T1282 531Q1304 531 1328 523T1348 497L1233 0H58Q43 0 37 15T30 43Z" />
<glyph unicode="M" glyph-name="M" horiz-adv-x="2116" d="M-11 0Q-27 0 -31 20T-35 51Q-33 67 -26 76T2 88Q41 91 88 97T172 123T218 184L414 1234Q415 1239 415 1248Q415 1284 382 1300T305 1323T227 1331Q195 1334 195 1355Q195 1379 209 1398T239 1419H880L1050
468H1062L1430 1246Q1458 1306 1472 1345T1499 1419H2097Q2112 1419 2117 1404T2122 1376Q2122 1335 2084 1331Q2052 1329 2014 1322T1948 1302T1918 1267L1839 185Q1836 142 1863 123T1928 97T1997 88Q2014 86 2021 82T2029 63Q2029 44 2016 22T1987 0H1315Q1299
0 1293 20T1288 51Q1290 67 1298 76T1326 88Q1359 91 1399 97T1469 117T1500 152L1588 1281H1549L953 0H848L554 1281H518L316 185Q314 175 314 170Q314 135 345 118T418 96T494 88Q511 86 518 82T526 63Q526 43 514 22T484 0H-11Z" />
<glyph unicode="N" glyph-name="N" horiz-adv-x="1699" d="M-6 0Q-20 0 -26 13T-32 33Q-32 56 -26 70T9 88Q41 91 88 98T175 122T219 172L377 1204Q379 1216 379 1221Q379 1258 352 1281T288 1317T223 1331Q192 1334 192 1353Q192 1373 206 1396T238 1419H730L1318
282H1330L1464 1234Q1465 1238 1465 1246Q1465 1284 1427 1301T1340 1323T1264 1331Q1216 1336 1222 1368Q1224 1379 1236 1399T1266 1419H1791Q1805 1419 1810 1405T1816 1378Q1816 1336 1775 1331Q1745 1328 1698 1322T1611 1297T1564 1234L1399 113Q1396 94
1398 81T1392 40Q1379 -2 1331 -16T1224 -30Q1214 -30 1185 -27T1130 -19T1099 -8L487 1180H470L320 173Q320 136 359 119T447 96T524 88Q555 85 555 58Q555 39 542 20T512 0H-6Z" />
<glyph unicode="O" glyph-name="O" horiz-adv-x="1679" d="M764 -29Q538 -29 394 54T181 278T112 592Q112 760 170 914T338 1188T607 1379T965 1449Q1198 1449 1346 1369T1564 1150T1634 840Q1634 672 1575 516T1404 238T1130 43T764 -29ZM790 65Q930 65 1022
141T1167 344T1243 622T1266 927Q1266 1129 1203 1242T967 1356Q823 1356 729 1280T580 1078T503 800T480 495Q480 294 546 180T790 65Z" />
<glyph unicode="P" glyph-name="P" horiz-adv-x="1446" d="M35 0Q18 0 12 18T5 51Q5 85 43 88Q76 91 116 97T187 117T221 152L391 1251Q391 1286 368 1302T313 1323T253 1331Q237 1333 210 1336T182 1353Q182 1374 195 1396T226 1419H873Q1047 1419 1158 1389T1332
1309T1418 1196T1442 1069Q1442 820 1262 688T759 555H628L571 173Q571 126 625 111T774 88Q794 87 801 78T808 46Q808 30 796 15T767 0H35ZM633 641H708Q889 641 985 746T1081 1071Q1081 1150 1053 1208T957 1299T764 1331H739L633 641Z" />
<glyph unicode="Q" glyph-name="Q" horiz-adv-x="1679" d="M1126 -419Q982 -419 866 -374T682 -246T613 -50Q613 -37 615 -18Q442 10 331 96T167 311T114 592Q114 760 172 914T340 1188T609 1379T967 1449Q1200 1449 1348 1369T1566 1150T1636 840Q1636 691 1590
551T1454 295T1237 98T944 -13Q946 -77 991 -147T1133 -267T1389 -313V-383Q1389 -383 1324 -401T1126 -419ZM792 65Q932 65 1024 141T1169 344T1245 622T1268 927Q1268 1129 1205 1242T969 1356Q825 1356 731 1280T582 1078T505 800T482 495Q482 294 548 180T792
65Z" />
<glyph unicode="R" glyph-name="R" horiz-adv-x="1633" d="M61 0Q47 0 41 18T35 50Q35 85 68 88Q117 92 170 105T229 152L390 1251Q395 1287 371 1301T313 1321T253 1332T226 1358Q226 1383 235 1401T268 1419H867Q1097 1419 1227 1379T1410 1264T1463 1091Q1463
916 1351 810T1068 664Q1136 642 1181 590T1257 473T1311 349T1356 253Q1397 189 1434 143T1543 89Q1564 87 1570 71T1577 32Q1577 21 1569 11T1543 0H1159Q1081 0 1042 80Q1015 135 994 216T948 383T888 534T798 625H629L562 172Q562 135 583 118T635 96T696 88Q727
85 727 56Q727 43 721 22T686 0H61ZM644 713H756Q888 713 964 759T1073 890T1106 1084Q1106 1216 1040 1275T800 1334H734L644 713Z" />
<glyph unicode="S" glyph-name="S" horiz-adv-x="1337" d="M85 72Q100 144 115 221T141 364T154 471Q154 501 173 510T209 520Q234 520 253 508T272 478Q273 461 273 404T296 277Q334 162 417 111T609 59Q745 59 818 125T892 287Q892 367 842 423T712 528T545
630Q468 679 398 737T285 872T241 1055Q241 1184 314 1272T511 1404T783 1449Q896 1449 962 1429T1087 1385Q1101 1380 1109 1379T1122 1377Q1145 1377 1153 1391T1172 1418T1206 1432Q1220 1432 1240 1426T1259 1404Q1252 1328 1248 1290T1241 1229T1236 1176T1231
1087Q1230 1056 1219 1042T1181 1028Q1162 1028 1143 1035T1117 1059Q1113 1072 1106 1107T1081 1187T1031 1273T940 1342T796 1370Q684 1370 612 1321T540 1168Q540 1092 583 1035T694 932T838 843Q893 813 956 774T1076 683T1169 566T1205 415Q1205 309 1145
207T955 37T619 -30Q540 -30 482 -18T369 18T243 78Q234 83 227 77T210 61Q184 35 169 28T140 20Q109 20 96 38T85 72Z" />
<glyph unicode="T" glyph-name="T" horiz-adv-x="1401" d="M203 43Q203 84 242 88Q290 93 343 100T437 126T483 182L661 1331H534Q479 1331 433 1297T352 1211T292 1104T252 1003T232 937Q226 918 209 911T175 904Q168 904 148 907T111 919T96 938Q103 977 116
1037T144 1164T175 1288T202 1382T218 1419H1466Q1466 1349 1459 1264T1440 1094T1417 938Q1414 921 1380 913T1335 904Q1316 904 1300 911T1285 937Q1285 1057 1278 1145T1238 1282T1126 1331H993L815 175Q815 137 857 120T954 97T1048 88Q1068 87 1075 80T1083
50Q1083 33 1069 17T1038 0H231Q216 0 210 15T203 43Z" />
<glyph unicode="U" glyph-name="U" horiz-adv-x="1707" d="M846 -29Q559 -29 403 78T247 394Q247 435 249 475T258 546L359 1268Q359 1297 334 1308T275 1323T216 1332T190 1352Q190 1374 199 1396T234 1419H899Q914 1419 919 1403T924 1373Q924 1331 885 1331Q719
1331 710 1267L605 554Q598 507 594 453T590 361Q597 198 672 132T885 65Q1010 65 1093 109T1229 228T1312 394T1361 578L1463 1265Q1463 1303 1423 1315T1297 1331Q1266 1332 1266 1352Q1266 1374 1279 1396T1310 1419H1766Q1781 1419 1786 1404T1791 1375Q1791
1332 1752 1331Q1576 1325 1561 1230L1455 546Q1409 252 1258 112T846 -29Z" />
<glyph unicode="V" glyph-name="V" horiz-adv-x="1561" d="M471 -18L237 1254Q229 1298 203 1313T146 1328T91 1331Q60 1334 60 1353Q60 1373 75 1396T106 1419H781Q798 1419 801 1400T805 1368Q805 1334 765 1331Q605 1319 605 1258L766 159H773L1400 1246Q1406
1260 1406 1271Q1406 1296 1373 1310T1263 1331Q1236 1334 1236 1356Q1236 1379 1246 1399T1281 1419H1736Q1750 1419 1755 1409T1761 1386Q1761 1336 1717 1331Q1680 1327 1626 1316T1531 1241L803 -18H471Z" />
<glyph unicode="W" glyph-name="W" horiz-adv-x="2307" d="M416 -18L270 1254Q267 1299 236 1313T166 1328T104 1331Q73 1334 73 1353Q73 1382 88 1400T119 1419H819Q833 1419 838 1405T844 1378Q844 1359 834 1345T803 1331Q720 1331 668 1314T619 1261L702 291H716L1252
1399H1513L1620 291H1633L2105 1242Q2110 1254 2110 1260Q2110 1295 2050 1313T1918 1331Q1891 1331 1891 1355Q1891 1393 1906 1406T1936 1419H2481Q2495 1419 2500 1405T2506 1377Q2506 1350 2495 1342T2462 1331Q2437 1329 2401 1325T2331 1306T2276 1254L1582
-18H1314L1212 1039H1201L669 -18H416Z" />
<glyph unicode="X" glyph-name="X" horiz-adv-x="1643" d="M-41 0Q-55 0 -61 15T-67 43Q-67 68 -53 77T-20 88Q18 93 80 101T199 165L695 663L385 1254Q360 1301 320 1312T213 1330Q192 1332 186 1343T179 1371Q179 1385 192 1402T222 1419H891Q908 1419 911 1406T914
1380Q914 1364 903 1348T872 1331Q797 1331 772 1324T747 1303L959 854L1327 1257Q1341 1273 1341 1284Q1341 1305 1308 1318T1220 1331Q1201 1331 1197 1341T1194 1368Q1195 1385 1204 1402T1231 1419H1707Q1720 1419 1725 1408T1730 1383Q1730 1354 1719 1344T1685
1331Q1648 1327 1592 1319T1478 1254L993 775L1318 165Q1338 127 1369 112T1432 94T1488 88Q1505 87 1509 75T1514 51Q1514 34 1501 17T1471 0H799Q785 0 779 14T773 42Q773 83 817 88Q894 93 919 99T945 120L733 582L362 162Q346 144 346 136Q346 94 513 88Q532
86 536 76T541 48Q541 33 531 17T503 0H-41Z" />
<glyph unicode="Y" glyph-name="Y" horiz-adv-x="1499" d="M263 42Q263 62 278 74T315 88Q349 92 388 92T457 105T493 152L560 534L240 1254Q223 1293 194 1315T100 1341Q79 1343 76 1354T72 1378Q72 1393 85 1406T114 1419H771Q788 1419 792 1404T797 1378Q797
1363 783 1348T748 1331Q658 1327 621 1321T584 1297L844 639L1291 1258Q1303 1275 1303 1288Q1303 1308 1273 1319T1172 1331Q1156 1331 1147 1343T1137 1369Q1137 1386 1150 1402T1180 1419H1625Q1642 1419 1647 1404T1651 1378Q1647 1356 1638 1350T1607 1341Q1569
1337 1527 1327T1437 1254L907 547L845 150Q845 116 876 105T950 93T1023 88Q1040 86 1051 82T1063 63Q1063 36 1048 18T1018 0H289Q275 0 269 14T263 42Z" />
<glyph unicode="Z" glyph-name="Z" horiz-adv-x="1412" d="M23 31Q23 54 33 71T81 138L979 1331H572Q534 1331 488 1290T399 1193T324 1087T285 1019Q276 1000 260 993T221 986Q210 986 192 994T177 1020L275 1378Q281 1401 298 1410T330 1419H1371Q1383 1419
1394 1411T1405 1389Q1405 1361 1399 1348T1380 1317L446 83H901Q941 83 985 113T1070 191T1147 287T1205 376T1236 430Q1245 450 1261 456T1300 463Q1311 463 1335 455T1354 429L1229 41Q1222 19 1206 10T1175 0H62Q23 0 23 31Z" />
<glyph unicode="[" glyph-name="bracketleft" horiz-adv-x="915" d="M98 -313L378 1549H932L919 1453H670L416 -216H665L651 -313H98Z" />
<glyph unicode="\" glyph-name="backslash" horiz-adv-x="966" d="M770 -415H627L301 1625H446L770 -415Z" />
<glyph unicode="]" glyph-name="bracketright" horiz-adv-x="915" d="M853 1549L574 -313H23L36 -216H285L535 1453H286L300 1549H853Z" />
<glyph unicode="^" glyph-name="asciicircum" horiz-adv-x="1440" d="M162 300L766 1428H905L1233 300H1087L820 1260L331 300H162Z" />
<glyph unicode="_" glyph-name="underscore" horiz-adv-x="1440" d="M-113 -190H1346L1331 -296H-128L-113 -190Z" />
<glyph unicode="`" glyph-name="grave" horiz-adv-x="1024" d="M674 1121Q538 1236 439 1298T319 1383Q297 1405 297 1447Q297 1473 307 1502T343 1554Q380 1587 429 1587Q458 1587 483 1577T521 1551Q541 1529 593 1425T739 1179L674 1121Z" />
<glyph unicode="a" glyph-name="a" horiz-adv-x="1352" d="M372 -24Q268 -25 197 19T88 140T51 306Q51 417 98 540T237 770T458 944T755 1011Q844 1011 930 990T1064 934Q1125 969 1168 990T1232 1011Q1267 1011 1267 990L1129 189Q1126 164 1126 147Q1126 119
1148 111T1184 102Q1207 102 1232 108T1262 114Q1277 114 1283 103T1290 77Q1290 52 1280 44T1265 34Q1245 27 1162 1T963 -25Q879 -25 842 14T805 111Q805 122 813 161T831 250T851 343T864 404Q839 347 793 275T682 135T540 22T372 -24ZM493 153Q543 153 594
188T692 280T780 397T850 510T893 589L938 815Q938 854 886 890T750 926Q660 926 590 877T473 746T401 568T376 377Q376 242 408 198T493 153Z" />
<glyph unicode="b" glyph-name="b" horiz-adv-x="1329" d="M89 126L274 1329Q275 1336 275 1342T276 1355Q276 1403 251 1421T191 1443T133 1454Q123 1459 118 1467T114 1494Q116 1506 124 1521T145 1538Q286 1544 403 1545T580 1548Q588 1548 596 1542T605 1518Q605
1512 604 1508L548 1104L501 825Q577 921 675 967T865 1013Q1005 1013 1092 958T1221 809T1263 600Q1263 551 1255 492Q1233 358 1155 241T939 51T601 -22Q488 -22 380 3T193 63T89 126ZM491 702L410 165Q420 124 467 99T578 73Q675 73 743 128T852 277T909 492Q913
527 915 559T918 622Q918 734 879 799T742 865Q687 865 639 839T554 774T491 702Z" />
<glyph unicode="c" glyph-name="c" horiz-adv-x="1097" d="M707 1014Q896 1014 985 955T1075 781Q1075 717 1012 684T861 651Q832 651 821 656T801 696L746 918Q739 924 724 928T671 933Q560 933 489 790T418 390Q418 293 451 235T538 151T650 125Q736 125 799
160T914 239Q919 245 924 249T936 249L973 216Q978 212 978 207Q978 202 974 198T967 188Q888 94 788 33T539 -28Q316 -28 194 92T71 411Q71 539 119 648T255 840T457 968T707 1014Z" />
<glyph unicode="d" glyph-name="d" horiz-adv-x="1357" d="M460 -28Q322 -28 237 29T112 180T72 383Q72 506 119 619T255 822T463 963T730 1015Q817 1015 865 1000T950 965L968 1104L1001 1329Q1003 1345 1003 1350Q1003 1401 970 1420T896 1443T830 1454Q811
1463 811 1486Q811 1506 820 1521T842 1538Q932 1542 1025 1544T1194 1547T1308 1548Q1315 1548 1324 1542T1333 1518Q1333 1512 1332 1508L1133 175Q1132 169 1132 157Q1132 125 1149 114T1189 103Q1211 103 1234 108T1271 114Q1285 114 1290 102T1296 76Q1296
65 1291 52T1271 34Q1182 6 1115 -5T999 -17Q921 -17 882 6T831 62T818 121Q818 132 820 146Q780 95 717 56T586 -6T460 -28ZM583 120Q636 120 685 145T774 209T837 286L919 802Q912 824 894 851T841 899T751 920Q665 920 602 871T498 741T436 560T416 360Q416
249 445 198T513 134T583 120Z" />
<glyph unicode="e" glyph-name="e" horiz-adv-x="1141" d="M1085 789Q1085 705 1029 641T876 529T654 452T391 407Q390 396 390 384T390 360Q390 267 427 215T522 141T639 120Q733 120 812 147T976 225Q986 231 991 231Q999 231 1016 211T1034 179Q1034 178 1034
177T1035 175Q1035 170 1029 164Q933 70 804 21T537 -29Q314 -29 190 83T65 381Q65 516 117 631T259 832T468 966T718 1014Q856 1014 936 978T1051 889T1085 789ZM668 933Q576 933 496 815T396 484Q571 522 674 602T778 816Q778 863 755 898T668 933Z" />
<glyph unicode="f" glyph-name="f" horiz-adv-x="780" d="M-62 -442Q-153 -442 -201 -417T-268 -355T-287 -284Q-287 -225 -243 -183T-143 -140Q-126 -140 -99 -143L-23 -344Q16 -342 44 -312T95 -203T136 20L252 892H92Q80 893 76 911T74 941Q81 974 104 984L264
994L277 1075Q292 1170 321 1259T402 1419T536 1531T738 1573Q830 1573 880 1552T950 1498T970 1431Q970 1392 943 1365T879 1324T811 1309Q801 1309 799 1312L709 1475Q678 1475 657 1448T618 1342T580 1107L565 994H793Q813 992 813 969Q813 951 803 924T780
892H552L440 56Q423 -72 365 -186T201 -371T-62 -442Z" />
<glyph unicode="g" glyph-name="g" horiz-adv-x="1330" d="M549 -448Q292 -448 141 -379T-10 -163Q-10 -82 52 -30T186 46Q148 72 128 104T108 186Q108 239 138 285T213 367T302 424Q226 462 192 520T157 648Q157 778 230 858T418 976T659 1014Q785 1014 870 990T1005
923Q1043 958 1110 988T1242 1019Q1302 1019 1348 980T1394 865Q1394 804 1358 774T1277 744Q1244 744 1218 758T1184 798Q1179 817 1174 836T1164 874Q1157 878 1124 870T1063 848Q1084 800 1084 745Q1084 615 1018 532T839 409T588 369Q472 369 386 392Q362 377
346 358T330 320Q330 293 353 269T435 238L759 202Q980 177 1067 107T1154 -87Q1154 -199 1072 -280T852 -404T549 -448ZM612 458Q710 458 752 546T795 758Q795 847 759 887T637 928Q543 928 508 850T472 651Q472 559 503 509T612 458ZM575 -352Q649 -352 716 -332T825
-269T868 -158Q868 -113 814 -86T668 -47L348 -8Q335 -6 323 -4T299 0Q284 -24 271 -60T258 -141Q258 -235 326 -293T575 -352Z" />
<glyph unicode="h" glyph-name="h" horiz-adv-x="1383" d="M69 0L278 1329Q279 1337 279 1343T280 1357Q280 1404 257 1421T201 1443T145 1454Q135 1459 130 1467T126 1494Q128 1506 136 1521T157 1538Q300 1547 413 1547T587 1548Q595 1548 604 1540T611 1508L545
1104L489 785Q508 803 550 840T657 917T803 985T986 1014Q1056 1014 1114 993T1204 917T1226 763L1133 175Q1130 132 1147 118T1190 103Q1213 103 1238 108T1271 114Q1285 114 1290 102T1296 76Q1296 65 1291 52T1271 34Q1180 9 1112 -2T994 -13Q914 -13 875 7T822
54T809 105L900 689Q900 729 897 763T871 817T788 838Q714 838 654 806T550 733T482 669L378 0H69Z" />
<glyph unicode="i" glyph-name="i" horiz-adv-x="749" d="M297 -13Q239 -13 209 7T169 52T158 96Q158 139 164 173L265 785Q268 803 268 816Q268 861 246 876T194 894T142 903Q132 908 127 916T124 943Q126 955 134 970T154 987Q294 996 405 996T576 997Q584 997
592 989T600 957L474 140Q474 109 493 103T536 96Q558 96 581 101T617 107Q631 107 635 91T640 60Q640 37 616 30Q536 8 470 -2T297 -13ZM466 1180Q396 1180 350 1222T304 1334Q304 1396 334 1444T415 1519T521 1547Q591 1547 637 1505T684 1393Q684 1333 654 1285T574
1208T466 1180Z" />
<glyph unicode="j" glyph-name="j" horiz-adv-x="748" d="M-1 -449Q-135 -449 -209 -390T-283 -260Q-283 -212 -254 -175T-165 -138Q-117 -138 -92 -181L2 -347Q36 -346 70 -319T137 -206T193 56L301 817Q301 864 265 876T175 903Q165 908 160 916T157 943Q159
955 167 970T187 987Q327 996 438 996T609 997Q617 997 625 989T633 957L507 74Q485 -80 409 -198T226 -382T-1 -449ZM505 1180Q435 1180 389 1222T343 1334Q343 1396 373 1444T454 1519T560 1547Q630 1547 676 1505T723 1393Q723 1333 693 1285T613 1208T505 1180Z"
/>
<glyph unicode="k" glyph-name="k" horiz-adv-x="1313" d="M519 743L483 490L861 832Q877 845 877 858Q877 881 832 891T748 906Q722 909 722 936Q722 959 734 976T763 994H1296Q1312 994 1318 980T1324 954Q1324 935 1314 920T1285 906Q1241 908 1185 896T1078
861T996 808L831 649Q875 599 916 516T1001 341T1099 175Q1116 151 1139 127T1191 103Q1206 103 1224 108T1250 114Q1264 114 1269 102T1275 76Q1275 65 1270 52T1250 34Q1155 8 1077 -2T890 -13Q803 -13 768 67Q739 133 715 206T664 348T599 467L473 366L412 0H100L309
1359Q309 1405 287 1422T236 1443T182 1454Q163 1463 163 1494Q163 1511 172 1524T194 1538Q337 1547 443 1547T611 1548Q619 1548 627 1542T636 1518L519 743Z" />
<glyph unicode="l" glyph-name="l" horiz-adv-x="726" d="M134 180Q140 217 153 298T184 489T221 717T260 951T294 1158T318 1307T327 1364Q327 1400 302 1414T243 1434T185 1449T159 1485Q159 1494 168 1515T193 1538Q334 1545 450 1546T627 1548Q635 1548 643
1542T652 1518Q652 1516 641 1442T611 1246T570 981T525 693T484 427T454 229T442 149Q442 127 454 113T501 98Q522 98 544 102T581 107Q590 107 598 103T607 76Q607 64 602 52T582 34Q520 15 445 1T273 -13Q211 -13 180 10T137 63T126 116Q126 132 128 146T134
180Z" />
<glyph unicode="m" glyph-name="m" horiz-adv-x="2052" d="M1904 726L1823 195Q1820 171 1820 153Q1820 100 1848 100Q1885 100 1931 113Q1948 118 1956 105T1965 76Q1965 58 1957 54Q1938 44 1853 16T1641 -13Q1579 -15 1548 3T1507 49T1497 101Q1497 118 1499
130T1502 142L1586 694Q1589 711 1589 730Q1589 769 1567 806T1474 843Q1395 843 1333 803T1223 722L1115 0H801L908 697Q911 712 911 731Q911 770 889 806T794 843Q732 843 681 818T588 756T516 688L407 0H95L218 778Q221 795 221 807Q221 853 197 870T140 892T86
903Q67 912 67 933Q67 935 67 937T68 943Q68 955 77 970T98 987Q238 996 349 996T520 997Q528 997 537 989T544 957L518 785Q537 810 576 848T671 925T798 988T948 1014Q1060 1014 1135 976T1223 824Q1266 860 1323 904T1456 981T1629 1014Q1703 1014 1766 997T1869
931T1909 792Q1909 777 1908 761T1904 726Z" />
<glyph unicode="n" glyph-name="n" horiz-adv-x="1413" d="M1239 719L1162 195Q1159 173 1159 155Q1159 100 1187 100Q1224 100 1270 113Q1287 118 1295 105T1304 76Q1304 58 1296 54Q1256 35 1179 13T980 -13Q918 -15 887 3T846 49T836 101Q836 118 838 130T841
142L924 701Q927 724 927 744Q927 789 909 816T848 844Q744 844 663 793T531 689L421 0H109L230 778Q232 786 232 793T232 806Q232 853 208 870T153 892T99 903Q89 908 84 916T81 943Q83 955 91 970T111 987Q251 996 363 996T535 997Q543 997 553 989T559 957L533
785Q557 806 598 844T701 921T844 987T1029 1014Q1086 1014 1135 994T1214 924T1244 789Q1244 773 1243 756T1239 719Z" />
<glyph unicode="o" glyph-name="o" horiz-adv-x="1302" d="M84 421Q81 528 118 633T232 824T423 962T688 1014Q880 1014 996 956T1164 792T1217 546Q1217 393 1146 263T939 52T605 -28Q421 -28 308 28T141 185T84 421ZM599 59Q674 59 727 107T813 236T861 416T877
616Q877 754 838 840T690 926Q617 926 566 877T482 747T435 565T420 364Q420 230 456 145T599 59Z" />
<glyph unicode="p" glyph-name="p" horiz-adv-x="1357" d="M-80 -426Q-94 -426 -100 -414T-107 -390Q-107 -364 -97 -357T-67 -348Q-42 -345 -13 -339T39 -314T69 -251L219 778Q220 785 220 791T221 804Q221 848 201 865T152 888T101 899Q87 903 78 910T68 933Q68
941 75 963T99 987Q239 993 350 995T521 997Q529 997 537 991T546 967L523 815Q599 918 701 965T894 1013Q1028 1013 1108 956T1225 808T1261 618Q1261 502 1221 388T1099 179T897 27T613 -30Q561 -30 509 -24T408 -7L400 -108L375 -288Q375 -319 430 -331T542
-348Q571 -351 571 -375Q571 -382 563 -404T530 -426H-80ZM590 65Q699 65 770 143T878 349T914 627Q914 737 882 801T764 865Q695 865 627 818T521 719L429 144Q431 121 481 93T590 65Z" />
<glyph unicode="q" glyph-name="q" horiz-adv-x="1331" d="M601 -444Q584 -444 579 -429T573 -403Q573 -370 611 -366Q661 -360 709 -348T763 -302L804 -29L829 146Q732 50 644 11T466 -28Q330 -28 245 29T121 180T81 383Q81 510 128 624T264 826T472 964T739
1015Q816 1015 870 1001T984 951Q1030 967 1055 977T1108 994Q1115 996 1139 1004T1189 1020T1227 1028Q1261 1028 1261 989L1077 -292Q1077 -340 1120 -351T1206 -366Q1238 -369 1238 -396Q1238 -418 1226 -431T1197 -444H601ZM592 120Q645 120 694 145T783 208T846
279L928 802Q921 821 903 849T850 898T760 920Q676 920 614 873T510 746T449 571T428 376Q428 256 456 202T522 134T592 120Z" />
<glyph unicode="r" glyph-name="r" horiz-adv-x="1093" d="M558 811Q589 848 642 895T764 978T913 1014Q1003 1014 1045 967T1087 845Q1087 728 1016 671T828 614L774 820Q714 820 654 787T558 721L444 0H132L255 778Q258 795 258 807Q258 853 234 870T177 892T123
903Q104 912 104 933Q104 953 113 969T135 987Q275 996 381 996T547 997Q555 997 563 991T572 967Q572 967 569 930T558 811Z" />
<glyph unicode="s" glyph-name="s" horiz-adv-x="1059" d="M490 -26Q378 -26 279 -5T117 64T55 191Q55 247 92 282T203 317L367 85Q387 68 420 60T488 52Q557 52 609 86T661 177Q661 227 618 264T508 337T372 414Q311 451 262 492T185 589T156 729Q156 809 209
873T360 975T592 1013Q810 1013 916 954T1023 815Q1023 779 994 754T928 715T872 701L724 900Q700 917 675 927T615 938Q530 938 483 904T436 814Q436 753 502 712T664 618Q745 573 809 526T910 420T947 281Q947 216 902 145T756 24T490 -26Z" />
<glyph unicode="t" glyph-name="t" horiz-adv-x="854" d="M340 -28Q249 -28 195 10T140 161Q140 192 144 223L241 892H104Q94 893 90 906T86 931Q86 954 100 973T127 994Q204 1006 254 1032T346 1116T440 1275Q458 1310 484 1324T556 1338H597Q610 1338 616 1330T620
1314L566 994H824Q836 993 839 983T843 960Q843 934 832 916T810 892H552L461 276Q455 239 455 212Q455 147 483 134T542 121Q595 121 633 138T696 171T734 188Q750 188 757 173T765 139Q765 119 753 111Q692 71 642 40T524 -10T340 -28Z" />
<glyph unicode="u" glyph-name="u" horiz-adv-x="1403" d="M432 -28Q363 -28 303 -4T205 76T167 223Q167 258 175 308L251 822Q252 829 252 840Q252 873 235 883T193 894Q172 894 149 889T112 883Q88 883 83 912Q81 923 88 937T112 957Q307 1007 406 1007Q508
1007 538 981T568 922Q568 903 564 885T558 852L468 273Q467 262 466 250T464 227Q464 182 488 148T582 113Q669 113 722 137T820 189L944 994H1219Q1252 994 1252 966L1124 141Q1124 88 1152 88Q1166 88 1185 92T1224 101Q1241 106 1249 93T1258 64Q1258 46 1250
42Q1231 32 1156 4T954 -25Q883 -25 852 10T820 89Q820 98 822 114Q796 82 735 49T595 -6T432 -28Z" />
<glyph unicode="v" glyph-name="v" horiz-adv-x="1254" d="M452 -24Q384 -24 359 -14T334 22Q334 31 334 48T335 91Q335 216 314 349T254 600T165 799Q156 813 144 822T115 832Q99 832 86 830T52 807Q38 793 23 793Q13 793 0 803T-13 839Q-13 852 -7 864Q47 943
128 978T301 1014Q421 1014 493 903Q547 821 573 712T607 488T615 278Q615 247 595 189T545 95Q597 114 659 159T777 271T870 416T907 580Q907 635 892 679T861 769T845 874Q845 933 888 973T1005 1014Q1070 1014 1110 976T1168 879T1187 761Q1187 655 1138 548T1009
343T838 166T661 37T515 -23Q511 -24 503 -24T452 -24Z" />
<glyph unicode="w" glyph-name="w" horiz-adv-x="1912" d="M496 -15Q424 -15 399 -5T374 31Q374 40 374 56T375 91Q375 307 350 449T291 676T234 799Q227 813 207 822T169 832Q153 832 138 820T102 788Q88 774 74 774Q64 774 51 784T38 820Q38 826 39 832T44 845Q114
940 189 977T361 1014Q450 1014 503 952T584 784T620 548T629 278Q629 232 616 188T591 95Q650 121 713 178T833 311T923 473T958 644Q953 674 955 710T930 798Q913 831 877 831Q866 831 842 819T800 787Q786 773 771 773Q761 773 749 783T736 819Q736 836 742
844Q805 935 888 974T1027 1014Q1118 1015 1168 959T1240 801T1267 566T1272 278Q1272 230 1261 182T1231 95Q1314 137 1393 208T1524 374T1576 582Q1576 637 1560 680T1529 769T1516 874Q1518 933 1559 973T1673 1014Q1737 1014 1775 976T1831 879T1848 761Q1848
655 1806 551T1694 353T1540 182T1369 54T1210 -14Q1207 -15 1193 -15T1129 -15Q1057 -15 1029 -5T1000 31Q1000 40 1002 68T1004 122Q1004 202 1000 258T990 375Q905 209 786 111T568 -14Q565 -15 496 -15Z" />
<glyph unicode="x" glyph-name="x" horiz-adv-x="1195" d="M171 -30Q85 -30 32 30T-22 160Q-22 221 15 265T99 309Q150 309 172 272L217 196L439 438L329 735Q312 781 294 804T247 827Q216 827 193 806T146 759Q128 739 112 739Q97 739 87 751T77 780Q77 797 87
810Q155 897 244 950T448 1004Q570 1004 616 864L698 614L859 887Q893 945 937 969T1025 994Q1112 994 1160 939T1208 812Q1208 748 1167 710T1084 671Q1046 671 1027 696L963 777L729 522L839 241Q857 195 875 172T921 149Q953 149 976 166T1022 207Q1030 215
1038 221T1056 227Q1072 227 1081 215T1091 185Q1091 170 1082 156Q1021 72 940 23T730 -26Q657 -26 612 18T543 136L477 345L312 79Q245 -30 171 -30Z" />
<glyph unicode="y" glyph-name="y" horiz-adv-x="1371" d="M246 -449Q184 -449 132 -420T80 -328Q80 -273 120 -243T216 -212Q273 -212 314 -221T395 -230Q439 -230 482 -206T565 -147T634 -79T683 -28Q578 -28 522 -19T445 10T424 64Q424 182 405 300T357 522T295
700T235 801Q225 812 208 822T177 832Q163 832 150 820T123 788Q109 768 96 768Q86 768 75 781T63 820Q63 833 69 845Q104 908 157 945T263 998T349 1014Q412 1014 459 989T538 903Q570 850 598 759T649 558T685 341T698 146Q698 112 699 67T699 -11Q715 8 751
53T832 160T917 295T985 440T1012 580Q1012 635 995 679T959 769T941 874Q941 933 983 973T1100 1014Q1165 1014 1205 976T1264 879T1283 761Q1283 648 1237 543T1121 342T973 160T834 0Q768 -78 694 -157T543 -302T390 -409T246 -449Z" />
<glyph unicode="z" glyph-name="z" horiz-adv-x="1059" d="M31 0Q10 0 -3 12T-16 38Q-16 71 28 123L590 779L719 911H404Q367 911 332 879T269 801T221 714T198 654Q194 635 179 628T147 621Q136 621 117 629T101 655L169 953Q172 971 189 982T222 994H1017Q1077
994 1077 961Q1077 937 1070 923T1047 889L492 226L352 83H664Q701 83 736 115T800 193T849 280T874 340Q883 373 916 373Q927 373 950 365T972 339L912 41Q910 22 893 12T860 0H31Z" />
<glyph unicode="{" glyph-name="braceleft" horiz-adv-x="1024" d="M239 -16L298 371Q300 379 300 385T300 399Q300 470 244 516T102 562H72L89 672H119Q213 672 287 726T373 863L431 1250Q448 1361 512 1426T658 1520T810 1549H1043L1030 1462H927Q848 1462 805
1407T753 1293L691 886Q672 764 577 700T348 616Q462 597 537 545T613 392Q613 371 610 348L549 -59Q546 -77 546 -95Q546 -145 567 -186T657 -228H776L762 -315H513Q449 -315 385 -292T278 -214T235 -70Q235 -41 239 -16Z" />
<glyph unicode="|" glyph-name="bar" horiz-adv-x="794" d="M246 -367V1535H391V-367H246Z" />
<glyph unicode="}" glyph-name="braceright" horiz-adv-x="1024" d="M833 1250L774 863Q771 847 771 831Q771 761 822 717T958 672H988L968 562H938Q844 562 779 508T701 371L644 -16Q623 -127 557 -192T409 -286T257 -315H31L44 -228H144Q224 -228 268 -172T320
-59L381 348Q399 470 488 534T711 618Q599 637 528 688T457 837Q457 858 462 886L525 1293Q528 1313 528 1332Q528 1382 503 1422T409 1462H296L309 1549H556Q619 1549 684 1526T794 1452T839 1312Q839 1283 833 1250Z" />
<glyph unicode="~" glyph-name="asciitilde" horiz-adv-x="1440" d="M1204 644Q1179 589 1139 534T1045 442T922 405Q837 405 776 437T644 501Q606 518 574 525T515 533Q454 533 417 505T356 447T312 408Q293 404 273 428T252 478Q252 499 258 508Q290 556 333
606T430 690T551 725Q633 725 686 693T806 629Q844 611 876 604T937 596Q1001 596 1042 624T1109 684T1156 723Q1167 725 1189 708T1211 676Q1211 663 1210 658T1204 644Z" />
<glyph unicode="&#xa0;" glyph-name="uni00A0" horiz-adv-x="520" />
<glyph unicode="&#xa1;" glyph-name="exclamdown" horiz-adv-x="771" d="M714 1337Q714 1291 690 1245T622 1167T519 1136Q438 1136 393 1187T348 1312Q348 1395 405 1457T545 1520Q626 1520 670 1466T714 1337ZM521 959Q510 770 511 597T513 296T501 111Q488
53 437 13T311 -28Q230 -28 185 11T139 111Q139 129 156 186T201 324T261 497T326 678T383 842T421 959H521Z" />
<glyph unicode="&#xa2;" glyph-name="cent" horiz-adv-x="1420" d="M704 -202Q684 -227 665 -236T631 -246Q612 -246 601 -236T589 -218Q589 -211 597 -209L620 -26Q424 -9 318 108T212 411Q212 570 286 700T489 913T779 1011L804 1206Q822 1221 839 1226T870
1232Q891 1232 904 1224T918 1209Q918 1204 910 1204L885 1013Q1055 1008 1135 950T1216 787Q1216 725 1153 694T1002 662Q973 662 962 666T942 705L887 919Q880 924 865 928T812 933Q701 933 630 790T559 390Q559 293 592 235T679 151T791 125Q877 125 940 160T1055
239Q1060 245 1065 249T1077 249L1114 216Q1119 212 1119 207Q1119 202 1115 198T1108 188Q1035 101 945 42T726 -26L704 -202Z" />
<glyph unicode="&#xa3;" glyph-name="sterling" horiz-adv-x="1413" d="M121 -5Q83 -5 44 12T4 73Q4 149 85 187T287 226Q308 247 314 282T324 379T338 547L353 699H180Q170 700 166 715T162 743Q162 765 172 783T195 806H364L370 871Q387 1042 457 1172T663 1375T1011
1448Q1114 1448 1181 1415T1280 1333T1313 1233Q1313 1172 1286 1136T1215 1099Q1191 1099 1166 1103T1128 1128L1004 1350Q988 1358 977 1362T930 1366Q871 1366 832 1323T765 1177T716 893L705 806H1004Q1023 805 1023 779Q1023 761 1012 733T989 699H693L681
604Q667 486 638 407T557 270T422 158Q487 129 574 109T768 88Q909 88 981 133T1068 259L1027 431Q1027 431 1042 451T1087 490T1162 510Q1232 510 1270 477T1324 395T1340 301Q1340 214 1297 154T1182 56T1021 1T843 -16Q720 -16 639 -3T505 29T415 62T345 78Q301
41 247 18T121 -5Z" />
<glyph unicode="&#xa4;" glyph-name="currency" horiz-adv-x="1440" d="M388 575Q388 679 436 765L258 946L383 1063L555 888Q639 939 746 939Q851 939 933 890L1103 1063L1228 946L1051 766Q1098 681 1098 575Q1098 470 1050 384L1228 203L1103 87L932 262Q849
211 742 211Q636 211 554 261L383 87L258 203L435 384Q388 469 388 575ZM905 575Q905 682 862 734T741 786Q580 786 580 575Q580 469 623 417T744 364Q821 364 863 416T905 575Z" />
<glyph unicode="&#xa5;" glyph-name="yen" horiz-adv-x="1500" d="M321 0Q306 0 300 12T294 38Q294 57 307 72T342 88Q376 91 423 92T507 105T549 152L568 300H139Q129 301 124 315T119 343Q119 363 130 383T152 404H582L612 635H174Q164 636 159 649T154 675Q154
695 165 715T187 736H593L316 1254Q295 1294 255 1311T173 1334T107 1341Q75 1344 75 1365Q75 1388 87 1403T116 1419H801Q818 1419 824 1409T829 1388Q827 1372 819 1358T791 1341Q729 1337 681 1331T633 1298L849 794L1307 1305Q1307 1324 1265 1331T1168 1341Q1139
1345 1139 1368Q1142 1395 1154 1407T1180 1419H1635Q1652 1419 1658 1404T1663 1378Q1660 1356 1652 1350T1622 1341Q1584 1337 1527 1323T1419 1254L948 736H1311Q1321 735 1326 724T1331 701Q1331 682 1320 659T1298 635H900L870 404H1276Q1286 403 1291 392T1296
369Q1296 350 1285 325T1263 300H857L838 154Q838 117 869 105T943 93T1016 88Q1036 86 1048 80T1057 51Q1056 40 1045 20T1016 0H321Z" />
<glyph unicode="&#xa6;" glyph-name="brokenbar" horiz-adv-x="794" d="M246 765V1535H391V765H246ZM246 -369V401H391V-369H246Z" />
<glyph unicode="&#xa7;" glyph-name="section" horiz-adv-x="1154" d="M438 -361Q293 -361 209 -303T125 -157Q125 -93 165 -54T248 -15L445 -271Q521 -271 561 -221T602 -99Q602 -29 558 22T441 131T287 276Q224 344 195 410T166 548Q166 624 199 693T291 805T430
849Q387 899 348 968T308 1102Q308 1209 365 1286T518 1406T728 1449Q873 1449 957 1392T1041 1247Q1041 1183 1003 1143T920 1103L720 1359Q646 1359 605 1309T564 1187Q564 1117 608 1065T724 956T879 812Q1001 675 1001 534Q1001 460 967 391T874 278T735 234Q780
183 819 116T859 -17Q859 -121 801 -198T648 -318T438 -361ZM688 284Q735 322 743 368T751 460Q751 523 724 568T664 642Q612 688 566 727T478 804Q429 762 423 717T417 626Q417 564 443 519T501 446Q554 401 601 361T688 284Z" />
<glyph unicode="&#xa8;" glyph-name="dieresis" horiz-adv-x="1024" d="M770 1180Q708 1180 675 1219T641 1316Q641 1323 641 1330T643 1345Q654 1413 701 1461T819 1510Q881 1510 914 1472T948 1375Q948 1368 948 1361T946 1345Q936 1278 888 1229T770 1180ZM293
1180Q231 1180 198 1219T164 1316Q164 1323 164 1330T166 1345Q177 1413 224 1461T342 1510Q404 1510 437 1472T471 1375Q471 1368 471 1361T469 1345Q459 1278 411 1229T293 1180Z" />
<glyph unicode="&#xa9;" glyph-name="copyright" horiz-adv-x="1929" d="M973 -281Q788 -281 626 -212T341 -19T149 266T79 613Q79 798 148 960T341 1246T626 1438T973 1508Q1158 1508 1320 1439T1606 1246T1798 961T1868 613Q1868 428 1799 266T1606 -19T1321
-211T973 -281ZM973 -201Q1140 -201 1285 -137T1542 39T1715 299T1778 613Q1778 780 1716 927T1542 1187T1286 1364T973 1428Q807 1428 661 1364T405 1187T232 927T169 613Q169 447 231 300T404 40T661 -137T973 -201ZM1012 122Q549 122 549 622Q549 789 611 896T781
1054T1021 1105Q1059 1105 1112 1096T1217 1059T1304 979Q1331 938 1342 904T1353 844Q1353 805 1334 784T1290 763Q1238 763 1216 792T1179 855Q1163 888 1156 921T1130 976Q1130 976 1105 994T1036 1013Q955 1013 886 981T775 862T732 612Q732 491 758 414T827
292T918 231T1008 213Q1063 213 1117 228T1214 287T1274 414Q1275 420 1277 427T1288 435L1360 436Q1373 436 1374 428T1376 412Q1372 308 1319 244T1184 151T1012 122Z" />
<glyph unicode="&#xaa;" glyph-name="ordfeminine" horiz-adv-x="1130" d="M385 612Q301 612 245 654T160 766T132 918Q132 1074 207 1199T412 1397T702 1470Q773 1470 837 1454T941 1409Q1003 1425 1055 1441T1126 1458Q1136 1458 1141 1450T1146 1433Q1146 1426
1138 1380T1116 1264T1088 1117T1060 968T1038 846T1029 783Q1030 739 1054 739Q1079 739 1098 744T1142 754Q1153 756 1158 742T1164 713Q1164 708 1161 698T1154 686Q1142 681 1097 663T990 629T863 612Q807 612 784 646T761 720Q761 743 765 773T775 829T780
859Q716 753 619 683T385 612ZM505 778Q558 778 604 807T688 880T757 968T809 1044L865 1323Q840 1357 792 1371T694 1386Q594 1386 531 1324T437 1157T407 927Q407 845 438 812T505 778Z" />
<glyph unicode="&#xab;" glyph-name="guillemotleft" horiz-adv-x="1250" d="M550 23L77 448L94 567L687 994L656 818L353 497L581 167L550 23ZM1102 23L629 448L646 567L1239 994L1208 818L905 497L1133 167L1102 23Z" />
<glyph unicode="&#xac;" glyph-name="logicalnot" horiz-adv-x="1440" d="M980 125V501H166V647H1136V125H980Z" />
<glyph unicode="&#xad;" glyph-name="uni00AD" horiz-adv-x="0" />
<glyph unicode="&#xae;" glyph-name="registered" horiz-adv-x="1929" d="M973 -281Q788 -281 626 -212T341 -19T149 266T79 613Q79 798 148 960T341 1246T626 1438T973 1508Q1158 1508 1320 1439T1606 1246T1798 961T1868 613Q1868 428 1799 266T1606 -19T1321
-211T973 -281ZM973 -201Q1140 -201 1285 -137T1542 39T1715 299T1778 613Q1778 780 1716 927T1542 1187T1286 1364T973 1428Q807 1428 661 1364T405 1187T232 927T169 613Q169 447 231 300T404 40T661 -137T973 -201ZM594 136Q583 136 578 148T572 167Q572 177
576 188T593 201Q625 203 653 212T682 243V981Q682 1023 651 1032T589 1044Q576 1046 571 1050T566 1069Q566 1089 588 1089H995Q1088 1089 1163 1067T1282 992T1327 847Q1327 744 1256 691T1080 608Q1148 602 1186 568T1248 483T1291 378T1339 278Q1361 235 1385
220T1435 201Q1468 197 1468 167Q1468 160 1463 148T1446 136H1303Q1249 136 1216 167T1164 247T1129 352T1096 456T1050 537T972 568H838V264Q838 222 876 213T950 201Q974 198 974 167Q974 160 969 148T952 136H594ZM838 645H930Q984 645 1037 657T1125 708T1160
827Q1160 907 1133 946T1057 999T945 1012H838V645Z" />
<glyph unicode="&#xaf;" glyph-name="overscore" horiz-adv-x="1440" d="M64 1282L87 1433H674L651 1282H64Z" />
<glyph unicode="&#xb0;" glyph-name="degree" horiz-adv-x="860" d="M105 1113Q105 1267 203 1362T455 1457Q610 1457 704 1362T799 1113Q799 959 703 863T451 767Q297 767 201 863T105 1113ZM264 1113Q264 1004 316 950T453 895Q537 895 588 949T640 1113Q640
1223 587 1276T450 1329Q365 1329 315 1276T264 1113Z" />
<glyph unicode="&#xb1;" glyph-name="plusminus" horiz-adv-x="1440" d="M254 0V146H626V501H224V647H626V1062H792V647H1194V501H792V146H1164V0H254Z" />
<glyph unicode="&#xb2;" glyph-name="uni00B2" horiz-adv-x="1130" d="M162 760L171 809Q180 853 210 871Q305 929 407 999T596 1154T737 1336T791 1548Q791 1603 766 1644T688 1686Q632 1686 603 1668T546 1605T470 1482Q457 1459 441 1437T379 1414Q336 1414
301 1435T266 1497Q266 1541 309 1598Q355 1659 458 1704T707 1750Q895 1750 982 1683T1070 1511Q1070 1437 1030 1365T925 1229T782 1111T627 1019T489 961H1006L966 760H162Z" />
<glyph unicode="&#xb3;" glyph-name="uni00B3" horiz-adv-x="1130" d="M541 744Q445 744 368 772T245 848T200 949Q200 1010 237 1053T330 1097Q386 1097 403 1084T431 1062L352 866Q359 862 395 835T515 808Q639 808 702 888T766 1092Q766 1181 718 1203T581
1226H505Q485 1226 485 1240Q485 1269 489 1285T516 1302H571Q687 1302 750 1369T813 1547Q813 1594 779 1639T663 1684Q644 1684 604 1675T531 1613Q512 1579 497 1548T468 1493Q449 1462 425 1451T372 1439Q331 1439 304 1467T277 1521Q277 1582 318 1625T427
1696T570 1737T716 1750Q813 1750 899 1726T1038 1657T1092 1549Q1092 1431 1005 1357T789 1267Q865 1267 934 1245T1048 1181T1093 1079Q1093 964 1016 890T813 780T541 744Z" />
<glyph unicode="&#xb4;" glyph-name="acute" horiz-adv-x="1024" d="M151 1353L100 1411Q202 1509 258 1589T341 1691Q359 1706 382 1716T431 1727Q472 1727 498 1694Q517 1670 517 1641Q517 1613 502 1589T466 1546Q448 1530 400 1506T286 1445T151 1353Z" />
<glyph unicode="&#xb5;" glyph-name="uni00B5" horiz-adv-x="1372" d="M80 -446Q32 -446 9 -415T-14 -338Q-14 -302 1 -234T38 -82T84 87T125 244T147 358L215 852Q215 902 183 913T117 928Q85 931 85 952Q85 974 96 985T124 996H517Q550 996 550 968Q550 962
543 912T526 786T503 625T480 462T462 331T455 266Q455 236 463 201T496 139T569 113Q653 113 717 160T833 260L915 852Q915 902 882 913T815 928Q783 931 783 952Q783 974 794 985T822 996H1215Q1248 996 1248 968Q1248 966 1240 911T1220 769T1194 585T1168 398T1148
249T1140 180Q1140 133 1163 116T1218 94T1273 83Q1293 74 1293 52Q1293 39 1285 25T1263 9Q1120 2 1004 1T826 -1Q818 -1 810 9T802 39L815 131Q795 99 748 62T639 -1T519 -27Q399 -27 325 9T204 111Q204 11 208 -95T212 -274Q212 -344 177 -395T80 -446Z" />
<glyph unicode="&#xb6;" glyph-name="paragraph" horiz-adv-x="1274" d="M94 -287Q79 -287 73 -271T67 -242Q67 -216 77 -208T109 -199Q146 -196 186 -190T257 -165T294 -102L396 589Q277 632 208 721T139 935Q139 1103 218 1212T425 1374T698 1421L1271 1419Q1297
1419 1297 1389Q1297 1334 1255 1331Q1209 1327 1169 1313T1119 1234L916 -140Q916 -171 958 -183T1043 -199Q1074 -202 1074 -233Q1074 -252 1062 -269T1029 -287H677L917 1302H737L497 -287H94Z" />
<glyph unicode="&#xb7;" glyph-name="middot" horiz-adv-x="692" d="M164 600Q164 677 217 739T359 801Q440 801 485 750T530 625Q530 542 473 480T333 417Q252 417 208 471T164 600Z" />
<glyph unicode="&#xb8;" glyph-name="cedilla" horiz-adv-x="522" d="M104 -497Q7 -497 -52 -473T-132 -436Q-141 -430 -135 -416Q-130 -407 -116 -385T-93 -349Q-85 -337 -74 -341Q-46 -352 -12 -362T75 -373Q122 -373 160 -351T199 -283Q199 -254 160 -227T24
-201L104 19H261L199 -111Q291 -123 348 -163T405 -271Q405 -340 362 -390T250 -469T104 -497Z" />
<glyph unicode="&#xb9;" glyph-name="uni00B9" horiz-adv-x="1130" d="M244 760Q231 760 228 781T225 810Q227 821 233 831T254 843Q274 845 316 847T405 855T486 871T523 900L634 1562Q610 1544 559 1523T447 1487T334 1471Q321 1471 309 1504T301 1562Q303 1578
311 1591T339 1605Q359 1606 411 1612T529 1633T654 1670T750 1728H937L802 902Q798 877 871 863T1062 843Q1092 842 1081 796Q1079 787 1072 774T1052 760H244Z" />
<glyph unicode="&#xba;" glyph-name="ordmasculine" horiz-adv-x="1130" d="M574 612Q426 612 326 663T175 800T124 991Q124 1118 190 1227T381 1403T685 1470Q833 1470 933 1422T1084 1290T1135 1102Q1135 977 1071 865T883 682T574 612ZM587 698Q666 698 716
743T794 858T833 1003T844 1139Q844 1255 800 1319T667 1383Q588 1383 538 1340T461 1229T423 1087T412 952Q412 834 455 766T587 698Z" />
<glyph unicode="&#xbb;" glyph-name="guillemotright" horiz-adv-x="1250" d="M576 27L607 203L910 524L682 854L713 998L1186 573L1169 454L576 27ZM24 27L55 203L358 524L130 854L161 998L634 573L617 454L24 27Z" />
<glyph unicode="&#xbc;" glyph-name="onequarter" horiz-adv-x="2454" d="M205 502Q192 502 189 523T186 552Q188 563 194 573T215 585Q235 587 277 589T366 597T447 613T484 642L595 1304Q571 1286 520 1265T408 1229T295 1213Q282 1213 270 1246T262 1304Q264
1320 272 1333T300 1347Q320 1348 372 1354T490 1375T615 1412T711 1470H898L763 644Q759 619 832 605T1023 585Q1053 584 1042 538Q1040 529 1033 516T1013 502H205ZM946 0H801L1577 1419H1724L946 0ZM1849 -10L1875 174H1392Q1385 174 1385 191T1386 221Q1386
235 1397 255L1753 949Q1774 972 1800 978T1846 984Q1895 984 1937 961T2003 908T2024 856L1569 285H1895L1947 563L2182 573L2141 285H2338L2321 174H2125L2101 -10H1849Z" />
<glyph unicode="&#xbd;" glyph-name="onehalf" horiz-adv-x="2454" d="M205 502Q192 502 189 523T186 552Q188 563 194 573T215 585Q235 587 277 589T366 597T447 613T484 642L595 1304Q571 1286 520 1265T408 1229T295 1213Q282 1213 270 1246T262 1304Q264 1320
272 1333T300 1347Q320 1348 372 1354T490 1375T615 1412T711 1470H898L763 644Q759 619 832 605T1023 585Q1053 584 1042 538Q1040 529 1033 516T1013 502H205ZM946 0H801L1577 1419H1724L946 0ZM1372 0L1381 49Q1390 93 1420 111Q1515 169 1617 239T1806 394T1947
576T2001 788Q2001 843 1976 884T1898 926Q1842 926 1813 908T1756 845T1680 722Q1667 699 1651 677T1589 654Q1546 654 1511 675T1476 737Q1476 781 1519 838Q1565 899 1668 944T1917 990Q2105 990 2192 923T2280 751Q2280 677 2240 605T2135 469T1992 351T1837
259T1699 201H2216L2176 0H1372Z" />
<glyph unicode="&#xbe;" glyph-name="threequarters" horiz-adv-x="2454" d="M502 486Q406 486 329 514T206 590T161 691Q161 752 198 795T291 839Q347 839 364 826T392 804L313 608Q320 604 356 577T476 550Q600 550 663 630T727 834Q727 923 679 945T542 968H466Q446
968 446 982Q446 1011 450 1027T477 1044H532Q648 1044 711 1111T774 1289Q774 1336 740 1381T624 1426Q605 1426 565 1417T492 1355Q473 1321 458 1290T429 1235Q410 1204 386 1193T333 1181Q292 1181 265 1209T238 1263Q238 1324 279 1367T388 1438T531 1479T677
1492Q774 1492 860 1468T999 1399T1053 1291Q1053 1173 966 1099T750 1009Q826 1009 895 987T1009 923T1054 821Q1054 706 977 632T774 522T502 486ZM946 0H801L1577 1419H1724L946 0ZM1849 -10L1875 174H1392Q1385 174 1385 191T1386 221Q1386 235 1397 255L1753
949Q1774 972 1800 978T1846 984Q1895 984 1937 961T2003 908T2024 856L1569 285H1895L1947 563L2182 573L2141 285H2338L2321 174H2125L2101 -10H1849Z" />
<glyph unicode="&#xbf;" glyph-name="questiondown" horiz-adv-x="1123" d="M889 1345Q889 1299 865 1253T797 1175T694 1144Q613 1144 568 1195T523 1320Q523 1403 580 1465T720 1528Q801 1528 845 1474T889 1345ZM758 1025L750 971Q734 862 697 798T611 691T515
611T428 518T372 374Q368 347 365 316T362 249Q362 204 377 162T432 92T546 65Q607 65 645 81T701 114T719 130L788 433Q794 459 832 480T913 502Q1071 502 1071 351Q1071 262 1022 193T894 77T720 5T536 -20Q352 -20 247 26T99 143T55 289Q55 338 63 379T84 455Q115
533 169 586T286 680T409 758T510 842T564 954L576 1025H758Z" />
<glyph unicode="&#xc0;" glyph-name="Agrave" horiz-adv-x="1553" d="M1011 142L955 423H367L243 201Q238 191 232 174T225 146Q225 121 268 108T373 87Q399 84 405 76T412 52Q412 35 405 18T377 0H-92Q-107 0 -113 15T-120 44Q-120 70 -107 78T-82 88Q-17 101
26 122T94 186L832 1451H1065L1368 184Q1379 144 1411 116T1495 88Q1539 88 1539 53Q1539 34 1528 17T1500 0H884Q868 0 862 18T855 48Q855 85 891 88Q958 93 986 94T1014 122Q1014 127 1011 142ZM800 1195L418 514H936L800 1195ZM1146 1546Q1010 1661 911 1724T791
1808Q769 1830 769 1872Q769 1898 779 1927T815 1979Q852 2012 901 2012Q930 2012 955 2002T993 1976Q1013 1954 1065 1850T1211 1604L1146 1546Z" />
<glyph unicode="&#xc1;" glyph-name="Aacute" horiz-adv-x="1553" d="M1011 142L955 423H367L243 201Q238 191 232 174T225 146Q225 121 268 108T373 87Q399 84 405 76T412 52Q412 35 405 18T377 0H-92Q-107 0 -113 15T-120 44Q-120 70 -107 78T-82 88Q-17 101
26 122T94 186L832 1451H1065L1368 184Q1379 144 1411 116T1495 88Q1539 88 1539 53Q1539 34 1528 17T1500 0H884Q868 0 862 18T855 48Q855 85 891 88Q958 93 986 94T1014 122Q1014 127 1011 142ZM800 1195L418 514H936L800 1195ZM794 1546L747 1604Q884 1746 967
1850T1077 1976Q1095 1991 1123 2001T1179 2012Q1229 2012 1255 1979Q1276 1952 1276 1914Q1276 1883 1263 1854T1229 1808Q1202 1786 1083 1724T794 1546Z" />
<glyph unicode="&#xc2;" glyph-name="Acircumflex" horiz-adv-x="1553" d="M1011 142L955 423H367L243 201Q238 191 232 174T225 146Q225 121 268 108T373 87Q399 84 405 76T412 52Q412 35 405 18T377 0H-92Q-107 0 -113 15T-120 44Q-120 70 -107 78T-82 88Q-17
101 26 122T94 186L832 1451H1065L1368 184Q1379 144 1411 116T1495 88Q1539 88 1539 53Q1539 34 1528 17T1500 0H884Q868 0 862 18T855 48Q855 85 891 88Q958 93 986 94T1014 122Q1014 127 1011 142ZM800 1195L418 514H936L800 1195ZM592 1565L891 1913Q910 1935
940 1949T1022 1964Q1074 1964 1100 1946T1140 1904L1332 1565H1189L992 1766L740 1565H592Z" />
<glyph unicode="&#xc3;" glyph-name="Atilde" horiz-adv-x="1553" d="M1011 142L955 423H367L243 201Q238 191 232 174T225 146Q225 121 268 108T373 87Q399 84 405 76T412 52Q412 35 405 18T377 0H-92Q-107 0 -113 15T-120 44Q-120 70 -107 78T-82 88Q-17 101
26 122T94 186L832 1451H1065L1368 184Q1379 144 1411 116T1495 88Q1539 88 1539 53Q1539 34 1528 17T1500 0H884Q868 0 862 18T855 48Q855 85 891 88Q958 93 986 94T1014 122Q1014 127 1011 142ZM800 1195L418 514H936L800 1195ZM1139 1574Q1091 1574 1048 1595T964
1643T884 1691T804 1712Q752 1712 728 1689T690 1642T650 1618Q631 1618 613 1641T594 1690Q594 1729 625 1778T711 1863T838 1900Q886 1900 926 1879T1005 1831T1082 1782T1164 1761Q1218 1761 1243 1784T1284 1831T1324 1855Q1343 1855 1361 1832T1380 1783Q1380
1745 1348 1696T1261 1610T1139 1574Z" />
<glyph unicode="&#xc4;" glyph-name="Adieresis" horiz-adv-x="1553" d="M1011 142L955 423H367L243 201Q238 191 232 174T225 146Q225 121 268 108T373 87Q399 84 405 76T412 52Q412 35 405 18T377 0H-92Q-107 0 -113 15T-120 44Q-120 70 -107 78T-82 88Q-17
101 26 122T94 186L832 1451H1065L1368 184Q1379 144 1411 116T1495 88Q1539 88 1539 53Q1539 34 1528 17T1500 0H884Q868 0 862 18T855 48Q855 85 891 88Q958 93 986 94T1014 122Q1014 127 1011 142ZM800 1195L418 514H936L800 1195ZM1203 1546Q1135 1546 1098
1589T1060 1696Q1060 1752 1086 1801T1158 1882T1258 1913Q1326 1913 1364 1870T1402 1761Q1402 1706 1376 1657T1304 1577T1203 1546ZM726 1546Q658 1546 621 1589T583 1696Q583 1752 609 1801T681 1882T781 1913Q849 1913 887 1870T925 1761Q925 1706 899 1657T827
1577T726 1546Z" />
<glyph unicode="&#xc5;" glyph-name="Aring" horiz-adv-x="1553" d="M1011 142L955 423H367L243 201Q238 191 232 174T225 146Q225 121 268 108T373 87Q399 84 405 76T412 52Q412 35 405 18T377 0H-92Q-107 0 -113 15T-120 44Q-120 70 -107 78T-82 88Q-17 101
26 122T94 186L832 1451H1065L1368 184Q1379 144 1411 116T1495 88Q1539 88 1539 53Q1539 34 1528 17T1500 0H884Q868 0 862 18T855 48Q855 85 891 88Q958 93 986 94T1014 122Q1014 127 1011 142ZM800 1195L418 514H936L800 1195ZM941 1419Q824 1419 747 1483T670
1657Q670 1755 719 1829T849 1944T1026 1986Q1142 1986 1219 1920T1296 1745Q1296 1648 1248 1575T1118 1460T941 1419ZM963 1565Q1050 1565 1089 1616T1129 1731Q1129 1778 1101 1809T1004 1841Q916 1841 878 1789T840 1672Q840 1626 868 1596T963 1565Z" />
<glyph unicode="&#xc6;" glyph-name="AE" horiz-adv-x="2201" d="M-139 0Q-155 0 -159 20T-163 51Q-163 84 -126 88Q-87 91 -35 117T58 199L875 1321L592 1331Q555 1331 555 1363Q555 1383 566 1401T595 1419L2186 1418L2161 1104Q2159 1087 2137 1079T2103 1070Q2070
1070 2064 1081T2057 1118Q2057 1150 2045 1200T1998 1291T1897 1332L1495 1331L1407 778H1673Q1700 782 1726 815T1771 888T1796 948Q1802 968 1826 974T1872 981Q1883 981 1897 973T1909 947L1839 504Q1836 487 1820 479T1792 470Q1769 470 1747 477T1726 503Q1727
525 1721 567T1700 646T1655 682H1392L1313 174Q1313 129 1345 115T1408 101H1759Q1826 101 1879 143T1970 248T2031 373Q2038 392 2061 399T2101 406Q2120 406 2135 398T2148 372L2085 1L833 0Q817 0 810 18T803 48Q803 85 840 88Q889 92 922 105T963 152L1001
429H371L213 204Q203 189 203 167Q203 137 234 113T344 88Q363 86 367 77T372 51Q372 35 359 18T329 0H-139ZM420 515H1013L1143 1320H989L420 515Z" />
<glyph unicode="&#xc7;" glyph-name="Ccedilla" horiz-adv-x="1465" d="M794 -27Q552 -27 403 60T185 296T116 629Q116 813 183 963T369 1222T649 1390T996 1449Q1195 1449 1310 1417T1474 1361L1436 1061Q1436 1046 1419 1037T1382 1024T1353 1020Q1318 1020
1305 1036T1292 1080Q1292 1353 979 1353Q859 1353 747 1273T562 1031T489 621Q489 437 532 313T648 127T808 65Q921 65 991 96T1111 196T1210 372Q1226 406 1265 406Q1274 406 1293 403T1330 393T1347 375L1306 98Q1303 88 1260 68T1144 25T982 -12T794 -27ZM721
-517Q624 -517 565 -493T485 -456Q476 -450 482 -436Q487 -427 501 -400T524 -356Q532 -344 543 -348Q571 -359 605 -369T692 -379Q736 -379 771 -358T806 -293Q806 -264 770 -237T641 -211L721 19H878L816 -121Q921 -141 971 -181T1022 -293Q1022 -359 979 -409T867
-488T721 -517Z" />
<glyph unicode="&#xc8;" glyph-name="Egrave" horiz-adv-x="1477" d="M747 1331L669 778H947Q974 782 1000 815T1045 888T1070 948Q1076 968 1100 974T1146 981Q1157 981 1171 973T1183 947L1113 504Q1110 487 1094 479T1066 470Q1043 470 1021 477T1000 503Q1001
525 995 567T974 646T929 682H656L585 176Q585 134 609 119T662 101H1021Q1083 101 1131 136T1213 221T1267 314T1293 373Q1299 392 1317 399T1351 406Q1411 406 1410 372L1341 0H43Q26 0 20 20T16 51Q19 84 54 88Q87 91 126 97T196 117T229 152L390 1247Q390 1284
362 1301T295 1323T228 1331Q197 1334 197 1353Q197 1374 210 1396T241 1419H1439L1414 1104Q1411 1087 1392 1079T1359 1070Q1343 1070 1327 1077T1310 1103Q1310 1118 1306 1155T1286 1232T1238 1302T1150 1331H747ZM1100 1546Q964 1661 865 1724T745 1808Q723
1830 723 1872Q723 1898 733 1927T769 1979Q806 2012 855 2012Q884 2012 909 2002T947 1976Q967 1954 1019 1850T1165 1604L1100 1546Z" />
<glyph unicode="&#xc9;" glyph-name="Eacute" horiz-adv-x="1477" d="M747 1331L669 778H947Q974 782 1000 815T1045 888T1070 948Q1076 968 1100 974T1146 981Q1157 981 1171 973T1183 947L1113 504Q1110 487 1094 479T1066 470Q1043 470 1021 477T1000 503Q1001
525 995 567T974 646T929 682H656L585 176Q585 134 609 119T662 101H1021Q1083 101 1131 136T1213 221T1267 314T1293 373Q1299 392 1317 399T1351 406Q1411 406 1410 372L1341 0H43Q26 0 20 20T16 51Q19 84 54 88Q87 91 126 97T196 117T229 152L390 1247Q390 1284
362 1301T295 1323T228 1331Q197 1334 197 1353Q197 1374 210 1396T241 1419H1439L1414 1104Q1411 1087 1392 1079T1359 1070Q1343 1070 1327 1077T1310 1103Q1310 1118 1306 1155T1286 1232T1238 1302T1150 1331H747ZM748 1546L701 1604Q838 1746 921 1850T1031
1976Q1049 1991 1077 2001T1133 2012Q1183 2012 1209 1979Q1230 1952 1230 1914Q1230 1883 1217 1854T1183 1808Q1156 1786 1037 1724T748 1546Z" />
<glyph unicode="&#xca;" glyph-name="Ecircumflex" horiz-adv-x="1477" d="M747 1331L669 778H947Q974 782 1000 815T1045 888T1070 948Q1076 968 1100 974T1146 981Q1157 981 1171 973T1183 947L1113 504Q1110 487 1094 479T1066 470Q1043 470 1021 477T1000
503Q1001 525 995 567T974 646T929 682H656L585 176Q585 134 609 119T662 101H1021Q1083 101 1131 136T1213 221T1267 314T1293 373Q1299 392 1317 399T1351 406Q1411 406 1410 372L1341 0H43Q26 0 20 20T16 51Q19 84 54 88Q87 91 126 97T196 117T229 152L390 1247Q390
1284 362 1301T295 1323T228 1331Q197 1334 197 1353Q197 1374 210 1396T241 1419H1439L1414 1104Q1411 1087 1392 1079T1359 1070Q1343 1070 1327 1077T1310 1103Q1310 1118 1306 1155T1286 1232T1238 1302T1150 1331H747ZM546 1565L845 1913Q864 1935 894 1949T976
1964Q1028 1964 1054 1946T1094 1904L1286 1565H1143L946 1766L694 1565H546Z" />
<glyph unicode="&#xcb;" glyph-name="Edieresis" horiz-adv-x="1477" d="M747 1331L669 778H947Q974 782 1000 815T1045 888T1070 948Q1076 968 1100 974T1146 981Q1157 981 1171 973T1183 947L1113 504Q1110 487 1094 479T1066 470Q1043 470 1021 477T1000 503Q1001
525 995 567T974 646T929 682H656L585 176Q585 134 609 119T662 101H1021Q1083 101 1131 136T1213 221T1267 314T1293 373Q1299 392 1317 399T1351 406Q1411 406 1410 372L1341 0H43Q26 0 20 20T16 51Q19 84 54 88Q87 91 126 97T196 117T229 152L390 1247Q390 1284
362 1301T295 1323T228 1331Q197 1334 197 1353Q197 1374 210 1396T241 1419H1439L1414 1104Q1411 1087 1392 1079T1359 1070Q1343 1070 1327 1077T1310 1103Q1310 1118 1306 1155T1286 1232T1238 1302T1150 1331H747ZM1157 1546Q1089 1546 1052 1589T1014 1696Q1014
1752 1040 1801T1112 1882T1212 1913Q1280 1913 1318 1870T1356 1761Q1356 1706 1330 1657T1258 1577T1157 1546ZM680 1546Q612 1546 575 1589T537 1696Q537 1752 563 1801T635 1882T735 1913Q803 1913 841 1870T879 1761Q879 1706 853 1657T781 1577T680 1546Z"
/>
<glyph unicode="&#xcc;" glyph-name="Igrave" horiz-adv-x="923" d="M35 41Q35 85 74 88Q123 91 175 105T233 152L396 1234Q398 1246 398 1252Q398 1287 373 1302T313 1323T250 1331Q219 1334 219 1352Q219 1356 221 1368Q223 1379 236 1399T266 1419H911Q925
1419 930 1405T935 1378Q935 1334 894 1331Q843 1327 795 1314T742 1267L581 185Q579 171 579 167Q579 133 605 117T666 96T728 88Q759 85 759 66Q759 63 757 51Q756 40 744 20T714 0H59Q45 0 40 14T35 41ZM786 1546Q650 1661 551 1724T431 1808Q409 1830 409 1872Q409
1898 419 1927T455 1979Q492 2012 541 2012Q570 2012 595 2002T633 1976Q653 1954 705 1850T851 1604L786 1546Z" />
<glyph unicode="&#xcd;" glyph-name="Iacute" horiz-adv-x="923" d="M35 41Q35 85 74 88Q123 91 175 105T233 152L396 1234Q398 1246 398 1252Q398 1287 373 1302T313 1323T250 1331Q219 1334 219 1352Q219 1356 221 1368Q223 1379 236 1399T266 1419H911Q925
1419 930 1405T935 1378Q935 1334 894 1331Q843 1327 795 1314T742 1267L581 185Q579 171 579 167Q579 133 605 117T666 96T728 88Q759 85 759 66Q759 63 757 51Q756 40 744 20T714 0H59Q45 0 40 14T35 41ZM434 1546L387 1604Q524 1746 607 1850T717 1976Q735 1991
763 2001T819 2012Q869 2012 895 1979Q916 1952 916 1914Q916 1883 903 1854T869 1808Q842 1786 723 1724T434 1546Z" />
<glyph unicode="&#xce;" glyph-name="Icircumflex" horiz-adv-x="923" d="M35 41Q35 85 74 88Q123 91 175 105T233 152L396 1234Q398 1246 398 1252Q398 1287 373 1302T313 1323T250 1331Q219 1334 219 1352Q219 1356 221 1368Q223 1379 236 1399T266 1419H911Q925
1419 930 1405T935 1378Q935 1334 894 1331Q843 1327 795 1314T742 1267L581 185Q579 171 579 167Q579 133 605 117T666 96T728 88Q759 85 759 66Q759 63 757 51Q756 40 744 20T714 0H59Q45 0 40 14T35 41ZM232 1565L531 1913Q550 1935 580 1949T662 1964Q714 1964
740 1946T780 1904L972 1565H829L632 1766L380 1565H232Z" />
<glyph unicode="&#xcf;" glyph-name="Idieresis" horiz-adv-x="923" d="M35 41Q35 85 74 88Q123 91 175 105T233 152L396 1234Q398 1246 398 1252Q398 1287 373 1302T313 1323T250 1331Q219 1334 219 1352Q219 1356 221 1368Q223 1379 236 1399T266 1419H911Q925
1419 930 1405T935 1378Q935 1334 894 1331Q843 1327 795 1314T742 1267L581 185Q579 171 579 167Q579 133 605 117T666 96T728 88Q759 85 759 66Q759 63 757 51Q756 40 744 20T714 0H59Q45 0 40 14T35 41ZM843 1546Q775 1546 738 1589T700 1696Q700 1752 726 1801T798
1882T898 1913Q966 1913 1004 1870T1042 1761Q1042 1706 1016 1657T944 1577T843 1546ZM366 1546Q298 1546 261 1589T223 1696Q223 1752 249 1801T321 1882T421 1913Q489 1913 527 1870T565 1761Q565 1706 539 1657T467 1577T366 1546Z" />
<glyph unicode="&#xd0;" glyph-name="Eth" horiz-adv-x="1708" d="M33 51Q36 84 71 88Q120 92 171 105T226 152L308 694H148Q136 695 130 705T124 728Q124 747 131 767T148 791H323L392 1250Q392 1286 369 1302T314 1323T254 1331Q224 1334 224 1353Q224 1362
225 1368Q226 1379 238 1399T267 1419H953Q1200 1418 1352 1341T1575 1141T1646 877Q1646 672 1578 510T1391 233T1118 60T792 0H60Q44 0 38 20T33 51ZM572 135Q572 124 580 114T623 98T738 91Q890 91 1013 176T1208 441T1281 904Q1281 1078 1227 1170T1077 1296T856
1331H753L671 791H997Q1009 790 1015 780T1021 757Q1021 738 1015 719T997 694H657L572 135Z" />
<glyph unicode="&#xd1;" glyph-name="Ntilde" horiz-adv-x="1699" d="M-6 0Q-20 0 -26 13T-32 33Q-32 56 -26 70T9 88Q41 91 88 98T175 122T219 172L377 1204Q379 1216 379 1221Q379 1258 352 1281T288 1317T223 1331Q192 1334 192 1353Q192 1373 206 1396T238
1419H730L1318 282H1330L1464 1234Q1465 1238 1465 1246Q1465 1284 1427 1301T1340 1323T1264 1331Q1216 1336 1222 1368Q1224 1379 1236 1399T1266 1419H1791Q1805 1419 1810 1405T1816 1378Q1816 1336 1775 1331Q1745 1328 1698 1322T1611 1297T1564 1234L1399
113Q1396 94 1398 81T1392 40Q1379 -2 1331 -16T1224 -30Q1214 -30 1185 -27T1130 -19T1099 -8L487 1180H470L320 173Q320 136 359 119T447 96T524 88Q555 85 555 58Q555 39 542 20T512 0H-6ZM1225 1574Q1177 1574 1134 1595T1050 1643T970 1691T890 1712Q838 1712
814 1689T776 1642T736 1618Q717 1618 699 1641T680 1690Q680 1729 711 1778T797 1863T924 1900Q972 1900 1012 1879T1091 1831T1168 1782T1250 1761Q1304 1761 1329 1784T1370 1831T1410 1855Q1429 1855 1447 1832T1466 1783Q1466 1745 1434 1696T1347 1610T1225
1574Z" />
<glyph unicode="&#xd2;" glyph-name="Ograve" horiz-adv-x="1679" d="M764 -29Q538 -29 394 54T181 278T112 592Q112 760 170 914T338 1188T607 1379T965 1449Q1198 1449 1346 1369T1564 1150T1634 840Q1634 672 1575 516T1404 238T1130 43T764 -29ZM790 65Q930
65 1022 141T1167 344T1243 622T1266 927Q1266 1129 1203 1242T967 1356Q823 1356 729 1280T580 1078T503 800T480 495Q480 294 546 180T790 65ZM1183 1546Q1047 1661 948 1724T828 1808Q806 1830 806 1872Q806 1898 816 1927T852 1979Q889 2012 938 2012Q967 2012
992 2002T1030 1976Q1050 1954 1102 1850T1248 1604L1183 1546Z" />
<glyph unicode="&#xd3;" glyph-name="Oacute" horiz-adv-x="1679" d="M764 -29Q538 -29 394 54T181 278T112 592Q112 760 170 914T338 1188T607 1379T965 1449Q1198 1449 1346 1369T1564 1150T1634 840Q1634 672 1575 516T1404 238T1130 43T764 -29ZM790 65Q930
65 1022 141T1167 344T1243 622T1266 927Q1266 1129 1203 1242T967 1356Q823 1356 729 1280T580 1078T503 800T480 495Q480 294 546 180T790 65ZM831 1546L784 1604Q921 1746 1004 1850T1114 1976Q1132 1991 1160 2001T1216 2012Q1266 2012 1292 1979Q1313 1952
1313 1914Q1313 1883 1300 1854T1266 1808Q1239 1786 1120 1724T831 1546Z" />
<glyph unicode="&#xd4;" glyph-name="Ocircumflex" horiz-adv-x="1679" d="M764 -29Q538 -29 394 54T181 278T112 592Q112 760 170 914T338 1188T607 1379T965 1449Q1198 1449 1346 1369T1564 1150T1634 840Q1634 672 1575 516T1404 238T1130 43T764 -29ZM790
65Q930 65 1022 141T1167 344T1243 622T1266 927Q1266 1129 1203 1242T967 1356Q823 1356 729 1280T580 1078T503 800T480 495Q480 294 546 180T790 65ZM629 1565L928 1913Q947 1935 977 1949T1059 1964Q1111 1964 1137 1946T1177 1904L1369 1565H1226L1029 1766L777
1565H629Z" />
<glyph unicode="&#xd5;" glyph-name="Otilde" horiz-adv-x="1679" d="M764 -29Q538 -29 394 54T181 278T112 592Q112 760 170 914T338 1188T607 1379T965 1449Q1198 1449 1346 1369T1564 1150T1634 840Q1634 672 1575 516T1404 238T1130 43T764 -29ZM790 65Q930
65 1022 141T1167 344T1243 622T1266 927Q1266 1129 1203 1242T967 1356Q823 1356 729 1280T580 1078T503 800T480 495Q480 294 546 180T790 65ZM1176 1574Q1128 1574 1085 1595T1001 1643T921 1691T841 1712Q789 1712 765 1689T727 1642T687 1618Q668 1618 650
1641T631 1690Q631 1729 662 1778T748 1863T875 1900Q923 1900 963 1879T1042 1831T1119 1782T1201 1761Q1255 1761 1280 1784T1321 1831T1361 1855Q1380 1855 1398 1832T1417 1783Q1417 1745 1385 1696T1298 1610T1176 1574Z" />
<glyph unicode="&#xd6;" glyph-name="Odieresis" horiz-adv-x="1679" d="M764 -29Q538 -29 394 54T181 278T112 592Q112 760 170 914T338 1188T607 1379T965 1449Q1198 1449 1346 1369T1564 1150T1634 840Q1634 672 1575 516T1404 238T1130 43T764 -29ZM790 65Q930
65 1022 141T1167 344T1243 622T1266 927Q1266 1129 1203 1242T967 1356Q823 1356 729 1280T580 1078T503 800T480 495Q480 294 546 180T790 65ZM1240 1546Q1172 1546 1135 1589T1097 1696Q1097 1752 1123 1801T1195 1882T1295 1913Q1363 1913 1401 1870T1439 1761Q1439
1706 1413 1657T1341 1577T1240 1546ZM763 1546Q695 1546 658 1589T620 1696Q620 1752 646 1801T718 1882T818 1913Q886 1913 924 1870T962 1761Q962 1706 936 1657T864 1577T763 1546Z" />
<glyph unicode="&#xd7;" glyph-name="multiply" horiz-adv-x="1440" d="M1247 939L855 574L1183 208L1072 103L743 469L350 103L257 208L649 574L321 939L432 1045L761 678L1154 1045L1247 939Z" />
<glyph unicode="&#xd8;" glyph-name="Oslash" horiz-adv-x="1679" d="M764 -29Q538 -29 394 54T181 278T112 592Q112 760 170 914T338 1188T607 1379T965 1449Q1198 1449 1346 1369T1564 1150T1634 840Q1634 672 1575 516T1404 238T1130 43T764 -29ZM790 65Q930
65 1022 141T1167 344T1243 622T1266 927Q1266 1129 1203 1242T967 1356Q823 1356 729 1280T580 1078T503 800T480 495Q480 294 546 180T790 65ZM1380 1448L1261 1264L1237 1221L564 105L540 71L438 -80Q434 -87 422 -87Q397 -87 375 -68T353 -30L457 131L478 152L1151
1270L1176 1315L1294 1498Q1299 1507 1313 1507Q1334 1507 1357 1485T1380 1448Z" />
<glyph unicode="&#xd9;" glyph-name="Ugrave" horiz-adv-x="1707" d="M846 -29Q559 -29 403 78T247 394Q247 435 249 475T258 546L359 1268Q359 1297 334 1308T275 1323T216 1332T190 1352Q190 1374 199 1396T234 1419H899Q914 1419 919 1403T924 1373Q924 1331
885 1331Q719 1331 710 1267L605 554Q598 507 594 453T590 361Q597 198 672 132T885 65Q1010 65 1093 109T1229 228T1312 394T1361 578L1463 1265Q1463 1303 1423 1315T1297 1331Q1266 1332 1266 1352Q1266 1374 1279 1396T1310 1419H1766Q1781 1419 1786 1404T1791
1375Q1791 1332 1752 1331Q1576 1325 1561 1230L1455 546Q1409 252 1258 112T846 -29ZM1274 1546Q1138 1661 1039 1724T919 1808Q897 1830 897 1872Q897 1898 907 1927T943 1979Q980 2012 1029 2012Q1058 2012 1083 2002T1121 1976Q1141 1954 1193 1850T1339 1604L1274
1546Z" />
<glyph unicode="&#xda;" glyph-name="Uacute" horiz-adv-x="1707" d="M846 -29Q559 -29 403 78T247 394Q247 435 249 475T258 546L359 1268Q359 1297 334 1308T275 1323T216 1332T190 1352Q190 1374 199 1396T234 1419H899Q914 1419 919 1403T924 1373Q924 1331
885 1331Q719 1331 710 1267L605 554Q598 507 594 453T590 361Q597 198 672 132T885 65Q1010 65 1093 109T1229 228T1312 394T1361 578L1463 1265Q1463 1303 1423 1315T1297 1331Q1266 1332 1266 1352Q1266 1374 1279 1396T1310 1419H1766Q1781 1419 1786 1404T1791
1375Q1791 1332 1752 1331Q1576 1325 1561 1230L1455 546Q1409 252 1258 112T846 -29ZM922 1546L875 1604Q1012 1746 1095 1850T1205 1976Q1223 1991 1251 2001T1307 2012Q1357 2012 1383 1979Q1404 1952 1404 1914Q1404 1883 1391 1854T1357 1808Q1330 1786 1211
1724T922 1546Z" />
<glyph unicode="&#xdb;" glyph-name="Ucircumflex" horiz-adv-x="1707" d="M846 -29Q559 -29 403 78T247 394Q247 435 249 475T258 546L359 1268Q359 1297 334 1308T275 1323T216 1332T190 1352Q190 1374 199 1396T234 1419H899Q914 1419 919 1403T924 1373Q924
1331 885 1331Q719 1331 710 1267L605 554Q598 507 594 453T590 361Q597 198 672 132T885 65Q1010 65 1093 109T1229 228T1312 394T1361 578L1463 1265Q1463 1303 1423 1315T1297 1331Q1266 1332 1266 1352Q1266 1374 1279 1396T1310 1419H1766Q1781 1419 1786
1404T1791 1375Q1791 1332 1752 1331Q1576 1325 1561 1230L1455 546Q1409 252 1258 112T846 -29ZM720 1565L1019 1913Q1038 1935 1068 1949T1150 1964Q1202 1964 1228 1946T1268 1904L1460 1565H1317L1120 1766L868 1565H720Z" />
<glyph unicode="&#xdc;" glyph-name="Udieresis" horiz-adv-x="1707" d="M846 -29Q559 -29 403 78T247 394Q247 435 249 475T258 546L359 1268Q359 1297 334 1308T275 1323T216 1332T190 1352Q190 1374 199 1396T234 1419H899Q914 1419 919 1403T924 1373Q924
1331 885 1331Q719 1331 710 1267L605 554Q598 507 594 453T590 361Q597 198 672 132T885 65Q1010 65 1093 109T1229 228T1312 394T1361 578L1463 1265Q1463 1303 1423 1315T1297 1331Q1266 1332 1266 1352Q1266 1374 1279 1396T1310 1419H1766Q1781 1419 1786
1404T1791 1375Q1791 1332 1752 1331Q1576 1325 1561 1230L1455 546Q1409 252 1258 112T846 -29ZM1331 1546Q1263 1546 1226 1589T1188 1696Q1188 1752 1214 1801T1286 1882T1386 1913Q1454 1913 1492 1870T1530 1761Q1530 1706 1504 1657T1432 1577T1331 1546ZM854
1546Q786 1546 749 1589T711 1696Q711 1752 737 1801T809 1882T909 1913Q977 1913 1015 1870T1053 1761Q1053 1706 1027 1657T955 1577T854 1546Z" />
<glyph unicode="&#xdd;" glyph-name="Yacute" horiz-adv-x="1499" d="M263 42Q263 62 278 74T315 88Q349 92 388 92T457 105T493 152L560 534L240 1254Q223 1293 194 1315T100 1341Q79 1343 76 1354T72 1378Q72 1393 85 1406T114 1419H771Q788 1419 792 1404T797
1378Q797 1363 783 1348T748 1331Q658 1327 621 1321T584 1297L844 639L1291 1258Q1303 1275 1303 1288Q1303 1308 1273 1319T1172 1331Q1156 1331 1147 1343T1137 1369Q1137 1386 1150 1402T1180 1419H1625Q1642 1419 1647 1404T1651 1378Q1647 1356 1638 1350T1607
1341Q1569 1337 1527 1327T1437 1254L907 547L845 150Q845 116 876 105T950 93T1023 88Q1040 86 1051 82T1063 63Q1063 36 1048 18T1018 0H289Q275 0 269 14T263 42ZM786 1546L739 1604Q876 1746 959 1850T1069 1976Q1087 1991 1115 2001T1171 2012Q1221 2012 1247
1979Q1268 1952 1268 1914Q1268 1883 1255 1854T1221 1808Q1194 1786 1075 1724T786 1546Z" />
<glyph unicode="&#xde;" glyph-name="Thorn" horiz-adv-x="1450" d="M67 0Q50 0 44 16T38 51Q38 84 78 88Q130 92 174 105T225 152L392 1255Q397 1288 374 1303T316 1323T251 1331Q230 1333 225 1344T220 1377Q220 1390 233 1404T263 1419H888Q902 1419 908 1405T914
1378Q914 1336 875 1331Q826 1327 776 1314T719 1267L704 1164H803Q1042 1164 1174 1122T1360 998T1413 797Q1413 635 1313 524T1043 357T664 300H575L556 165Q556 132 596 117T686 96T763 88Q783 86 787 76T792 51Q792 31 781 16T753 0H67ZM779 1076H691L588 386H719Q865
386 955 481T1046 786Q1046 918 989 997T779 1076Z" />
<glyph unicode="&#xdf;" glyph-name="germandbls" horiz-adv-x="1343" d="M367 0H46L206 1061Q226 1189 301 1302T516 1487T864 1559Q970 1559 1061 1541T1209 1472T1265 1324Q1265 1254 1224 1202T1121 1109T998 1037T895 975T853 913Q853 885 896 855T1002 785T1128
689T1234 556T1277 371Q1277 253 1207 163T1023 22T775 -29Q678 -29 616 -2T525 68T495 151Q495 216 529 248T609 281Q653 281 671 252L717 87Q717 87 737 73T787 59Q848 59 885 96T939 192T957 314Q957 394 928 452T855 556T769 643T697 729T667 833Q667 897 696
939T768 1016T854 1086T927 1174T956 1304Q956 1384 922 1429T823 1474Q788 1474 744 1465T655 1419T575 1305T520 1093L367 0Z" />
<glyph unicode="&#xe0;" glyph-name="agrave" horiz-adv-x="1352" d="M372 -24Q268 -25 197 19T88 140T51 306Q51 417 98 540T237 770T458 944T755 1011Q844 1011 930 990T1064 934Q1125 969 1168 990T1232 1011Q1267 1011 1267 990L1129 189Q1126 164 1126 147Q1126
119 1148 111T1184 102Q1207 102 1232 108T1262 114Q1277 114 1283 103T1290 77Q1290 52 1280 44T1265 34Q1245 27 1162 1T963 -25Q879 -25 842 14T805 111Q805 122 813 161T831 250T851 343T864 404Q839 347 793 275T682 135T540 22T372 -24ZM493 153Q543 153
594 188T692 280T780 397T850 510T893 589L938 815Q938 854 886 890T750 926Q660 926 590 877T473 746T401 568T376 377Q376 242 408 198T493 153ZM890 1111Q754 1226 655 1289T535 1373Q512 1394 512 1438Q512 1464 523 1492T559 1544Q595 1577 645 1577Q673 1577
698 1567T737 1541Q757 1519 809 1415T955 1169L890 1111Z" />
<glyph unicode="&#xe1;" glyph-name="aacute" horiz-adv-x="1352" d="M372 -24Q268 -25 197 19T88 140T51 306Q51 417 98 540T237 770T458 944T755 1011Q844 1011 930 990T1064 934Q1125 969 1168 990T1232 1011Q1267 1011 1267 990L1129 189Q1126 164 1126 147Q1126
119 1148 111T1184 102Q1207 102 1232 108T1262 114Q1277 114 1283 103T1290 77Q1290 52 1280 44T1265 34Q1245 27 1162 1T963 -25Q879 -25 842 14T805 111Q805 122 813 161T831 250T851 343T864 404Q839 347 793 275T682 135T540 22T372 -24ZM493 153Q543 153
594 188T692 280T780 397T850 510T893 589L938 815Q938 854 886 890T750 926Q660 926 590 877T473 746T401 568T376 377Q376 242 408 198T493 153ZM769 1121L718 1179Q820 1277 876 1357T959 1459Q977 1474 1000 1484T1049 1495Q1090 1495 1116 1462Q1135 1438
1135 1409Q1135 1381 1120 1357T1084 1314Q1066 1298 1018 1274T904 1213T769 1121Z" />
<glyph unicode="&#xe2;" glyph-name="acircumflex" horiz-adv-x="1352" d="M372 -24Q268 -25 197 19T88 140T51 306Q51 417 98 540T237 770T458 944T755 1011Q844 1011 930 990T1064 934Q1125 969 1168 990T1232 1011Q1267 1011 1267 990L1129 189Q1126 164 1126
147Q1126 119 1148 111T1184 102Q1207 102 1232 108T1262 114Q1277 114 1283 103T1290 77Q1290 52 1280 44T1265 34Q1245 27 1162 1T963 -25Q879 -25 842 14T805 111Q805 122 813 161T831 250T851 343T864 404Q839 347 793 275T682 135T540 22T372 -24ZM493 153Q543
153 594 188T692 280T780 397T850 510T893 589L938 815Q938 854 886 890T750 926Q660 926 590 877T473 746T401 568T376 377Q376 242 408 198T493 153ZM441 1140L743 1508Q761 1531 792 1545T874 1559Q926 1559 952 1541T992 1499L1181 1140H1038L843 1351L589
1140H441Z" />
<glyph unicode="&#xe3;" glyph-name="atilde" horiz-adv-x="1352" d="M372 -24Q268 -25 197 19T88 140T51 306Q51 417 98 540T237 770T458 944T755 1011Q844 1011 930 990T1064 934Q1125 969 1168 990T1232 1011Q1267 1011 1267 990L1129 189Q1126 164 1126 147Q1126
119 1148 111T1184 102Q1207 102 1232 108T1262 114Q1277 114 1283 103T1290 77Q1290 52 1280 44T1265 34Q1245 27 1162 1T963 -25Q879 -25 842 14T805 111Q805 122 813 161T831 250T851 343T864 404Q839 347 793 275T682 135T540 22T372 -24ZM493 153Q543 153
594 188T692 280T780 397T850 510T893 589L938 815Q938 854 886 890T750 926Q660 926 590 877T473 746T401 568T376 377Q376 242 408 198T493 153ZM951 1119Q909 1119 871 1140T796 1188T726 1236T655 1257Q609 1257 588 1234T554 1187T519 1163Q503 1163 487 1186T470
1235Q470 1274 497 1323T573 1408T685 1445Q727 1445 763 1424T833 1376T901 1327T973 1306Q1021 1306 1043 1329T1080 1376T1115 1400Q1132 1400 1148 1377T1164 1328Q1164 1290 1136 1241T1059 1155T951 1119Z" />
<glyph unicode="&#xe4;" glyph-name="adieresis" horiz-adv-x="1352" d="M372 -24Q268 -25 197 19T88 140T51 306Q51 417 98 540T237 770T458 944T755 1011Q844 1011 930 990T1064 934Q1125 969 1168 990T1232 1011Q1267 1011 1267 990L1129 189Q1126 164 1126
147Q1126 119 1148 111T1184 102Q1207 102 1232 108T1262 114Q1277 114 1283 103T1290 77Q1290 52 1280 44T1265 34Q1245 27 1162 1T963 -25Q879 -25 842 14T805 111Q805 122 813 161T831 250T851 343T864 404Q839 347 793 275T682 135T540 22T372 -24ZM493 153Q543
153 594 188T692 280T780 397T850 510T893 589L938 815Q938 854 886 890T750 926Q660 926 590 877T473 746T401 568T376 377Q376 242 408 198T493 153ZM1058 1180Q994 1180 959 1223T923 1330Q923 1347 926 1363Q939 1438 988 1492T1109 1547Q1174 1547 1209 1504T1245
1395Q1245 1388 1245 1380T1243 1363Q1230 1289 1180 1235T1058 1180ZM581 1180Q517 1180 482 1223T446 1330Q446 1347 449 1363Q462 1438 511 1492T632 1547Q697 1547 732 1504T768 1395Q768 1388 768 1380T766 1363Q753 1289 703 1235T581 1180Z" />
<glyph unicode="&#xe5;" glyph-name="aring" horiz-adv-x="1352" d="M372 -24Q268 -25 197 19T88 140T51 306Q51 417 98 540T237 770T458 944T755 1011Q844 1011 930 990T1064 934Q1125 969 1168 990T1232 1011Q1267 1011 1267 990L1129 189Q1126 164 1126 147Q1126
119 1148 111T1184 102Q1207 102 1232 108T1262 114Q1277 114 1283 103T1290 77Q1290 52 1280 44T1265 34Q1245 27 1162 1T963 -25Q879 -25 842 14T805 111Q805 122 813 161T831 250T851 343T864 404Q839 347 793 275T682 135T540 22T372 -24ZM493 153Q543 153
594 188T692 280T780 397T850 510T893 589L938 815Q938 854 886 890T750 926Q660 926 590 877T473 746T401 568T376 377Q376 242 408 198T493 153ZM800 1126Q683 1126 606 1190T529 1364Q529 1458 577 1532T706 1650T885 1693Q1001 1693 1078 1627T1155 1452Q1155
1357 1107 1284T978 1168T800 1126ZM822 1272Q909 1272 948 1323T988 1438Q988 1485 960 1516T863 1548Q775 1548 737 1496T699 1379Q699 1333 727 1303T822 1272Z" />
<glyph unicode="&#xe6;" glyph-name="ae" horiz-adv-x="1754" d="M323 -27Q247 -27 186 14T90 127T54 290Q54 418 107 545T254 778T472 947T741 1011Q848 1011 918 983T1024 923Q1095 967 1178 990T1350 1014Q1488 1014 1566 976T1677 883T1709 781Q1709 614 1546
533T1061 407Q1056 325 1073 257T1134 147T1253 105Q1357 105 1437 133T1600 215Q1605 221 1610 225T1622 225L1659 192Q1664 188 1664 183Q1664 178 1660 174T1653 164Q1585 107 1517 64T1365 -4T1162 -29Q1051 -29 955 13T800 145T740 378Q727 331 698 263T619
129T496 18T323 -27ZM1066 484Q1232 522 1320 598T1408 808Q1408 855 1388 894T1304 933Q1220 933 1152 815T1066 484ZM454 153Q495 153 537 187T619 276T688 390T737 503T755 585Q769 619 777 644T804 703T873 794Q870 859 832 892T731 926Q658 926 591 879T471
751T389 567T358 353Q358 270 382 212T454 153Z" />
<glyph unicode="&#xe7;" glyph-name="ccedilla" horiz-adv-x="1097" d="M707 1014Q896 1014 985 955T1075 781Q1075 717 1012 684T861 651Q832 651 821 656T801 696L746 918Q739 924 724 928T671 933Q560 933 489 790T418 390Q418 293 451 235T538 151T650 125Q736
125 799 160T914 239Q919 245 924 249T936 249L973 216Q978 212 978 207Q978 202 974 198T967 188Q888 94 788 33T539 -28Q316 -28 194 92T71 411Q71 539 119 648T255 840T457 968T707 1014ZM454 -497Q357 -497 298 -473T218 -436Q209 -430 215 -416Q220 -407 234
-385T257 -349Q265 -337 276 -341Q304 -352 338 -362T425 -373Q472 -373 510 -351T549 -283Q549 -254 510 -227T374 -201L454 19H611L549 -111Q641 -123 698 -163T755 -271Q755 -340 712 -390T600 -469T454 -497Z" />
<glyph unicode="&#xe8;" glyph-name="egrave" horiz-adv-x="1141" d="M1085 789Q1085 705 1029 641T876 529T654 452T391 407Q390 396 390 384T390 360Q390 267 427 215T522 141T639 120Q733 120 812 147T976 225Q986 231 991 231Q999 231 1016 211T1034 179Q1034
178 1034 177T1035 175Q1035 170 1029 164Q933 70 804 21T537 -29Q314 -29 190 83T65 381Q65 516 117 631T259 832T468 966T718 1014Q856 1014 936 978T1051 889T1085 789ZM668 933Q576 933 496 815T396 484Q571 522 674 602T778 816Q778 863 755 898T668 933ZM819
1111Q683 1226 584 1289T464 1373Q441 1394 441 1438Q441 1464 452 1492T488 1544Q524 1577 574 1577Q602 1577 627 1567T666 1541Q686 1519 738 1415T884 1169L819 1111Z" />
<glyph unicode="&#xe9;" glyph-name="eacute" horiz-adv-x="1141" d="M1085 789Q1085 705 1029 641T876 529T654 452T391 407Q390 396 390 384T390 360Q390 267 427 215T522 141T639 120Q733 120 812 147T976 225Q986 231 991 231Q999 231 1016 211T1034 179Q1034
178 1034 177T1035 175Q1035 170 1029 164Q933 70 804 21T537 -29Q314 -29 190 83T65 381Q65 516 117 631T259 832T468 966T718 1014Q856 1014 936 978T1051 889T1085 789ZM668 933Q576 933 496 815T396 484Q571 522 674 602T778 816Q778 863 755 898T668 933ZM698
1121L647 1179Q749 1277 805 1357T888 1459Q906 1474 929 1484T978 1495Q1019 1495 1045 1462Q1064 1438 1064 1409Q1064 1381 1049 1357T1013 1314Q995 1298 947 1274T833 1213T698 1121Z" />
<glyph unicode="&#xea;" glyph-name="ecircumflex" horiz-adv-x="1141" d="M1085 789Q1085 705 1029 641T876 529T654 452T391 407Q390 396 390 384T390 360Q390 267 427 215T522 141T639 120Q733 120 812 147T976 225Q986 231 991 231Q999 231 1016 211T1034
179Q1034 178 1034 177T1035 175Q1035 170 1029 164Q933 70 804 21T537 -29Q314 -29 190 83T65 381Q65 516 117 631T259 832T468 966T718 1014Q856 1014 936 978T1051 889T1085 789ZM668 933Q576 933 496 815T396 484Q571 522 674 602T778 816Q778 863 755 898T668
933ZM370 1140L672 1508Q690 1531 721 1545T803 1559Q855 1559 881 1541T921 1499L1110 1140H967L772 1351L518 1140H370Z" />
<glyph unicode="&#xeb;" glyph-name="edieresis" horiz-adv-x="1141" d="M1085 789Q1085 705 1029 641T876 529T654 452T391 407Q390 396 390 384T390 360Q390 267 427 215T522 141T639 120Q733 120 812 147T976 225Q986 231 991 231Q999 231 1016 211T1034 179Q1034
178 1034 177T1035 175Q1035 170 1029 164Q933 70 804 21T537 -29Q314 -29 190 83T65 381Q65 516 117 631T259 832T468 966T718 1014Q856 1014 936 978T1051 889T1085 789ZM668 933Q576 933 496 815T396 484Q571 522 674 602T778 816Q778 863 755 898T668 933ZM987
1180Q923 1180 888 1223T852 1330Q852 1347 855 1363Q868 1438 917 1492T1038 1547Q1103 1547 1138 1504T1174 1395Q1174 1388 1174 1380T1172 1363Q1159 1289 1109 1235T987 1180ZM510 1180Q446 1180 411 1223T375 1330Q375 1347 378 1363Q391 1438 440 1492T561
1547Q626 1547 661 1504T697 1395Q697 1388 697 1380T695 1363Q682 1289 632 1235T510 1180Z" />
<glyph unicode="&#xec;" glyph-name="igrave" horiz-adv-x="749" d="M297 -13Q239 -13 209 7T169 52T158 96Q158 139 164 173L265 785Q268 803 268 816Q268 861 246 876T194 894T142 903Q132 908 127 916T124 943Q126 955 134 970T154 987Q294 996 405 996T576
997Q584 997 592 989T600 957L474 140Q474 109 493 103T536 96Q558 96 581 101T617 107Q631 107 635 91T640 60Q640 37 616 30Q536 8 470 -2T297 -13ZM538 1111Q402 1226 303 1289T183 1373Q160 1394 160 1438Q160 1464 171 1492T207 1544Q243 1577 293 1577Q321
1577 346 1567T385 1541Q405 1519 457 1415T603 1169L538 1111Z" />
<glyph unicode="&#xed;" glyph-name="iacute" horiz-adv-x="749" d="M297 -13Q239 -13 209 7T169 52T158 96Q158 139 164 173L265 785Q268 803 268 816Q268 861 246 876T194 894T142 903Q132 908 127 916T124 943Q126 955 134 970T154 987Q294 996 405 996T576
997Q584 997 592 989T600 957L474 140Q474 109 493 103T536 96Q558 96 581 101T617 107Q631 107 635 91T640 60Q640 37 616 30Q536 8 470 -2T297 -13ZM417 1121L366 1179Q468 1277 524 1357T607 1459Q625 1474 648 1484T697 1495Q738 1495 764 1462Q783 1438 783
1409Q783 1381 768 1357T732 1314Q714 1298 666 1274T552 1213T417 1121Z" />
<glyph unicode="&#xee;" glyph-name="icircumflex" horiz-adv-x="749" d="M297 -13Q239 -13 209 7T169 52T158 96Q158 139 164 173L265 785Q268 803 268 816Q268 861 246 876T194 894T142 903Q132 908 127 916T124 943Q126 955 134 970T154 987Q294 996 405 996T576
997Q584 997 592 989T600 957L474 140Q474 109 493 103T536 96Q558 96 581 101T617 107Q631 107 635 91T640 60Q640 37 616 30Q536 8 470 -2T297 -13ZM89 1140L391 1508Q409 1531 440 1545T522 1559Q574 1559 600 1541T640 1499L829 1140H686L491 1351L237 1140H89Z"
/>
<glyph unicode="&#xef;" glyph-name="idieresis" horiz-adv-x="749" d="M297 -13Q239 -13 209 7T169 52T158 96Q158 139 164 173L265 785Q268 803 268 816Q268 861 246 876T194 894T142 903Q132 908 127 916T124 943Q126 955 134 970T154 987Q294 996 405 996T576
997Q584 997 592 989T600 957L474 140Q474 109 493 103T536 96Q558 96 581 101T617 107Q631 107 635 91T640 60Q640 37 616 30Q536 8 470 -2T297 -13ZM706 1180Q642 1180 607 1223T571 1330Q571 1347 574 1363Q587 1438 636 1492T757 1547Q822 1547 857 1504T893
1395Q893 1388 893 1380T891 1363Q878 1289 828 1235T706 1180ZM229 1180Q165 1180 130 1223T94 1330Q94 1347 97 1363Q110 1438 159 1492T280 1547Q345 1547 380 1504T416 1395Q416 1388 416 1380T414 1363Q401 1289 351 1235T229 1180Z" />
<glyph unicode="&#xf0;" glyph-name="eth" horiz-adv-x="1305" d="M554 -29Q316 -29 191 81T66 379Q66 498 105 608T222 806T411 943T671 994Q747 994 801 973T896 913Q897 920 897 934Q897 986 878 1054T818 1193T708 1323L505 1180L436 1258L643 1380Q588 1420
521 1447T376 1481L406 1571Q511 1565 605 1537T782 1469L1000 1625L1064 1539L869 1423Q1035 1313 1134 1136T1233 739Q1233 519 1152 346T920 72T554 -29ZM546 66Q634 66 690 109T781 225T838 388T879 572Q887 610 893 668T899 782Q884 823 850 843T776 870T701
877Q620 877 564 825T474 688T423 506T407 318Q407 196 440 131T546 66Z" />
<glyph unicode="&#xf1;" glyph-name="ntilde" horiz-adv-x="1413" d="M1239 719L1162 195Q1159 173 1159 155Q1159 100 1187 100Q1224 100 1270 113Q1287 118 1295 105T1304 76Q1304 58 1296 54Q1256 35 1179 13T980 -13Q918 -15 887 3T846 49T836 101Q836 118
838 130T841 142L924 701Q927 724 927 744Q927 789 909 816T848 844Q744 844 663 793T531 689L421 0H109L230 778Q232 786 232 793T232 806Q232 853 208 870T153 892T99 903Q89 908 84 916T81 943Q83 955 91 970T111 987Q251 996 363 996T535 997Q543 997 553 989T559
957L533 785Q557 806 598 844T701 921T844 987T1029 1014Q1086 1014 1135 994T1214 924T1244 789Q1244 773 1243 756T1239 719ZM938 1119Q896 1119 858 1140T783 1188T713 1236T642 1257Q596 1257 575 1234T541 1187T506 1163Q490 1163 474 1186T457 1235Q457 1274
484 1323T560 1408T672 1445Q714 1445 750 1424T820 1376T888 1327T960 1306Q1008 1306 1030 1329T1067 1376T1102 1400Q1119 1400 1135 1377T1151 1328Q1151 1290 1123 1241T1046 1155T938 1119Z" />
<glyph unicode="&#xf2;" glyph-name="ograve" horiz-adv-x="1302" d="M84 421Q81 528 118 633T232 824T423 962T688 1014Q880 1014 996 956T1164 792T1217 546Q1217 393 1146 263T939 52T605 -28Q421 -28 308 28T141 185T84 421ZM599 59Q674 59 727 107T813 236T861
416T877 616Q877 754 838 840T690 926Q617 926 566 877T482 747T435 565T420 364Q420 230 456 145T599 59ZM829 1111Q693 1226 594 1289T474 1373Q451 1394 451 1438Q451 1464 462 1492T498 1544Q534 1577 584 1577Q612 1577 637 1567T676 1541Q696 1519 748 1415T894
1169L829 1111Z" />
<glyph unicode="&#xf3;" glyph-name="oacute" horiz-adv-x="1302" d="M84 421Q81 528 118 633T232 824T423 962T688 1014Q880 1014 996 956T1164 792T1217 546Q1217 393 1146 263T939 52T605 -28Q421 -28 308 28T141 185T84 421ZM599 59Q674 59 727 107T813 236T861
416T877 616Q877 754 838 840T690 926Q617 926 566 877T482 747T435 565T420 364Q420 230 456 145T599 59ZM708 1121L657 1179Q759 1277 815 1357T898 1459Q916 1474 939 1484T988 1495Q1029 1495 1055 1462Q1074 1438 1074 1409Q1074 1381 1059 1357T1023 1314Q1005
1298 957 1274T843 1213T708 1121Z" />
<glyph unicode="&#xf4;" glyph-name="ocircumflex" horiz-adv-x="1302" d="M84 421Q81 528 118 633T232 824T423 962T688 1014Q880 1014 996 956T1164 792T1217 546Q1217 393 1146 263T939 52T605 -28Q421 -28 308 28T141 185T84 421ZM599 59Q674 59 727 107T813
236T861 416T877 616Q877 754 838 840T690 926Q617 926 566 877T482 747T435 565T420 364Q420 230 456 145T599 59ZM380 1140L682 1508Q700 1531 731 1545T813 1559Q865 1559 891 1541T931 1499L1120 1140H977L782 1351L528 1140H380Z" />
<glyph unicode="&#xf5;" glyph-name="otilde" horiz-adv-x="1302" d="M84 421Q81 528 118 633T232 824T423 962T688 1014Q880 1014 996 956T1164 792T1217 546Q1217 393 1146 263T939 52T605 -28Q421 -28 308 28T141 185T84 421ZM599 59Q674 59 727 107T813 236T861
416T877 616Q877 754 838 840T690 926Q617 926 566 877T482 747T435 565T420 364Q420 230 456 145T599 59ZM890 1119Q848 1119 810 1140T735 1188T665 1236T594 1257Q548 1257 527 1234T493 1187T458 1163Q442 1163 426 1186T409 1235Q409 1274 436 1323T512 1408T624
1445Q666 1445 702 1424T772 1376T840 1327T912 1306Q960 1306 982 1329T1019 1376T1054 1400Q1071 1400 1087 1377T1103 1328Q1103 1290 1075 1241T998 1155T890 1119Z" />
<glyph unicode="&#xf6;" glyph-name="odieresis" horiz-adv-x="1302" d="M84 421Q81 528 118 633T232 824T423 962T688 1014Q880 1014 996 956T1164 792T1217 546Q1217 393 1146 263T939 52T605 -28Q421 -28 308 28T141 185T84 421ZM599 59Q674 59 727 107T813
236T861 416T877 616Q877 754 838 840T690 926Q617 926 566 877T482 747T435 565T420 364Q420 230 456 145T599 59ZM997 1180Q933 1180 898 1223T862 1330Q862 1347 865 1363Q878 1438 927 1492T1048 1547Q1113 1547 1148 1504T1184 1395Q1184 1388 1184 1380T1182
1363Q1169 1289 1119 1235T997 1180ZM520 1180Q456 1180 421 1223T385 1330Q385 1347 388 1363Q401 1438 450 1492T571 1547Q636 1547 671 1504T707 1395Q707 1388 707 1380T705 1363Q692 1289 642 1235T520 1180Z" />
<glyph unicode="&#xf7;" glyph-name="divide" horiz-adv-x="1440" d="M571 950Q571 1027 624 1089T766 1151Q847 1151 892 1100T937 975Q937 892 880 830T740 767Q659 767 615 821T571 950ZM240 501L252 647H1222L1210 501H240ZM504 183Q504 260 557 322T699 384Q780
384 825 333T870 208Q870 125 813 63T673 0Q592 0 548 54T504 183Z" />
<glyph unicode="&#xf8;" glyph-name="oslash" horiz-adv-x="1302" d="M84 421Q81 528 118 633T232 824T423 962T688 1014Q880 1014 996 956T1164 792T1217 546Q1217 393 1146 263T939 52T605 -28Q421 -28 308 28T141 185T84 421ZM599 59Q674 59 727 107T813 236T861
416T877 616Q877 754 838 840T690 926Q617 926 566 877T482 747T435 565T420 364Q420 230 456 145T599 59ZM1014 1305L361 131Q357 124 344 124Q319 124 298 143T279 181L931 1355Q937 1364 951 1364Q972 1364 994 1342T1014 1305Z" />
<glyph unicode="&#xf9;" glyph-name="ugrave" horiz-adv-x="1403" d="M432 -28Q363 -28 303 -4T205 76T167 223Q167 258 175 308L251 822Q252 829 252 840Q252 873 235 883T193 894Q172 894 149 889T112 883Q88 883 83 912Q81 923 88 937T112 957Q307 1007 406
1007Q508 1007 538 981T568 922Q568 903 564 885T558 852L468 273Q467 262 466 250T464 227Q464 182 488 148T582 113Q669 113 722 137T820 189L944 994H1219Q1252 994 1252 966L1124 141Q1124 88 1152 88Q1166 88 1185 92T1224 101Q1241 106 1249 93T1258 64Q1258
46 1250 42Q1231 32 1156 4T954 -25Q883 -25 852 10T820 89Q820 98 822 114Q796 82 735 49T595 -6T432 -28ZM856 1111Q720 1226 621 1289T501 1373Q478 1394 478 1438Q478 1464 489 1492T525 1544Q561 1577 611 1577Q639 1577 664 1567T703 1541Q723 1519 775 1415T921
1169L856 1111Z" />
<glyph unicode="&#xfa;" glyph-name="uacute" horiz-adv-x="1403" d="M432 -28Q363 -28 303 -4T205 76T167 223Q167 258 175 308L251 822Q252 829 252 840Q252 873 235 883T193 894Q172 894 149 889T112 883Q88 883 83 912Q81 923 88 937T112 957Q307 1007 406
1007Q508 1007 538 981T568 922Q568 903 564 885T558 852L468 273Q467 262 466 250T464 227Q464 182 488 148T582 113Q669 113 722 137T820 189L944 994H1219Q1252 994 1252 966L1124 141Q1124 88 1152 88Q1166 88 1185 92T1224 101Q1241 106 1249 93T1258 64Q1258
46 1250 42Q1231 32 1156 4T954 -25Q883 -25 852 10T820 89Q820 98 822 114Q796 82 735 49T595 -6T432 -28ZM735 1121L684 1179Q786 1277 842 1357T925 1459Q943 1474 966 1484T1015 1495Q1056 1495 1082 1462Q1101 1438 1101 1409Q1101 1381 1086 1357T1050 1314Q1032
1298 984 1274T870 1213T735 1121Z" />
<glyph unicode="&#xfb;" glyph-name="ucircumflex" horiz-adv-x="1403" d="M432 -28Q363 -28 303 -4T205 76T167 223Q167 258 175 308L251 822Q252 829 252 840Q252 873 235 883T193 894Q172 894 149 889T112 883Q88 883 83 912Q81 923 88 937T112 957Q307 1007
406 1007Q508 1007 538 981T568 922Q568 903 564 885T558 852L468 273Q467 262 466 250T464 227Q464 182 488 148T582 113Q669 113 722 137T820 189L944 994H1219Q1252 994 1252 966L1124 141Q1124 88 1152 88Q1166 88 1185 92T1224 101Q1241 106 1249 93T1258
64Q1258 46 1250 42Q1231 32 1156 4T954 -25Q883 -25 852 10T820 89Q820 98 822 114Q796 82 735 49T595 -6T432 -28ZM407 1140L709 1508Q727 1531 758 1545T840 1559Q892 1559 918 1541T958 1499L1147 1140H1004L809 1351L555 1140H407Z" />
<glyph unicode="&#xfc;" glyph-name="udieresis" horiz-adv-x="1403" d="M432 -28Q363 -28 303 -4T205 76T167 223Q167 258 175 308L251 822Q252 829 252 840Q252 873 235 883T193 894Q172 894 149 889T112 883Q88 883 83 912Q81 923 88 937T112 957Q307 1007
406 1007Q508 1007 538 981T568 922Q568 903 564 885T558 852L468 273Q467 262 466 250T464 227Q464 182 488 148T582 113Q669 113 722 137T820 189L944 994H1219Q1252 994 1252 966L1124 141Q1124 88 1152 88Q1166 88 1185 92T1224 101Q1241 106 1249 93T1258
64Q1258 46 1250 42Q1231 32 1156 4T954 -25Q883 -25 852 10T820 89Q820 98 822 114Q796 82 735 49T595 -6T432 -28ZM1024 1180Q960 1180 925 1223T889 1330Q889 1347 892 1363Q905 1438 954 1492T1075 1547Q1140 1547 1175 1504T1211 1395Q1211 1388 1211 1380T1209
1363Q1196 1289 1146 1235T1024 1180ZM547 1180Q483 1180 448 1223T412 1330Q412 1347 415 1363Q428 1438 477 1492T598 1547Q663 1547 698 1504T734 1395Q734 1388 734 1380T732 1363Q719 1289 669 1235T547 1180Z" />
<glyph unicode="&#xfd;" glyph-name="yacute" horiz-adv-x="1371" d="M246 -449Q184 -449 132 -420T80 -328Q80 -273 120 -243T216 -212Q273 -212 314 -221T395 -230Q439 -230 482 -206T565 -147T634 -79T683 -28Q578 -28 522 -19T445 10T424 64Q424 182 405 300T357
522T295 700T235 801Q225 812 208 822T177 832Q163 832 150 820T123 788Q109 768 96 768Q86 768 75 781T63 820Q63 833 69 845Q104 908 157 945T263 998T349 1014Q412 1014 459 989T538 903Q570 850 598 759T649 558T685 341T698 146Q698 112 699 67T699 -11Q715
8 751 53T832 160T917 295T985 440T1012 580Q1012 635 995 679T959 769T941 874Q941 933 983 973T1100 1014Q1165 1014 1205 976T1264 879T1283 761Q1283 648 1237 543T1121 342T973 160T834 0Q768 -78 694 -157T543 -302T390 -409T246 -449ZM767 1121L716 1179Q818
1277 874 1357T957 1459Q975 1474 998 1484T1047 1495Q1088 1495 1114 1462Q1133 1438 1133 1409Q1133 1381 1118 1357T1082 1314Q1064 1298 1016 1274T902 1213T767 1121Z" />
<glyph unicode="&#xfe;" glyph-name="thorn" horiz-adv-x="1326" d="M86 126L271 1329Q272 1336 272 1342T273 1355Q273 1403 248 1421T188 1443T130 1454Q120 1459 115 1467T111 1494Q113 1506 121 1521T142 1538Q283 1544 397 1546T572 1548Q580 1548 588 1542T597
1518Q597 1512 596 1508L540 1104L493 825Q569 921 670 967T862 1013Q1002 1013 1089 958T1218 809T1260 600Q1260 551 1252 492Q1230 358 1152 241T936 51T598 -22Q534 -22 472 -14T352 9L343 -117L295 -444L5 -443L86 126ZM483 702L402 165Q412 124 462 99T575
73Q672 73 740 128T849 277T906 492Q910 527 912 559T915 622Q915 734 876 799T739 865Q684 865 635 839T547 774T483 702Z" />
<glyph unicode="&#xff;" glyph-name="ydieresis" horiz-adv-x="1371" d="M246 -449Q184 -449 132 -420T80 -328Q80 -273 120 -243T216 -212Q273 -212 314 -221T395 -230Q439 -230 482 -206T565 -147T634 -79T683 -28Q578 -28 522 -19T445 10T424 64Q424 182 405
300T357 522T295 700T235 801Q225 812 208 822T177 832Q163 832 150 820T123 788Q109 768 96 768Q86 768 75 781T63 820Q63 833 69 845Q104 908 157 945T263 998T349 1014Q412 1014 459 989T538 903Q570 850 598 759T649 558T685 341T698 146Q698 112 699 67T699
-11Q715 8 751 53T832 160T917 295T985 440T1012 580Q1012 635 995 679T959 769T941 874Q941 933 983 973T1100 1014Q1165 1014 1205 976T1264 879T1283 761Q1283 648 1237 543T1121 342T973 160T834 0Q768 -78 694 -157T543 -302T390 -409T246 -449ZM1056 1180Q992
1180 957 1223T921 1330Q921 1347 924 1363Q937 1438 986 1492T1107 1547Q1172 1547 1207 1504T1243 1395Q1243 1388 1243 1380T1241 1363Q1228 1289 1178 1235T1056 1180ZM579 1180Q515 1180 480 1223T444 1330Q444 1347 447 1363Q460 1438 509 1492T630 1547Q695
1547 730 1504T766 1395Q766 1388 766 1380T764 1363Q751 1289 701 1235T579 1180Z" />
<glyph unicode="&#x2013;" glyph-name="endash" horiz-adv-x="1440" d="M110 496L128 632H1348L1330 496H110Z" />
<glyph unicode="&#x2014;" glyph-name="emdash" horiz-adv-x="1900" d="M109 496L127 622H1808L1790 496H109Z" />
<glyph unicode="&#x2018;" glyph-name="quoteleft" horiz-adv-x="550" d="M528 1706Q550 1706 568 1693T586 1660Q586 1642 570 1623Q467 1501 442 1417T420 1293Q420 1288 439 1283T482 1265T525 1228T544 1162Q544 1057 496 1013T367 969Q303 969 251 1021T199
1169Q199 1298 241 1393T350 1562T492 1694Q507 1706 528 1706Z" />
<glyph unicode="&#x2019;" glyph-name="quoteright" horiz-adv-x="550" d="M261 964Q239 964 221 977T203 1010Q203 1028 219 1047Q323 1169 347 1253T369 1377Q369 1382 350 1387T307 1405T264 1442T245 1508Q245 1613 293 1657T422 1701Q487 1701 538 1649T590
1501Q590 1373 548 1277T439 1109T297 976Q282 964 261 964Z" />
<glyph unicode="&#x201a;" glyph-name="quotesinglbase" horiz-adv-x="550" d="M45 -480Q23 -480 5 -467T-13 -434Q-13 -416 3 -397Q107 -275 131 -191T153 -67Q153 -62 134 -57T91 -39T48 -2T29 64Q29 169 77 213T206 257Q271 257 322 205T374 57Q374 -71 332
-167T223 -335T81 -468Q66 -480 45 -480Z" />
<glyph unicode="&#x201c;" glyph-name="quotedblleft" horiz-adv-x="1063" d="M536 1704Q558 1704 576 1691T594 1658Q594 1640 578 1621Q475 1499 450 1415T428 1291Q428 1286 447 1281T490 1263T533 1226T552 1160Q552 1055 504 1011T375 967Q311 967 259 1019T207
1167Q207 1296 249 1391T358 1560T500 1692Q515 1704 536 1704ZM1017 1704Q1039 1704 1057 1691T1075 1658Q1075 1640 1059 1621Q956 1499 931 1415T909 1291Q909 1286 928 1281T971 1263T1014 1226T1033 1160Q1033 1055 985 1011T856 967Q792 967 740 1019T688
1167Q688 1296 730 1391T839 1560T981 1692Q996 1704 1017 1704Z" />
<glyph unicode="&#x201d;" glyph-name="quotedblright" horiz-adv-x="1063" d="M296 1219Q274 1219 256 1232T238 1265Q238 1283 254 1302Q358 1424 382 1508T404 1632Q404 1637 385 1642T342 1660T299 1697T280 1763Q280 1868 328 1912T457 1956Q522 1956 573
1904T625 1756Q625 1628 583 1532T474 1364T332 1231Q317 1219 296 1219ZM777 963Q755 963 737 976T719 1009Q719 1027 735 1046Q839 1168 863 1252T885 1376Q885 1381 866 1386T823 1404T780 1441T761 1507Q761 1612 809 1656T938 1700Q1003 1700 1054 1648T1106
1500Q1106 1372 1064 1276T955 1108T813 975Q798 963 777 963Z" />
<glyph unicode="&#x201e;" glyph-name="quotedblbase" horiz-adv-x="1063" d="M59 -480Q37 -480 19 -467T1 -434Q1 -416 17 -397Q121 -275 145 -191T167 -67Q167 -62 148 -57T105 -39T62 -2T43 64Q43 169 91 213T220 257Q285 257 336 205T388 57Q388 -71 346 -167T237
-335T95 -468Q80 -480 59 -480ZM560 -480Q538 -480 520 -467T502 -434Q502 -416 518 -397Q622 -275 646 -191T668 -67Q668 -62 649 -57T606 -39T563 -2T544 64Q544 169 592 213T721 257Q786 257 837 205T889 57Q889 -71 847 -167T738 -335T596 -468Q581 -480 560
-480Z" />
<glyph unicode="&#x2022;" glyph-name="bullet" horiz-adv-x="896" d="M424 292Q331 292 264 359T197 529Q197 609 232 675T334 782T489 822Q582 822 649 755T716 584Q716 505 681 439T580 332T424 292Z" />
<glyph unicode="&#x2039;" glyph-name="guilsinglleft" horiz-adv-x="811" d="M590 23L117 448L134 567L727 994L696 818L393 497L621 167L590 23Z" />
<glyph unicode="&#x203a;" glyph-name="guilsinglright" horiz-adv-x="811" d="M213 994L686 569L669 450L76 23L107 199L410 520L182 850L213 994Z" />
</font>
</defs>
</svg>
