<?xml version="1.0" standalone="no"?>
<!DOCTYPE svg PUBLIC "-//W3C//DTD SVG 1.1//EN" "http://www.w3.org/Graphics/SVG/1.1/DTD/svg11.dtd">
<svg xmlns="http://www.w3.org/2000/svg">
<defs >
<font id="Gelasio" horiz-adv-x="1319" ><font-face
    font-family="Gelasio SemiBold"
    units-per-em="2048"
    panose-1="0 0 0 0 0 0 0 0 0 0"
    ascent="1900"
    descent="-700"
    alphabetic="0" />
<glyph unicode=" " glyph-name="space" horiz-adv-x="512" />
<glyph unicode="!" glyph-name="exclam" horiz-adv-x="743" d="M319 508Q334 728 336 909T340 1215T352 1389Q364 1447 413 1487T530 1528Q602 1528 643 1491T684 1396Q684 1377 681 1358Q670 1301 632 1202T537 936T413 508H319ZM141 144Q141 212 190 270T320
329Q394 329 435 283T476 169Q476 91 423 35T295 -22Q221 -22 181 27T141 144Z" />
<glyph unicode="&quot;" glyph-name="quotedbl" horiz-adv-x="983" d="M244 967Q256 1034 266 1117T286 1282T302 1428T316 1522Q328 1590 379 1635T500 1681Q556 1681 581 1653T603 1579Q603 1567 600 1553T594 1528Q587 1503 556 1439T482 1292T395 1122T318
967H244ZM687 967Q699 1034 709 1117T729 1282T745 1428T759 1522Q771 1590 822 1635T943 1681Q999 1681 1024 1653T1046 1579Q1046 1567 1043 1553T1037 1528Q1030 1503 999 1439T925 1292T838 1122T761 967H687Z" />
<glyph unicode="#" glyph-name="numbersign" horiz-adv-x="1403" d="M204 0L344 420H110L124 526H378L504 900H230L245 1006H539L679 1419H806L665 1006H984L1124 1419H1251L1110 1006H1357L1342 900H1075L948 526H1216L1202 420H914L774 0H649L789 420H469L329
0H204ZM503 526H823L949 900H630L503 526Z" />
<glyph unicode="$" glyph-name="dollar" horiz-adv-x="1293" d="M88 68Q103 136 114 210T133 349T142 452Q143 482 159 490T195 498Q212 498 230 488T249 459Q251 434 254 384T283 259Q318 156 405 113T594 69Q721 69 795 119T870 268Q870 336 825 389T710 488T566
586Q492 637 424 697T311 833T266 1009Q266 1160 393 1261T747 1367L769 1535Q787 1550 804 1555T835 1561Q856 1561 869 1553T883 1538Q883 1533 875 1533L853 1361Q918 1352 966 1336T1031 1312Q1038 1308 1047 1307T1061 1306Q1081 1306 1091 1317T1111 1340T1140
1351Q1161 1351 1177 1343T1192 1322Q1188 1278 1179 1193T1167 1020Q1166 980 1151 972T1115 963Q1100 963 1083 970T1064 990Q1049 1100 1006 1162T899 1251T762 1277Q706 1277 651 1262T561 1206T527 1095Q528 1029 569 976T672 879T799 793Q879 742 955 682T1082
546T1132 370Q1132 269 1074 178T899 28T612 -30L591 -202Q571 -227 552 -236T518 -246Q499 -246 488 -236T476 -218Q476 -211 484 -209L507 -22Q416 -9 343 20T236 74Q225 82 204 58Q188 37 168 28T133 18Q113 18 99 34T88 68Z" />
<glyph unicode="%" glyph-name="percent" horiz-adv-x="1762" d="M448 711Q292 711 204 793T116 1016Q116 1135 168 1233T319 1390T556 1449Q716 1449 806 1366T896 1136Q896 1016 842 920T688 767T448 711ZM368 0L1291 1419H1452L526 0H368ZM461 795Q528 795
571 831T637 926T670 1051T680 1176Q680 1275 647 1320T540 1365Q461 1365 413 1309T343 1164T321 978Q321 882 354 839T461 795ZM1262 -28Q1106 -28 1018 53T930 277Q930 396 982 494T1133 651T1370 710Q1531 710 1620 627T1710 397Q1710 277 1658 181T1505 28T1262
-28ZM1275 56Q1343 56 1386 92T1452 187T1485 311T1494 437Q1494 536 1461 581T1354 626Q1276 626 1228 570T1157 424T1135 239Q1135 143 1168 100T1275 56Z" />
<glyph unicode="&amp;" glyph-name="ampersand" horiz-adv-x="1582" d="M1562 896Q1579 896 1585 884T1591 858Q1586 818 1551 818Q1455 818 1401 720Q1368 671 1343 609T1278 468T1165 295Q1191 263 1212 238T1246 197Q1277 159 1336 122T1457 78Q1474 77 1481
73T1488 55Q1488 36 1478 18T1448 0H1027Q1019 9 997 37T942 105Q860 43 754 4T533 -36Q363 -36 252 14T87 142T33 306Q33 419 88 499T236 641T446 758Q398 828 363 905T327 1072Q327 1193 392 1278T565 1409T805 1455Q969 1455 1058 1392T1148 1225Q1148 1130
1096 1055T958 918T770 802Q830 724 917 611T1097 380Q1147 446 1178 518T1225 649T1242 736Q1243 767 1221 784T1167 808T1112 818Q1087 821 1087 843Q1087 896 1127 896H1562ZM803 1370Q704 1370 656 1305T607 1134Q607 1060 636 1000T713 876Q822 928 882 1018T942
1211Q942 1245 928 1282T884 1344T803 1370ZM600 119Q667 119 736 129T880 186Q815 267 745 356T614 528T512 671Q437 618 388 546T339 351Q339 293 369 240T457 153T600 119Z" />
<glyph unicode="&apos;" glyph-name="quotesingle" horiz-adv-x="517" d="M229 967Q241 1034 251 1117T271 1282T287 1428T301 1522Q313 1590 364 1635T485 1681Q541 1681 566 1653T588 1579Q588 1567 585 1553T579 1528Q572 1503 541 1439T467 1292T380 1122T303
967H229Z" />
<glyph unicode="(" glyph-name="parenleft" horiz-adv-x="870" d="M186 463Q186 631 226 790T341 1086T517 1328T739 1490T993 1549Q1002 1549 1011 1549T1030 1547L1004 1460Q998 1460 988 1460T971 1458Q845 1435 749 1342T587 1106T487 787T453 422Q453 195
503 15T664 -260L649 -343Q566 -327 484 -268T335 -108T227 136T186 463Z" />
<glyph unicode=")" glyph-name="parenright" horiz-adv-x="870" d="M720 744Q720 576 679 417T564 121T388 -121T167 -283T-88 -342Q-97 -342 -106 -342T-125 -340L-99 -253Q-93 -253 -83 -253T-65 -251Q50 -228 144 -135T308 101T414 420T452 785Q452 1012 402
1192T241 1467L256 1550Q339 1534 421 1475T571 1315T679 1071T720 744Z" />
<glyph unicode="*" glyph-name="asterisk" horiz-adv-x="981" d="M319 660Q282 660 253 685T223 750Q223 772 233 797T263 842Q313 889 393 943T536 1050Q521 1053 479 1056T386 1064T293 1074T235 1084Q202 1095 181 1120T160 1179Q160 1230 196 1261T283 1292Q309
1292 342 1276Q354 1270 383 1247T446 1194T512 1139T560 1104Q560 1133 555 1182T542 1283T530 1375T526 1426Q528 1481 562 1515T649 1549Q706 1549 723 1515T741 1445Q741 1419 724 1368T682 1261T639 1160T618 1104Q635 1113 670 1141T742 1198T801 1239Q857
1270 888 1281T945 1292Q980 1292 1008 1273T1037 1208Q1037 1167 1007 1132T930 1084Q912 1078 870 1074T778 1065T687 1057T628 1050Q669 1001 724 956T821 866T863 772Q863 728 832 695T756 661Q728 661 701 676T659 718Q653 728 642 768T619 858T595 952T577
1018Q565 997 544 953T499 858T455 769T425 718Q376 660 319 660Z" />
<glyph unicode="+" glyph-name="plus" horiz-adv-x="1403" d="M589 64L627 498H228L241 638H639L675 1051H835L799 638H1197L1185 498H787L749 64H589Z" />
<glyph unicode="," glyph-name="comma" horiz-adv-x="635" d="M83 145Q83 223 135 274T260 326Q339 326 385 275T432 143Q432 63 399 -18T316 -171T219 -291T139 -357Q123 -365 111 -365Q81 -365 66 -349T50 -319Q50 -302 79 -271Q121 -227 152 -157T190 -10Q144
8 114 48T83 145Z" />
<glyph unicode="-" glyph-name="hyphen" horiz-adv-x="773" d="M109 496L128 629H682L663 496H109Z" />
<glyph unicode="." glyph-name="period" horiz-adv-x="635" d="M104 147Q104 220 153 276T283 333Q358 333 398 286T439 170Q439 93 386 37T258 -20Q182 -20 143 29T104 147Z" />
<glyph unicode="/" glyph-name="slash" horiz-adv-x="964" d="M-19 -415L831 1625H988L136 -415H-19Z" />
<glyph unicode="0" glyph-name="zero" horiz-adv-x="1381" d="M623 -29Q385 -29 262 109T138 490Q138 636 181 765T307 993T512 1148T789 1205Q1028 1205 1151 1069T1275 696Q1275 496 1198 332T975 69T623 -29ZM640 66Q733 66 797 127T900 289T956 512T973 757Q973
916 931 1013T769 1110Q677 1110 614 1052T513 894T457 673T439 421Q439 316 455 236T514 111T640 66Z" />
<glyph unicode="1" glyph-name="one" horiz-adv-x="966" d="M87 33Q87 49 95 64T123 82Q172 86 223 95T311 119T351 156L482 985Q454 971 393 939T255 906Q239 906 224 928T209 971Q209 994 213 1024T228 1054Q346 1054 443 1096T600 1189H797L642 169Q638 138
671 121T754 95T851 82Q872 80 879 74T884 45Q883 34 876 17T850 0H121Q105 0 96 10T87 33Z" />
<glyph unicode="2" glyph-name="two" horiz-adv-x="1241" d="M40 0L49 75Q177 158 305 252T539 449T711 662T780 888Q782 940 765 989T707 1071T599 1103Q513 1103 485 1080T440 1040L361 795Q341 730 275 730Q246 730 210 745T149 792T123 876Q123 943 167 1003T285
1108T449 1179T630 1205Q875 1205 984 1115T1089 873Q1087 777 1032 688T883 516T675 361T436 223H1095L1062 0H40Z" />
<glyph unicode="3" glyph-name="three" horiz-adv-x="1234" d="M472 -434Q396 -434 314 -416T160 -357T45 -249T0 -85Q0 28 58 91T188 155Q225 155 255 133T285 78L212 -214Q231 -256 286 -297T438 -339Q522 -339 606 -296T747 -166T803 48Q803 171 758 245T645
352T513 385H450L468 497H531Q624 497 702 549T826 697T871 923Q871 967 854 1009T795 1079T675 1107Q624 1107 585 1095T527 1070L435 795Q413 729 348 729Q318 729 284 743T225 789T200 870Q200 946 246 1007T368 1113T534 1181T714 1205Q941 1205 1052 1113T1166
873Q1167 760 1100 670T924 523T691 450Q798 448 895 399T1054 267T1117 76Q1119 -46 1068 -140T926 -300T718 -400T472 -434Z" />
<glyph unicode="4" glyph-name="four" horiz-adv-x="1277" d="M617 -384L660 0H36L1 87L644 1221Q652 1234 684 1246T750 1259Q817 1259 873 1229T931 1163Q931 1145 924 1133L215 154H674L720 536L776 576H987L937 154H1156L1139 0H924L880 -384H617Z" />
<glyph unicode="5" glyph-name="five" horiz-adv-x="1183" d="M380 -433Q269 -433 173 -390T18 -274T-42 -111Q-42 -56 -19 -21T37 31T96 48Q175 48 189 -27Q193 -45 201 -84T219 -167T237 -248T249 -297Q249 -297 273 -318T375 -339Q478 -339 548 -293T661 -170T722
-1T741 181Q741 325 684 413T530 501Q452 501 359 469T205 365L144 398L332 1189H1081L1049 944H412L301 532Q361 569 446 591T610 613Q755 613 850 561T991 416T1039 207Q1040 83 993 -31T858 -236T649 -380T380 -433Z" />
<glyph unicode="6" glyph-name="six" horiz-adv-x="1276" d="M586 -29Q421 -29 314 40T154 225T102 475Q102 657 167 829T358 1147T664 1396T1074 1542L1059 1450Q886 1402 769 1302T579 1076T472 821Q504 852 557 883T675 934T805 955Q944 955 1033 907T1166
775T1210 587Q1210 417 1133 277T915 54T586 -29ZM595 66Q700 66 772 139T881 330T919 579Q919 687 876 756T730 826Q671 826 608 803T496 747T431 688Q400 602 388 510T376 327Q376 208 423 137T595 66Z" />
<glyph unicode="7" glyph-name="seven" horiz-adv-x="1116" d="M233 -382L914 924H392Q345 924 309 890T250 817T222 767Q213 747 194 741T154 734Q143 734 130 742T120 768L205 1190L1111 1189L1151 1122L474 -383L233 -382Z" />
<glyph unicode="8" glyph-name="eight" horiz-adv-x="1335" d="M120 352Q120 449 162 533T281 676T461 756Q382 818 338 897T293 1078Q293 1192 362 1277T548 1410T809 1458Q1014 1458 1130 1369T1246 1134Q1246 1043 1201 969T1085 839T940 748Q1041 684 1117
603T1195 402Q1196 289 1134 191T944 32T625 -29Q461 -29 349 22T178 160T120 352ZM815 827L862 797Q931 843 970 936T1010 1125Q1010 1234 952 1298T782 1362Q661 1362 605 1299T549 1123Q549 1065 586 1014T685 917T815 827ZM535 707Q462 660 413 577T364 378Q364
247 436 157T652 66Q721 66 786 93T893 176T933 315Q932 391 871 458T719 587T535 707Z" />
<glyph unicode="9" glyph-name="nine" horiz-adv-x="1276" d="M234 -366L250 -269Q389 -241 491 -177T664 -25T781 161T854 355Q806 308 714 265T503 221Q364 221 276 273T145 411T103 601Q103 772 183 908T404 1125T721 1205Q890 1205 996 1134T1153 944T1204
688Q1204 523 1145 351T965 27T663 -230T234 -366ZM578 346Q667 346 749 388T881 484Q905 568 918 662T932 848Q932 967 885 1038T713 1110Q608 1110 536 1037T427 846T389 596Q389 489 433 418T578 346Z" />
<glyph unicode=":" glyph-name="colon" horiz-adv-x="762" d="M138 395Q138 468 187 524T317 581Q392 581 432 534T473 418Q473 341 420 285T292 228Q216 228 177 277T138 395ZM244 884Q244 957 293 1013T423 1070Q498 1070 538 1023T579 907Q579 830 526 774T398
717Q322 717 283 766T244 884Z" />
<glyph unicode=";" glyph-name="semicolon" horiz-adv-x="762" d="M171 145Q171 223 223 274T348 326Q427 326 473 275T520 143Q520 63 487 -18T404 -171T307 -291T227 -357Q211 -365 199 -365Q169 -365 154 -349T138 -319Q138 -302 167 -271Q209 -227 240 -157T278
-10Q232 8 202 48T171 145ZM271 884Q271 957 320 1013T450 1070Q525 1070 565 1023T606 907Q606 830 553 774T425 717Q349 717 310 766T271 884Z" />
<glyph unicode="&lt;" glyph-name="less" horiz-adv-x="1403" d="M1088 43L159 513L169 622L1187 1095L1173 941L347 565L1102 195L1088 43Z" />
<glyph unicode="=" glyph-name="equal" horiz-adv-x="1403" d="M243 699L257 844H1214L1200 699H243ZM206 272L220 417H1177L1163 272H206Z" />
<glyph unicode="&gt;" glyph-name="greater" horiz-adv-x="1403" d="M234 39L249 193L1075 565L320 943L334 1098L1263 623L1253 513L234 39Z" />
<glyph unicode="?" glyph-name="question" horiz-adv-x="1079" d="M456 451L467 526Q482 633 520 700T608 813T706 900T793 995T846 1135Q850 1160 852 1188T855 1248Q855 1296 841 1341T787 1414T674 1443Q612 1443 573 1425T514 1388T495 1369L425 1079Q418
1054 386 1037T314 1019Q250 1019 213 1055T175 1162Q175 1245 221 1312T343 1428T508 1502T684 1528Q853 1528 951 1483T1092 1365T1134 1214Q1134 1174 1129 1140T1112 1076Q1087 997 1034 940T917 838T790 749T685 655T631 535L617 451H456ZM330 144Q330 190
354 233T419 303T515 331Q588 331 629 286T671 173Q671 97 616 39T485 -20Q412 -20 371 28T330 144Z" />
<glyph unicode="@" glyph-name="at" horiz-adv-x="1956" d="M912 -326Q763 -326 625 -288T378 -168T205 47T141 366Q141 569 204 736T375 1032T622 1249T911 1382T1209 1427Q1332 1427 1449 1394T1662 1292T1814 1114T1871 855Q1871 712 1829 595T1717 386T1565
233T1401 138T1254 106Q1156 106 1107 144T1043 230Q995 174 929 144T809 114Q750 114 690 134T589 208T548 363Q548 479 588 592T701 799T877 949T1103 1005Q1168 1005 1205 975T1251 911L1291 982H1499L1245 364Q1239 351 1233 325T1227 279Q1227 253 1239 234T1287
214Q1348 214 1425 258T1574 385T1692 582T1739 834Q1739 995 1660 1103T1453 1267T1184 1322Q1023 1322 864 1257T575 1069T366 771T287 376Q287 227 330 122T446 -51T605 -157T776 -210T932 -226Q1055 -226 1149 -200T1310 -138T1417 -70T1472 -24L1522 -98Q1497
-122 1445 -160T1315 -236T1136 -300T912 -326ZM850 219Q896 219 951 270T1039 399L1181 777Q1183 797 1183 812Q1183 851 1166 880T1104 909Q1042 909 992 865T904 752T840 605T801 459T788 351Q788 303 799 261T850 219Z" />
<glyph unicode="A" glyph-name="A" horiz-adv-x="1498" d="M999 139L941 430H383L244 180Q239 172 235 159T230 137Q230 113 273 103T377 87Q401 85 407 76T414 52Q414 36 406 18T379 0H-86Q-101 0 -107 17T-113 46Q-113 71 -102 78T-76 88Q-19 98 28 113T103
180L828 1448H1019L1314 178Q1327 130 1363 110T1445 88Q1468 87 1477 80T1487 52Q1486 36 1476 18T1448 0H866Q849 0 843 18T836 49Q836 85 872 88Q937 93 969 94T1002 122Q1002 126 999 139ZM794 1170L433 520H923L794 1170Z" />
<glyph unicode="B" glyph-name="B" horiz-adv-x="1489" d="M27 48Q27 85 64 88Q120 92 168 105T222 152L386 1234Q392 1276 370 1295T310 1321T237 1331Q206 1334 206 1352Q206 1379 219 1399T249 1419H802Q1105 1419 1236 1345T1368 1119Q1369 1033 1325 953T1198
818T1006 752Q1100 746 1186 712T1328 611T1382 441Q1380 236 1212 118T687 0H54Q37 0 32 17T27 48ZM748 1331H692L615 793H758Q897 793 981 868T1066 1127Q1066 1242 984 1286T748 1331ZM521 136Q518 119 548 112T614 102T670 99Q734 99 801 109T927 155T1021
263T1059 458Q1059 547 1026 598T940 672T826 701T706 707H603L521 136Z" />
<glyph unicode="C" glyph-name="C" horiz-adv-x="1419" d="M777 -28Q557 -28 412 55T194 285T121 623Q121 813 190 965T380 1226T655 1391T979 1449Q1171 1449 1274 1417T1426 1361L1391 1058Q1391 1035 1359 1026T1315 1017Q1261 1017 1259 1068Q1260 1213 1188
1283T964 1353Q876 1353 787 1311T622 1181T501 956T455 629Q455 455 497 329T613 134T784 65Q903 65 972 99T1084 202T1170 372Q1185 406 1221 406Q1233 406 1266 399T1299 375L1262 101Q1257 87 1189 56T1012 -1T777 -28Z" />
<glyph unicode="D" glyph-name="D" horiz-adv-x="1655" d="M25 51Q28 84 63 88Q112 92 165 105T223 152L388 1245Q389 1283 365 1300T307 1323T243 1331Q213 1334 213 1353Q213 1360 214 1368Q214 1379 226 1399T255 1419H877Q1075 1418 1210 1371T1427 1244T1545
1065T1582 861Q1582 661 1517 502T1334 230T1060 59T719 0H53Q36 0 30 20T25 51ZM527 140Q529 127 536 117T578 100T694 94Q856 94 983 176T1184 432T1258 881Q1258 1055 1202 1153T1042 1291T798 1331H705L527 140Z" />
<glyph unicode="E" glyph-name="E" horiz-adv-x="1435" d="M700 1331L621 776H899Q926 780 951 814T995 888T1019 948Q1024 968 1046 974T1088 981Q1100 981 1114 973T1126 947L1062 504Q1059 487 1043 479T1015 470Q994 470 973 477T954 503Q954 525 948 568T927
647T883 684H608L536 175Q536 133 560 118T614 100H983Q1044 100 1093 135T1176 221T1232 314T1258 373Q1264 392 1280 399T1313 406Q1368 406 1367 372L1290 0H43Q26 0 20 20T16 51Q18 84 53 88Q86 91 125 97T193 117T224 152L385 1243Q386 1282 358 1299T291
1323T223 1331Q192 1334 192 1353Q192 1374 205 1396T236 1419H1385L1364 1102Q1361 1084 1343 1076T1312 1068Q1297 1068 1282 1074T1265 1101Q1265 1116 1260 1153T1239 1231T1190 1301T1103 1331H700Z" />
<glyph unicode="F" glyph-name="F" horiz-adv-x="1330" d="M41 0Q25 0 19 16T13 45Q13 84 51 88Q111 92 166 105T225 152L387 1244Q388 1283 363 1300T300 1323T228 1331Q197 1334 197 1353Q197 1374 209 1396T240 1419H1358L1344 1070Q1339 1053 1318 1045T1282
1036Q1245 1036 1246 1069Q1246 1084 1236 1125T1204 1214T1151 1296T1075 1331H697L610 740H875Q901 743 925 777T968 851T993 911Q998 931 1019 937T1061 944Q1072 944 1087 936T1100 910L1036 467Q1034 450 1017 442T988 433Q967 433 947 440T927 466Q928 488
922 531T901 610T857 647H597L529 184Q527 128 596 111T779 88Q794 87 803 82T811 58Q811 41 802 21T777 0H41Z" />
<glyph unicode="G" glyph-name="G" horiz-adv-x="1602" d="M805 -30Q609 -30 453 42T206 259T115 622Q115 825 189 979T387 1238T664 1396T976 1449Q1140 1449 1241 1434T1400 1398T1496 1361L1450 1051Q1449 1028 1427 1019T1392 1010Q1369 1010 1352 1014T1332
1038Q1319 1170 1264 1237T1128 1329T953 1353Q819 1353 723 1282T566 1095T476 847T449 589Q451 416 498 300T625 126T800 67Q937 67 997 103T1070 170L1122 475Q1120 509 1090 524T1019 545T942 553Q910 555 910 576Q910 588 916 614T955 641H1564Q1577 641 1583
627T1590 600Q1591 556 1550 553Q1504 550 1462 536T1418 489L1361 123Q1344 101 1270 65T1076 -1T805 -30Z" />
<glyph unicode="H" glyph-name="H" horiz-adv-x="1809" d="M65 0Q48 0 42 19T35 50Q35 84 74 88Q125 92 172 105T226 152L389 1253Q389 1287 368 1302T315 1323T254 1331Q234 1333 229 1342T223 1370Q223 1387 236 1403T265 1419H851Q866 1419 871 1403T877 1375Q876
1336 839 1331Q790 1327 740 1314T684 1267L610 776H1285L1355 1251Q1355 1286 1334 1301T1280 1322T1218 1331Q1198 1333 1193 1340T1187 1368Q1187 1385 1199 1402T1229 1419H1803Q1819 1419 1824 1403T1830 1374Q1829 1335 1791 1331Q1747 1327 1701 1314T1651
1267L1488 168Q1488 133 1513 118T1573 97T1639 88Q1659 86 1664 77T1669 51Q1668 33 1658 17T1631 0H1028Q1012 0 1005 19T999 50Q1001 66 1009 76T1038 88Q1086 92 1137 105T1193 152L1271 684H596L521 167Q521 132 543 117T598 96T658 88Q679 86 684 77T688
51Q688 33 678 17T650 0H65Z" />
<glyph unicode="I" glyph-name="I" horiz-adv-x="885" d="M40 42Q40 62 48 74T78 88Q127 91 179 105T236 152L398 1234Q400 1244 400 1251Q400 1286 375 1302T316 1323T254 1331Q223 1334 223 1352Q223 1355 224 1359T225 1368Q226 1379 239 1399T270 1419H872Q887
1419 892 1403T896 1375Q895 1334 856 1331Q805 1327 757 1314T702 1267L542 185Q541 174 541 168Q541 133 566 117T625 96T687 88Q718 85 718 65Q718 61 716 51Q714 40 703 20T674 0H64Q50 0 45 14T40 42Z" />
<glyph unicode="J" glyph-name="J" horiz-adv-x="1171" d="M401 -30Q333 -30 262 -13T129 44T29 146T-9 300Q-9 387 44 444T192 502Q234 502 266 479T299 426L259 158Q267 112 307 86T405 59Q508 59 562 133T644 406L770 1256Q773 1305 722 1315T573 1331Q542
1333 542 1352Q542 1371 549 1395T579 1419H1248Q1263 1419 1268 1402T1274 1372Q1274 1335 1234 1331Q1204 1328 1167 1322T1102 1302T1071 1267L949 439Q927 292 872 200T741 57T576 -11T401 -30Z" />
<glyph unicode="K" glyph-name="K" horiz-adv-x="1597" d="M64 0Q47 0 41 18T36 49Q38 85 73 88Q122 92 170 105T223 152L387 1234Q388 1245 387 1255Q386 1288 363 1303T308 1324T249 1331Q218 1334 218 1353Q218 1374 230 1396T261 1419H839Q856 1419 861 1399T865
1368Q859 1334 825 1331Q775 1327 733 1314T685 1267L520 174Q514 136 540 119T605 96T679 88Q697 86 704 81T711 59Q710 42 698 21T670 0H64ZM1172 0Q1121 0 1099 23T1062 70Q1009 159 953 259T843 451T741 607T655 692L1203 1255Q1216 1270 1216 1281Q1216 1302
1177 1313T1093 1330Q1068 1333 1068 1353Q1068 1373 1080 1395T1112 1418H1606Q1623 1418 1628 1398T1633 1367Q1625 1330 1592 1330Q1492 1330 1426 1294T1330 1227L935 827Q1009 748 1076 651T1200 465T1295 317Q1320 281 1360 229T1448 136T1543 89Q1575 86
1572 47Q1570 0 1534 0H1172Z" />
<glyph unicode="L" glyph-name="L" horiz-adv-x="1353" d="M27 44Q27 84 66 88Q114 93 164 106T220 152L387 1245Q393 1283 370 1300T312 1323T248 1331Q217 1334 217 1353Q217 1374 230 1396T261 1419H886Q903 1419 908 1409T913 1387Q913 1369 903 1350T873
1331Q838 1331 797 1323T723 1295T685 1237L524 160Q518 125 543 113T598 101H874Q926 101 970 139T1053 236T1123 361T1182 480Q1190 498 1207 505T1240 513Q1261 513 1283 505T1301 479L1190 0H56Q41 0 34 15T27 44Z" />
<glyph unicode="M" glyph-name="M" horiz-adv-x="2050" d="M-7 0Q-23 0 -27 18T-31 49Q-30 65 -23 75T5 88Q44 91 90 97T173 123T217 184L415 1234Q416 1239 416 1247Q416 1284 383 1300T306 1323T227 1331Q195 1334 195 1355Q195 1380 208 1399T238 1419H841L1024
440H1036L1416 1246Q1443 1306 1458 1345T1487 1419H2042Q2058 1419 2063 1403T2068 1374Q2067 1335 2030 1331Q1998 1329 1959 1322T1892 1302T1862 1267L1785 182Q1783 140 1811 121T1878 97T1948 88Q1966 86 1973 81T1980 59Q1979 42 1967 21T1939 0H1296Q1280
0 1274 19T1269 49Q1270 66 1277 76T1306 88Q1339 91 1380 97T1453 117T1486 152L1570 1281H1534L937 0H849L553 1281H519L317 185Q316 177 316 171Q316 135 347 119T420 97T496 88Q515 86 522 81T529 59Q528 42 516 21T488 0H-7Z" />
<glyph unicode="N" glyph-name="N" horiz-adv-x="1660" d="M1 0Q-13 0 -19 13T-25 36Q-25 58 -18 71T15 88Q46 91 91 98T173 122T214 172L379 1204Q380 1214 380 1220Q380 1258 354 1281T291 1317T226 1331Q191 1334 192 1358Q192 1375 206 1397T237 1419H686L1279
292H1291L1428 1234Q1429 1238 1429 1246Q1429 1283 1392 1300T1309 1323T1234 1331Q1192 1335 1196 1363Q1197 1378 1209 1398T1240 1419H1747Q1762 1419 1767 1403T1772 1375Q1770 1335 1731 1331Q1700 1328 1655 1322T1573 1297T1530 1234L1359 113Q1356 94
1357 81T1352 40Q1343 -2 1302 -16T1214 -30Q1203 -30 1180 -27T1134 -19T1108 -8L489 1179H472L318 171Q316 134 354 118T440 97T517 88Q548 85 548 60Q548 36 535 18T506 0H1Z" />
<glyph unicode="O" glyph-name="O" horiz-adv-x="1623" d="M751 -29Q537 -29 396 54T186 280T117 601Q117 768 173 920T335 1192T591 1380T930 1449Q1148 1449 1291 1369T1503 1148T1573 831Q1573 664 1517 510T1353 235T1094 42T751 -29ZM770 65Q908 65 999 139T1144
335T1219 605T1242 904Q1242 1046 1215 1147T1119 1302T929 1356Q787 1356 694 1283T547 1087T469 817T446 518Q446 377 475 276T575 120T770 65Z" />
<glyph unicode="P" glyph-name="P" horiz-adv-x="1386" d="M32 0Q14 0 8 19T2 51Q2 85 39 88Q72 91 110 97T177 117T210 152L374 1250Q374 1285 351 1301T296 1323T235 1331Q218 1333 197 1336T176 1353Q176 1374 188 1396T219 1419H825Q1043 1419 1164 1370T1332
1239T1380 1061Q1380 896 1296 783T1061 613T711 555H573L518 177Q515 124 575 109T719 88Q740 86 747 78T753 48Q752 33 741 17T713 0H32ZM580 639H677Q857 639 958 742T1060 1063Q1060 1145 1032 1205T934 1298T737 1331H683L580 639Z" />
<glyph unicode="Q" glyph-name="Q" horiz-adv-x="1623" d="M1118 -419Q984 -419 872 -373T693 -243T626 -46Q626 -35 627 -21Q456 4 343 90T174 309T118 601Q118 768 174 920T336 1192T593 1380T931 1449Q1150 1449 1292 1369T1504 1148T1574 831Q1574 684 1530
546T1402 293T1197 98T923 -13Q927 -77 973 -148T1116 -269T1371 -316V-383Q1371 -383 1311 -401T1118 -419ZM771 65Q909 65 1000 139T1145 335T1221 605T1244 904Q1244 1046 1216 1147T1120 1302T930 1356Q789 1356 696 1283T548 1087T471 817T448 518Q448 377
477 276T576 120T771 65Z" />
<glyph unicode="R" glyph-name="R" horiz-adv-x="1573" d="M74 0Q60 0 54 17T48 48Q48 85 81 88Q130 92 181 105T237 152L390 1251Q395 1287 371 1301T312 1321T250 1331T223 1356Q223 1380 232 1399T265 1419H841Q1063 1419 1188 1378T1364 1261T1415 1084Q1415
970 1361 882T1215 735T1016 655Q1080 635 1123 585T1195 472T1248 346T1295 240Q1331 176 1372 136T1481 89Q1501 87 1507 74T1514 41Q1514 34 1507 17T1480 0H1128Q1059 0 1022 76Q993 135 971 220T923 392T859 543T759 625H595L532 172Q532 135 554 118T609
96T672 88Q703 85 703 59Q702 49 697 25T663 0H74ZM609 712H744Q937 712 1018 813T1100 1075Q1100 1215 1033 1274T783 1333H695L609 712Z" />
<glyph unicode="S" glyph-name="S" horiz-adv-x="1280" d="M81 72Q95 143 108 220T131 364T142 471Q143 501 160 510T193 520Q218 520 236 508T254 478Q256 458 257 402T284 271Q322 158 406 108T597 57Q727 57 800 125T873 289Q873 371 826 429T704 537T546 639Q467
689 398 746T285 880T241 1061Q241 1188 310 1274T495 1405T751 1449Q856 1449 920 1430T1039 1387Q1058 1380 1071 1380Q1094 1381 1104 1394T1124 1419T1157 1432Q1172 1432 1190 1425T1208 1402Q1203 1345 1200 1309T1193 1243T1188 1178T1184 1087Q1182 1053
1171 1041T1135 1028Q1114 1028 1097 1035T1075 1056Q1070 1091 1056 1143T1009 1247T917 1334T762 1369Q656 1369 582 1319T508 1162Q508 1085 550 1027T660 923T799 835Q855 802 916 763T1031 672T1118 554T1152 401Q1152 294 1093 196T913 34T604 -30Q521 -30
461 -16T348 22T236 78Q227 83 220 77T203 61Q175 34 161 27T135 20Q104 20 91 37T81 72Z" />
<glyph unicode="T" glyph-name="T" horiz-adv-x="1360" d="M220 44Q220 84 258 88Q306 92 356 100T444 126T487 182L662 1331H501Q440 1331 391 1284T307 1171T250 1046T223 962Q217 942 200 936T167 929Q156 929 126 937T99 963Q107 1012 123 1088T158 1240T192
1367T213 1419H1421Q1421 1316 1407 1192T1381 963Q1378 946 1347 938T1305 929Q1286 929 1272 935T1259 962Q1260 1055 1254 1139T1217 1277T1114 1331H956L781 178Q779 139 819 121T913 97T1006 88Q1026 86 1033 80T1040 50Q1039 35 1027 18T997 0H248Q233 0
227 15T220 44Z" />
<glyph unicode="U" glyph-name="U" horiz-adv-x="1659" d="M817 -29Q546 -29 397 78T247 401Q247 438 249 474T256 539L358 1264Q360 1296 335 1308T275 1324T215 1332T189 1352Q189 1374 199 1396T232 1419H855Q870 1419 875 1402T880 1372Q880 1332 841 1331Q768
1330 720 1315T667 1267L563 551Q557 506 553 458T550 374Q555 213 631 139T848 65Q970 65 1052 106T1187 218T1269 377T1315 561L1417 1255Q1419 1294 1379 1311T1259 1331Q1228 1332 1228 1352Q1228 1374 1240 1396T1272 1419H1709Q1725 1419 1729 1403T1734
1373Q1734 1332 1696 1331Q1617 1328 1570 1303T1515 1230L1411 539Q1369 243 1221 107T817 -29Z" />
<glyph unicode="V" glyph-name="V" horiz-adv-x="1501" d="M462 -18L221 1254Q213 1298 187 1313T130 1328T74 1331Q43 1334 43 1353Q43 1373 57 1396T88 1419H718Q734 1419 738 1400T742 1368Q740 1334 702 1331Q548 1321 548 1266L718 161H726L1343 1249Q1349
1263 1349 1274Q1349 1299 1316 1312T1203 1331Q1176 1334 1176 1356Q1176 1379 1187 1399T1220 1419H1675Q1690 1419 1695 1406T1701 1381Q1699 1336 1657 1331Q1632 1329 1600 1325T1534 1304T1475 1245L750 -18H462Z" />
<glyph unicode="W" glyph-name="W" horiz-adv-x="2213" d="M416 -18L272 1254Q268 1299 239 1313T174 1328T114 1331Q83 1334 83 1353Q83 1380 97 1399T128 1419H772Q787 1419 792 1403T797 1375Q796 1357 787 1344T757 1331Q673 1331 625 1314T579 1261L663 289H675L1219
1399H1433L1547 288H1558L2022 1250Q2027 1260 2027 1268Q2027 1300 1974 1315T1849 1331Q1822 1331 1822 1355Q1822 1388 1837 1403T1867 1419H2381Q2396 1419 2401 1403T2407 1374Q2406 1349 2395 1341T2363 1331Q2338 1329 2304 1326T2237 1308T2184 1254L1512
-18H1288L1179 1043H1167L630 -18H416Z" />
<glyph unicode="X" glyph-name="X" horiz-adv-x="1586" d="M-36 0Q-51 0 -56 15T-62 43Q-62 68 -49 77T-16 88Q20 92 79 100T193 165L680 669L373 1254Q348 1304 303 1314T201 1330Q167 1334 167 1366Q167 1384 181 1401T212 1419H833Q849 1419 852 1406T856 1380Q856
1362 845 1347T814 1331Q748 1331 721 1325T694 1302L910 849L1274 1257Q1289 1272 1289 1283Q1289 1304 1252 1317T1154 1331Q1136 1331 1132 1340T1128 1364Q1128 1383 1139 1401T1167 1419H1652Q1665 1419 1670 1407T1675 1382Q1675 1353 1664 1343T1631 1331Q1593
1327 1536 1319T1422 1254L946 770L1272 165Q1291 127 1321 112T1384 93T1440 88Q1456 87 1461 76T1467 54Q1467 32 1454 16T1424 0H804Q789 0 784 14T778 40Q778 57 789 71T821 88Q888 92 915 98T943 121L721 591L350 162Q335 144 335 135Q335 117 375 104T508
88Q525 86 530 77T536 53Q536 37 525 19T496 0H-36Z" />
<glyph unicode="Y" glyph-name="Y" horiz-adv-x="1426" d="M259 42Q259 83 310 88Q344 91 383 92T452 105T488 152L554 534L234 1254Q214 1300 186 1318T102 1341Q82 1343 78 1352T73 1375Q73 1393 86 1406T115 1419H722Q739 1419 744 1405T749 1380Q749 1365
735 1349T700 1331Q619 1328 580 1323T540 1297L802 639L1241 1258Q1253 1275 1253 1289Q1253 1308 1223 1319T1124 1331Q1107 1331 1098 1343T1088 1370Q1088 1385 1100 1402T1131 1419H1564Q1580 1419 1586 1404T1590 1378Q1585 1356 1576 1350T1546 1341Q1508
1337 1468 1327T1382 1254L859 545L796 151Q796 116 827 105T900 93T974 88Q992 86 1003 82T1015 62Q1015 38 1000 19T970 0H285Q271 0 265 15T259 42Z" />
<glyph unicode="Z" glyph-name="Z" horiz-adv-x="1357" d="M16 32Q16 53 26 70T72 133L995 1331H562Q524 1331 480 1290T394 1193T324 1087T287 1019Q279 1000 265 993T230 986Q218 986 199 994T183 1020L273 1378Q279 1401 296 1410T328 1419H1342Q1356 1419
1366 1411T1376 1389Q1376 1362 1370 1349T1351 1319L394 83H859Q902 83 945 113T1029 191T1102 287T1156 376T1184 430Q1192 450 1206 456T1242 463Q1253 463 1277 455T1296 429L1185 41Q1178 20 1162 10T1128 0H54Q16 0 16 32Z" />
<glyph unicode="[" glyph-name="bracketleft" horiz-adv-x="870" d="M86 -313L366 1549H886L873 1453H622L369 -216H619L605 -313H86Z" />
<glyph unicode="\" glyph-name="backslash" horiz-adv-x="964" d="M737 -415H601L304 1625H442L737 -415Z" />
<glyph unicode="]" glyph-name="bracketright" horiz-adv-x="870" d="M821 1549L541 -313H23L36 -216H287L538 1453H288L302 1549H821Z" />
<glyph unicode="^" glyph-name="asciicircum" horiz-adv-x="1403" d="M157 300L761 1428H900L1228 300H1082L813 1263L324 300H157Z" />
<glyph unicode="_" glyph-name="underscore" horiz-adv-x="1403" d="M-113 -190H1309L1294 -296H-128L-113 -190Z" />
<glyph unicode="`" glyph-name="grave" horiz-adv-x="1024" d="M716 1115Q581 1237 483 1299T366 1384Q342 1408 342 1449Q342 1473 352 1499T386 1548Q424 1581 470 1581Q497 1581 520 1571T558 1545Q577 1522 630 1419T781 1173L716 1115Z" />
<glyph unicode="a" glyph-name="a" horiz-adv-x="1297" d="M367 -26Q263 -27 194 17T91 138T57 305Q57 421 105 544T242 774T456 946T733 1012Q822 1012 895 991T1015 936Q1065 964 1104 985T1166 1007Q1179 1007 1188 1002T1198 983L1059 183Q1056 160 1056 147Q1056
120 1075 110T1115 100Q1137 100 1164 107T1199 114Q1226 114 1226 79Q1226 57 1218 48T1201 36Q1172 25 1095 2T920 -21Q844 -21 809 15T773 111Q773 120 780 156T796 238T814 326T827 389Q804 335 760 265T656 128T523 19T367 -26ZM469 139Q516 139 564 174T659
264T744 381T813 500T859 591L903 816Q899 856 854 890T731 924Q639 924 568 872T447 737T373 555T347 362Q347 233 381 186T469 139Z" />
<glyph unicode="b" glyph-name="b" horiz-adv-x="1270" d="M91 126L277 1341Q278 1362 262 1368T234 1385Q233 1420 214 1433T170 1452T129 1464Q113 1479 126 1508Q152 1517 180 1528T232 1540Q334 1545 418 1546T547 1547Q555 1547 563 1541T572 1517Q572 1513
571 1507L514 1104L463 822Q537 922 634 967T817 1013Q950 1013 1032 958T1151 810T1189 605Q1189 554 1181 492Q1161 358 1087 241T886 51T576 -21Q469 -21 367 4T190 63T91 126ZM455 707L373 167Q385 129 435 102T553 74Q650 74 717 128T823 277T878 492Q882
530 884 565T887 633Q887 744 850 809T714 874Q660 874 611 848T521 782T455 707Z" />
<glyph unicode="c" glyph-name="c" horiz-adv-x="1046" d="M671 1014Q841 1014 929 956T1018 783Q1018 719 963 687T838 654Q808 654 796 659T774 699L720 917Q712 923 695 928T641 933Q530 933 453 787T376 381Q376 281 407 222T487 136T593 110Q679 110 743
145T864 232Q869 238 874 242T886 242L923 209Q928 205 928 200Q928 194 924 190T917 181Q842 89 745 31T506 -28Q297 -28 183 89T69 402Q69 532 116 643T247 838T439 967T671 1014Z" />
<glyph unicode="d" glyph-name="d" horiz-adv-x="1302" d="M440 -29Q307 -29 227 28T110 180T74 382Q74 506 118 619T245 822T439 962T688 1014Q775 1014 827 999T919 963L938 1104L969 1337Q971 1349 971 1355Q971 1402 939 1420T865 1443T800 1454Q780 1462
780 1485Q780 1499 787 1511T802 1525Q865 1530 931 1534T1052 1541T1136 1545Q1171 1547 1208 1543T1258 1527Q1267 1521 1265 1507L1070 173Q1068 165 1068 154Q1068 101 1126 101Q1147 101 1173 107T1213 114Q1238 114 1238 78Q1238 67 1233 54T1213 36Q1130
10 1064 -3T951 -16Q879 -16 844 6T798 58T786 112Q786 121 791 152Q749 95 688 55T560 -7T440 -29ZM542 110Q593 110 645 137T740 205T809 288L888 799Q875 840 830 879T703 919Q615 919 553 869T452 735T394 555T375 362Q375 264 399 209T462 132T542 110Z" />
<glyph unicode="e" glyph-name="e" horiz-adv-x="1088" d="M1027 792Q1027 710 973 646T826 534T613 456T362 407Q361 396 361 384T361 360Q361 263 395 208T482 130T591 106Q683 106 758 136T915 222Q927 231 933 229Q941 227 956 211T974 183Q976 178 976 177Q976
173 973 170T969 164Q882 73 764 22T511 -29Q301 -29 185 84T69 385Q69 519 119 633T255 833T452 966T686 1014Q815 1014 890 978T996 891T1027 792ZM650 933Q552 933 469 815T366 484Q549 523 653 604T757 823Q757 870 732 901T650 933Z" />
<glyph unicode="f" glyph-name="f" horiz-adv-x="747" d="M-70 -442Q-152 -442 -196 -420T-258 -363T-275 -295Q-275 -235 -233 -198T-144 -160Q-126 -160 -108 -163L-31 -344Q8 -342 38 -312T93 -203T136 20L251 892H95Q83 893 79 911T77 941Q80 960 88 970T107
984L263 993L276 1075Q291 1169 320 1258T399 1418T528 1531T720 1573Q837 1573 881 1530T926 1434Q926 1395 901 1369T842 1331T781 1318Q770 1318 769 1321L682 1475Q651 1475 628 1448T586 1341T545 1107L530 994H759Q779 992 779 969Q779 951 770 924T749 892H516L406
56Q389 -72 333 -185T176 -370T-70 -442Z" />
<glyph unicode="g" glyph-name="g" horiz-adv-x="1282" d="M520 -458Q280 -458 136 -383T-9 -167Q-8 -82 48 -28T180 53Q149 77 132 107T115 182Q115 265 175 324T308 415Q229 451 191 515T154 648Q154 773 221 854T398 974T639 1014Q754 1014 836 989T965 920Q1000
955 1064 986T1189 1017Q1251 1017 1292 980T1333 872Q1333 812 1299 783T1224 754Q1196 754 1173 766T1142 800Q1133 820 1126 839T1113 878Q1106 884 1074 875T1016 852Q1027 832 1034 804T1042 744Q1042 622 981 538T813 410T566 366Q465 366 391 384Q363 371
342 347T319 299Q319 269 345 245T426 215L726 182Q928 160 1013 96T1098 -89Q1098 -209 1019 -291T808 -415T520 -458ZM585 457Q691 457 736 541T781 752Q781 836 742 881T618 927Q544 927 504 890T448 789T432 648Q432 561 468 509T585 457ZM541 -361Q620 -361
692 -342T809 -278T855 -160Q855 -104 787 -78T625 -41L361 -9Q340 -7 319 -3T279 7Q233 -46 233 -141Q233 -247 308 -304T541 -361Z" />
<glyph unicode="h" glyph-name="h" horiz-adv-x="1313" d="M68 0L276 1337Q278 1351 278 1361Q278 1404 255 1420T202 1441T149 1454Q128 1465 131 1494Q132 1506 141 1522T162 1538Q289 1546 392 1546T549 1547Q557 1547 566 1539T573 1507L504 1075L452 778Q474
799 516 837T620 917T758 986T927 1014Q1037 1014 1104 959T1156 764L1062 167Q1060 130 1075 116T1120 101Q1142 101 1169 107T1206 114Q1231 114 1231 78Q1231 67 1226 54T1206 36Q1040 -13 943 -13Q869 -13 834 7T787 54T776 104L871 727Q871 759 867 787T840
832T765 849Q694 849 632 816T521 740T444 665L340 0H68Z" />
<glyph unicode="i" glyph-name="i" horiz-adv-x="706" d="M281 -13Q223 -13 195 6T157 52T147 98Q147 135 152 164L260 785Q263 803 263 815Q263 860 241 875T190 894T138 903Q127 908 122 916T120 943Q121 955 129 970T150 987Q276 995 378 996T535 997Q543 997
552 989T559 957L427 143Q427 114 444 105T488 96Q510 96 536 102T575 109Q587 109 593 96T599 67Q599 42 575 33Q507 12 443 0T281 -13ZM441 1181Q377 1181 338 1220T298 1322Q298 1407 356 1464T492 1521Q556 1521 596 1482T637 1379Q637 1296 579 1239T441 1181Z"
/>
<glyph unicode="j" glyph-name="j" horiz-adv-x="702" d="M-25 -449Q-145 -449 -209 -393T-274 -272Q-274 -223 -241 -187T-157 -150Q-110 -150 -91 -187L-10 -347Q16 -346 42 -333T92 -280T139 -159T181 56L292 813Q292 849 273 864T223 887T160 903Q139 912
142 940Q143 953 151 969T172 987Q300 995 404 996T564 997Q572 997 580 989T588 957L459 78Q437 -71 367 -190T195 -379T-25 -449ZM476 1181Q412 1181 373 1220T333 1322Q333 1407 391 1464T527 1521Q591 1521 631 1482T672 1379Q672 1296 614 1239T476 1181Z"
/>
<glyph unicode="k" glyph-name="k" horiz-adv-x="1242" d="M482 743L442 494L828 837Q844 850 844 863Q844 884 803 893T725 905Q699 908 699 935Q699 957 711 975T740 993L1224 992Q1239 992 1245 978T1252 952Q1252 933 1241 918T1212 904Q1152 906 1076 878T957
810L749 625Q793 580 836 501T924 334T1021 173Q1039 149 1062 125T1113 101Q1130 101 1149 106T1177 112Q1191 112 1197 100T1203 74Q1203 63 1197 50T1178 32Q1091 7 1021 -3T863 -14Q775 -14 742 57Q711 123 682 199T620 347T546 469L432 378L372 0H98L307 1362Q307
1405 284 1421T229 1441T174 1454Q156 1464 156 1494Q156 1510 165 1524T187 1538Q317 1546 418 1546T574 1547Q582 1547 591 1541T599 1514L482 743Z" />
<glyph unicode="l" glyph-name="l" horiz-adv-x="683" d="M128 168Q133 200 146 280T176 469T213 699T251 938T285 1151T309 1305T318 1365Q318 1401 293 1415T235 1434T177 1449T152 1485Q152 1494 160 1515T185 1538Q314 1544 422 1546T585 1548Q592 1548 601
1542T610 1518Q610 1516 599 1442T569 1247T528 982T484 692T443 426T413 228T402 148Q402 126 414 112T461 97Q482 97 507 103T547 109Q556 109 564 105T573 78Q573 66 568 54T548 36Q483 15 411 1T261 -13Q200 -13 171 9T132 60T122 112Q122 128 124 141T128
168Z" />
<glyph unicode="m" glyph-name="m" horiz-adv-x="1976" d="M1818 738L1733 189Q1731 167 1731 152Q1731 99 1768 99Q1784 99 1811 104T1856 113Q1871 116 1879 106T1888 78Q1888 55 1874 50Q1840 36 1761 12T1583 -13Q1522 -14 1493 4T1455 50T1446 101Q1446 118
1448 130T1450 142L1538 715Q1540 728 1540 745Q1540 780 1519 816T1424 852Q1342 852 1277 810T1163 722L1054 0H777L887 717Q890 729 890 745Q890 781 868 816T772 852Q708 852 656 825T561 760T487 688L378 0H103L226 778Q229 795 229 807Q229 853 205 870T148
892T94 903Q75 912 75 933Q75 935 75 937T76 943Q76 955 85 970T106 987Q233 995 335 996T491 997Q500 997 509 989T515 957L489 785Q507 808 546 846T642 922T767 987T911 1014Q1019 1014 1087 977T1166 824Q1206 860 1265 904T1400 981T1565 1014Q1635 1014 1693
998T1787 935T1822 801Q1822 787 1822 771T1818 738Z" />
<glyph unicode="n" glyph-name="n" horiz-adv-x="1351" d="M1175 733L1093 189Q1090 168 1090 154Q1090 99 1128 99Q1144 99 1171 104T1216 113Q1230 116 1238 106T1247 78Q1247 56 1234 50Q1185 27 1112 9T943 -13Q882 -14 853 4T815 50T806 101Q806 118 808
130T810 142L897 726Q900 744 900 764Q900 853 817 853Q752 853 692 828T581 764T498 689L388 0H113L234 778Q235 786 235 793T236 806Q236 853 212 870T157 892T103 903Q92 908 87 916T85 943Q86 955 94 970T115 987Q241 995 344 996T502 997Q510 997 520 989T526
957L500 785Q523 806 563 844T663 921T798 987T967 1014Q1022 1014 1070 996T1149 930T1179 799Q1179 783 1178 767T1175 733Z" />
<glyph unicode="o" glyph-name="o" horiz-adv-x="1240" d="M87 422Q85 529 122 634T233 825T415 962T665 1014Q841 1014 948 956T1104 793T1153 553Q1153 397 1085 265T886 53T570 -28Q400 -28 295 29T139 187T87 422ZM565 59Q642 59 696 107T785 236T834 416T850
616Q850 754 813 840T666 926Q590 926 537 878T450 748T401 567T385 368Q385 232 421 146T565 59Z" />
<glyph unicode="p" glyph-name="p" horiz-adv-x="1304" d="M-73 -426Q-87 -426 -93 -413T-100 -388Q-100 -365 -90 -358T-60 -348Q-35 -345 -6 -339T47 -315T76 -256L227 778Q228 785 228 791T229 804Q229 849 207 866T156 889T105 900Q75 909 76 936Q77 945 84
965T107 987Q234 993 336 995T492 997Q500 997 508 991T517 967L494 813Q567 918 667 965T852 1013Q982 1013 1059 957T1169 810T1203 618Q1203 499 1164 384T1047 176T857 26T597 -30Q537 -30 483 -22T383 -1L372 -108L344 -287Q343 -308 369 -320T435 -338T513
-348Q542 -351 542 -375Q542 -389 532 -407T501 -426H-73ZM580 65Q665 65 725 114T824 244T881 426T900 628Q900 735 868 804T745 874Q700 874 652 850T561 790T491 714L405 149Q416 119 467 92T580 65Z" />
<glyph unicode="q" glyph-name="q" horiz-adv-x="1272" d="M573 -444Q556 -444 551 -429T545 -403Q545 -370 583 -366Q635 -360 680 -348T731 -302L773 -29L801 162Q712 56 619 14T443 -29Q312 -29 232 28T116 178T80 381Q80 507 126 621T256 824T454 963T705
1014Q790 1014 842 998T951 947Q990 964 1015 977T1063 998Q1073 1003 1109 1015T1160 1028Q1195 1028 1194 991L1006 -293Q1006 -340 1044 -351T1123 -366Q1155 -369 1155 -396Q1155 -419 1143 -431T1114 -444H573ZM548 110Q598 110 650 137T746 206T816 288L894
797Q881 835 840 877T717 919Q630 919 567 869T464 738T403 561T383 372Q383 268 407 211T468 132T548 110Z" />
<glyph unicode="r" glyph-name="r" horiz-adv-x="1048" d="M525 798Q553 832 603 883T722 974T871 1014Q959 1014 1000 967T1042 848Q1042 749 982 690T813 631L752 834Q712 834 669 813T587 761T522 703L410 0H134L257 778Q260 795 260 807Q260 853 233 870T172
892T116 903Q97 912 97 933Q97 953 106 969T128 987Q259 995 361 996T519 997Q526 997 535 991T544 967Q544 967 539 927T525 798Z" />
<glyph unicode="s" glyph-name="s" horiz-adv-x="1005" d="M462 -24Q353 -24 260 -3T111 65T54 189Q54 240 88 273T189 306L348 86Q368 69 397 62T465 55Q528 55 581 90T632 190Q632 240 594 277T495 348T371 422Q283 477 219 547T155 735Q155 824 211 886T360
980T564 1013Q763 1013 859 957T957 823Q957 789 931 765T872 727T820 714L676 903Q656 918 633 927T577 937Q500 937 450 903T402 808Q402 748 463 705T615 609Q689 566 751 520T850 415T887 280Q887 203 839 134T697 20T462 -24Z" />
<glyph unicode="t" glyph-name="t" horiz-adv-x="810" d="M327 -26Q243 -26 188 10T133 159Q133 174 134 190T137 223L240 892H111Q101 893 97 906T93 931Q93 954 105 971T131 991Q202 1000 250 1027T340 1112T430 1273Q455 1324 522 1324H561Q586 1324 583 1302L530
994H783Q794 993 798 984T802 962Q802 939 792 918T769 892H516L420 281Q414 244 414 213Q414 145 441 131T500 116Q549 116 586 131T648 163T684 179Q698 179 706 164T715 131Q715 114 704 106Q651 67 601 38T487 -9T327 -26Z" />
<glyph unicode="u" glyph-name="u" horiz-adv-x="1334" d="M424 -28Q356 -28 297 -6T200 68T163 213Q163 247 170 294L249 822Q250 829 250 840Q250 873 233 883T191 894Q170 894 147 889T110 883Q86 883 81 912Q78 923 85 937T110 957Q287 1007 377 1007Q474
1007 502 976T530 912Q530 894 527 878T522 852L433 264Q431 253 430 241T429 218Q429 174 452 141T547 107Q634 107 690 134T791 193L910 994H1151Q1184 994 1184 966L1060 144Q1060 90 1097 90Q1114 90 1137 95T1178 105Q1192 108 1200 98T1209 70Q1209 47 1196
42Q1161 28 1089 4T919 -21Q843 -21 816 15T788 93Q788 101 790 114Q763 82 705 49T573 -6T424 -28Z" />
<glyph unicode="v" glyph-name="v" horiz-adv-x="1208" d="M445 -22Q384 -22 365 -10T346 23Q347 43 348 54T347 97Q344 224 322 359T262 613T177 811Q157 843 130 843Q94 843 59 805Q44 789 31 789Q20 789 8 800T-4 835Q-4 848 2 860Q54 939 130 976T289 1014Q403
1014 466 904Q512 825 538 719T576 494T591 258Q591 231 571 179T530 96Q585 131 647 188T764 318T853 471T888 632Q888 680 876 719T850 797T837 884Q837 941 876 977T978 1014Q1037 1014 1073 981T1126 896T1143 792Q1143 704 1102 608T993 418T842 238T673 87T513
-19Q509 -21 499 -21T445 -22Z" />
<glyph unicode="w" glyph-name="w" horiz-adv-x="1843" d="M476 -20Q411 -20 392 -8T374 25Q374 31 374 45T375 80Q375 270 351 415T293 660T228 811Q220 826 202 834T168 843Q150 843 133 831T97 799Q82 783 69 783Q58 783 46 794T34 829Q34 835 35 841T40 854Q104
945 173 979T328 1013Q413 1013 466 948T547 773T587 528T599 253Q599 216 586 174T562 92Q623 130 687 194T808 337T899 501T938 666Q933 700 932 736T907 818Q892 844 860 844Q846 844 820 830T778 799Q762 783 747 783Q735 783 725 794T714 827Q714 833 714
839T719 851Q775 935 856 973T991 1013Q1079 1014 1126 953T1195 786T1221 543T1227 253Q1227 214 1214 170T1187 92Q1270 149 1351 235T1486 423T1539 633Q1539 681 1526 719T1500 796T1489 882Q1491 939 1528 976T1627 1013Q1685 1013 1721 979T1773 894T1790
790Q1790 680 1735 562T1589 332T1392 129T1179 -17Q1176 -19 1160 -19T1095 -20Q1030 -20 1009 -8T988 25Q988 31 990 54T992 101Q992 197 986 272T974 409Q892 256 777 149T554 -17Q550 -20 476 -20Z" />
<glyph unicode="x" glyph-name="x" horiz-adv-x="1144" d="M150 -28Q76 -28 27 26T-21 148Q-21 209 12 250T87 291Q128 291 147 259L194 176L438 450L321 764Q293 837 251 837Q224 837 201 819T156 776Q126 744 113 744Q99 744 89 755T78 781Q78 798 89 814Q149
900 232 952T418 1004Q476 1004 517 971T580 864L656 611L824 888Q860 947 903 972T989 997Q1069 997 1110 942T1152 820Q1152 757 1117 722T1044 686Q1011 686 993 711L933 799L685 519L806 211Q834 140 873 140Q905 140 931 161T978 208Q995 226 1009 226Q1024
226 1034 214T1044 185Q1044 172 1036 159Q981 71 904 22T714 -27Q647 -27 606 14T541 129L473 359L296 81Q260 22 225 -3T150 -28Z" />
<glyph unicode="y" glyph-name="y" horiz-adv-x="1302" d="M193 -449Q126 -449 83 -421T39 -342Q39 -288 81 -260T179 -232Q244 -232 288 -237T372 -232Q428 -218 477 -180T566 -97T634 -22Q505 -22 460 -7T415 55Q415 171 398 289T354 512T295 696T234 813Q225
825 211 834T183 843Q165 843 148 827T117 792Q103 772 91 772Q80 772 69 785T58 821Q58 834 64 847Q98 907 147 944T247 997T329 1014Q388 1014 431 990T506 904Q537 847 564 754T611 552T644 335T658 137Q658 107 659 71T659 9Q689 47 740 117T844 277T933 458T969
632Q969 679 956 717T930 794T916 883Q916 942 954 978T1056 1014Q1115 1014 1151 981T1203 896T1220 792Q1220 687 1176 581T1061 371T908 166T751 -32Q693 -103 626 -176T487 -311T340 -411T193 -449Z" />
<glyph unicode="z" glyph-name="z" horiz-adv-x="1013" d="M30 0Q11 0 0 11T-12 37Q-12 56 -1 74T35 123L584 784L706 911H411Q375 911 342 882T281 812T236 732T214 676Q209 656 194 650T163 643Q151 643 132 651T117 677L178 953Q181 971 198 982T231 994H967Q1024
994 1024 961Q1024 937 1015 922T992 887L453 224L318 83H620Q657 83 692 113T757 186T806 268T830 326Q839 359 872 359Q883 359 906 351T928 325L868 41Q866 22 849 12T816 0H30Z" />
<glyph unicode="{" glyph-name="braceleft" horiz-adv-x="980" d="M237 -16L296 371Q298 382 298 399Q298 470 242 516T101 562H71L87 672H117Q211 672 285 726T371 863L429 1250Q445 1361 510 1426T659 1520T812 1549H1009L996 1462H890Q810 1462 768 1407T716
1293L654 886Q635 764 538 700T307 616Q421 597 498 544T576 390Q576 370 573 348L511 -59Q508 -77 508 -95Q508 -145 530 -186T621 -227H741L727 -314H517Q453 -314 388 -291T278 -214T233 -68Q233 -41 237 -16Z" />
<glyph unicode="|" glyph-name="bar" horiz-adv-x="786" d="M250 -367V1535H395V-367H250Z" />
<glyph unicode="}" glyph-name="braceright" horiz-adv-x="980" d="M790 1250L731 863Q728 849 728 832Q728 762 780 717T916 672H946L927 562H897Q803 562 737 508T658 371L601 -16Q581 -127 515 -192T365 -286T212 -315H20L33 -228H137Q217 -228 260 -172T312
-59L373 348Q391 470 484 534T709 618Q597 637 523 689T449 840Q449 860 454 886L517 1293Q520 1310 520 1330Q520 1380 494 1421T400 1462H287L300 1549H506Q570 1549 637 1526T750 1450T796 1309Q796 1280 790 1250Z" />
<glyph unicode="~" glyph-name="asciitilde" horiz-adv-x="1403" d="M1169 642Q1145 588 1107 534T1016 444T897 408Q814 408 755 439T629 502Q592 519 561 526T504 534Q445 534 409 507T351 449T308 411Q290 407 270 431T250 480Q250 500 256 509Q287 556 328
605T422 688T539 722Q618 722 669 691T785 628Q822 610 853 603T912 595Q973 595 1012 623T1078 681T1123 720Q1134 723 1155 705T1176 674Q1176 661 1175 656T1169 642Z" />
<glyph unicode="&#xa0;" glyph-name="uni00A0" horiz-adv-x="512" />
<glyph unicode="&#xa1;" glyph-name="exclamdown" horiz-adv-x="743" d="M688 1356Q688 1288 639 1230T508 1171Q434 1171 394 1217T353 1332Q353 1409 406 1465T534 1522Q608 1522 648 1473T688 1356ZM511 992Q496 772 494 591T490 285T478 111Q466 53 417 13T300
-28Q228 -28 187 9T146 104Q146 116 162 172T205 313T263 494T325 688T380 864T417 992H511Z" />
<glyph unicode="&#xa2;" glyph-name="cent" horiz-adv-x="1334" d="M658 -202Q638 -227 619 -236T585 -246Q567 -246 555 -236T543 -218Q543 -211 551 -209L574 -25Q393 -8 296 106T198 402Q198 565 271 697T468 913T743 1011L768 1206Q786 1221 803 1226T834
1232Q855 1232 868 1224T882 1209Q882 1204 874 1204L849 1013Q1147 997 1147 787Q1147 725 1092 694T967 662Q938 662 926 666T904 705L849 917Q842 924 824 928T771 933Q659 933 583 787T506 381Q506 281 536 222T616 136T722 110Q808 110 872 145T993 232Q999
238 1004 242T1015 242L1052 209Q1057 205 1057 200Q1057 194 1053 190T1046 181Q977 96 890 40T680 -26L658 -202Z" />
<glyph unicode="&#xa3;" glyph-name="sterling" horiz-adv-x="1371" d="M106 -7Q72 -7 34 11T-5 74Q-5 125 34 158T136 207T271 222Q296 251 302 320T323 544L342 702H171Q161 703 157 718T153 746Q153 768 163 786T186 809H354L361 871Q382 1046 451 1175T648
1376T974 1448Q1075 1448 1140 1417T1236 1339T1268 1246Q1268 1191 1242 1157T1174 1122Q1154 1122 1131 1126T1098 1148L988 1345Q956 1366 904 1366Q839 1366 795 1323T721 1177T665 893L653 809H964Q983 808 983 782Q983 764 972 736T949 702H639L625 604Q602
435 547 338T394 170Q470 140 559 114T773 88Q898 88 966 129T1052 241L1010 406Q1010 411 1024 428T1065 462T1133 479Q1195 479 1230 449T1281 374T1297 286Q1297 175 1229 109T1055 13T838 -16Q714 -16 630 -1T490 36T396 73T324 90Q286 57 234 25T106 -7Z"
/>
<glyph unicode="&#xa4;" glyph-name="currency" horiz-adv-x="1358" d="M352 569Q352 674 401 759L224 940L339 1047L510 874Q594 927 702 927Q809 927 890 875L1060 1047L1175 940L999 761Q1047 676 1047 569Q1047 463 998 377L1175 197L1060 91L890 264Q806
211 698 211Q591 211 509 263L339 91L224 197L401 377Q352 463 352 569ZM869 569Q869 678 824 732T697 786Q529 786 529 569Q529 459 574 406T700 352Q781 352 825 405T869 569Z" />
<glyph unicode="&#xa5;" glyph-name="yen" horiz-adv-x="1427" d="M317 0Q301 0 295 12T289 36Q291 78 334 82Q368 84 413 86T493 103T533 152L553 301H146Q136 301 131 313T126 338Q126 357 136 379T158 404H567L599 635H181Q171 636 166 647T161 670Q161 690
171 712T194 736H583L304 1254Q284 1294 249 1312T176 1336T115 1344Q84 1347 84 1367Q84 1390 96 1404T125 1419H757Q774 1419 780 1409T785 1388Q783 1372 775 1359T746 1344Q684 1340 633 1333T581 1298L805 798L1257 1304Q1257 1323 1218 1332T1124 1344Q1096
1348 1096 1371Q1098 1396 1110 1407T1137 1419H1564Q1581 1419 1587 1406T1592 1381Q1589 1359 1581 1353T1551 1344Q1513 1340 1465 1325T1367 1254L892 736H1252Q1262 736 1267 726T1272 704Q1272 686 1262 662T1239 635H849L818 404H1217Q1226 403 1231 393T1237
372Q1237 354 1227 328T1204 301H804L783 153Q783 116 815 103T889 87T963 82Q982 80 992 75T1001 49Q1000 35 989 18T960 0H317Z" />
<glyph unicode="&#xa6;" glyph-name="brokenbar" horiz-adv-x="786" d="M250 765V1535H395V765H250ZM250 -369V401H395V-369H250Z" />
<glyph unicode="&#xa7;" glyph-name="section" horiz-adv-x="1114" d="M410 -361Q280 -361 201 -304T122 -170Q122 -108 162 -74T243 -40L420 -271Q498 -270 542 -220T587 -94Q587 -31 546 20T441 127T305 261Q243 330 210 403T176 552Q176 664 238 755T419 864Q380
914 349 978T317 1104Q317 1208 371 1285T516 1406T718 1449Q848 1449 925 1393T1003 1256Q1003 1195 963 1160T882 1125L703 1358Q628 1357 584 1306T540 1179Q540 1118 577 1070T674 969T806 843Q873 769 912 691T952 529Q952 455 923 388T838 275T707 217Q747
167 779 105T811 -19Q811 -123 758 -199T613 -318T410 -361ZM657 278Q704 319 712 366T721 461Q721 521 697 563T644 636Q598 683 554 724T470 806Q422 764 415 718T408 622Q408 563 431 521T483 449Q529 403 573 361T657 278Z" />
<glyph unicode="&#xa8;" glyph-name="dieresis" horiz-adv-x="1024" d="M425 1242Q384 1260 371 1298T375 1378Q404 1387 405 1367Q412 1412 445 1443T527 1472Q587 1445 586 1380Q606 1383 607 1367Q615 1412 648 1443T729 1472Q769 1454 782 1416T779 1337Q751
1327 749 1347Q742 1302 709 1271T627 1242Q597 1255 582 1280T568 1335Q548 1331 546 1347Q540 1302 506 1271T425 1242Z" />
<glyph unicode="&#xa9;" glyph-name="copyright" horiz-adv-x="1929" d="M974 -281Q789 -281 627 -212T342 -19T150 266T80 613Q80 798 149 960T342 1246T627 1438T974 1508Q1159 1508 1321 1439T1607 1246T1799 961T1869 613Q1869 428 1800 266T1607 -19T1322
-211T974 -281ZM974 -201Q1141 -201 1286 -137T1543 39T1716 299T1779 613Q1779 780 1717 927T1543 1187T1287 1364T974 1428Q808 1428 662 1364T406 1187T233 927T170 613Q170 447 232 300T405 40T662 -137T974 -201ZM1013 122Q550 122 550 622Q550 789 612 896T782
1054T1022 1105Q1060 1105 1113 1096T1219 1059T1305 979Q1332 938 1343 904T1354 844Q1354 805 1335 784T1291 763Q1239 763 1217 792T1180 855Q1164 888 1157 921T1131 976Q1131 976 1106 994T1037 1013Q956 1013 887 981T776 862T733 612Q733 491 760 414T829
292T919 231T1009 213Q1064 213 1118 228T1215 287T1275 414Q1276 420 1278 427T1289 435L1361 436Q1374 436 1375 428T1377 412Q1373 308 1320 244T1185 151T1013 122Z" />
<glyph unicode="&#xaa;" glyph-name="ordfeminine" horiz-adv-x="1098" d="M387 612Q263 612 200 697T139 905Q141 1058 214 1186T416 1392T710 1470Q775 1470 833 1454T927 1409Q988 1431 1027 1444T1082 1458Q1102 1458 1102 1433Q1102 1426 1093 1380T1071
1263T1041 1113T1011 962T989 840T980 777Q981 733 1004 733Q1025 733 1047 738T1095 749Q1106 751 1111 737T1117 708Q1117 703 1115 695T1108 684Q1098 679 1057 662T959 628T844 612Q787 612 765 645T742 717Q742 737 746 766T755 821T760 851Q703 757 610 685T387
612ZM482 764Q535 764 581 792T665 863T734 950T787 1028L849 1320Q826 1354 784 1368T699 1383Q595 1383 525 1319T418 1147T382 915Q382 833 413 799T482 764Z" />
<glyph unicode="&#xab;" glyph-name="guillemotleft" horiz-adv-x="1232" d="M549 21L76 449L93 568L686 992L658 825L328 498L577 158L549 21ZM1083 21L610 449L627 568L1220 992L1192 825L861 498L1111 158L1083 21Z" />
<glyph unicode="&#xac;" glyph-name="logicalnot" horiz-adv-x="1403" d="M969 125V499H162V639H1122V125H969Z" />
<glyph unicode="&#xad;" glyph-name="uni00AD" horiz-adv-x="0" />
<glyph unicode="&#xae;" glyph-name="registered" horiz-adv-x="1929" d="M974 -281Q789 -281 627 -212T342 -19T150 266T80 613Q80 798 149 960T342 1246T627 1438T974 1508Q1159 1508 1321 1439T1607 1246T1799 961T1869 613Q1869 428 1800 266T1607 -19T1322
-211T974 -281ZM974 -201Q1141 -201 1286 -137T1543 39T1716 299T1779 613Q1779 780 1717 927T1543 1187T1287 1364T974 1428Q808 1428 662 1364T406 1187T233 927T170 613Q170 447 232 300T405 40T662 -137T974 -201ZM595 136Q584 136 579 148T573 167Q573 177
577 188T594 201Q626 203 654 212T683 243V981Q683 1023 652 1032T590 1044Q577 1046 572 1050T567 1069Q567 1089 589 1089H996Q1089 1089 1164 1067T1283 992T1328 847Q1328 744 1257 691T1081 608Q1149 602 1188 568T1250 483T1292 378T1340 278Q1362 235 1386
220T1436 201Q1469 197 1469 167Q1469 160 1464 148T1447 136H1304Q1250 136 1218 167T1165 247T1130 352T1097 456T1051 537T973 568H839V264Q839 222 877 213T951 201Q975 198 975 167Q975 160 970 148T953 136H595ZM839 645H931Q985 645 1038 657T1126 708T1161
827Q1161 907 1134 946T1058 999T946 1012H839V645Z" />
<glyph unicode="&#xaf;" glyph-name="overscore" horiz-adv-x="1373" d="M63 1270L86 1418H673L650 1270H63Z" />
<glyph unicode="&#xb0;" glyph-name="degree" horiz-adv-x="860" d="M108 1113Q108 1266 205 1360T456 1455Q610 1455 704 1361T798 1113Q798 960 702 865T452 769Q298 769 203 864T108 1113ZM262 1113Q262 1002 315 947T454 892Q539 892 591 947T644 1113Q644
1224 590 1278T451 1332Q365 1332 314 1278T262 1113Z" />
<glyph unicode="&#xb1;" glyph-name="plusminus" horiz-adv-x="1403" d="M237 0V140H609V498H210V638H609V1053H769V638H1167V498H769V140H1140V0H237Z" />
<glyph unicode="&#xb2;" glyph-name="uni00B2" horiz-adv-x="1098" d="M162 760L169 801Q177 838 203 855Q300 913 402 985T591 1144T733 1328T787 1537Q787 1592 760 1637T671 1683Q609 1683 577 1663T520 1598T455 1484Q443 1462 427 1441T370 1420Q331 1420
298 1439T264 1501Q264 1540 301 1593Q344 1653 447 1700T691 1747Q868 1747 955 1678T1043 1502Q1043 1411 986 1324T839 1161T652 1030T473 943H982L945 760H162Z" />
<glyph unicode="&#xb3;" glyph-name="uni00B3" horiz-adv-x="1098" d="M525 742Q435 742 359 769T237 841T191 944Q191 1007 231 1049T321 1092Q370 1092 389 1078T414 1050L339 871Q341 871 356 855T408 823T506 806Q630 806 696 884T763 1084Q763 1148 737 1178T665
1217T564 1227H494Q478 1227 478 1242Q478 1268 483 1285T505 1303H559Q670 1303 737 1368T804 1541Q804 1589 772 1635T656 1682Q623 1682 586 1670T519 1610Q502 1578 489 1548T462 1495Q445 1465 423 1453T373 1441Q335 1441 308 1466T281 1520Q281 1578 320
1621T424 1692T561 1733T703 1747Q800 1747 881 1723T1012 1654T1062 1545Q1062 1467 1020 1409T909 1315T757 1268Q833 1267 901 1246T1013 1183T1056 1078Q1056 965 982 891T786 779T525 742Z" />
<glyph unicode="&#xb4;" glyph-name="acute" horiz-adv-x="1024" d="M90 1354L39 1412Q141 1510 197 1589T280 1692Q298 1707 321 1717T370 1728Q411 1728 437 1695Q456 1670 456 1642Q456 1614 441 1590T405 1547Q387 1531 339 1507T225 1446T90 1354Z" />
<glyph unicode="&#xb5;" glyph-name="uni00B5" horiz-adv-x="1313" d="M86 -446Q38 -446 15 -415T-8 -338Q-8 -307 7 -238T45 -81T91 95T132 254T153 358L221 852Q221 902 189 913T123 928Q91 931 91 952Q91 974 102 985T130 996H483Q516 996 516 968Q516 964
510 915T493 790T470 629T447 465T429 332T421 267Q421 237 431 201T469 139T554 113Q635 113 696 160T809 260L891 852Q891 901 858 913T791 928Q759 931 759 952Q759 974 770 985T798 996H1151Q1184 996 1184 968Q1184 966 1176 911T1156 769T1130 585T1104 398T1084
249T1076 180Q1076 133 1099 116T1154 94T1209 83Q1229 74 1229 52Q1229 39 1221 25T1199 9Q1069 2 963 1T802 -1Q793 -1 786 9T778 39L791 131Q771 99 725 62T620 -1T504 -27Q392 -27 323 9T210 111Q209 11 213 -95T218 -274Q218 -344 183 -395T86 -446Z" />
<glyph unicode="&#xb6;" glyph-name="paragraph" horiz-adv-x="1198" d="M89 -287Q75 -287 69 -272T63 -243Q65 -216 74 -209T106 -199Q141 -196 180 -190T249 -165T286 -102L397 585Q277 625 207 714T137 929Q137 1091 213 1202T414 1368T687 1421L1245 1419Q1260
1419 1265 1409T1271 1386Q1271 1334 1228 1331Q1182 1327 1142 1313T1091 1234L875 -138Q873 -170 916 -182T1004 -199Q1034 -202 1034 -230Q1034 -250 1021 -268T989 -287H655L909 1302H717L463 -287H89Z" />
<glyph unicode="&#xb7;" glyph-name="middot" horiz-adv-x="655" d="M168 596Q168 669 217 725T347 782Q422 782 462 735T503 619Q503 542 450 486T322 429Q246 429 207 478T168 596Z" />
<glyph unicode="&#xb8;" glyph-name="cedilla" horiz-adv-x="504" d="M89 -494Q-1 -494 -55 -473T-132 -437Q-142 -430 -135 -416Q-128 -405 -115 -385T-93 -351Q-85 -339 -73 -343Q-49 -353 -17 -363T67 -373Q116 -373 154 -349T193 -279Q193 -249 155 -223T29
-198L104 19H249L188 -117Q279 -127 333 -166T387 -271Q387 -334 347 -384T239 -464T89 -494Z" />
<glyph unicode="&#xb9;" glyph-name="uni00B9" horiz-adv-x="1098" d="M243 760Q230 760 227 778T224 805Q226 816 232 828T254 841Q274 844 316 846T404 854T483 869T519 895L633 1566Q606 1545 555 1523T445 1487T338 1472Q324 1472 312 1504T304 1561Q307 1577
315 1590T344 1604Q364 1605 414 1611T527 1630T647 1667T742 1725H908L772 902Q768 882 804 870T899 852T1019 841Q1047 840 1039 800Q1037 791 1030 776T1011 760H243Z" />
<glyph unicode="&#xba;" glyph-name="ordmasculine" horiz-adv-x="1098" d="M549 612Q411 612 318 662T178 798T130 988Q130 1115 193 1225T376 1402T661 1470Q798 1470 891 1422T1031 1291T1079 1105Q1079 979 1017 866T837 683T549 612ZM562 698Q640 698 690
744T768 860T807 1007T818 1145Q818 1258 775 1320T643 1383Q564 1383 514 1339T437 1227T398 1083T387 946Q387 831 429 765T562 698Z" />
<glyph unicode="&#xbb;" glyph-name="guillemotright" horiz-adv-x="1232" d="M559 23L587 190L917 517L668 856L696 994L1169 566L1152 447L559 23ZM25 23L53 190L384 517L134 856L162 994L635 566L618 447L25 23Z" />
<glyph unicode="&#xbc;" glyph-name="onequarter" horiz-adv-x="2420" d="M204 502Q191 502 188 520T185 547Q187 558 193 570T215 583Q235 586 277 588T365 596T444 611T480 637L594 1308Q567 1287 516 1265T406 1229T299 1214Q285 1214 273 1246T265 1303Q268
1319 276 1332T305 1346Q325 1347 375 1353T488 1372T608 1409T703 1467H869L733 644Q729 624 765 612T860 594T980 583Q1008 582 1000 542Q998 533 991 518T972 502H204ZM934 0H789L1553 1419H1700L934 0ZM1848 -7L1877 183H1389Q1382 183 1381 199T1381 230Q1382
247 1393 266L1758 950Q1776 970 1800 976T1843 983Q1887 983 1927 961T1991 911T2011 861L1559 290H1895L1947 560L2161 571L2120 290H2303L2284 183H2104L2077 -7H1848Z" />
<glyph unicode="&#xbd;" glyph-name="onehalf" horiz-adv-x="2420" d="M204 502Q191 502 188 520T185 547Q187 558 193 570T215 583Q235 586 277 588T365 596T444 611T480 637L594 1308Q567 1287 516 1265T406 1229T299 1214Q285 1214 273 1246T265 1303Q268 1319
276 1332T305 1346Q325 1347 375 1353T488 1372T608 1409T703 1467H869L733 644Q729 624 765 612T860 594T980 583Q1008 582 1000 542Q998 533 991 518T972 502H204ZM934 0H789L1553 1419H1700L934 0ZM1370 0L1377 41Q1385 78 1411 95Q1508 153 1610 225T1799 384T1941
568T1995 777Q1995 832 1968 877T1879 923Q1817 923 1785 903T1728 838T1663 724Q1651 702 1635 681T1578 660Q1539 660 1506 679T1472 741Q1472 780 1509 833Q1552 893 1655 940T1899 987Q2076 987 2163 918T2251 742Q2251 651 2194 564T2047 401T1860 270T1681
183H2190L2153 0H1370Z" />
<glyph unicode="&#xbe;" glyph-name="threequarters" horiz-adv-x="2420" d="M486 484Q396 484 320 511T198 583T152 686Q152 749 192 791T282 834Q331 834 350 820T375 792L300 613Q302 613 317 597T369 565T467 548Q591 548 657 626T724 826Q724 890 698 920T626
959T525 969H455Q439 969 439 984Q439 1010 444 1027T466 1045H520Q631 1045 698 1110T765 1283Q765 1331 733 1377T617 1424Q584 1424 547 1412T480 1352Q463 1320 450 1290T423 1237Q406 1207 384 1195T334 1183Q296 1183 269 1208T242 1262Q242 1320 281 1363T385
1434T522 1475T664 1489Q761 1489 842 1465T973 1396T1023 1287Q1023 1209 981 1151T870 1057T718 1010Q794 1009 862 988T974 925T1017 820Q1017 707 943 633T747 521T486 484ZM934 0H789L1553 1419H1700L934 0ZM1848 -7L1877 183H1389Q1382 183 1381 199T1381
230Q1382 247 1393 266L1758 950Q1776 970 1800 976T1843 983Q1887 983 1927 961T1991 911T2011 861L1559 290H1895L1947 560L2161 571L2120 290H2303L2284 183H2104L2077 -7H1848Z" />
<glyph unicode="&#xbf;" glyph-name="questiondown" horiz-adv-x="1079" d="M862 1364Q862 1318 838 1275T773 1205T677 1177Q604 1177 563 1222T521 1335Q521 1411 576 1469T707 1528Q780 1528 821 1480T862 1364ZM736 1057L724 982Q709 875 671 808T584 695T486
608T399 513T345 373Q342 348 340 320T337 260Q337 212 351 167T405 94T518 65Q580 65 619 83T677 120T696 139L767 429Q774 454 806 471T878 489Q942 489 979 453T1017 346Q1017 263 971 196T849 80T684 6T508 -20Q339 -20 241 25T100 143T57 294Q57 334 63 368T79
432Q105 511 158 568T275 670T401 759T507 853T561 973L575 1057H736Z" />
<glyph unicode="&#xc0;" glyph-name="Agrave" horiz-adv-x="1498" d="M999 139L941 430H383L244 180Q239 172 235 159T230 137Q230 113 273 103T377 87Q401 85 407 76T414 52Q414 36 406 18T379 0H-86Q-101 0 -107 17T-113 46Q-113 71 -102 78T-76 88Q-19 98 28
113T103 180L828 1448H1019L1314 178Q1327 130 1363 110T1445 88Q1468 87 1477 80T1487 52Q1486 36 1476 18T1448 0H866Q849 0 843 18T836 49Q836 85 872 88Q937 93 969 94T1002 122Q1002 126 999 139ZM794 1170L433 520H923L794 1170ZM1118 1540Q983 1662 886
1725T768 1809Q744 1833 744 1874Q744 1898 754 1924T789 1973Q826 2006 872 2006Q899 2006 923 1996T960 1970Q980 1947 1033 1844T1183 1598L1118 1540Z" />
<glyph unicode="&#xc1;" glyph-name="Aacute" horiz-adv-x="1498" d="M999 139L941 430H383L244 180Q239 172 235 159T230 137Q230 113 273 103T377 87Q401 85 407 76T414 52Q414 36 406 18T379 0H-86Q-101 0 -107 17T-113 46Q-113 71 -102 78T-76 88Q-19 98 28
113T103 180L828 1448H1019L1314 178Q1327 130 1363 110T1445 88Q1468 87 1477 80T1487 52Q1486 36 1476 18T1448 0H866Q849 0 843 18T836 49Q836 85 872 88Q937 93 969 94T1002 122Q1002 126 999 139ZM794 1170L433 520H923L794 1170ZM789 1540L742 1598Q880 1740
964 1843T1076 1970Q1094 1985 1120 1995T1175 2006Q1222 2006 1248 1973Q1268 1947 1268 1912Q1268 1881 1254 1854T1220 1809Q1193 1786 1077 1724T789 1540Z" />
<glyph unicode="&#xc2;" glyph-name="Acircumflex" horiz-adv-x="1498" d="M999 139L941 430H383L244 180Q239 172 235 159T230 137Q230 113 273 103T377 87Q401 85 407 76T414 52Q414 36 406 18T379 0H-86Q-101 0 -107 17T-113 46Q-113 71 -102 78T-76 88Q-19
98 28 113T103 180L828 1448H1019L1314 178Q1327 130 1363 110T1445 88Q1468 87 1477 80T1487 52Q1486 36 1476 18T1448 0H866Q849 0 843 18T836 49Q836 85 872 88Q937 93 969 94T1002 122Q1002 126 999 139ZM794 1170L433 520H923L794 1170ZM575 1559L873 1907Q893
1928 921 1943T996 1958Q1043 1958 1067 1940T1104 1898L1297 1559H1163L967 1766L714 1559H575Z" />
<glyph unicode="&#xc3;" glyph-name="Atilde" horiz-adv-x="1498" d="M999 139L941 430H383L244 180Q239 172 235 159T230 137Q230 113 273 103T377 87Q401 85 407 76T414 52Q414 36 406 18T379 0H-86Q-101 0 -107 17T-113 46Q-113 71 -102 78T-76 88Q-19 98 28
113T103 180L828 1448H1019L1314 178Q1327 130 1363 110T1445 88Q1468 87 1477 80T1487 52Q1486 36 1476 18T1448 0H866Q849 0 843 18T836 49Q836 85 872 88Q937 93 969 94T1002 122Q1002 126 999 139ZM794 1170L433 520H923L794 1170ZM1101 1561Q1053 1562 1012
1582T933 1628T857 1675T780 1695Q734 1695 711 1672T672 1625T637 1602Q619 1602 602 1623T584 1670Q584 1704 614 1751T697 1833T818 1869Q863 1869 902 1849T979 1802T1053 1755T1132 1735Q1179 1735 1203 1758T1243 1804T1280 1828Q1297 1828 1315 1806T1333
1760Q1333 1725 1302 1678T1218 1596T1101 1561Z" />
<glyph unicode="&#xc4;" glyph-name="Adieresis" horiz-adv-x="1498" d="M999 139L941 430H383L244 180Q239 172 235 159T230 137Q230 113 273 103T377 87Q401 85 407 76T414 52Q414 36 406 18T379 0H-86Q-101 0 -107 17T-113 46Q-113 71 -102 78T-76 88Q-19 98
28 113T103 180L828 1448H1019L1314 178Q1327 130 1363 110T1445 88Q1468 87 1477 80T1487 52Q1486 36 1476 18T1448 0H866Q849 0 843 18T836 49Q836 85 872 88Q937 93 969 94T1002 122Q1002 126 999 139ZM794 1170L433 520H923L794 1170ZM1161 1546Q1099 1546
1066 1584T1033 1681Q1033 1759 1084 1821T1212 1883Q1273 1883 1306 1844T1340 1746Q1340 1669 1290 1608T1161 1546ZM700 1546Q638 1546 605 1584T572 1681Q572 1759 623 1821T751 1883Q813 1883 846 1844T880 1746Q880 1669 829 1608T700 1546Z" />
<glyph unicode="&#xc5;" glyph-name="Aring" horiz-adv-x="1498" d="M999 139L941 430H383L244 180Q239 172 235 159T230 137Q230 113 273 103T377 87Q401 85 407 76T414 52Q414 36 406 18T379 0H-86Q-101 0 -107 17T-113 46Q-113 71 -102 78T-76 88Q-19 98 28
113T103 180L828 1448H1019L1314 178Q1327 130 1363 110T1445 88Q1468 87 1477 80T1487 52Q1486 36 1476 18T1448 0H866Q849 0 843 18T836 49Q836 85 872 88Q937 93 969 94T1002 122Q1002 126 999 139ZM794 1170L433 520H923L794 1170ZM917 1429Q803 1429 729 1491T654
1660Q654 1755 701 1827T826 1939T1000 1980Q1113 1980 1187 1916T1262 1746Q1262 1652 1215 1581T1090 1469T917 1429ZM937 1563Q1024 1563 1066 1613T1109 1734Q1109 1783 1079 1815T979 1848Q892 1848 851 1797T810 1674Q810 1627 839 1595T937 1563Z" />
<glyph unicode="&#xc6;" glyph-name="AE" horiz-adv-x="2136" d="M-123 0Q-140 0 -144 20T-147 51Q-146 71 -137 79T-110 88Q-63 91 -14 115T69 189L844 1324L565 1331Q527 1331 527 1368Q527 1385 538 1402T566 1419L2103 1418L2082 1101Q2080 1084 2060 1076T2028
1067Q2000 1067 1992 1077T1983 1111Q1983 1134 1976 1170T1951 1244T1901 1306T1817 1332L1418 1331L1334 776H1604Q1630 779 1654 813T1697 888T1720 948Q1726 968 1748 974T1791 981Q1803 981 1817 973T1828 947L1765 504Q1762 487 1746 479T1719 470Q1698 470
1677 477T1657 503Q1657 525 1652 568T1631 647T1587 684H1320L1245 174Q1245 129 1275 115T1338 101H1698Q1771 101 1824 148T1913 260T1967 373Q1973 392 1995 399T2033 406Q2052 406 2066 398T2078 372L2005 1L796 0Q780 0 773 17T766 47Q766 85 803 88Q848
92 888 105T935 152L976 449H386L220 190Q211 176 211 159Q211 129 245 109T360 88Q379 86 383 77T388 51Q388 36 376 18T346 0H-123ZM435 535H987L1108 1323H958L435 535Z" />
<glyph unicode="&#xc7;" glyph-name="Ccedilla" horiz-adv-x="1419" d="M777 -28Q557 -28 412 55T194 285T121 623Q121 813 190 965T380 1226T655 1391T979 1449Q1171 1449 1274 1417T1426 1361L1391 1058Q1391 1035 1359 1026T1315 1017Q1261 1017 1259 1068Q1260
1213 1188 1283T964 1353Q876 1353 787 1311T622 1181T501 956T455 629Q455 455 497 329T613 134T784 65Q903 65 972 99T1084 202T1170 372Q1185 406 1221 406Q1233 406 1266 399T1299 375L1262 101Q1257 87 1189 56T1012 -1T777 -28ZM692 -508Q602 -508 548 -487T471
-451Q461 -444 468 -430Q475 -419 488 -395T510 -356Q518 -344 530 -348Q554 -358 586 -367T670 -377Q716 -377 752 -354T789 -286Q789 -256 753 -230T632 -205L707 19H852L791 -124Q990 -156 990 -286Q990 -347 950 -397T842 -478T692 -508Z" />
<glyph unicode="&#xc8;" glyph-name="Egrave" horiz-adv-x="1435" d="M700 1331L621 776H899Q926 780 951 814T995 888T1019 948Q1024 968 1046 974T1088 981Q1100 981 1114 973T1126 947L1062 504Q1059 487 1043 479T1015 470Q994 470 973 477T954 503Q954 525
948 568T927 647T883 684H608L536 175Q536 133 560 118T614 100H983Q1044 100 1093 135T1176 221T1232 314T1258 373Q1264 392 1280 399T1313 406Q1368 406 1367 372L1290 0H43Q26 0 20 20T16 51Q18 84 53 88Q86 91 125 97T193 117T224 152L385 1243Q386 1282 358
1299T291 1323T223 1331Q192 1334 192 1353Q192 1374 205 1396T236 1419H1385L1364 1102Q1361 1084 1343 1076T1312 1068Q1297 1068 1282 1074T1265 1101Q1265 1116 1260 1153T1239 1231T1190 1301T1103 1331H700ZM1071 1540Q936 1662 839 1725T721 1809Q697 1833
697 1874Q697 1898 707 1924T742 1973Q779 2006 825 2006Q852 2006 876 1996T913 1970Q933 1947 986 1844T1136 1598L1071 1540Z" />
<glyph unicode="&#xc9;" glyph-name="Eacute" horiz-adv-x="1435" d="M700 1331L621 776H899Q926 780 951 814T995 888T1019 948Q1024 968 1046 974T1088 981Q1100 981 1114 973T1126 947L1062 504Q1059 487 1043 479T1015 470Q994 470 973 477T954 503Q954 525
948 568T927 647T883 684H608L536 175Q536 133 560 118T614 100H983Q1044 100 1093 135T1176 221T1232 314T1258 373Q1264 392 1280 399T1313 406Q1368 406 1367 372L1290 0H43Q26 0 20 20T16 51Q18 84 53 88Q86 91 125 97T193 117T224 152L385 1243Q386 1282 358
1299T291 1323T223 1331Q192 1334 192 1353Q192 1374 205 1396T236 1419H1385L1364 1102Q1361 1084 1343 1076T1312 1068Q1297 1068 1282 1074T1265 1101Q1265 1116 1260 1153T1239 1231T1190 1301T1103 1331H700ZM742 1540L695 1598Q833 1740 917 1843T1029 1970Q1047
1985 1073 1995T1128 2006Q1175 2006 1201 1973Q1221 1947 1221 1912Q1221 1881 1207 1854T1173 1809Q1146 1786 1030 1724T742 1540Z" />
<glyph unicode="&#xca;" glyph-name="Ecircumflex" horiz-adv-x="1435" d="M700 1331L621 776H899Q926 780 951 814T995 888T1019 948Q1024 968 1046 974T1088 981Q1100 981 1114 973T1126 947L1062 504Q1059 487 1043 479T1015 470Q994 470 973 477T954 503Q954
525 948 568T927 647T883 684H608L536 175Q536 133 560 118T614 100H983Q1044 100 1093 135T1176 221T1232 314T1258 373Q1264 392 1280 399T1313 406Q1368 406 1367 372L1290 0H43Q26 0 20 20T16 51Q18 84 53 88Q86 91 125 97T193 117T224 152L385 1243Q386 1282
358 1299T291 1323T223 1331Q192 1334 192 1353Q192 1374 205 1396T236 1419H1385L1364 1102Q1361 1084 1343 1076T1312 1068Q1297 1068 1282 1074T1265 1101Q1265 1116 1260 1153T1239 1231T1190 1301T1103 1331H700ZM527 1559L825 1907Q845 1928 873 1943T948
1958Q995 1958 1019 1940T1056 1898L1249 1559H1115L919 1766L666 1559H527Z" />
<glyph unicode="&#xcb;" glyph-name="Edieresis" horiz-adv-x="1435" d="M700 1331L621 776H899Q926 780 951 814T995 888T1019 948Q1024 968 1046 974T1088 981Q1100 981 1114 973T1126 947L1062 504Q1059 487 1043 479T1015 470Q994 470 973 477T954 503Q954
525 948 568T927 647T883 684H608L536 175Q536 133 560 118T614 100H983Q1044 100 1093 135T1176 221T1232 314T1258 373Q1264 392 1280 399T1313 406Q1368 406 1367 372L1290 0H43Q26 0 20 20T16 51Q18 84 53 88Q86 91 125 97T193 117T224 152L385 1243Q386 1282
358 1299T291 1323T223 1331Q192 1334 192 1353Q192 1374 205 1396T236 1419H1385L1364 1102Q1361 1084 1343 1076T1312 1068Q1297 1068 1282 1074T1265 1101Q1265 1116 1260 1153T1239 1231T1190 1301T1103 1331H700ZM1114 1546Q1052 1546 1019 1584T986 1681Q986
1759 1037 1821T1165 1883Q1226 1883 1259 1844T1293 1746Q1293 1669 1243 1608T1114 1546ZM653 1546Q591 1546 558 1584T525 1681Q525 1759 576 1821T704 1883Q766 1883 799 1844T833 1746Q833 1669 782 1608T653 1546Z" />
<glyph unicode="&#xcc;" glyph-name="Igrave" horiz-adv-x="885" d="M40 42Q40 62 48 74T78 88Q127 91 179 105T236 152L398 1234Q400 1244 400 1251Q400 1286 375 1302T316 1323T254 1331Q223 1334 223 1352Q223 1355 224 1359T225 1368Q226 1379 239 1399T270
1419H872Q887 1419 892 1403T896 1375Q895 1334 856 1331Q805 1327 757 1314T702 1267L542 185Q541 174 541 168Q541 133 566 117T625 96T687 88Q718 85 718 65Q718 61 716 51Q714 40 703 20T674 0H64Q50 0 45 14T40 42ZM770 1540Q635 1662 538 1725T420 1809Q396
1833 396 1874Q396 1898 406 1924T441 1973Q478 2006 524 2006Q551 2006 575 1996T612 1970Q632 1947 685 1844T835 1598L770 1540Z" />
<glyph unicode="&#xcd;" glyph-name="Iacute" horiz-adv-x="885" d="M40 42Q40 62 48 74T78 88Q127 91 179 105T236 152L398 1234Q400 1244 400 1251Q400 1286 375 1302T316 1323T254 1331Q223 1334 223 1352Q223 1355 224 1359T225 1368Q226 1379 239 1399T270
1419H872Q887 1419 892 1403T896 1375Q895 1334 856 1331Q805 1327 757 1314T702 1267L542 185Q541 174 541 168Q541 133 566 117T625 96T687 88Q718 85 718 65Q718 61 716 51Q714 40 703 20T674 0H64Q50 0 45 14T40 42ZM441 1540L394 1598Q532 1740 616 1843T728
1970Q746 1985 772 1995T827 2006Q874 2006 900 1973Q920 1947 920 1912Q920 1881 906 1854T872 1809Q845 1786 729 1724T441 1540Z" />
<glyph unicode="&#xce;" glyph-name="Icircumflex" horiz-adv-x="885" d="M40 42Q40 62 48 74T78 88Q127 91 179 105T236 152L398 1234Q400 1244 400 1251Q400 1286 375 1302T316 1323T254 1331Q223 1334 223 1352Q223 1355 224 1359T225 1368Q226 1379 239 1399T270
1419H872Q887 1419 892 1403T896 1375Q895 1334 856 1331Q805 1327 757 1314T702 1267L542 185Q541 174 541 168Q541 133 566 117T625 96T687 88Q718 85 718 65Q718 61 716 51Q714 40 703 20T674 0H64Q50 0 45 14T40 42ZM226 1559L524 1907Q544 1928 572 1943T647
1958Q694 1958 718 1940T755 1898L948 1559H814L618 1766L365 1559H226Z" />
<glyph unicode="&#xcf;" glyph-name="Idieresis" horiz-adv-x="885" d="M40 42Q40 62 48 74T78 88Q127 91 179 105T236 152L398 1234Q400 1244 400 1251Q400 1286 375 1302T316 1323T254 1331Q223 1334 223 1352Q223 1355 224 1359T225 1368Q226 1379 239 1399T270
1419H872Q887 1419 892 1403T896 1375Q895 1334 856 1331Q805 1327 757 1314T702 1267L542 185Q541 174 541 168Q541 133 566 117T625 96T687 88Q718 85 718 65Q718 61 716 51Q714 40 703 20T674 0H64Q50 0 45 14T40 42ZM813 1546Q751 1546 718 1584T685 1681Q685
1759 736 1821T864 1883Q925 1883 958 1844T992 1746Q992 1669 942 1608T813 1546ZM352 1546Q290 1546 257 1584T224 1681Q224 1759 275 1821T403 1883Q465 1883 498 1844T532 1746Q532 1669 481 1608T352 1546Z" />
<glyph unicode="&#xd0;" glyph-name="Eth" horiz-adv-x="1655" d="M25 51Q28 84 63 88Q112 92 165 105T223 152L305 694H148Q136 695 130 705T124 728Q124 747 131 767T148 791H319L388 1245Q389 1283 365 1300T307 1323T243 1331Q213 1334 213 1353Q213 1360
214 1368Q214 1379 226 1399T255 1419H877Q1075 1418 1210 1371T1427 1244T1545 1065T1582 861Q1582 661 1517 502T1334 230T1060 59T719 0H53Q36 0 30 20T25 51ZM527 140Q529 127 536 117T578 100T694 94Q856 94 983 176T1184 432T1258 881Q1258 1055 1202 1153T1042
1291T798 1331H705L624 791H976Q988 790 994 780T1000 757Q1000 738 993 719T976 694H610L527 140Z" />
<glyph unicode="&#xd1;" glyph-name="Ntilde" horiz-adv-x="1660" d="M1 0Q-13 0 -19 13T-25 36Q-25 58 -18 71T15 88Q46 91 91 98T173 122T214 172L379 1204Q380 1214 380 1220Q380 1258 354 1281T291 1317T226 1331Q191 1334 192 1358Q192 1375 206 1397T237
1419H686L1279 292H1291L1428 1234Q1429 1238 1429 1246Q1429 1283 1392 1300T1309 1323T1234 1331Q1192 1335 1196 1363Q1197 1378 1209 1398T1240 1419H1747Q1762 1419 1767 1403T1772 1375Q1770 1335 1731 1331Q1700 1328 1655 1322T1573 1297T1530 1234L1359
113Q1356 94 1357 81T1352 40Q1343 -2 1302 -16T1214 -30Q1203 -30 1180 -27T1134 -19T1108 -8L489 1179H472L318 171Q316 134 354 118T440 97T517 88Q548 85 548 60Q548 36 535 18T506 0H1ZM1175 1561Q1127 1562 1086 1582T1007 1628T931 1675T854 1695Q808 1695
785 1672T746 1625T711 1602Q693 1602 676 1623T658 1670Q658 1704 688 1751T771 1833T892 1869Q937 1869 976 1849T1053 1802T1127 1755T1206 1735Q1253 1735 1277 1758T1317 1804T1354 1828Q1371 1828 1389 1806T1407 1760Q1407 1725 1376 1678T1292 1596T1175
1561Z" />
<glyph unicode="&#xd2;" glyph-name="Ograve" horiz-adv-x="1623" d="M751 -29Q537 -29 396 54T186 280T117 601Q117 768 173 920T335 1192T591 1380T930 1449Q1148 1449 1291 1369T1503 1148T1573 831Q1573 664 1517 510T1353 235T1094 42T751 -29ZM770 65Q908
65 999 139T1144 335T1219 605T1242 904Q1242 1046 1215 1147T1119 1302T929 1356Q787 1356 694 1283T547 1087T469 817T446 518Q446 377 475 276T575 120T770 65ZM1151 1540Q1016 1662 919 1725T801 1809Q777 1833 777 1874Q777 1898 787 1924T822 1973Q859 2006
905 2006Q932 2006 956 1996T993 1970Q1013 1947 1066 1844T1216 1598L1151 1540Z" />
<glyph unicode="&#xd3;" glyph-name="Oacute" horiz-adv-x="1623" d="M751 -29Q537 -29 396 54T186 280T117 601Q117 768 173 920T335 1192T591 1380T930 1449Q1148 1449 1291 1369T1503 1148T1573 831Q1573 664 1517 510T1353 235T1094 42T751 -29ZM770 65Q908
65 999 139T1144 335T1219 605T1242 904Q1242 1046 1215 1147T1119 1302T929 1356Q787 1356 694 1283T547 1087T469 817T446 518Q446 377 475 276T575 120T770 65ZM822 1540L775 1598Q913 1740 997 1843T1109 1970Q1127 1985 1153 1995T1208 2006Q1255 2006 1281
1973Q1301 1947 1301 1912Q1301 1881 1287 1854T1253 1809Q1226 1786 1110 1724T822 1540Z" />
<glyph unicode="&#xd4;" glyph-name="Ocircumflex" horiz-adv-x="1623" d="M751 -29Q537 -29 396 54T186 280T117 601Q117 768 173 920T335 1192T591 1380T930 1449Q1148 1449 1291 1369T1503 1148T1573 831Q1573 664 1517 510T1353 235T1094 42T751 -29ZM770
65Q908 65 999 139T1144 335T1219 605T1242 904Q1242 1046 1215 1147T1119 1302T929 1356Q787 1356 694 1283T547 1087T469 817T446 518Q446 377 475 276T575 120T770 65ZM607 1559L905 1907Q925 1928 953 1943T1028 1958Q1075 1958 1099 1940T1136 1898L1329 1559H1195L999
1766L746 1559H607Z" />
<glyph unicode="&#xd5;" glyph-name="Otilde" horiz-adv-x="1623" d="M751 -29Q537 -29 396 54T186 280T117 601Q117 768 173 920T335 1192T591 1380T930 1449Q1148 1449 1291 1369T1503 1148T1573 831Q1573 664 1517 510T1353 235T1094 42T751 -29ZM770 65Q908
65 999 139T1144 335T1219 605T1242 904Q1242 1046 1215 1147T1119 1302T929 1356Q787 1356 694 1283T547 1087T469 817T446 518Q446 377 475 276T575 120T770 65ZM1133 1561Q1085 1562 1044 1582T965 1628T889 1675T812 1695Q766 1695 743 1672T704 1625T669 1602Q651
1602 634 1623T616 1670Q616 1704 646 1751T729 1833T850 1869Q895 1869 934 1849T1011 1802T1085 1755T1164 1735Q1211 1735 1235 1758T1275 1804T1312 1828Q1329 1828 1347 1806T1365 1760Q1365 1725 1334 1678T1250 1596T1133 1561Z" />
<glyph unicode="&#xd6;" glyph-name="Odieresis" horiz-adv-x="1623" d="M751 -29Q537 -29 396 54T186 280T117 601Q117 768 173 920T335 1192T591 1380T930 1449Q1148 1449 1291 1369T1503 1148T1573 831Q1573 664 1517 510T1353 235T1094 42T751 -29ZM770 65Q908
65 999 139T1144 335T1219 605T1242 904Q1242 1046 1215 1147T1119 1302T929 1356Q787 1356 694 1283T547 1087T469 817T446 518Q446 377 475 276T575 120T770 65ZM1194 1546Q1132 1546 1099 1584T1066 1681Q1066 1759 1117 1821T1245 1883Q1306 1883 1339 1844T1373
1746Q1373 1669 1323 1608T1194 1546ZM733 1546Q671 1546 638 1584T605 1681Q605 1759 656 1821T784 1883Q846 1883 879 1844T913 1746Q913 1669 862 1608T733 1546Z" />
<glyph unicode="&#xd7;" glyph-name="multiply" horiz-adv-x="1403" d="M1212 932L827 569L1148 204L1041 102L717 469L325 102L234 204L625 567L298 932L406 1035L734 666L1122 1035L1212 932Z" />
<glyph unicode="&#xd8;" glyph-name="Oslash" horiz-adv-x="1623" d="M751 -29Q537 -29 396 54T186 280T117 601Q117 768 173 920T335 1192T591 1380T930 1449Q1148 1449 1291 1369T1503 1148T1573 831Q1573 664 1517 510T1353 235T1094 42T751 -29ZM770 65Q908
65 999 139T1144 335T1219 605T1242 904Q1242 1046 1215 1147T1119 1302T929 1356Q787 1356 694 1283T547 1087T469 817T446 518Q446 377 475 276T575 120T770 65ZM1353 1448L1234 1264L1210 1221L537 105L513 71L411 -80Q407 -87 395 -87Q370 -87 348 -68T326
-30L430 131L451 152L1124 1270L1149 1315L1267 1498Q1273 1507 1286 1507Q1307 1507 1330 1485T1353 1448Z" />
<glyph unicode="&#xd9;" glyph-name="Ugrave" horiz-adv-x="1659" d="M817 -29Q546 -29 397 78T247 401Q247 438 249 474T256 539L358 1264Q360 1296 335 1308T275 1324T215 1332T189 1352Q189 1374 199 1396T232 1419H855Q870 1419 875 1402T880 1372Q880 1332
841 1331Q768 1330 720 1315T667 1267L563 551Q557 506 553 458T550 374Q555 213 631 139T848 65Q970 65 1052 106T1187 218T1269 377T1315 561L1417 1255Q1419 1294 1379 1311T1259 1331Q1228 1332 1228 1352Q1228 1374 1240 1396T1272 1419H1709Q1725 1419 1729
1403T1734 1373Q1734 1332 1696 1331Q1617 1328 1570 1303T1515 1230L1411 539Q1369 243 1221 107T817 -29ZM1233 1540Q1098 1662 1001 1725T883 1809Q859 1833 859 1874Q859 1898 869 1924T904 1973Q941 2006 987 2006Q1014 2006 1038 1996T1075 1970Q1095 1947
1148 1844T1298 1598L1233 1540Z" />
<glyph unicode="&#xda;" glyph-name="Uacute" horiz-adv-x="1659" d="M817 -29Q546 -29 397 78T247 401Q247 438 249 474T256 539L358 1264Q360 1296 335 1308T275 1324T215 1332T189 1352Q189 1374 199 1396T232 1419H855Q870 1419 875 1402T880 1372Q880 1332
841 1331Q768 1330 720 1315T667 1267L563 551Q557 506 553 458T550 374Q555 213 631 139T848 65Q970 65 1052 106T1187 218T1269 377T1315 561L1417 1255Q1419 1294 1379 1311T1259 1331Q1228 1332 1228 1352Q1228 1374 1240 1396T1272 1419H1709Q1725 1419 1729
1403T1734 1373Q1734 1332 1696 1331Q1617 1328 1570 1303T1515 1230L1411 539Q1369 243 1221 107T817 -29ZM904 1540L857 1598Q995 1740 1079 1843T1191 1970Q1209 1985 1235 1995T1290 2006Q1337 2006 1363 1973Q1383 1947 1383 1912Q1383 1881 1369 1854T1335
1809Q1308 1786 1192 1724T904 1540Z" />
<glyph unicode="&#xdb;" glyph-name="Ucircumflex" horiz-adv-x="1659" d="M817 -29Q546 -29 397 78T247 401Q247 438 249 474T256 539L358 1264Q360 1296 335 1308T275 1324T215 1332T189 1352Q189 1374 199 1396T232 1419H855Q870 1419 875 1402T880 1372Q880
1332 841 1331Q768 1330 720 1315T667 1267L563 551Q557 506 553 458T550 374Q555 213 631 139T848 65Q970 65 1052 106T1187 218T1269 377T1315 561L1417 1255Q1419 1294 1379 1311T1259 1331Q1228 1332 1228 1352Q1228 1374 1240 1396T1272 1419H1709Q1725 1419
1729 1403T1734 1373Q1734 1332 1696 1331Q1617 1328 1570 1303T1515 1230L1411 539Q1369 243 1221 107T817 -29ZM689 1559L987 1907Q1007 1928 1035 1943T1110 1958Q1157 1958 1181 1940T1218 1898L1411 1559H1277L1081 1766L828 1559H689Z" />
<glyph unicode="&#xdc;" glyph-name="Udieresis" horiz-adv-x="1659" d="M817 -29Q546 -29 397 78T247 401Q247 438 249 474T256 539L358 1264Q360 1296 335 1308T275 1324T215 1332T189 1352Q189 1374 199 1396T232 1419H855Q870 1419 875 1402T880 1372Q880
1332 841 1331Q768 1330 720 1315T667 1267L563 551Q557 506 553 458T550 374Q555 213 631 139T848 65Q970 65 1052 106T1187 218T1269 377T1315 561L1417 1255Q1419 1294 1379 1311T1259 1331Q1228 1332 1228 1352Q1228 1374 1240 1396T1272 1419H1709Q1725 1419
1729 1403T1734 1373Q1734 1332 1696 1331Q1617 1328 1570 1303T1515 1230L1411 539Q1369 243 1221 107T817 -29ZM1276 1546Q1214 1546 1181 1584T1148 1681Q1148 1759 1199 1821T1327 1883Q1388 1883 1421 1844T1455 1746Q1455 1669 1405 1608T1276 1546ZM815
1546Q753 1546 720 1584T687 1681Q687 1759 738 1821T866 1883Q928 1883 961 1844T995 1746Q995 1669 944 1608T815 1546Z" />
<glyph unicode="&#xdd;" glyph-name="Yacute" horiz-adv-x="1426" d="M259 42Q259 83 310 88Q344 91 383 92T452 105T488 152L554 534L234 1254Q214 1300 186 1318T102 1341Q82 1343 78 1352T73 1375Q73 1393 86 1406T115 1419H722Q739 1419 744 1405T749 1380Q749
1365 735 1349T700 1331Q619 1328 580 1323T540 1297L802 639L1241 1258Q1253 1275 1253 1289Q1253 1308 1223 1319T1124 1331Q1107 1331 1098 1343T1088 1370Q1088 1385 1100 1402T1131 1419H1564Q1580 1419 1586 1404T1590 1378Q1585 1356 1576 1350T1546 1341Q1508
1337 1468 1327T1382 1254L859 545L796 151Q796 116 827 105T900 93T974 88Q992 86 1003 82T1015 62Q1015 38 1000 19T970 0H285Q271 0 265 15T259 42ZM773 1540L726 1598Q864 1740 948 1843T1060 1970Q1078 1985 1104 1995T1159 2006Q1206 2006 1232 1973Q1252
1947 1252 1912Q1252 1881 1238 1854T1204 1809Q1177 1786 1061 1724T773 1540Z" />
<glyph unicode="&#xde;" glyph-name="Thorn" horiz-adv-x="1392" d="M63 0Q46 0 40 16T34 50Q34 84 73 88Q124 92 170 105T221 152L387 1249Q392 1283 369 1299T312 1322T246 1331Q226 1333 221 1341T215 1370Q215 1387 228 1403T258 1419H846Q861 1419 866 1403T872
1375Q872 1336 834 1331Q784 1327 734 1314T678 1267L664 1164H776Q991 1164 1116 1124T1296 1002T1351 792Q1351 631 1256 522T1000 356T645 300H533L515 167Q515 133 550 117T630 96T703 88Q723 86 728 77T733 51Q732 33 722 17T694 0H63ZM754 1076H652L546 386H678Q831
386 929 480T1027 779Q1027 922 967 999T754 1076Z" />
<glyph unicode="&#xdf;" glyph-name="germandbls" horiz-adv-x="1272" d="M328 0H42L200 1061Q219 1188 291 1302T493 1487T819 1559Q921 1559 1005 1540T1140 1471T1191 1332Q1191 1260 1153 1208T1060 1117T948 1045T855 982T817 912Q817 878 856 843T954 766T1070
669T1168 538T1208 362Q1208 244 1142 156T968 20T736 -29Q594 -29 528 27T462 146Q462 207 497 238T574 270Q619 270 632 243L677 88Q677 88 695 73T746 58Q807 58 846 93T904 183T923 301Q923 377 894 436T822 544T735 640T663 735T633 843Q633 905 661 947T732
1024T816 1095T886 1183T915 1310Q915 1387 879 1430T778 1474Q743 1474 699 1465T612 1419T533 1305T479 1093L328 0Z" />
<glyph unicode="&#xe0;" glyph-name="agrave" horiz-adv-x="1297" d="M367 -26Q263 -27 194 17T91 138T57 305Q57 421 105 544T242 774T456 946T733 1012Q822 1012 895 991T1015 936Q1065 964 1104 985T1166 1007Q1179 1007 1188 1002T1198 983L1059 183Q1056
160 1056 147Q1056 120 1075 110T1115 100Q1137 100 1164 107T1199 114Q1226 114 1226 79Q1226 57 1218 48T1201 36Q1172 25 1095 2T920 -21Q844 -21 809 15T773 111Q773 120 780 156T796 238T814 326T827 389Q804 335 760 265T656 128T523 19T367 -26ZM469 139Q516
139 564 174T659 264T744 381T813 500T859 591L903 816Q899 856 854 890T731 924Q639 924 568 872T447 737T373 555T347 362Q347 233 381 186T469 139ZM832 1106Q697 1228 600 1291T482 1375Q457 1399 457 1442Q457 1466 467 1492T502 1539Q538 1572 585 1572Q612
1572 636 1562T674 1536Q694 1514 747 1410T897 1164L832 1106Z" />
<glyph unicode="&#xe1;" glyph-name="aacute" horiz-adv-x="1297" d="M367 -26Q263 -27 194 17T91 138T57 305Q57 421 105 544T242 774T456 946T733 1012Q822 1012 895 991T1015 936Q1065 964 1104 985T1166 1007Q1179 1007 1188 1002T1198 983L1059 183Q1056
160 1056 147Q1056 120 1075 110T1115 100Q1137 100 1164 107T1199 114Q1226 114 1226 79Q1226 57 1218 48T1201 36Q1172 25 1095 2T920 -21Q844 -21 809 15T773 111Q773 120 780 156T796 238T814 326T827 389Q804 335 760 265T656 128T523 19T367 -26ZM469 139Q516
139 564 174T659 264T744 381T813 500T859 591L903 816Q899 856 854 890T731 924Q639 924 568 872T447 737T373 555T347 362Q347 233 381 186T469 139ZM724 1115L673 1173Q775 1271 831 1350T914 1453Q932 1468 955 1478T1004 1489Q1045 1489 1071 1456Q1090 1431
1090 1403Q1090 1375 1075 1351T1039 1308Q1021 1292 973 1268T859 1207T724 1115Z" />
<glyph unicode="&#xe2;" glyph-name="acircumflex" horiz-adv-x="1297" d="M367 -26Q263 -27 194 17T91 138T57 305Q57 421 105 544T242 774T456 946T733 1012Q822 1012 895 991T1015 936Q1065 964 1104 985T1166 1007Q1179 1007 1188 1002T1198 983L1059 183Q1056
160 1056 147Q1056 120 1075 110T1115 100Q1137 100 1164 107T1199 114Q1226 114 1226 79Q1226 57 1218 48T1201 36Q1172 25 1095 2T920 -21Q844 -21 809 15T773 111Q773 120 780 156T796 238T814 326T827 389Q804 335 760 265T656 128T523 19T367 -26ZM469 139Q516
139 564 174T659 264T744 381T813 500T859 591L903 816Q899 856 854 890T731 924Q639 924 568 872T447 737T373 555T347 362Q347 233 381 186T469 139ZM410 1137L715 1505Q734 1527 762 1541T838 1556Q885 1556 909 1538T946 1496L1132 1137H998L808 1357L549 1137H410Z"
/>
<glyph unicode="&#xe3;" glyph-name="atilde" horiz-adv-x="1297" d="M367 -26Q263 -27 194 17T91 138T57 305Q57 421 105 544T242 774T456 946T733 1012Q822 1012 895 991T1015 936Q1065 964 1104 985T1166 1007Q1179 1007 1188 1002T1198 983L1059 183Q1056
160 1056 147Q1056 120 1075 110T1115 100Q1137 100 1164 107T1199 114Q1226 114 1226 79Q1226 57 1218 48T1201 36Q1172 25 1095 2T920 -21Q844 -21 809 15T773 111Q773 120 780 156T796 238T814 326T827 389Q804 335 760 265T656 128T523 19T367 -26ZM469 139Q516
139 564 174T659 264T744 381T813 500T859 591L903 816Q899 856 854 890T731 924Q639 924 568 872T447 737T373 555T347 362Q347 233 381 186T469 139ZM905 1121Q863 1121 827 1141T756 1187T689 1232T621 1252Q581 1252 560 1230T526 1184T494 1161Q479 1161 464
1182T448 1228Q448 1262 475 1308T548 1389T654 1424Q695 1424 730 1404T797 1358T863 1312T933 1292Q974 1292 996 1315T1031 1360T1063 1383Q1079 1383 1094 1362T1110 1316Q1110 1282 1083 1236T1009 1156T905 1121Z" />
<glyph unicode="&#xe4;" glyph-name="adieresis" horiz-adv-x="1297" d="M367 -26Q263 -27 194 17T91 138T57 305Q57 421 105 544T242 774T456 946T733 1012Q822 1012 895 991T1015 936Q1065 964 1104 985T1166 1007Q1179 1007 1188 1002T1198 983L1059 183Q1056
160 1056 147Q1056 120 1075 110T1115 100Q1137 100 1164 107T1199 114Q1226 114 1226 79Q1226 57 1218 48T1201 36Q1172 25 1095 2T920 -21Q844 -21 809 15T773 111Q773 120 780 156T796 238T814 326T827 389Q804 335 760 265T656 128T523 19T367 -26ZM469 139Q516
139 564 174T659 264T744 381T813 500T859 591L903 816Q899 856 854 890T731 924Q639 924 568 872T447 737T373 555T347 362Q347 233 381 186T469 139ZM1003 1181Q944 1181 912 1219T880 1316Q880 1332 883 1349Q896 1419 940 1468T1051 1517Q1110 1517 1142 1478T1174
1381Q1174 1361 1172 1349Q1159 1279 1115 1230T1003 1181ZM542 1181Q483 1181 452 1219T420 1316Q420 1332 423 1349Q435 1419 479 1468T590 1517Q649 1517 681 1478T713 1381Q713 1361 711 1349Q699 1279 654 1230T542 1181Z" />
<glyph unicode="&#xe5;" glyph-name="aring" horiz-adv-x="1297" d="M367 -26Q263 -27 194 17T91 138T57 305Q57 421 105 544T242 774T456 946T733 1012Q822 1012 895 991T1015 936Q1065 964 1104 985T1166 1007Q1179 1007 1188 1002T1198 983L1059 183Q1056 160
1056 147Q1056 120 1075 110T1115 100Q1137 100 1164 107T1199 114Q1226 114 1226 79Q1226 57 1218 48T1201 36Q1172 25 1095 2T920 -21Q844 -21 809 15T773 111Q773 120 780 156T796 238T814 326T827 389Q804 335 760 265T656 128T523 19T367 -26ZM469 139Q516
139 564 174T659 264T744 381T813 500T859 591L903 816Q899 856 854 890T731 924Q639 924 568 872T447 737T373 555T347 362Q347 233 381 186T469 139ZM764 1128Q650 1128 575 1190T500 1360Q500 1452 547 1524T672 1638T846 1680Q959 1680 1034 1616T1109 1446Q1109
1353 1062 1282T937 1169T764 1128ZM784 1262Q871 1262 913 1313T955 1433Q955 1482 926 1514T826 1547Q739 1547 699 1497T657 1383Q655 1328 685 1295T784 1262Z" />
<glyph unicode="&#xe6;" glyph-name="ae" horiz-adv-x="1696" d="M314 -27Q231 -27 172 15T81 129T49 285Q49 413 102 541T249 776T469 946T737 1011Q842 1011 907 984T1005 919Q1075 964 1155 989T1320 1014Q1449 1014 1522 977T1625 888T1656 788Q1657 678 1581
604T1362 483T1022 407Q1017 276 1058 186T1206 96Q1305 96 1385 126T1544 215Q1549 221 1554 225T1566 225L1603 192Q1608 188 1608 183Q1608 178 1604 174T1597 164Q1505 79 1401 25T1134 -29Q1021 -29 930 18T785 156T733 383Q715 325 681 255T595 120T474 15T314
-27ZM1027 484Q1203 523 1296 601T1390 817Q1389 864 1366 898T1287 933Q1195 933 1121 815T1027 484ZM418 141Q476 141 530 189T630 309T707 455T750 581Q763 615 772 644T800 705T859 783Q863 850 826 888T724 926Q641 926 568 875T439 739T351 548T319 335Q319
253 343 197T418 141Z" />
<glyph unicode="&#xe7;" glyph-name="ccedilla" horiz-adv-x="1046" d="M671 1014Q841 1014 929 956T1018 783Q1018 719 963 687T838 654Q808 654 796 659T774 699L720 917Q712 923 695 928T641 933Q530 933 453 787T376 381Q376 281 407 222T487 136T593 110Q679
110 743 145T864 232Q869 238 874 242T886 242L923 209Q928 205 928 200Q928 194 924 190T917 181Q842 89 745 31T506 -28Q297 -28 183 89T69 402Q69 532 116 643T247 838T439 967T671 1014ZM415 -494Q325 -494 271 -473T194 -437Q184 -430 191 -416Q198 -405 211
-385T233 -351Q241 -339 253 -343Q277 -353 309 -363T393 -373Q442 -373 480 -349T519 -279Q519 -249 481 -223T355 -198L430 19H575L514 -117Q605 -127 659 -166T713 -271Q713 -334 673 -384T565 -464T415 -494Z" />
<glyph unicode="&#xe8;" glyph-name="egrave" horiz-adv-x="1088" d="M1027 792Q1027 710 973 646T826 534T613 456T362 407Q361 396 361 384T361 360Q361 263 395 208T482 130T591 106Q683 106 758 136T915 222Q927 231 933 229Q941 227 956 211T974 183Q976
178 976 177Q976 173 973 170T969 164Q882 73 764 22T511 -29Q301 -29 185 84T69 385Q69 519 119 633T255 833T452 966T686 1014Q815 1014 890 978T996 891T1027 792ZM650 933Q552 933 469 815T366 484Q549 523 653 604T757 823Q757 870 732 901T650 933ZM763 1106Q628
1228 531 1291T413 1375Q388 1399 388 1442Q388 1466 398 1492T433 1539Q469 1572 516 1572Q543 1572 567 1562T605 1536Q625 1514 678 1410T828 1164L763 1106Z" />
<glyph unicode="&#xe9;" glyph-name="eacute" horiz-adv-x="1088" d="M1027 792Q1027 710 973 646T826 534T613 456T362 407Q361 396 361 384T361 360Q361 263 395 208T482 130T591 106Q683 106 758 136T915 222Q927 231 933 229Q941 227 956 211T974 183Q976
178 976 177Q976 173 973 170T969 164Q882 73 764 22T511 -29Q301 -29 185 84T69 385Q69 519 119 633T255 833T452 966T686 1014Q815 1014 890 978T996 891T1027 792ZM650 933Q552 933 469 815T366 484Q549 523 653 604T757 823Q757 870 732 901T650 933ZM655 1115L604
1173Q706 1271 762 1350T845 1453Q863 1468 886 1478T935 1489Q976 1489 1002 1456Q1021 1431 1021 1403Q1021 1375 1006 1351T970 1308Q952 1292 904 1268T790 1207T655 1115Z" />
<glyph unicode="&#xea;" glyph-name="ecircumflex" horiz-adv-x="1088" d="M1027 792Q1027 710 973 646T826 534T613 456T362 407Q361 396 361 384T361 360Q361 263 395 208T482 130T591 106Q683 106 758 136T915 222Q927 231 933 229Q941 227 956 211T974 183Q976
178 976 177Q976 173 973 170T969 164Q882 73 764 22T511 -29Q301 -29 185 84T69 385Q69 519 119 633T255 833T452 966T686 1014Q815 1014 890 978T996 891T1027 792ZM650 933Q552 933 469 815T366 484Q549 523 653 604T757 823Q757 870 732 901T650 933ZM341 1137L646
1505Q665 1527 693 1541T769 1556Q816 1556 840 1538T877 1496L1063 1137H929L739 1357L480 1137H341Z" />
<glyph unicode="&#xeb;" glyph-name="edieresis" horiz-adv-x="1088" d="M1027 792Q1027 710 973 646T826 534T613 456T362 407Q361 396 361 384T361 360Q361 263 395 208T482 130T591 106Q683 106 758 136T915 222Q927 231 933 229Q941 227 956 211T974 183Q976
178 976 177Q976 173 973 170T969 164Q882 73 764 22T511 -29Q301 -29 185 84T69 385Q69 519 119 633T255 833T452 966T686 1014Q815 1014 890 978T996 891T1027 792ZM650 933Q552 933 469 815T366 484Q549 523 653 604T757 823Q757 870 732 901T650 933ZM934 1181Q875
1181 843 1219T811 1316Q811 1332 814 1349Q827 1419 871 1468T982 1517Q1041 1517 1073 1478T1105 1381Q1105 1361 1103 1349Q1090 1279 1046 1230T934 1181ZM473 1181Q414 1181 383 1219T351 1316Q351 1332 354 1349Q366 1419 410 1468T521 1517Q580 1517 612
1478T644 1381Q644 1361 642 1349Q630 1279 585 1230T473 1181Z" />
<glyph unicode="&#xec;" glyph-name="igrave" horiz-adv-x="706" d="M281 -13Q223 -13 195 6T157 52T147 98Q147 135 152 164L260 785Q263 803 263 815Q263 860 241 875T190 894T138 903Q127 908 122 916T120 943Q121 955 129 970T150 987Q276 995 378 996T535
997Q543 997 552 989T559 957L427 143Q427 114 444 105T488 96Q510 96 536 102T575 109Q587 109 593 96T599 67Q599 42 575 33Q507 12 443 0T281 -13ZM492 1106Q357 1228 260 1291T142 1375Q117 1399 117 1442Q117 1466 127 1492T162 1539Q198 1572 245 1572Q272
1572 296 1562T334 1536Q354 1514 407 1410T557 1164L492 1106Z" />
<glyph unicode="&#xed;" glyph-name="iacute" horiz-adv-x="706" d="M281 -13Q223 -13 195 6T157 52T147 98Q147 135 152 164L260 785Q263 803 263 815Q263 860 241 875T190 894T138 903Q127 908 122 916T120 943Q121 955 129 970T150 987Q276 995 378 996T535
997Q543 997 552 989T559 957L427 143Q427 114 444 105T488 96Q510 96 536 102T575 109Q587 109 593 96T599 67Q599 42 575 33Q507 12 443 0T281 -13ZM384 1115L333 1173Q435 1271 491 1350T574 1453Q592 1468 615 1478T664 1489Q705 1489 731 1456Q750 1431 750
1403Q750 1375 735 1351T699 1308Q681 1292 633 1268T519 1207T384 1115Z" />
<glyph unicode="&#xee;" glyph-name="icircumflex" horiz-adv-x="706" d="M281 -13Q223 -13 195 6T157 52T147 98Q147 135 152 164L260 785Q263 803 263 815Q263 860 241 875T190 894T138 903Q127 908 122 916T120 943Q121 955 129 970T150 987Q276 995 378 996T535
997Q543 997 552 989T559 957L427 143Q427 114 444 105T488 96Q510 96 536 102T575 109Q587 109 593 96T599 67Q599 42 575 33Q507 12 443 0T281 -13ZM70 1137L375 1505Q394 1527 422 1541T498 1556Q545 1556 569 1538T606 1496L792 1137H658L468 1357L209 1137H70Z"
/>
<glyph unicode="&#xef;" glyph-name="idieresis" horiz-adv-x="706" d="M281 -13Q223 -13 195 6T157 52T147 98Q147 135 152 164L260 785Q263 803 263 815Q263 860 241 875T190 894T138 903Q127 908 122 916T120 943Q121 955 129 970T150 987Q276 995 378 996T535
997Q543 997 552 989T559 957L427 143Q427 114 444 105T488 96Q510 96 536 102T575 109Q587 109 593 96T599 67Q599 42 575 33Q507 12 443 0T281 -13ZM663 1181Q604 1181 572 1219T540 1316Q540 1332 543 1349Q556 1419 600 1468T711 1517Q770 1517 802 1478T834
1381Q834 1361 832 1349Q819 1279 775 1230T663 1181ZM202 1181Q143 1181 112 1219T80 1316Q80 1332 83 1349Q95 1419 139 1468T250 1517Q309 1517 341 1478T373 1381Q373 1361 371 1349Q359 1279 314 1230T202 1181Z" />
<glyph unicode="&#xf0;" glyph-name="eth" horiz-adv-x="1248" d="M534 -29Q306 -29 187 84T68 383Q68 504 107 614T220 809T400 944T638 994Q716 994 772 973T868 913Q869 920 869 934Q869 985 849 1053T788 1193T681 1322L483 1179L418 1259L615 1378Q561 1418
497 1445T357 1481L387 1571Q488 1562 577 1533T744 1463L954 1618L1016 1531L826 1416Q986 1300 1076 1122T1166 736Q1166 578 1124 440T999 196T800 31T534 -29ZM531 66Q616 66 673 113T766 239T824 414T859 610Q864 643 868 690T872 782Q846 843 782 860T660
877Q582 877 527 827T437 694T386 515T369 324Q369 200 405 133T531 66Z" />
<glyph unicode="&#xf1;" glyph-name="ntilde" horiz-adv-x="1351" d="M1175 733L1093 189Q1090 168 1090 154Q1090 99 1128 99Q1144 99 1171 104T1216 113Q1230 116 1238 106T1247 78Q1247 56 1234 50Q1185 27 1112 9T943 -13Q882 -14 853 4T815 50T806 101Q806
118 808 130T810 142L897 726Q900 744 900 764Q900 853 817 853Q752 853 692 828T581 764T498 689L388 0H113L234 778Q235 786 235 793T236 806Q236 853 212 870T157 892T103 903Q92 908 87 916T85 943Q86 955 94 970T115 987Q241 995 344 996T502 997Q510 997
520 989T526 957L500 785Q523 806 563 844T663 921T798 987T967 1014Q1022 1014 1070 996T1149 930T1179 799Q1179 783 1178 767T1175 733ZM883 1121Q841 1121 805 1141T734 1187T667 1232T599 1252Q559 1252 538 1230T504 1184T472 1161Q457 1161 442 1182T426
1228Q426 1262 453 1308T526 1389T632 1424Q673 1424 708 1404T775 1358T841 1312T911 1292Q952 1292 974 1315T1009 1360T1041 1383Q1057 1383 1072 1362T1088 1316Q1088 1282 1061 1236T987 1156T883 1121Z" />
<glyph unicode="&#xf2;" glyph-name="ograve" horiz-adv-x="1240" d="M87 422Q85 529 122 634T233 825T415 962T665 1014Q841 1014 948 956T1104 793T1153 553Q1153 397 1085 265T886 53T570 -28Q400 -28 295 29T139 187T87 422ZM565 59Q642 59 696 107T785 236T834
416T850 616Q850 754 813 840T666 926Q590 926 537 878T450 748T401 567T385 368Q385 232 421 146T565 59ZM774 1106Q639 1228 542 1291T424 1375Q399 1399 399 1442Q399 1466 409 1492T444 1539Q480 1572 527 1572Q554 1572 578 1562T616 1536Q636 1514 689 1410T839
1164L774 1106Z" />
<glyph unicode="&#xf3;" glyph-name="oacute" horiz-adv-x="1240" d="M87 422Q85 529 122 634T233 825T415 962T665 1014Q841 1014 948 956T1104 793T1153 553Q1153 397 1085 265T886 53T570 -28Q400 -28 295 29T139 187T87 422ZM565 59Q642 59 696 107T785 236T834
416T850 616Q850 754 813 840T666 926Q590 926 537 878T450 748T401 567T385 368Q385 232 421 146T565 59ZM666 1115L615 1173Q717 1271 773 1350T856 1453Q874 1468 897 1478T946 1489Q987 1489 1013 1456Q1032 1431 1032 1403Q1032 1375 1017 1351T981 1308Q963
1292 915 1268T801 1207T666 1115Z" />
<glyph unicode="&#xf4;" glyph-name="ocircumflex" horiz-adv-x="1240" d="M87 422Q85 529 122 634T233 825T415 962T665 1014Q841 1014 948 956T1104 793T1153 553Q1153 397 1085 265T886 53T570 -28Q400 -28 295 29T139 187T87 422ZM565 59Q642 59 696 107T785
236T834 416T850 616Q850 754 813 840T666 926Q590 926 537 878T450 748T401 567T385 368Q385 232 421 146T565 59ZM352 1137L657 1505Q676 1527 704 1541T780 1556Q827 1556 851 1538T888 1496L1074 1137H940L750 1357L491 1137H352Z" />
<glyph unicode="&#xf5;" glyph-name="otilde" horiz-adv-x="1240" d="M87 422Q85 529 122 634T233 825T415 962T665 1014Q841 1014 948 956T1104 793T1153 553Q1153 397 1085 265T886 53T570 -28Q400 -28 295 29T139 187T87 422ZM565 59Q642 59 696 107T785 236T834
416T850 616Q850 754 813 840T666 926Q590 926 537 878T450 748T401 567T385 368Q385 232 421 146T565 59ZM847 1121Q805 1121 769 1141T698 1187T631 1232T563 1252Q523 1252 502 1230T468 1184T436 1161Q421 1161 406 1182T390 1228Q390 1262 417 1308T490 1389T596
1424Q637 1424 672 1404T739 1358T805 1312T875 1292Q916 1292 938 1315T973 1360T1005 1383Q1021 1383 1036 1362T1052 1316Q1052 1282 1025 1236T951 1156T847 1121Z" />
<glyph unicode="&#xf6;" glyph-name="odieresis" horiz-adv-x="1240" d="M87 422Q85 529 122 634T233 825T415 962T665 1014Q841 1014 948 956T1104 793T1153 553Q1153 397 1085 265T886 53T570 -28Q400 -28 295 29T139 187T87 422ZM565 59Q642 59 696 107T785
236T834 416T850 616Q850 754 813 840T666 926Q590 926 537 878T450 748T401 567T385 368Q385 232 421 146T565 59ZM945 1181Q886 1181 854 1219T822 1316Q822 1332 825 1349Q838 1419 882 1468T993 1517Q1052 1517 1084 1478T1116 1381Q1116 1361 1114 1349Q1101
1279 1057 1230T945 1181ZM484 1181Q425 1181 394 1219T362 1316Q362 1332 365 1349Q377 1419 421 1468T532 1517Q591 1517 623 1478T655 1381Q655 1361 653 1349Q641 1279 596 1230T484 1181Z" />
<glyph unicode="&#xf7;" glyph-name="divide" horiz-adv-x="1403" d="M578 950Q578 1022 627 1078T758 1135Q832 1135 872 1088T913 973Q913 895 861 839T733 782Q656 782 617 831T578 950ZM228 498L240 638H1196L1184 498H228ZM501 174Q501 246 550 302T681 359Q755
359 795 312T836 197Q836 119 784 63T656 6Q579 6 540 55T501 174Z" />
<glyph unicode="&#xf8;" glyph-name="oslash" horiz-adv-x="1240" d="M87 422Q85 529 122 634T233 825T415 962T665 1014Q841 1014 948 956T1104 793T1153 553Q1153 397 1085 265T886 53T570 -28Q400 -28 295 29T139 187T87 422ZM565 59Q642 59 696 107T785 236T834
416T850 616Q850 754 813 840T666 926Q590 926 537 878T450 748T401 567T385 368Q385 232 421 146T565 59ZM981 1303L334 138Q330 131 317 131Q292 131 271 150T252 188L898 1353Q904 1362 918 1362Q939 1362 960 1339T981 1303Z" />
<glyph unicode="&#xf9;" glyph-name="ugrave" horiz-adv-x="1334" d="M424 -28Q356 -28 297 -6T200 68T163 213Q163 247 170 294L249 822Q250 829 250 840Q250 873 233 883T191 894Q170 894 147 889T110 883Q86 883 81 912Q78 923 85 937T110 957Q287 1007 377
1007Q474 1007 502 976T530 912Q530 894 527 878T522 852L433 264Q431 253 430 241T429 218Q429 174 452 141T547 107Q634 107 690 134T791 193L910 994H1151Q1184 994 1184 966L1060 144Q1060 90 1097 90Q1114 90 1137 95T1178 105Q1192 108 1200 98T1209 70Q1209
47 1196 42Q1161 28 1089 4T919 -21Q843 -21 816 15T788 93Q788 101 790 114Q763 82 705 49T573 -6T424 -28ZM801 1106Q666 1228 569 1291T451 1375Q426 1399 426 1442Q426 1466 436 1492T471 1539Q507 1572 554 1572Q581 1572 605 1562T643 1536Q663 1514 716
1410T866 1164L801 1106Z" />
<glyph unicode="&#xfa;" glyph-name="uacute" horiz-adv-x="1334" d="M424 -28Q356 -28 297 -6T200 68T163 213Q163 247 170 294L249 822Q250 829 250 840Q250 873 233 883T191 894Q170 894 147 889T110 883Q86 883 81 912Q78 923 85 937T110 957Q287 1007 377
1007Q474 1007 502 976T530 912Q530 894 527 878T522 852L433 264Q431 253 430 241T429 218Q429 174 452 141T547 107Q634 107 690 134T791 193L910 994H1151Q1184 994 1184 966L1060 144Q1060 90 1097 90Q1114 90 1137 95T1178 105Q1192 108 1200 98T1209 70Q1209
47 1196 42Q1161 28 1089 4T919 -21Q843 -21 816 15T788 93Q788 101 790 114Q763 82 705 49T573 -6T424 -28ZM692 1115L641 1173Q743 1271 799 1350T882 1453Q900 1468 923 1478T972 1489Q1013 1489 1039 1456Q1058 1431 1058 1403Q1058 1375 1043 1351T1007 1308Q989
1292 941 1268T827 1207T692 1115Z" />
<glyph unicode="&#xfb;" glyph-name="ucircumflex" horiz-adv-x="1334" d="M424 -28Q356 -28 297 -6T200 68T163 213Q163 247 170 294L249 822Q250 829 250 840Q250 873 233 883T191 894Q170 894 147 889T110 883Q86 883 81 912Q78 923 85 937T110 957Q287 1007
377 1007Q474 1007 502 976T530 912Q530 894 527 878T522 852L433 264Q431 253 430 241T429 218Q429 174 452 141T547 107Q634 107 690 134T791 193L910 994H1151Q1184 994 1184 966L1060 144Q1060 90 1097 90Q1114 90 1137 95T1178 105Q1192 108 1200 98T1209
70Q1209 47 1196 42Q1161 28 1089 4T919 -21Q843 -21 816 15T788 93Q788 101 790 114Q763 82 705 49T573 -6T424 -28ZM378 1137L683 1505Q702 1527 730 1541T806 1556Q853 1556 877 1538T914 1496L1100 1137H966L776 1357L517 1137H378Z" />
<glyph unicode="&#xfc;" glyph-name="udieresis" horiz-adv-x="1334" d="M424 -28Q356 -28 297 -6T200 68T163 213Q163 247 170 294L249 822Q250 829 250 840Q250 873 233 883T191 894Q170 894 147 889T110 883Q86 883 81 912Q78 923 85 937T110 957Q287 1007
377 1007Q474 1007 502 976T530 912Q530 894 527 878T522 852L433 264Q431 253 430 241T429 218Q429 174 452 141T547 107Q634 107 690 134T791 193L910 994H1151Q1184 994 1184 966L1060 144Q1060 90 1097 90Q1114 90 1137 95T1178 105Q1192 108 1200 98T1209
70Q1209 47 1196 42Q1161 28 1089 4T919 -21Q843 -21 816 15T788 93Q788 101 790 114Q763 82 705 49T573 -6T424 -28ZM971 1181Q912 1181 880 1219T848 1316Q848 1332 851 1349Q864 1419 908 1468T1019 1517Q1078 1517 1110 1478T1142 1381Q1142 1361 1140 1349Q1127
1279 1083 1230T971 1181ZM510 1181Q451 1181 420 1219T388 1316Q388 1332 391 1349Q403 1419 447 1468T558 1517Q617 1517 649 1478T681 1381Q681 1361 679 1349Q667 1279 622 1230T510 1181Z" />
<glyph unicode="&#xfd;" glyph-name="yacute" horiz-adv-x="1302" d="M193 -449Q126 -449 83 -421T39 -342Q39 -288 81 -260T179 -232Q244 -232 288 -237T372 -232Q428 -218 477 -180T566 -97T634 -22Q505 -22 460 -7T415 55Q415 171 398 289T354 512T295 696T234
813Q225 825 211 834T183 843Q165 843 148 827T117 792Q103 772 91 772Q80 772 69 785T58 821Q58 834 64 847Q98 907 147 944T247 997T329 1014Q388 1014 431 990T506 904Q537 847 564 754T611 552T644 335T658 137Q658 107 659 71T659 9Q689 47 740 117T844 277T933
458T969 632Q969 679 956 717T930 794T916 883Q916 942 954 978T1056 1014Q1115 1014 1151 981T1203 896T1220 792Q1220 687 1176 581T1061 371T908 166T751 -32Q693 -103 626 -176T487 -311T340 -411T193 -449ZM718 1115L667 1173Q769 1271 825 1350T908 1453Q926
1468 949 1478T998 1489Q1039 1489 1065 1456Q1084 1431 1084 1403Q1084 1375 1069 1351T1033 1308Q1015 1292 967 1268T853 1207T718 1115Z" />
<glyph unicode="&#xfe;" glyph-name="thorn" horiz-adv-x="1267" d="M5 -443L87 126L89 127L274 1341Q275 1362 259 1368T231 1385Q230 1420 211 1433T167 1452T126 1464Q110 1479 123 1508Q149 1517 176 1528T228 1540Q329 1545 412 1546T539 1547Q547 1547 555
1541T564 1517Q564 1513 563 1507L506 1104L455 822Q529 922 628 967T814 1013Q947 1013 1029 958T1148 810T1186 605Q1186 554 1178 492Q1158 358 1084 241T883 51T573 -21Q506 -21 441 -11T317 16L307 -117L258 -444L5 -443ZM447 707L365 167Q377 129 429 102T550
74Q647 74 714 128T820 277T875 492Q879 530 881 565T884 633Q884 744 847 809T711 874Q657 874 607 848T515 782T447 707Z" />
<glyph unicode="&#xff;" glyph-name="ydieresis" horiz-adv-x="1302" d="M193 -449Q126 -449 83 -421T39 -342Q39 -288 81 -260T179 -232Q244 -232 288 -237T372 -232Q428 -218 477 -180T566 -97T634 -22Q505 -22 460 -7T415 55Q415 171 398 289T354 512T295 696T234
813Q225 825 211 834T183 843Q165 843 148 827T117 792Q103 772 91 772Q80 772 69 785T58 821Q58 834 64 847Q98 907 147 944T247 997T329 1014Q388 1014 431 990T506 904Q537 847 564 754T611 552T644 335T658 137Q658 107 659 71T659 9Q689 47 740 117T844 277T933
458T969 632Q969 679 956 717T930 794T916 883Q916 942 954 978T1056 1014Q1115 1014 1151 981T1203 896T1220 792Q1220 687 1176 581T1061 371T908 166T751 -32Q693 -103 626 -176T487 -311T340 -411T193 -449ZM997 1181Q938 1181 906 1219T874 1316Q874 1332
877 1349Q890 1419 934 1468T1045 1517Q1104 1517 1136 1478T1168 1381Q1168 1361 1166 1349Q1153 1279 1109 1230T997 1181ZM536 1181Q477 1181 446 1219T414 1316Q414 1332 417 1349Q429 1419 473 1468T584 1517Q643 1517 675 1478T707 1381Q707 1361 705 1349Q693
1279 648 1230T536 1181Z" />
<glyph unicode="&#x2013;" glyph-name="endash" horiz-adv-x="1403" d="M110 496L128 629H1311L1293 496H110Z" />
<glyph unicode="&#x2014;" glyph-name="emdash" horiz-adv-x="1856" d="M109 496L127 622H1764L1746 496H109Z" />
<glyph unicode="&#x2018;" glyph-name="quoteleft" horiz-adv-x="504" d="M505 1698Q525 1698 541 1687T557 1657Q557 1637 537 1617Q471 1545 441 1482T402 1372T395 1299Q395 1293 425 1285T484 1252T514 1173Q514 1079 469 1036T348 993Q283 993 235 1044T187
1180Q187 1306 231 1402T341 1568T471 1688Q486 1698 505 1698Z" />
<glyph unicode="&#x2019;" glyph-name="quoteright" horiz-adv-x="504" d="M241 990Q221 990 205 1001T188 1031Q188 1051 209 1071Q275 1143 305 1206T344 1316T351 1389Q350 1395 321 1403T262 1436T232 1515Q232 1609 277 1652T398 1695Q463 1695 511 1644T559
1508Q559 1382 515 1286T404 1120T274 1000Q260 990 241 990Z" />
<glyph unicode="&#x201a;" glyph-name="quotesinglbase" horiz-adv-x="504" d="M27 -454Q7 -454 -9 -443T-26 -413Q-26 -393 -5 -373Q61 -301 91 -238T130 -128T137 -55Q136 -49 107 -41T48 -8T18 71Q18 165 63 208T184 251Q249 251 297 200T345 64Q345 -62 301
-158T190 -324T60 -444Q46 -454 27 -454Z" />
<glyph unicode="&#x201c;" glyph-name="quotedblleft" horiz-adv-x="980" d="M505 1697Q525 1697 541 1686T558 1656Q558 1636 537 1615Q471 1543 441 1480T402 1370T395 1297Q396 1291 425 1283T484 1250T514 1171Q514 1077 469 1035T348 992Q284 992 236 1043T187
1179Q187 1304 231 1400T342 1566T472 1686Q486 1697 505 1697ZM965 1697Q985 1697 1001 1686T1017 1656Q1017 1636 997 1615Q931 1543 901 1480T862 1370T855 1297Q855 1291 885 1283T944 1250T974 1171Q974 1077 929 1035T808 992Q743 992 695 1043T647 1179Q647
1304 691 1400T801 1566T931 1686Q946 1697 965 1697Z" />
<glyph unicode="&#x201d;" glyph-name="quotedblright" horiz-adv-x="980" d="M267 1245Q247 1245 231 1256T214 1286Q214 1306 235 1326Q301 1398 331 1461T370 1571T377 1644Q376 1650 347 1658T288 1691T258 1770Q258 1864 303 1907T424 1950Q489 1950 537
1899T585 1763Q585 1637 541 1541T430 1375T300 1255Q286 1245 267 1245ZM726 989Q706 989 690 1000T673 1030Q673 1050 694 1070Q760 1142 790 1205T829 1315T836 1388Q835 1394 806 1402T747 1435T717 1514Q717 1608 762 1651T883 1694Q948 1694 996 1643T1044
1507Q1044 1381 1000 1285T889 1119T759 999Q745 989 726 989Z" />
<glyph unicode="&#x201e;" glyph-name="quotedblbase" horiz-adv-x="980" d="M38 -454Q18 -454 2 -443T-15 -413Q-15 -393 6 -373Q72 -301 102 -238T141 -128T148 -55Q147 -49 118 -41T59 -8T29 71Q29 165 74 208T195 251Q260 251 308 200T356 64Q356 -62 312
-158T201 -324T71 -444Q57 -454 38 -454ZM518 -454Q498 -454 482 -443T465 -413Q465 -393 486 -373Q552 -301 582 -238T621 -128T628 -55Q627 -49 598 -41T539 -8T509 71Q509 165 554 208T675 251Q740 251 788 200T836 64Q836 -62 792 -158T681 -324T551 -444Q537
-454 518 -454Z" />
<glyph unicode="&#x2022;" glyph-name="bullet" horiz-adv-x="868" d="M409 292Q316 292 250 359T183 529Q183 607 219 673T321 781T477 822Q570 822 636 755T702 584Q702 506 666 440T564 333T409 292Z" />
<glyph unicode="&#x2039;" glyph-name="guilsinglleft" horiz-adv-x="823" d="M595 21L122 449L139 568L732 992L704 825L374 498L623 158L595 21Z" />
<glyph unicode="&#x203a;" glyph-name="guilsinglright" horiz-adv-x="823" d="M228 992L701 564L684 445L91 21L119 187L450 515L200 854L228 992Z" />
</font>
</defs>
</svg>
