<?xml version="1.0" standalone="no"?>
<!DOCTYPE svg PUBLIC "-//W3C//DTD SVG 1.1//EN" "http://www.w3.org/Graphics/SVG/1.1/DTD/svg11.dtd">
<svg xmlns="http://www.w3.org/2000/svg">
<defs >
<font id="Gelasio" horiz-adv-x="1213" ><font-face
    font-family="Gelasio"
    units-per-em="2048"
    panose-1="0 0 0 0 0 0 0 0 0 0"
    ascent="1900"
    descent="-700"
    alphabetic="0" />
<glyph unicode=" " glyph-name="space" horiz-adv-x="494" />
<glyph unicode="!" glyph-name="exclam" horiz-adv-x="678" d="M309 432Q345 868 353 1103T370 1389Q379 1448 423 1488T522 1528Q572 1528 603 1495T634 1412Q634 1405 632 1389Q624 1339 552 1104T389 432H309ZM174 102Q174 164 214 206T318 249Q376 249 407
213T439 124Q439 58 397 15T294 -28Q236 -28 205 10T174 102Z" />
<glyph unicode="&quot;" glyph-name="quotedbl" horiz-adv-x="843" d="M450 967Q462 1037 476 1125T506 1299T535 1451T555 1542Q572 1601 612 1641T708 1681Q755 1681 773 1651T783 1573Q782 1566 781 1558T777 1542Q771 1517 741 1452T668 1300T584 1125T510
967H450ZM606 967Q618 1037 632 1125T662 1299T691 1451T711 1542Q728 1601 768 1641T864 1681Q911 1681 929 1651T939 1573Q938 1566 937 1558T933 1542Q927 1517 897 1452T824 1300T740 1125T666 967H606Z" />
<glyph unicode="#" glyph-name="numbersign" horiz-adv-x="1317" d="M193 0L322 420H88L99 526H353L471 900H197L209 1006H503L633 1419H760L629 1006H920L1050 1419H1177L1046 1006H1279L1267 900H1014L895 526H1149L1138 420H864L735 0H610L739 420H447L318
0H193ZM478 526H770L888 900H597L478 526Z" />
<glyph unicode="$" glyph-name="dollar" horiz-adv-x="1249" d="M102 72Q117 143 128 220T146 364T154 471Q155 503 168 511T202 520Q219 520 235 509T252 478Q254 453 255 397T291 257Q329 165 412 112T596 59Q724 59 811 116T899 282Q899 353 854 406T741 504T600
598Q521 652 448 708T327 839T280 1019Q280 1108 328 1184T471 1310T710 1368L732 1541Q750 1556 767 1561T798 1567Q819 1567 832 1559T846 1544Q846 1539 838 1539L815 1364Q875 1355 927 1337T996 1311Q1003 1307 1009 1307T1021 1308Q1052 1308 1066 1330T1109
1352Q1128 1352 1142 1342T1157 1318Q1158 1299 1153 1248T1142 1133T1135 1007Q1134 966 1119 957T1082 948Q1066 948 1053 954T1040 970Q1031 1131 947 1210T752 1290Q677 1290 614 1269T515 1199T482 1071Q485 1008 527 950T627 844T739 763Q825 710 908 650T1045
518T1100 356Q1100 248 1037 161T862 22T603 -30Q597 -30 592 -30L571 -202Q551 -227 532 -236T498 -246Q479 -246 468 -236T456 -218Q456 -211 464 -209L487 -19Q406 -3 345 26T250 78Q238 87 217 61Q201 39 180 30T143 20Q123 20 111 37T102 72Z" />
<glyph unicode="%" glyph-name="percent" horiz-adv-x="1674" d="M425 711Q292 711 217 788T142 1001Q142 1123 190 1225T326 1388T533 1449Q670 1449 746 1370T823 1151Q823 1027 774 928T636 770T425 711ZM371 0L1197 1419H1344L516 0H371ZM438 788Q521 788
568 847T636 998T657 1190Q657 1282 624 1327T517 1372Q435 1372 387 1312T319 1158T298 964Q298 876 331 832T438 788ZM1197 -29Q1064 -29 989 48T914 261Q914 383 961 485T1097 648T1305 709Q1442 709 1518 630T1595 411Q1595 287 1546 188T1408 30T1197 -29ZM1210
48Q1293 48 1340 107T1408 258T1429 450Q1429 542 1396 587T1289 632Q1207 632 1159 572T1091 418T1070 224Q1070 136 1103 92T1210 48Z" />
<glyph unicode="&amp;" glyph-name="ampersand" horiz-adv-x="1455" d="M1457 896Q1485 896 1485 864Q1485 846 1474 832T1443 818Q1392 818 1360 799T1297 741Q1266 693 1244 618T1177 446T1037 235Q1051 217 1065 199T1093 162Q1122 124 1184 104T1292 78Q1322
75 1322 56Q1322 32 1310 16T1280 0H964Q946 26 928 51T891 102Q816 47 710 9T493 -29Q272 -29 153 64T33 304Q33 412 87 493T231 638T426 758Q386 830 355 910T324 1070Q324 1169 370 1255T512 1395T761 1448Q902 1448 975 1382T1049 1209Q1049 1105 1012 1038T888
912T652 780Q697 714 779 594T984 307Q1045 383 1079 459T1128 598T1147 701T1152 748Q1156 775 1138 789T1093 810T1046 818Q1022 821 1022 842Q1022 866 1034 881T1064 896H1457ZM731 1371Q661 1371 615 1328T545 1221T522 1094Q522 1024 547 960T613 838Q755
906 816 989T877 1195Q877 1233 862 1273T815 1342T731 1371ZM524 91Q592 91 669 104T839 175Q747 296 655 422T471 688Q403 642 349 597T265 493T234 350Q234 288 264 229T358 130T524 91Z" />
<glyph unicode="&apos;" glyph-name="quotesingle" horiz-adv-x="441" d="M197 967Q209 1037 223 1125T253 1299T282 1451T302 1542Q319 1601 359 1641T455 1681Q502 1681 520 1651T530 1573Q529 1566 528 1558T524 1542Q518 1517 488 1452T415 1300T331 1125T257
967H197Z" />
<glyph unicode="(" glyph-name="parenleft" horiz-adv-x="768" d="M121 418Q121 580 155 742T255 1049T412 1306T619 1484T868 1549Q896 1549 926 1546L890 1459Q883 1460 875 1460T859 1461Q753 1461 668 1393T517 1211T408 954T342 660T319 371Q319 194 342
80T402 -103T481 -206T560 -261L545 -344Q443 -325 346 -235T185 17T121 418Z" />
<glyph unicode=")" glyph-name="parenright" horiz-adv-x="768" d="M676 787Q676 625 642 463T542 156T385 -101T178 -279T-71 -344Q-99 -344 -129 -341L-93 -254Q-85 -255 -77 -255T-62 -256Q44 -256 129 -188T280 -6T389 251T455 545T478 834Q478 1011 455 1125T395
1308T317 1411T237 1466L252 1549Q355 1530 452 1441T612 1188T676 787Z" />
<glyph unicode="*" glyph-name="asterisk" horiz-adv-x="967" d="M326 720Q292 720 269 744T245 802Q245 844 280 886Q288 895 320 920T393 976T472 1036T530 1082Q518 1085 480 1090T397 1102T312 1114T258 1126Q228 1137 209 1156T189 1205Q189 1251 222 1281T301
1311Q322 1311 343 1304Q354 1301 380 1279T439 1227T504 1171T554 1135Q554 1157 550 1202T541 1297T532 1386T530 1436Q537 1484 564 1516T641 1549Q682 1549 701 1524T721 1461Q721 1440 705 1390T666 1282T627 1182T609 1134Q630 1145 668 1171T748 1227T821
1279T863 1304Q888 1311 907 1311Q941 1311 966 1292T992 1232Q992 1192 965 1165T895 1126Q878 1121 839 1115T755 1103T671 1091T618 1082Q680 1007 725 963T794 887T819 814Q819 773 793 747T723 721Q673 721 643 773Q638 782 628 819T607 904T586 992T570 1051Q559
1035 539 994T495 906T451 822T422 773Q377 720 326 720Z" />
<glyph unicode="+" glyph-name="plus" horiz-adv-x="1317" d="M554 40L593 492H201L212 618H604L640 1027H786L750 618H1139L1128 492H739L700 40H554Z" />
<glyph unicode="," glyph-name="comma" horiz-adv-x="552" d="M91 107Q91 172 133 214T234 257Q294 257 336 217T378 103Q378 42 354 -26T292 -157T209 -270T124 -346Q111 -354 96 -354Q81 -354 62 -343T42 -317Q42 -299 69 -271Q114 -224 151 -166T200 -17Q161
-8 126 20T91 107Z" />
<glyph unicode="-" glyph-name="hyphen" horiz-adv-x="766" d="M109 496L127 622H674L656 496H109Z" />
<glyph unicode="." glyph-name="period" horiz-adv-x="552" d="M96 112Q96 174 136 217T241 261Q300 261 330 223T360 130Q360 65 319 23T218 -20Q152 -20 124 19T96 112Z" />
<glyph unicode="/" glyph-name="slash" horiz-adv-x="960" d="M22 -415L801 1625H938L157 -415H22Z" />
<glyph unicode="0" glyph-name="zero" horiz-adv-x="1257" d="M565 -29Q363 -29 256 99T148 452Q148 602 185 737T296 978T477 1144T724 1205Q925 1205 1030 1075T1136 718Q1136 568 1099 434T990 195T812 31T565 -29ZM580 66Q682 66 749 135T855 316T910 556T926
801Q926 956 876 1033T705 1110Q603 1110 536 1045T430 871T374 632T357 371Q357 217 408 142T580 66Z" />
<glyph unicode="1" glyph-name="one" horiz-adv-x="880" d="M110 39Q110 74 146 78Q179 81 229 90T319 114T363 152L495 1012Q477 1003 445 981T371 940T276 921Q260 921 245 943T230 986Q230 1009 234 1031T249 1054Q367 1054 464 1096T621 1189H721L568 165Q564
137 587 121T648 96T722 84T781 78Q802 76 809 70T814 41Q813 30 804 15T778 0H142Q126 0 118 14T110 39Z" />
<glyph unicode="2" glyph-name="two" horiz-adv-x="1144" d="M69 0L75 75Q200 154 322 247T545 442T711 647T785 850Q796 966 745 1035T581 1104Q507 1104 470 1091T416 1061T389 1033L326 838Q316 808 302 791T257 774Q239 774 209 782T155 813T131 879Q131 946
172 1005T282 1108T432 1178T592 1204Q783 1204 897 1118T994 851Q985 755 927 662T777 481T578 314T366 165H1000L976 0H69Z" />
<glyph unicode="3" glyph-name="three" horiz-adv-x="1130" d="M399 -395Q327 -395 254 -375T119 -314T19 -212T-19 -69Q-19 17 17 79T126 141Q152 141 180 123T209 70L146 -143Q155 -172 185 -209T269 -273T396 -300Q512 -300 603 -248T747 -106T800 94Q800 213
752 277T631 365T480 390H417L433 498H496Q576 498 654 542T783 678T834 915Q834 959 817 1003T759 1076T642 1106Q551 1106 506 1078T445 1032L372 837Q361 807 345 790T299 773Q282 773 256 780T209 808T188 867Q188 937 233 998T350 1105T509 1178T677 1204Q843
1204 944 1118T1045 886Q1045 781 992 694T851 545T657 455Q702 451 761 426T877 357T971 247T1008 97Q1008 -36 937 -148T730 -327T399 -395Z" />
<glyph unicode="4" glyph-name="four" horiz-adv-x="1157" d="M569 -384L615 0H32L-6 87L659 1229Q664 1238 681 1249T721 1260Q776 1260 815 1236T857 1181Q857 1167 853 1151L159 131H631L680 536L736 576H856L803 131H1030L1017 0H788L742 -384H569Z" />
<glyph unicode="5" glyph-name="five" horiz-adv-x="1082" d="M332 -392Q271 -392 206 -376T83 -325T-9 -239T-45 -117Q-45 -40 -4 -5T72 31Q111 31 123 12T139 -44Q142 -68 146 -103T157 -172T168 -222Q168 -222 176 -240T219 -278T332 -297Q468 -297 555 -224T685
-30T728 230Q728 352 667 434T496 516Q418 516 327 485T179 380L115 413L283 1189H1011L990 1020H388L276 554Q332 590 413 608T554 627Q736 627 839 530T948 273Q952 144 910 25T785 -188T588 -337T332 -392Z" />
<glyph unicode="6" glyph-name="six" horiz-adv-x="1159" d="M526 -29Q319 -29 211 107T103 467Q103 644 168 815T357 1133T661 1383T1070 1529L1058 1437Q851 1389 715 1287T499 1056T382 799Q429 846 511 889T697 933Q882 933 977 836T1073 554Q1073 398 1004
265T811 52T526 -29ZM543 66Q649 66 718 132T822 305T857 535Q857 662 814 738T656 815Q560 815 479 770T347 670Q329 594 316 513T302 349Q302 210 357 138T543 66Z" />
<glyph unicode="7" glyph-name="seven" horiz-adv-x="1017" d="M125 -382L901 1028H405Q359 1028 321 997T255 921T209 838T187 785Q181 766 166 759T134 752Q123 752 110 760T99 786L191 1190L1028 1189L1070 1122L347 -383L125 -382Z" />
<glyph unicode="8" glyph-name="eight" horiz-adv-x="1221" d="M130 330Q130 473 219 590T471 750Q403 815 352 891T301 1075Q301 1191 364 1274T528 1403T742 1449Q881 1449 967 1407T1092 1294T1132 1133Q1132 1042 1090 966T982 834T846 742Q938 683 1006 604T1080
412Q1086 306 1032 205T867 37T595 -29Q437 -29 334 18T180 147T130 330ZM723 826L770 789Q826 820 865 876T926 999T947 1131Q947 1223 900 1288T736 1354Q617 1354 553 1288T489 1095Q489 1040 522 997T610 913T723 826ZM552 710Q425 655 371 552T317 341Q317
281 339 217T419 110T581 66Q667 66 739 97T852 189T888 343Q883 432 800 520T552 710Z" />
<glyph unicode="9" glyph-name="nine" horiz-adv-x="1159" d="M128 -353L138 -261Q345 -212 481 -110T698 120T816 377Q767 330 685 287T499 243Q315 243 219 341T123 616Q123 774 192 908T384 1123T670 1205Q878 1205 986 1069T1095 709Q1095 532 1030 361T841
43T538 -207T128 -353ZM540 361Q636 361 718 406T851 506Q869 581 881 661T894 823Q894 964 841 1037T653 1110Q547 1110 478 1044T374 869T339 637Q339 513 384 437T540 361Z" />
<glyph unicode=":" glyph-name="colon" horiz-adv-x="786" d="M156 360Q156 422 196 465T301 509Q360 509 390 471T420 378Q420 313 379 271T278 228Q212 228 184 267T156 360ZM241 849Q241 911 281 954T386 998Q445 998 475 960T505 867Q505 802 464 760T363
717Q297 717 269 756T241 849Z" />
<glyph unicode=";" glyph-name="semicolon" horiz-adv-x="786" d="M196 107Q196 172 238 214T339 257Q399 257 441 217T483 103Q483 42 459 -26T397 -157T314 -270T229 -346Q216 -354 201 -354Q186 -354 167 -343T147 -317Q147 -299 174 -271Q219 -224 256 -166T305
-17Q266 -8 231 20T196 107ZM267 849Q267 911 307 954T412 998Q471 998 501 960T531 867Q531 802 490 760T389 717Q323 717 295 756T267 849Z" />
<glyph unicode="&lt;" glyph-name="less" horiz-adv-x="1317" d="M1014 62L138 500L148 609L1108 1049L1095 915L291 554L1027 194L1014 62Z" />
<glyph unicode="=" glyph-name="equal" horiz-adv-x="1317" d="M214 696L230 839H1157L1141 696H214ZM177 272L193 415H1120L1104 272H177Z" />
<glyph unicode="&gt;" glyph-name="greater" horiz-adv-x="1317" d="M231 51L244 187L1048 554L312 922L325 1060L1201 611L1191 499L231 51Z" />
<glyph unicode="?" glyph-name="question" horiz-adv-x="980" d="M381 377L400 502Q414 605 453 677T544 803T645 905T733 1007T781 1137Q783 1157 785 1179T787 1223Q787 1277 773 1327T722 1410T613 1443Q549 1443 507 1419T443 1371T421 1347L347 1087Q339
1065 319 1057T267 1049Q238 1049 206 1081T173 1172Q173 1242 213 1306T319 1420T465 1499T623 1528Q757 1528 841 1484T964 1366T1003 1202Q1003 1166 997 1130Q984 1048 934 982T815 859T680 745T566 628T511 492L493 377H381ZM267 102Q267 165 315 211T427
257Q482 257 516 224T550 140Q550 79 501 30T388 -20Q334 -20 301 16T267 102Z" />
<glyph unicode="@" glyph-name="at" horiz-adv-x="1902" d="M868 -318Q749 -318 623 -283T388 -171T213 35T146 351Q146 550 206 712T370 999T607 1207T887 1335T1180 1378Q1291 1378 1401 1348T1601 1252T1745 1080T1799 822Q1799 683 1759 571T1654 373T1512
229T1362 142T1232 112Q1125 112 1079 159T1030 259Q1011 223 970 192T882 140T794 120Q735 120 679 144T587 224T551 369Q551 474 587 582T690 781T852 927T1064 983Q1122 983 1160 958T1217 899T1235 838L1278 956H1450L1207 369Q1202 356 1195 331T1187 279Q1187
248 1203 225T1263 201Q1312 201 1384 242T1528 362T1648 553T1696 807Q1696 929 1651 1018T1530 1165T1357 1251T1160 1280Q964 1280 802 1208T522 1007T339 710T274 351Q274 202 319 100T438 -67T596 -166T762 -214T903 -227Q1036 -227 1134 -199T1298 -134T1396
-68T1429 -40L1470 -92Q1422 -141 1334 -193T1128 -282T868 -318ZM833 211Q879 211 923 241T1000 313T1045 386L1174 726Q1177 747 1177 774Q1177 817 1159 855T1078 894Q1017 894 966 854T874 750T807 615T765 482T750 383Q750 316 763 264T833 211Z" />
<glyph unicode="A" glyph-name="A" horiz-adv-x="1374" d="M973 132L911 447H416L245 132Q242 127 242 118Q242 95 284 93T387 88Q406 86 412 77T419 51Q418 40 409 20T382 0H-71Q-87 0 -92 20T-97 51Q-97 74 -90 80T-61 88Q-36 91 -1 91T69 106T125 165L820 1440H913L1190
165Q1202 121 1228 107T1284 92T1332 88Q1352 85 1359 80T1367 51Q1366 40 1357 20T1330 0H824Q807 0 800 20T793 51Q791 84 827 88Q890 92 932 93T975 121Q975 124 973 132ZM779 1114L464 535H893L779 1114Z" />
<glyph unicode="B" glyph-name="B" horiz-adv-x="1339" d="M19 51Q19 85 55 88Q111 93 159 105T212 152L378 1234Q385 1276 362 1295T301 1321T227 1331Q196 1334 196 1352Q196 1380 208 1399T237 1419H751Q896 1419 1006 1394T1179 1307T1244 1134Q1246 1049
1197 969T1065 834T889 765Q966 755 1044 724T1176 629T1230 451Q1230 313 1160 212T961 55T654 0H48Q30 0 24 19T19 51ZM688 1331H586L506 801H677Q725 801 785 813T900 860T992 956T1028 1117Q1028 1243 938 1287T688 1331ZM406 133Q404 121 428 114T489 102T561
97T614 96Q685 96 756 107T885 154T979 262T1011 458Q1009 547 971 599T877 676T764 708T668 715H493L406 133Z" />
<glyph unicode="C" glyph-name="C" horiz-adv-x="1315" d="M739 -30Q571 -30 433 44T213 261T131 609Q131 772 181 905T316 1139T506 1310T724 1414T939 1449Q1057 1449 1128 1434T1242 1398T1316 1361L1288 1051Q1289 1028 1264 1019T1227 1010Q1214 1010 1201
1016T1184 1039Q1186 1202 1133 1277T929 1353Q848 1353 753 1318T573 1202T433 985T378 646Q378 496 417 364T533 148T728 65Q861 65 927 106T1025 217T1080 373Q1093 406 1120 406Q1131 406 1160 399T1188 375L1161 108Q1157 94 1100 61T948 -1T739 -30Z" />
<glyph unicode="D" glyph-name="D" horiz-adv-x="1534" d="M8 51Q8 84 44 88Q77 91 116 97T184 117T215 152L379 1234Q384 1277 356 1296T288 1322T218 1331Q187 1334 187 1353Q187 1356 189 1368Q188 1379 200 1399T229 1419H702Q931 1419 1075 1365T1297 1223T1405
1031T1435 824Q1435 573 1331 388T1030 102T553 0H37Q20 0 13 20T8 51ZM424 153Q430 134 437 123T477 106T595 101Q780 101 917 176T1129 412T1205 827Q1205 1093 1069 1212T667 1331H597L424 153Z" />
<glyph unicode="E" glyph-name="E" horiz-adv-x="1338" d="M592 1331L511 773H791Q818 777 841 812T882 887T903 948Q906 968 923 974T957 981Q968 981 983 973T996 947L946 504Q943 487 927 479T899 470Q883 470 866 477T849 503Q849 525 843 569T821 650T777
687H499L425 174Q425 131 450 116T505 97H896Q958 97 1007 133T1093 219T1151 314T1178 373Q1185 392 1198 399T1227 406Q1269 406 1268 372L1173 0H44Q27 0 21 20T17 51Q17 84 51 88Q84 91 121 97T185 117T214 152L374 1234Q379 1277 351 1296T283 1322T213 1331Q182
1334 182 1353Q182 1375 193 1397T224 1419H1263L1249 1096Q1248 1079 1233 1071T1206 1062Q1190 1062 1178 1069T1163 1095Q1164 1110 1157 1148T1132 1228T1080 1301T995 1331H592Z" />
<glyph unicode="F" glyph-name="F" horiz-adv-x="1227" d="M36 0Q19 0 13 20T9 51Q9 84 43 88Q103 92 158 105T216 152L374 1234Q379 1277 353 1296T288 1322T213 1331Q182 1334 182 1353Q182 1375 193 1397T224 1419H1238L1232 1070Q1228 1053 1212 1045T1184
1036Q1168 1036 1157 1043T1148 1069Q1147 1084 1139 1125T1110 1215T1056 1297T970 1332H594L509 741H764Q789 745 811 780T850 855T873 916Q876 936 893 942T927 949Q938 949 952 941T965 915L915 472Q915 455 896 447T865 438Q849 438 834 445T816 471Q818 493
812 537T790 618T746 655H497L431 197Q427 154 468 131T567 98T667 88Q684 88 693 81T700 51Q698 40 692 20T668 0H36Z" />
<glyph unicode="G" glyph-name="G" horiz-adv-x="1485" d="M763 -30Q639 -30 525 10T320 133T179 344T127 651Q127 849 202 998T399 1247T664 1398T944 1449Q1134 1449 1238 1417T1394 1361L1355 1051Q1356 1028 1334 1019T1299 1010Q1270 1010 1265 1035Q1254
1193 1167 1273T928 1353Q780 1353 674 1290T499 1122T399 894T367 648Q367 454 423 325T569 130T762 65Q866 65 927 82T1018 125T1058 170L1102 475Q1100 509 1071 524T1001 545T924 553Q891 555 891 574Q891 589 897 615T934 641H1446Q1459 641 1465 629T1473
603Q1476 557 1435 553Q1391 549 1353 536T1311 489L1266 123Q1252 101 1185 65T1009 -1T763 -30Z" />
<glyph unicode="H" glyph-name="H" horiz-adv-x="1669" d="M71 0Q55 0 47 17T39 47Q39 64 46 75T76 88Q125 91 170 105T219 152L381 1249Q381 1285 360 1301T309 1323T250 1331Q218 1334 218 1355Q218 1380 231 1399T259 1419H754Q771 1419 777 1399T782 1368Q777
1335 744 1331Q696 1327 647 1314T592 1267L516 773H1234L1306 1248Q1306 1285 1283 1301T1227 1323T1165 1331Q1133 1334 1133 1355Q1133 1380 1146 1399T1174 1419H1679Q1696 1419 1702 1399T1707 1368Q1702 1335 1669 1331Q1621 1327 1571 1314T1517 1267L1354
171Q1354 135 1377 119T1434 97T1495 88Q1515 86 1522 80T1527 51Q1526 40 1517 20T1491 0H986Q970 0 962 17T954 47Q954 64 961 75T991 88Q1040 91 1090 105T1144 152L1222 687H503L429 171Q429 135 452 119T509 97T570 88Q590 86 597 80T602 51Q601 40 592 20T566
0H71Z" />
<glyph unicode="I" glyph-name="I" horiz-adv-x="798" d="M52 43Q52 63 59 75T88 88Q137 91 187 105T242 152L402 1234Q403 1239 403 1249Q403 1285 380 1301T325 1323T264 1331Q233 1334 233 1352Q233 1355 234 1359T235 1368Q235 1379 248 1399T278 1419H783Q800
1419 805 1399T808 1368Q803 1334 768 1331Q719 1327 668 1314T612 1267L454 185Q453 179 453 169Q453 134 476 118T531 97T592 88Q609 86 616 82T624 63Q624 56 623 51Q621 40 610 20T582 0H77Q62 0 57 15T52 43Z" />
<glyph unicode="J" glyph-name="J" horiz-adv-x="1060" d="M346 -30Q255 -30 177 2T50 100T2 260Q2 329 31 366T100 418T170 433Q188 433 213 421T239 378L202 113Q228 90 261 75T347 59Q453 59 515 140T604 406L728 1248Q734 1284 705 1300T633 1322T556 1331Q525
1334 525 1352Q525 1374 536 1396T567 1419H1112Q1128 1419 1134 1402T1140 1372Q1140 1336 1100 1331Q1070 1328 1033 1321T967 1302T936 1267L817 439Q796 293 749 201T636 58T496 -11T346 -30Z" />
<glyph unicode="K" glyph-name="K" horiz-adv-x="1422" d="M67 0Q52 0 45 16T37 45Q37 63 44 74T74 88Q123 93 165 106T213 152L377 1234Q380 1252 377 1265Q368 1308 322 1318T236 1331Q205 1334 205 1353Q205 1374 216 1396T247 1419H742Q759 1419 765 1399T770
1368Q764 1335 730 1331Q681 1327 637 1314T587 1267L423 185Q417 142 441 123T501 98T568 88Q588 86 597 80T601 51Q599 40 589 20T562 0H67ZM1112 0Q1059 0 1030 22T978 70Q934 121 892 197T808 356T725 514T642 638T557 692L1098 1276Q1108 1286 1108 1295Q1108
1309 1088 1315T1042 1325T998 1330Q973 1333 973 1353Q973 1373 984 1395T1015 1418H1447Q1464 1418 1470 1398T1475 1367Q1467 1330 1434 1330Q1383 1330 1330 1317T1239 1263L797 782Q855 738 908 658T1012 486T1111 317Q1134 281 1172 229T1258 136T1350 89Q1371
87 1377 71T1379 32Q1377 21 1369 11T1344 0H1112Z" />
<glyph unicode="L" glyph-name="L" horiz-adv-x="1236" d="M21 45Q21 63 28 74T58 88Q107 93 156 106T211 152L379 1234Q386 1277 363 1296T304 1322T238 1331Q207 1334 207 1353Q207 1374 218 1396T249 1419H784Q814 1419 814 1390Q814 1368 803 1350T772 1331Q735
1331 694 1323T623 1295T586 1237L418 163Q412 127 437 114T494 101H794Q863 101 909 133T987 216T1044 327T1095 440Q1102 458 1115 465T1145 473Q1164 473 1180 465T1193 439L1092 0H51Q36 0 29 16T21 45Z" />
<glyph unicode="M" glyph-name="M" horiz-adv-x="1899" d="M1 0Q-13 0 -18 15T-23 43Q-23 63 -17 74T12 88Q50 91 94 97T173 123T214 184L418 1234Q419 1238 419 1245Q419 1283 386 1300T307 1323T227 1331Q195 1334 195 1355Q195 1381 208 1399T237 1419H751L964
376H976L1385 1246Q1410 1306 1428 1345T1458 1419H1918Q1935 1419 1940 1399T1945 1368Q1940 1335 1907 1331Q1875 1329 1835 1322T1766 1302T1733 1267L1663 175Q1661 137 1691 120T1763 97T1835 88Q1855 86 1862 80T1868 51Q1867 40 1857 20T1829 0H1254Q1238
0 1232 16T1225 46Q1225 64 1232 75T1261 88Q1294 91 1338 97T1417 117T1453 152L1530 1281H1501L900 0H850L551 1281H520L320 185Q319 181 319 173Q319 136 350 119T425 97T502 88Q522 86 529 80T535 51Q534 40 524 20T496 0H1Z" />
<glyph unicode="N" glyph-name="N" horiz-adv-x="1571" d="M17 0Q3 0 -3 14T-9 42Q-9 84 28 88Q60 91 99 98T168 122T204 172L382 1204Q383 1209 383 1219Q383 1257 358 1280T297 1316T234 1331Q189 1335 192 1368Q193 1379 205 1399T234 1419H586L1189 314H1201L1347
1234Q1348 1238 1348 1245Q1348 1283 1315 1300T1239 1323T1167 1331Q1136 1334 1136 1353Q1136 1374 1149 1396T1180 1419H1645Q1662 1419 1667 1399T1671 1368Q1665 1335 1631 1331Q1600 1328 1561 1322T1490 1296T1451 1234L1267 113Q1264 94 1264 82T1262 40Q1259
-2 1235 -16T1190 -30Q1174 -30 1155 -24T1130 -8L495 1178H478L313 165Q308 132 342 117T423 97T500 88Q517 86 524 82T532 63Q532 30 519 15T492 0H17Z" />
<glyph unicode="O" glyph-name="O" horiz-adv-x="1496" d="M721 -29Q534 -29 401 55T198 285T127 621Q127 786 179 935T328 1200T556 1382T849 1449Q1036 1449 1166 1369T1365 1145T1434 812Q1434 647 1383 496T1238 227T1012 40T721 -29ZM723 65Q857 65 947 132T1090
314T1165 567T1188 851Q1188 1009 1159 1122T1054 1295T841 1356Q706 1356 615 1289T470 1108T393 855T369 570Q369 414 400 301T508 126T723 65Z" />
<glyph unicode="P" glyph-name="P" horiz-adv-x="1249" d="M24 0Q7 0 0 20T-5 51Q-5 85 31 88Q80 92 130 105T184 152L335 1247Q335 1284 312 1301T255 1323T193 1331Q162 1334 162 1353Q162 1375 173 1397T204 1419H715Q996 1419 1118 1320T1240 1044Q1240 921
1187 829T1043 676T838 585T601 555H448L397 185Q391 142 425 123T508 97T595 88Q615 86 622 80T628 51Q626 40 616 20T589 0H24ZM459 635H606Q785 635 899 733T1013 1046Q1013 1132 984 1196T882 1295T674 1331H554L459 635Z" />
<glyph unicode="Q" glyph-name="Q" horiz-adv-x="1496" d="M1099 -419Q988 -419 887 -371T721 -236T656 -37Q656 -32 656 -26Q489 -11 371 75T190 302T127 621Q127 786 179 935T328 1200T556 1382T849 1449Q1036 1449 1166 1369T1365 1145T1434 812Q1434 668 1395
534T1282 288T1105 99T875 -11Q886 -77 932 -149T1074 -272T1330 -323V-383Q1330 -383 1281 -401T1099 -419ZM723 65Q857 65 947 132T1090 314T1165 567T1188 851Q1188 1009 1159 1122T1054 1295T841 1356Q706 1356 615 1289T470 1108T393 855T369 570Q369 414
400 301T508 126T723 65Z" />
<glyph unicode="R" glyph-name="R" horiz-adv-x="1437" d="M105 0Q91 0 85 14T79 42Q79 85 112 88Q161 93 206 105T255 152L391 1251Q396 1287 370 1302T309 1321T245 1331T217 1352Q217 1375 225 1397T259 1419H783Q984 1419 1098 1376T1260 1255T1307 1067Q1307
989 1271 916T1174 782T1041 684T897 636Q969 612 1012 543T1086 384T1155 209Q1183 146 1231 119T1341 89Q1371 88 1371 63Q1371 63 1370 47T1362 16T1335 0H1058Q1035 0 1012 21T977 66Q951 121 931 194T889 342T840 482T771 585T670 625H519L464 172Q464 135
489 118T551 96T616 88Q647 85 647 66Q647 63 645 47T636 16T610 0H105ZM529 711H717Q899 711 993 807T1087 1054Q1087 1160 1057 1220T952 1306T743 1332H607L529 711Z" />
<glyph unicode="S" glyph-name="S" horiz-adv-x="1149" d="M71 72Q85 143 95 220T110 364T116 471Q117 503 129 511T158 520Q182 520 198 509T214 478Q217 453 221 398T257 257Q296 149 383 102T570 54Q648 54 706 88T796 176T829 294Q829 380 790 443T687 558T548
658Q465 714 395 769T284 896T242 1075Q242 1198 300 1281T458 1406T677 1449Q763 1449 823 1431T930 1391Q932 1390 937 1389T955 1388Q980 1391 992 1401T1014 1422T1044 1432Q1063 1432 1077 1422T1092 1398Q1094 1379 1089 1328T1080 1213T1076 1087Q1075 1046
1061 1037T1030 1028Q1005 1028 993 1035T980 1050Q968 1200 890 1283T686 1366Q624 1366 567 1344T472 1274T435 1149Q435 1071 477 1012T582 905T711 816Q788 767 861 710T983 571T1031 369Q1031 261 975 170T816 25T570 -30Q431 -30 351 7T219 78Q211 83 204
77T186 61Q156 31 143 26T123 20Q92 20 81 35T71 72Z" />
<glyph unicode="T" glyph-name="T" horiz-adv-x="1267" d="M258 45Q258 63 265 74T295 88Q366 92 426 109T495 182L664 1331H425Q382 1331 344 1293T277 1200T228 1094T204 1019Q198 1000 182 993T150 986Q139 986 121 994T106 1020Q112 1069 125 1136T154 1268T183
1376T202 1419H1319Q1319 1319 1309 1220T1298 1020Q1295 1003 1271 995T1235 986Q1197 986 1200 1019Q1201 1043 1200 1094T1188 1199T1155 1292T1088 1331H871L703 185Q697 142 732 123T818 97T909 88Q929 86 938 80T942 51Q940 40 930 20T903 0H288Q273 0 266
16T258 45Z" />
<glyph unicode="U" glyph-name="U" horiz-adv-x="1549" d="M752 -29Q518 -29 383 78T247 417Q247 446 249 473T253 523L357 1256Q361 1292 337 1306T278 1324T216 1332T186 1352Q186 1374 197 1396T228 1419H753Q768 1419 773 1402T779 1369Q779 1334 741 1331Q706
1328 667 1322T600 1302T568 1267L467 543Q463 505 461 470T459 403Q459 247 537 156T764 65Q919 65 1010 124T1148 286T1210 521L1312 1233Q1317 1276 1279 1303T1173 1331Q1142 1331 1142 1352Q1142 1374 1153 1396T1184 1419H1580Q1596 1419 1600 1401T1605
1370Q1605 1332 1568 1331Q1503 1327 1459 1303T1410 1230L1311 523Q1279 223 1137 97T752 -29Z" />
<glyph unicode="V" glyph-name="V" horiz-adv-x="1365" d="M441 -18L185 1254Q176 1299 150 1313T91 1328T35 1331Q5 1334 5 1352Q5 1375 18 1397T48 1419H573Q590 1419 595 1399T599 1368Q593 1335 559 1331Q482 1328 450 1320T418 1283L609 165H620L1213 1257Q1220
1270 1220 1281Q1220 1305 1184 1318T1066 1331Q1039 1334 1039 1356Q1039 1379 1053 1399T1082 1419H1537Q1554 1419 1559 1399T1563 1368Q1560 1346 1551 1340T1520 1331Q1495 1329 1464 1328T1403 1312T1348 1254L630 -18H441Z" />
<glyph unicode="W" glyph-name="W" horiz-adv-x="1998" d="M417 -18L277 1254Q272 1299 247 1313T192 1328T137 1331Q106 1334 106 1353Q106 1374 119 1396T150 1419H665Q682 1419 687 1399T691 1368Q688 1352 680 1342T651 1331Q483 1331 489 1261L573 286H582L1143
1399H1251L1381 281H1388L1834 1267Q1838 1275 1838 1285Q1838 1311 1799 1321T1693 1331Q1666 1331 1666 1355Q1666 1379 1680 1399T1709 1419H2154Q2171 1419 2176 1399T2180 1368Q2176 1346 2167 1340T2137 1331Q2112 1329 2082 1329T2024 1314T1975 1254L1353
-18H1230L1103 1053H1090L540 -18H417Z" />
<glyph unicode="X" glyph-name="X" horiz-adv-x="1455" d="M-26 0Q-40 0 -46 15T-52 43Q-52 69 -40 77T-7 88Q26 92 78 99T179 165L646 684L346 1254Q329 1294 297 1309T231 1326T172 1331Q141 1334 141 1353Q141 1383 156 1401T188 1419H700Q714 1419 719 1406T724
1380Q724 1331 683 1331Q637 1331 605 1327T572 1300L797 839L1154 1257Q1169 1271 1169 1281Q1169 1303 1123 1317T1003 1331Q976 1331 976 1355Q976 1378 992 1398T1022 1419H1527Q1541 1419 1546 1406T1551 1379Q1551 1352 1540 1343T1507 1331Q1470 1327 1409
1319T1294 1254L840 758L1167 165Q1183 125 1213 110T1277 93T1330 88Q1360 85 1360 60Q1360 29 1347 15T1317 0H815Q799 0 794 12T788 36Q788 52 798 69T829 88Q875 91 906 95T938 122L694 613L323 162Q311 145 311 134Q311 115 350 103T496 88Q523 85 523 64Q523
47 510 24T480 0H-26Z" />
<glyph unicode="Y" glyph-name="Y" horiz-adv-x="1260" d="M249 43Q249 83 299 88Q333 91 371 92T439 105T475 152L539 534L220 1254Q193 1315 167 1326T105 1341Q74 1344 74 1368Q74 1392 87 1405T117 1419H611Q625 1419 631 1408T638 1386Q638 1370 625 1351T590
1331Q532 1331 485 1327T438 1297L705 639L1126 1258Q1138 1276 1138 1290Q1138 1309 1110 1320T1013 1331Q995 1331 986 1344T977 1372Q977 1381 988 1400T1019 1419H1424Q1441 1419 1446 1404T1450 1378Q1446 1356 1438 1350T1408 1341Q1371 1337 1337 1327T1258
1254L748 541L684 152Q684 116 714 104T786 92T863 88Q881 86 892 82T904 60Q904 43 891 22T862 0H277Q262 0 256 15T249 43Z" />
<glyph unicode="Z" glyph-name="Z" horiz-adv-x="1232" d="M1 34Q1 51 11 68T53 123L1032 1331H538Q501 1331 461 1291T385 1194T324 1087T293 1019Q283 986 249 986Q238 986 215 994T196 1020L270 1378Q275 1401 292 1410T325 1419H1277Q1311 1419 1311 1388Q1311
1366 1307 1355T1285 1323L275 83H763Q823 83 875 129T969 238T1035 357T1066 430Q1076 463 1110 463Q1121 463 1144 455T1164 429L1083 41Q1074 0 1021 0H35Q22 0 12 10T1 34Z" />
<glyph unicode="[" glyph-name="bracketleft" horiz-adv-x="768" d="M58 -313L337 1549H781L768 1453H514L261 -216H515L501 -313H58Z" />
<glyph unicode="\" glyph-name="backslash" horiz-adv-x="960" d="M663 -415H542L310 1625H433L663 -415Z" />
<glyph unicode="]" glyph-name="bracketright" horiz-adv-x="768" d="M748 1549L467 -313H23L36 -216H290L545 1453H291L305 1549H748Z" />
<glyph unicode="^" glyph-name="asciicircum" horiz-adv-x="1317" d="M144 300L748 1428H887L1215 300H1069L797 1270L308 300H144Z" />
<glyph unicode="_" glyph-name="underscore" horiz-adv-x="1317" d="M-112 -190H1224L1209 -296H-127L-112 -190Z" />
<glyph unicode="`" glyph-name="grave" horiz-adv-x="1024" d="M811 1101Q679 1238 586 1301T473 1386Q445 1416 445 1453Q445 1473 454 1493T485 1534Q522 1567 562 1567Q587 1567 608 1557T642 1531Q662 1509 718 1405T876 1159L811 1101Z" />
<glyph unicode="a" glyph-name="a" horiz-adv-x="1173" d="M357 -30Q251 -30 188 14T98 134T70 304Q70 430 120 555T256 784T453 950T684 1013Q772 1013 815 993T904 939Q929 953 960 975T1015 997Q1025 997 1033 991T1039 967L899 168Q897 154 897 147Q897 125
909 111T956 96Q977 96 1009 104T1056 113Q1065 113 1073 109T1081 83Q1081 71 1076 59T1056 41Q1007 19 942 3T821 -13Q701 -13 701 110Q701 118 708 163T725 263T741 355Q723 306 686 241T598 113T485 11T357 -30ZM413 107Q463 107 517 157T623 284T716 445T780
596L824 819Q809 861 781 889T687 918Q591 918 516 862T388 717T308 525T281 328Q281 212 318 160T413 107Z" />
<glyph unicode="b" glyph-name="b" horiz-adv-x="1134" d="M97 126L284 1368Q284 1404 258 1416T197 1435T139 1455Q132 1460 127 1466T121 1488Q121 1499 130 1518T153 1539Q233 1544 307 1545T431 1546H473Q481 1546 489 1539T498 1514Q498 1513 498 1511T497
1506L436 1104L377 815Q445 923 538 968T706 1013Q825 1013 894 958T992 813T1021 617Q1021 559 1013 492Q997 358 933 241T763 52T519 -20Q424 -20 335 5T182 64T97 126ZM372 719L290 173Q305 140 361 108T496 75Q593 75 657 129T758 277T807 492Q812 537 814
578T817 657Q817 767 783 831T650 895Q601 895 548 869T448 802T372 719Z" />
<glyph unicode="c" glyph-name="c" horiz-adv-x="929" d="M590 1014Q715 1014 801 960T888 787Q888 725 852 694T784 662Q755 662 739 666T714 705L660 914Q638 933 574 933Q498 933 432 865T323 669T281 360Q281 204 335 140T463 75Q549 75 615 111T750 215Q755
221 760 225T772 225L809 192Q814 188 814 183Q814 178 810 174T803 164Q736 79 647 26T432 -28Q254 -28 159 83T64 381Q64 516 108 631T228 832T398 966T590 1014Z" />
<glyph unicode="d" glyph-name="d" horiz-adv-x="1178" d="M394 -30Q273 -30 205 28T108 180T79 381Q79 507 116 620T221 822T384 962T591 1013Q680 1013 742 998T849 957L868 1104L896 1354Q897 1359 897 1368Q897 1404 866 1420T795 1442T730 1454Q710 1459
710 1483Q710 1490 711 1494Q713 1506 721 1521T742 1538Q809 1542 877 1543T1002 1545T1086 1546Q1095 1546 1104 1536T1111 1506L925 168Q923 154 923 147Q923 125 935 111T982 96Q1003 96 1035 104T1082 113Q1091 113 1099 109T1107 83Q1107 71 1102 59T1082
41Q1013 18 947 3T843 -13Q785 -13 758 6T722 50T714 92Q714 96 725 165Q681 94 622 51T503 -11T394 -30ZM450 88Q496 88 553 118T664 196T746 293L818 791Q797 850 733 884T594 918Q501 918 441 863T346 723T297 543T283 368Q283 300 296 236T346 130T450 88Z"
/>
<glyph unicode="e" glyph-name="e" horiz-adv-x="966" d="M896 800Q896 721 847 658T712 546T520 464T295 407V360Q295 204 351 140T482 75Q571 75 639 111T777 215Q782 221 787 225T799 225Q819 214 836 192Q841 185 841 183Q841 178 837 174T831 164Q764 79
673 25T453 -29Q272 -29 175 87T78 393Q78 525 123 638T244 836T416 967T613 1014Q723 1014 784 980T871 897T896 800ZM608 933Q498 933 409 815T299 484Q498 526 604 608T709 838Q708 885 677 909T608 933Z" />
<glyph unicode="f" glyph-name="f" horiz-adv-x="673" d="M-87 -442Q-181 -442 -213 -406T-246 -320Q-246 -260 -209 -233T-145 -206Q-141 -206 -136 -206T-128 -208L-48 -344Q-11 -342 24 -312T88 -204T137 20L249 892H102Q90 893 87 911T84 941Q84 960 94 970T114
984L262 992L274 1075Q292 1201 338 1315T467 1501T679 1573Q748 1573 786 1536T825 1440Q825 1401 804 1379T757 1349T712 1340Q701 1340 701 1343L620 1475Q590 1475 563 1448T512 1341T465 1107L449 994H681Q701 992 701 969Q701 951 695 924T677 892H435L329
56Q313 -71 261 -185T121 -370T-87 -442Z" />
<glyph unicode="g" glyph-name="g" horiz-adv-x="1173" d="M453 -480Q321 -480 217 -439T53 -329T-6 -176Q-4 -82 39 -23T167 69Q151 89 141 114T131 173Q133 265 185 316T323 393Q265 416 225 460T166 554T147 647Q149 818 267 916T594 1014Q783 1014 874 912Q902
947 960 980T1067 1014Q1135 1014 1165 981T1194 888Q1193 831 1164 805T1102 778Q1066 778 1047 805Q1028 827 1017 845T995 886Q989 900 959 886T908 860Q921 851 934 816T947 743Q946 638 897 551T752 411T516 359Q491 359 458 361T404 366Q364 357 330 321T295
251Q294 215 326 191T407 162L651 137Q810 121 890 70T971 -93Q971 -231 898 -316T707 -441T453 -480ZM525 456Q648 456 699 532T750 737Q750 812 706 868T573 924Q476 924 426 883T359 778T341 642Q341 566 387 511T525 456ZM463 -383Q555 -383 637 -364T771 -297T825
-165Q826 -112 780 -85T664 -45T526 -26L392 -12Q351 -7 309 0T232 24Q197 -3 187 -44T177 -142Q177 -231 219 -284T327 -360T463 -383Z" />
<glyph unicode="h" glyph-name="h" horiz-adv-x="1152" d="M66 0L273 1354Q274 1359 274 1369Q274 1405 253 1418T205 1436T159 1455Q141 1466 141 1495Q141 1507 151 1522T173 1539Q265 1545 345 1545T463 1546Q471 1546 480 1538T487 1506L411 1010L369 761Q395
790 437 832T535 916T656 986T791 1014Q915 1014 963 950T995 766L899 149Q899 127 912 112T960 96Q981 96 1012 104T1058 113Q1067 113 1075 109T1083 83Q1083 71 1078 59T1058 41Q989 18 926 3T825 -13Q767 -13 741 6T708 53T701 102L805 814Q805 837 789 855T713
874Q650 874 582 840T455 755T357 656L253 0H66Z" />
<glyph unicode="i" glyph-name="i" horiz-adv-x="609" d="M245 -13Q187 -13 162 6T130 53T123 102Q123 128 125 142L249 785Q250 793 250 799T251 812Q251 859 230 875T179 894T128 903Q118 908 113 916T110 943Q112 955 120 970T140 987Q238 993 319 995T442
997Q450 997 459 989T466 957L321 150Q321 126 333 111T380 96Q401 96 433 104T480 113Q489 113 497 109T505 83Q505 54 480 41Q441 22 384 5T245 -13ZM385 1183Q336 1183 310 1214T283 1294Q283 1362 324 1411T427 1461Q476 1461 502 1429T529 1348Q529 1281 488
1232T385 1183Z" />
<glyph unicode="j" glyph-name="j" horiz-adv-x="596" d="M-79 -449Q-167 -449 -209 -400T-252 -300Q-252 -265 -232 -238T-185 -194T-139 -178Q-96 -178 -88 -202L-36 -347Q-10 -346 15 -335T65 -285T112 -165T154 56L273 803Q273 852 247 869T186 890T127 903Q108
910 108 933Q108 949 117 967T139 987Q240 993 329 995T461 997Q469 997 477 989T485 957L350 88Q329 -49 271 -172T124 -372T-79 -449ZM409 1183Q360 1183 334 1214T307 1294Q307 1362 348 1411T451 1461Q500 1461 526 1429T553 1348Q553 1281 512 1232T409 1183Z"
/>
<glyph unicode="k" glyph-name="k" horiz-adv-x="1081" d="M399 742L347 503L752 848Q769 862 769 873Q769 889 738 894T671 903Q645 905 645 934Q645 954 658 972T687 990L1060 987Q1074 987 1081 974T1088 949Q1088 928 1077 914T1046 899Q1002 899 953 871T868
814L562 570Q608 536 654 468T747 320T844 170Q861 145 884 121T935 97Q956 97 977 102T1012 107Q1027 107 1032 96T1038 69Q1038 58 1033 45T1013 27Q880 -17 803 -17Q755 -17 726 -3T684 33Q646 100 604 183T518 345T425 475L340 405L281 0H94L302 1369Q302 1405
275 1418T214 1436T157 1455Q139 1466 139 1495Q139 1507 149 1522T171 1539Q272 1545 360 1545T491 1546Q499 1546 508 1538T515 1506L399 742Z" />
<glyph unicode="l" glyph-name="l" horiz-adv-x="584" d="M114 142Q117 163 128 238T157 423T193 659T231 908T265 1134T289 1300T299 1368Q299 1402 274 1415T217 1435T160 1450T135 1485Q135 1494 143 1515T167 1538Q268 1543 356 1545T488 1548Q496 1548 504
1542T513 1518Q513 1517 505 1459T482 1304T449 1086T412 836T374 586T342 366T319 209T310 147Q310 125 322 111T369 96Q390 96 422 104T469 113Q478 113 486 109T494 83Q494 71 489 59T469 41Q400 18 336 3T234 -13Q176 -13 151 6T119 53T112 102Q112 119 113
130T114 142Z" />
<glyph unicode="m" glyph-name="m" horiz-adv-x="1801" d="M1621 766L1529 175Q1527 159 1527 151Q1527 127 1539 112T1586 96Q1607 96 1639 104T1686 113Q1695 113 1703 109T1711 83Q1711 71 1706 59T1686 41Q1617 18 1553 3T1451 -13Q1393 -13 1368 6T1336 53T1329
102Q1329 119 1330 130T1331 142L1428 762Q1429 767 1429 778Q1429 807 1408 840T1309 873Q1221 873 1150 824T1026 722L916 0H722L840 762Q841 767 841 778Q841 807 820 840T721 873Q655 873 600 843T500 769T422 688L313 0H121L244 778Q247 795 247 807Q247 853
223 870T166 892T112 903Q93 912 93 933Q93 935 93 937T94 943Q94 955 103 970T124 987Q222 993 303 995T426 997Q434 997 443 989T450 957L424 785Q440 803 480 840T576 917T698 985T828 1014Q926 1014 980 978T1036 824Q1072 860 1134 904T1272 981T1419 1014Q1514
1014 1569 978T1625 823Q1625 793 1621 766Z" />
<glyph unicode="n" glyph-name="n" horiz-adv-x="1208" d="M1028 766L936 175Q934 159 934 151Q934 127 946 112T993 96Q1014 96 1046 104T1093 113Q1102 113 1110 109T1118 83Q1118 53 1093 41Q1025 9 960 -2T858 -13Q800 -13 775 6T743 53T736 102Q736 119 737
130T738 142L835 784Q837 792 837 798T837 810Q837 848 815 861T746 874Q691 874 629 846T511 775T423 689L314 0H122L243 778Q245 786 245 792T245 806Q245 853 221 870T165 892T111 903Q101 908 96 916T93 943Q95 955 103 970T123 987Q221 993 303 995T427 997Q435
997 445 989T451 957L425 785Q445 806 483 844T575 921T691 987T824 1014Q877 1014 924 999T1002 943T1032 821Q1032 808 1031 795T1028 766Z" />
<glyph unicode="o" glyph-name="o" horiz-adv-x="1100" d="M93 424Q93 533 129 638T234 828T398 963T613 1014Q753 1014 839 955T966 796T1006 568Q1006 407 944 271T767 54T490 -28Q354 -28 266 31T136 192T93 424ZM486 59Q570 59 628 107T722 237T774 417T790
617Q790 754 756 840T612 926Q528 926 470 878T375 750T323 573T306 376Q306 237 341 148T486 59Z" />
<glyph unicode="p" glyph-name="p" horiz-adv-x="1184" d="M-56 -426Q-72 -426 -77 -411T-83 -385Q-83 -352 -43 -348Q-18 -345 12 -340T65 -319T93 -269L245 778Q246 785 246 791T247 804Q247 852 223 869T167 891T113 903Q92 910 95 943Q97 955 105 970T125
987Q223 993 304 995T427 997Q435 997 443 991T452 967L429 810Q473 883 531 927T650 992T757 1013Q878 1013 946 959T1043 816T1072 618Q1072 492 1035 376T930 169T767 24T560 -30Q482 -30 425 -18T325 14L309 -108L273 -284Q270 -306 297 -318T366 -337T446
-348Q475 -351 475 -375Q475 -403 462 -414T434 -426H-56ZM557 65Q650 65 710 122T805 268T854 454T868 631Q868 699 855 759T805 857T701 895Q658 895 605 867T504 796T424 704L350 159Q380 115 436 90T557 65Z" />
<glyph unicode="q" glyph-name="q" horiz-adv-x="1137" d="M510 -444Q493 -444 488 -429T482 -403Q482 -369 520 -366Q576 -361 614 -348T657 -302L703 -29L737 197Q691 112 628 63T502 -8T392 -30Q271 -30 203 26T106 175T77 375Q77 501 120 615T238 819T413
961T626 1013Q731 1013 780 993T876 937Q900 957 925 978T959 1007Q980 1028 1007 1028Q1045 1028 1040 994L843 -296Q843 -341 871 -352T934 -366Q966 -369 966 -396Q966 -419 954 -431T925 -444H510ZM448 88Q493 88 550 120T661 204T747 310L818 784Q799 846
748 882T619 918Q526 918 462 862T357 720T299 538T281 362Q281 294 294 231T344 128T448 88Z" />
<glyph unicode="r" glyph-name="r" horiz-adv-x="945" d="M449 767Q466 788 494 828T564 911T657 984T775 1014Q858 1014 899 966T940 855Q940 817 925 774T875 701T779 671L703 867Q663 867 614 833T517 750T439 661L332 0H140L263 778Q266 795 266 807Q266 853
234 870T161 892T99 903Q80 912 80 933Q80 953 89 969T111 987Q222 993 317 995T454 997Q462 997 470 991T479 967Q479 967 470 920T449 767Z" />
<glyph unicode="s" glyph-name="s" horiz-adv-x="883" d="M397 -21Q243 -21 148 28T52 183Q52 225 80 253T157 282L304 89Q324 72 347 67T414 61Q446 61 483 77T545 129T567 220Q563 294 505 341T369 441Q317 476 268 521T186 623T154 750Q154 833 191 884T284
964T398 1002T500 1013Q655 1013 728 964T806 842Q808 812 790 790T746 755T701 743L567 911Q545 934 491 934Q452 934 412 921T347 877T323 795Q326 737 374 689T502 590Q563 552 620 507T714 405T751 278Q751 174 698 108T564 11T397 -21Z" />
<glyph unicode="t" glyph-name="t" horiz-adv-x="711" d="M296 -21Q253 -21 212 -8T143 44T116 156Q116 171 117 188T121 223L238 892H127Q117 893 113 906T109 931Q109 955 118 967T140 984Q197 989 241 1015T325 1102T406 1268Q415 1291 445 1291H480Q500 1291
500 1276L449 994H690Q710 992 710 968Q710 950 700 924T676 892H435L328 292Q324 270 323 251T322 216Q322 141 348 122T405 103Q446 103 481 116T540 143T571 157Q580 157 590 143T600 114Q600 101 592 93Q541 42 455 11T296 -21Z" />
<glyph unicode="u" glyph-name="u" horiz-adv-x="1178" d="M406 -28Q342 -28 284 -12T190 50T154 189Q154 222 160 262L243 822Q244 829 244 840Q244 873 227 883T185 894Q164 894 141 889T104 883Q80 883 75 912Q73 923 80 937T104 957Q240 1007 310 1007Q368
1007 396 987T434 940T444 889Q444 873 442 863T440 852L352 243Q351 232 350 221T348 198Q348 155 372 124T466 93Q553 93 617 128T725 201L832 993L997 994Q1030 994 1030 966L914 151Q914 127 926 112T973 96Q994 96 1026 104T1073 113Q1082 113 1090 109T1098
83Q1098 71 1093 59T1073 41Q1004 18 940 3T838 -13Q780 -13 755 6T723 53T716 102V115Q687 84 637 51T526 -5T406 -28Z" />
<glyph unicode="v" glyph-name="v" horiz-adv-x="1102" d="M430 -16Q384 -16 379 2T375 26Q377 55 378 60T379 73T376 110Q365 243 340 381T279 641T203 840Q187 867 163 867Q139 867 115 844T74 801Q59 781 49 781Q36 781 26 795T15 826Q15 840 22 851Q71 930
136 972T260 1015Q361 1015 405 905Q449 796 487 628T535 211Q536 193 519 156T496 99Q559 169 621 253T734 425T815 597T846 750Q846 801 833 838T819 906Q819 962 848 988T918 1014Q983 1014 1013 967T1044 863Q1044 784 984 645T804 336T510 -10Q506 -14 490
-15T430 -16Z" />
<glyph unicode="w" glyph-name="w" horiz-adv-x="1684" d="M429 -30Q382 -30 377 -12T373 12Q373 12 374 22T376 54Q376 152 364 263T331 484T280 687T215 840Q207 854 193 860T167 867Q117 867 84 825Q69 805 59 805Q44 805 35 818T25 850Q25 865 31 875Q82 955
139 982T252 1010Q329 1010 380 938T463 747T510 484T532 197Q532 179 517 142T496 85Q585 173 671 284T819 509T893 716Q889 760 880 796T854 862Q850 870 840 872T821 875Q802 875 770 856T728 825Q708 805 692 805Q675 805 670 819T664 845Q664 850 664 855T667
866Q694 912 737 944T828 993T910 1010Q990 1010 1032 941T1092 754T1115 492T1125 197Q1125 179 1108 142T1085 85Q1150 155 1215 241T1334 418T1422 595T1455 750Q1455 801 1442 834T1428 899Q1428 955 1457 982T1522 1010Q1588 1010 1622 961T1657 856Q1657
777 1595 637T1410 324T1109 -24Q1103 -30 1017 -30Q970 -30 965 -12T961 12Q961 12 962 22T964 54Q964 141 960 225T949 379T939 486Q787 238 521 -24Q515 -30 429 -30Z" />
<glyph unicode="x" glyph-name="x" horiz-adv-x="1026" d="M101 -25Q56 -25 18 17T-20 119Q-19 182 7 216T58 251Q78 251 90 229L141 129L435 478L302 829Q291 859 261 859Q222 859 180 815Q140 773 133 764T114 754Q104 754 92 762T79 784Q79 792 83 802T93 823Q138
906 206 955T351 1004Q404 1004 442 972T498 864L560 604L744 891Q784 953 826 978T906 1004Q971 1004 998 950T1025 837Q1024 779 1001 750T954 720Q929 720 916 745L863 850L586 513L730 142Q739 118 765 118Q797 118 829 150T879 211Q887 225 902 225Q916 225
926 213T937 185Q937 178 932 166Q891 70 824 21T679 -28Q627 -28 593 5T538 112L463 391L261 84Q221 23 180 -1T101 -25Z" />
<glyph unicode="y" glyph-name="y" horiz-adv-x="1146" d="M71 -449Q-5 -449 -30 -422T-55 -373Q-55 -320 -9 -299T95 -278Q179 -278 229 -276T320 -236Q371 -191 402 -158T459 -91T522 -9Q459 -9 428 -4T396 33Q396 186 373 339T313 624T233 840Q220 867 196
867Q171 867 145 843T104 801Q88 780 78 780Q66 780 56 794T45 824Q45 837 52 851Q100 934 168 974T284 1015Q333 1015 368 994T433 905Q462 839 485 744T524 538T551 319T566 115Q567 97 567 82T567 55Q621 125 674 213T772 395T844 581T871 750Q871 798 865 829T859
904Q859 965 888 989T955 1014Q1022 1014 1048 968T1075 863Q1075 745 1006 596T820 270T560 -105Q508 -178 436 -258T273 -393T71 -449Z" />
<glyph unicode="z" glyph-name="z" horiz-adv-x="909" d="M27 0Q-4 0 -4 34Q-4 56 8 69T52 123L569 796L675 911H426Q382 911 344 875T280 794T249 725Q245 706 230 699T198 692Q187 692 168 700T152 726L197 953Q201 971 218 982T250 994H853Q903 994 903 960Q903
937 891 920T865 881L365 219L241 83H519Q557 83 592 108T657 170T706 241T730 294Q739 327 772 327Q783 327 806 319T827 293L768 41Q766 22 749 12T716 0H27Z" />
<glyph unicode="{" glyph-name="braceleft" horiz-adv-x="881" d="M233 -16L293 371Q294 378 294 384T295 398Q295 469 240 515T98 562H68L84 672H114Q208 672 281 726T366 863L424 1250Q436 1333 479 1390T581 1483T703 1533T818 1549H931L917 1462H804Q750 1462
714 1436T658 1370T631 1293L568 886Q549 764 448 700T214 616Q329 597 410 544T492 387Q492 369 489 348L425 -59Q422 -77 422 -94Q422 -144 446 -185T540 -226H662L648 -313H526Q462 -313 393 -290T277 -212T229 -65Q229 -39 233 -16Z" />
<glyph unicode="|" glyph-name="bar" horiz-adv-x="768" d="M258 -367V1535H403V-367H258Z" />
<glyph unicode="}" glyph-name="braceright" horiz-adv-x="881" d="M693 1250L632 863Q631 856 631 849T630 835Q630 764 683 718T821 672H851L834 562H804Q710 562 642 508T561 371L503 -16Q490 -99 447 -156T345 -249T223 -299T108 -315H-5L9 -228H121Q175 -228
211 -202T267 -136T293 -59L355 348Q374 470 473 534T705 618Q590 638 511 691T432 847Q432 865 435 886L499 1293Q501 1301 501 1310T501 1327Q501 1377 475 1419T379 1462H266L280 1549H393Q458 1549 528 1525T648 1447T697 1301Q697 1274 693 1250Z" />
<glyph unicode="~" glyph-name="asciitilde" horiz-adv-x="1317" d="M1090 639Q1068 587 1033 535T949 449T840 414Q764 414 710 444T594 505Q530 535 480 535Q426 535 393 509T339 454T300 417Q284 414 266 437T247 483Q247 503 252 511Q280 556 318 603T405
683T512 716Q584 716 631 686T737 625Q802 594 854 594Q910 594 946 621T1006 677T1048 714Q1058 716 1077 699T1096 669Q1096 657 1095 652T1090 639Z" />
<glyph unicode="&#xa0;" glyph-name="uni00A0" horiz-adv-x="494" />
<glyph unicode="&#xa1;" glyph-name="exclamdown" horiz-adv-x="678" d="M628 1398Q628 1336 589 1294T484 1251Q426 1251 395 1287T363 1376Q363 1442 405 1485T508 1528Q566 1528 597 1490T628 1398ZM487 1068Q451 632 443 397T426 111Q417 53 374 13T274 -28Q225
-28 194 5T162 88Q162 87 176 142T214 288T266 489T322 710T372 915T407 1068H487Z" />
<glyph unicode="&#xa2;" glyph-name="cent" horiz-adv-x="1137" d="M554 -202Q534 -227 515 -236T481 -246Q462 -246 451 -236T439 -218Q439 -211 447 -209L470 -24Q322 -3 245 105T167 381Q167 510 208 621T320 818T478 954T661 1013L686 1206Q704 1221 721 1226T752
1232Q773 1232 786 1224T800 1209Q800 1204 792 1204L767 1009Q864 995 927 941T991 787Q991 725 955 694T887 662Q858 662 842 666T817 705L763 914Q741 933 677 933Q602 933 535 865T426 669T384 360Q384 204 438 140T566 75Q652 75 718 111T853 215Q858 221
863 225T875 225L912 192Q917 188 917 183Q917 178 913 174T906 164Q845 86 765 34T576 -26L554 -202Z" />
<glyph unicode="&#xa3;" glyph-name="sterling" horiz-adv-x="1274" d="M72 -10Q47 -10 10 10T-27 76Q-27 128 16 158T120 202T233 213Q247 237 261 315T289 536L316 709H150Q140 710 136 725T132 753Q132 775 142 793T165 816H333L342 871Q387 1147 516 1297T889
1448Q988 1448 1048 1421T1136 1354T1164 1276Q1164 1233 1143 1204T1082 1175Q1071 1175 1054 1180T1029 1195L951 1334Q933 1353 899 1359T845 1366Q767 1366 712 1323T618 1176T548 893L535 816H874Q893 815 893 789Q893 771 882 743T859 709H516L498 603Q473
455 421 348T331 196Q398 177 460 152T598 107T783 88Q874 88 934 119T1015 199L970 350Q973 371 996 389T1068 408Q1132 408 1166 360T1200 251Q1200 152 1145 94T1004 10T826 -16Q701 -16 611 4T457 51T351 98T277 119Q262 102 235 71T168 15T72 -10Z" />
<glyph unicode="&#xa4;" glyph-name="currency" horiz-adv-x="1170" d="M270 555Q270 662 322 747L147 925L239 1011L408 840Q492 899 603 899Q712 899 794 841L961 1011L1053 925L879 749Q930 664 930 555Q930 447 878 362L1053 184L961 99L793 270Q710 211 599
211Q489 211 407 269L239 99L147 184L321 362Q270 447 270 555ZM787 555Q787 671 737 728T598 786Q509 786 461 729T412 555Q412 439 462 382T601 324Q690 324 738 381T787 555Z" />
<glyph unicode="&#xa5;" glyph-name="yen" horiz-adv-x="1259" d="M308 0Q291 0 284 10T278 31Q284 64 317 68Q351 71 390 77T459 100T495 152L520 302H162Q142 304 142 327Q142 344 151 371T173 404H534L568 635H197Q177 637 177 660Q177 677 186 704T209 737H561L278
1254Q253 1316 212 1331T133 1351Q103 1354 103 1373Q103 1397 115 1408T144 1419H656Q673 1419 679 1409T684 1388Q679 1355 644 1351Q602 1349 561 1343T491 1326T463 1297L703 806L1144 1301Q1144 1322 1111 1335T1024 1351Q997 1354 997 1377Q997 1398 1009
1408T1038 1419H1403Q1420 1419 1426 1409T1431 1388Q1427 1366 1419 1360T1388 1351Q1351 1347 1323 1330T1247 1254L764 737H1117Q1137 735 1137 712Q1137 695 1128 668T1105 635H733L698 404H1081Q1102 402 1102 378Q1102 363 1093 335T1070 302H683L658 151Q658
115 691 98T767 76T841 68Q872 65 872 46Q872 0 833 0H308Z" />
<glyph unicode="&#xa6;" glyph-name="brokenbar" horiz-adv-x="768" d="M258 765V1535H403V765H258ZM258 -369V401H403V-369H258Z" />
<glyph unicode="&#xa7;" glyph-name="section" horiz-adv-x="1024" d="M347 -360Q283 -360 231 -334T147 -271T115 -199Q115 -161 135 -139T183 -106T231 -96L363 -271Q447 -267 500 -217T554 -81Q554 -34 521 15T440 118T346 227Q287 301 243 387T199 560Q199
670 237 756T395 899Q337 997 337 1108Q337 1206 384 1283T512 1404T694 1449Q758 1449 808 1424T886 1359T915 1278Q915 1242 894 1220T845 1187T796 1176L665 1356Q588 1352 537 1299T486 1160Q486 1102 532 1041T639 913Q715 831 778 728T841 519Q841 409 795
322T644 179Q672 131 687 81T702 -24Q702 -175 604 -267T347 -360ZM586 265Q634 310 643 359T652 464Q652 516 637 553T599 622Q566 671 527 717T453 812Q404 768 396 719T388 613Q388 562 403 526T441 457Q474 408 512 361T586 265Z" />
<glyph unicode="&#xa8;" glyph-name="dieresis" horiz-adv-x="1024" d="M301 1384Q310 1443 343 1480T432 1518Q479 1518 502 1490T526 1416Q526 1401 523 1384Q514 1326 481 1288T392 1250Q345 1250 322 1278T298 1351Q298 1368 301 1384ZM726 1384Q735 1443
768 1480T857 1518Q904 1518 927 1490T951 1416Q951 1401 948 1384Q939 1326 906 1288T817 1250Q770 1250 747 1278T723 1351Q723 1368 726 1384Z" />
<glyph unicode="&#xa9;" glyph-name="copyright" horiz-adv-x="1929" d="M977 -281Q792 -281 630 -212T345 -19T153 266T83 613Q83 798 152 960T345 1246T630 1438T977 1508Q1162 1508 1324 1439T1610 1246T1802 961T1872 613Q1872 428 1803 266T1610 -19T1325
-211T977 -281ZM977 -201Q1144 -201 1289 -137T1546 39T1719 299T1782 613Q1782 780 1720 927T1546 1187T1290 1364T977 1428Q811 1428 665 1364T409 1187T236 927T173 613Q173 447 235 300T408 40T665 -137T977 -201ZM1016 122Q553 122 553 622Q553 789 615 896T785
1054T1025 1105Q1063 1105 1116 1096T1221 1059T1308 979Q1335 938 1346 904T1357 844Q1357 805 1338 784T1294 763Q1242 763 1220 792T1183 855Q1167 888 1160 921T1134 976Q1134 976 1109 994T1040 1013Q959 1013 890 981T779 862T736 612Q736 491 762 414T831
292T922 231T1012 213Q1067 213 1121 228T1218 287T1278 414Q1279 420 1281 427T1292 435L1364 436Q1377 436 1378 428T1380 412Q1376 308 1323 244T1188 151T1016 122Z" />
<glyph unicode="&#xaa;" glyph-name="ordfeminine" horiz-adv-x="1024" d="M390 612Q273 612 212 682T155 876Q160 986 200 1091T314 1282T492 1419T729 1470Q835 1470 896 1409Q955 1444 966 1451T981 1458Q1002 1458 1002 1433Q1002 1428 993 1380T968 1260T935
1105T902 949T877 824T867 763Q867 719 891 719Q902 719 931 725T989 739Q1000 739 1005 726T1010 697Q1010 684 1004 679Q997 674 965 658T889 627T799 612Q743 612 721 641T699 710Q699 725 703 752T711 803T715 833Q688 788 640 737T528 649T390 612ZM428 733Q499
733 557 776T661 880T737 993L811 1313Q797 1347 769 1361T712 1376Q598 1376 511 1307T375 1125T326 887Q326 805 355 769T428 733Z" />
<glyph unicode="&#xab;" glyph-name="guillemotleft" horiz-adv-x="1190" d="M547 15L74 450L91 569L684 986L663 840L270 499L568 139L547 15ZM1039 15L566 450L583 569L1176 986L1155 840L762 499L1060 139L1039 15Z" />
<glyph unicode="&#xac;" glyph-name="logicalnot" horiz-adv-x="1317" d="M944 125V496H152V622H1090V125H944Z" />
<glyph unicode="&#xad;" glyph-name="uni00AD" horiz-adv-x="0" />
<glyph unicode="&#xae;" glyph-name="registered" horiz-adv-x="1929" d="M977 -281Q792 -281 630 -212T345 -19T153 266T83 613Q83 798 152 960T345 1246T630 1438T977 1508Q1162 1508 1324 1439T1610 1246T1802 961T1872 613Q1872 428 1803 266T1610 -19T1325
-211T977 -281ZM977 -201Q1144 -201 1289 -137T1546 39T1719 299T1782 613Q1782 780 1720 927T1546 1187T1290 1364T977 1428Q811 1428 665 1364T409 1187T236 927T173 613Q173 447 235 300T408 40T665 -137T977 -201ZM598 136Q587 136 582 148T576 167Q576 177
580 188T597 201Q629 203 657 212T686 243V981Q686 1023 655 1032T593 1044Q580 1046 575 1050T570 1069Q570 1089 592 1089H999Q1092 1089 1167 1067T1286 992T1331 847Q1331 744 1260 691T1084 608Q1152 602 1190 568T1252 483T1295 378T1343 278Q1365 235 1389
220T1439 201Q1472 197 1472 167Q1472 160 1467 148T1450 136H1307Q1253 136 1220 167T1168 247T1133 352T1100 456T1054 537T976 568H842V264Q842 222 880 213T954 201Q978 198 978 167Q978 160 973 148T956 136H598ZM842 645H934Q988 645 1041 657T1129 708T1164
827Q1164 907 1137 946T1061 999T949 1012H842V645Z" />
<glyph unicode="&#xaf;" glyph-name="overscore" horiz-adv-x="1221" d="M62 1242L83 1383H670L649 1242H62Z" />
<glyph unicode="&#xb0;" glyph-name="degree" horiz-adv-x="859" d="M115 1113Q115 1264 211 1357T458 1450Q610 1450 702 1357T795 1113Q795 962 701 868T454 774Q303 774 209 868T115 1113ZM257 1113Q257 998 312 941T456 884Q545 884 599 941T653 1113Q653
1228 598 1284T453 1340Q364 1340 311 1284T257 1113Z" />
<glyph unicode="&#xb1;" glyph-name="plusminus" horiz-adv-x="1317" d="M198 0V126H570V492H178V618H570V1032H716V618H1105V492H716V126H1085V0H198Z" />
<glyph unicode="&#xb2;" glyph-name="uni00B2" horiz-adv-x="1024" d="M161 760L166 782Q171 804 188 818Q288 875 391 953T582 1122T723 1312T777 1511Q777 1567 744 1621T631 1676Q556 1676 518 1651T461 1583T420 1490Q411 1469 396 1452T350 1435Q322 1435
291 1451T259 1509Q259 1538 284 1580Q308 1620 362 1656T492 1716T653 1740Q806 1740 893 1667T980 1482Q980 1394 931 1309T800 1148T624 1008T436 901H928L897 760H161Z" />
<glyph unicode="&#xb3;" glyph-name="uni00B3" horiz-adv-x="1024" d="M488 739Q414 739 341 761T220 826T171 934Q171 1002 217 1041T301 1081Q332 1081 357 1065T374 1023L312 888Q316 879 332 859T385 821T484 803Q609 803 682 876T755 1067Q755 1139 718 1173T627
1217T525 1228H468Q461 1228 461 1247Q461 1266 467 1285T480 1304H532Q598 1304 655 1332T747 1410T782 1528Q782 1561 771 1595T729 1652T641 1676Q576 1676 547 1657T493 1604Q480 1576 469 1548T448 1498Q423 1444 376 1444Q346 1444 318 1462T289 1517Q289
1587 349 1637T498 1714T672 1741Q818 1741 905 1687T993 1537Q993 1459 948 1404T833 1316T685 1270Q759 1270 825 1250T932 1188T973 1077Q973 967 904 892T725 778T488 739Z" />
<glyph unicode="&#xb4;" glyph-name="acute" horiz-adv-x="1024" d="M206 1101L155 1159Q257 1257 313 1337T396 1439Q414 1454 437 1464T486 1475Q527 1475 553 1442Q572 1418 572 1389Q572 1361 557 1337T521 1294Q503 1278 455 1254T341 1193T206 1101Z" />
<glyph unicode="&#xb5;" glyph-name="uni00B5" horiz-adv-x="1179" d="M100 -446Q52 -446 29 -415T6 -338Q6 -322 17 -268T46 -140T84 16T122 171T153 295T167 358L235 852Q235 902 203 913T137 928Q105 931 105 952Q105 974 116 985T144 996H407Q440 996 440
968Q440 968 434 921T417 798T395 636T373 471T355 337T345 269Q345 239 357 203T407 140T519 113Q594 113 650 160T753 260L835 851Q835 901 802 913T735 928Q703 931 703 952Q703 974 714 985T742 996H1005Q1038 996 1038 968Q1038 966 1030 911T1010 769T984
585T958 398T938 249T930 180Q930 133 953 116T1007 94T1063 83Q1083 74 1083 52Q1083 39 1075 25T1053 9Q953 4 872 2T746 -1Q738 -1 730 8T722 39L735 131Q717 99 674 62T576 -1T469 -27Q376 -27 318 9T224 111Q220 11 226 -94T232 -274Q232 -344 197 -395T100
-446Z" />
<glyph unicode="&#xb6;" glyph-name="paragraph" horiz-adv-x="1024" d="M79 -287Q65 -287 60 -273T54 -246Q60 -217 66 -210T99 -199Q131 -196 167 -190T232 -165T269 -102L399 575Q278 610 205 699T132 915Q132 1065 201 1179T391 1357T663 1421L1186 1419Q1200
1419 1205 1405T1211 1378Q1211 1350 1200 1342T1167 1331Q1121 1327 1080 1313T1026 1234L782 -135Q775 -168 821 -181T916 -199Q942 -202 942 -224Q942 -246 927 -266T897 -287H605L892 1302H672L385 -287H79Z" />
<glyph unicode="&#xb7;" glyph-name="middot" horiz-adv-x="572" d="M176 589Q176 651 216 694T321 738Q380 738 410 700T440 607Q440 542 399 500T298 457Q232 457 204 496T176 589Z" />
<glyph unicode="&#xb8;" glyph-name="cedilla" horiz-adv-x="462" d="M54 -488Q-16 -488 -62 -473T-133 -439Q-144 -431 -134 -417Q-123 -402 -112 -384T-93 -356Q-83 -344 -70 -349Q-54 -355 -26 -364T48 -374Q102 -374 141 -345T180 -271Q180 -239 143 -214T39
-191L105 18H222L162 -130Q251 -137 298 -175T346 -271Q346 -321 313 -371T215 -454T54 -488Z" />
<glyph unicode="&#xb9;" glyph-name="uni00B9" horiz-adv-x="1024" d="M241 760Q228 760 225 773T222 794Q222 805 230 821T253 838Q274 840 315 843T400 851T476 863T510 882L632 1574Q579 1532 495 1503T348 1473Q333 1473 321 1503T312 1558Q315 1574 324 1587T354
1601Q375 1603 421 1608T523 1626T633 1661T725 1718H843L702 903Q698 882 724 870T790 851T866 842T921 838Q937 837 940 829T943 809Q943 799 937 780T919 760H241Z" />
<glyph unicode="&#xba;" glyph-name="ordmasculine" horiz-adv-x="1024" d="M491 612Q378 612 301 662T183 795T143 981Q143 1110 201 1221T364 1401T607 1470Q776 1470 863 1367T950 1112Q950 984 893 870T733 684T491 612ZM504 698Q583 698 633 745T710 865T748
1017T759 1159Q759 1266 719 1324T589 1383Q510 1383 460 1338T381 1222T342 1074T331 932Q331 823 373 761T504 698Z" />
<glyph unicode="&#xbb;" glyph-name="guillemotright" horiz-adv-x="1190" d="M520 15L541 161L934 502L636 862L657 986L1130 551L1113 432L520 15ZM28 15L49 161L442 502L144 862L165 986L638 551L621 432L28 15Z" />
<glyph unicode="&#xbc;" glyph-name="onequarter" horiz-adv-x="2342" d="M202 503Q189 503 186 516T183 537Q183 548 191 564T214 581Q235 583 276 586T361 594T437 606T471 625L593 1317Q540 1275 456 1246T309 1216Q294 1216 282 1246T273 1301Q276 1317 285
1330T315 1344Q336 1346 382 1351T484 1369T594 1404T686 1461H804L663 646Q659 625 685 613T751 594T827 585T882 581Q898 580 901 572T904 552Q904 542 898 523T880 503H202ZM906 0H761L1497 1419H1644L906 0ZM1846 0L1881 205H1384Q1377 205 1372 219T1369 250Q1372
274 1386 292L1769 953Q1794 980 1838 980Q1871 980 1905 962T1962 918T1981 874L1536 303H1896L1947 554L2115 568L2072 303H2225L2201 205H2057L2023 0H1846Z" />
<glyph unicode="&#xbd;" glyph-name="onehalf" horiz-adv-x="2342" d="M202 503Q189 503 186 516T183 537Q183 548 191 564T214 581Q235 583 276 586T361 594T437 606T471 625L593 1317Q540 1275 456 1246T309 1216Q294 1216 282 1246T273 1301Q276 1317 285 1330T315
1344Q336 1346 382 1351T484 1369T594 1404T686 1461H804L663 646Q659 625 685 613T751 594T827 585T882 581Q898 580 901 572T904 552Q904 542 898 523T880 503H202ZM906 0H761L1497 1419H1644L906 0ZM1365 0L1370 22Q1375 44 1392 58Q1492 115 1595 193T1786
362T1927 552T1981 751Q1981 807 1948 861T1835 916Q1760 916 1722 891T1665 823T1624 730Q1615 709 1600 692T1554 675Q1526 675 1495 691T1463 749Q1463 778 1488 820Q1512 860 1566 896T1696 956T1857 980Q2010 980 2097 907T2184 722Q2184 634 2135 549T2004
388T1828 248T1640 141H2132L2101 0H1365Z" />
<glyph unicode="&#xbe;" glyph-name="threequarters" horiz-adv-x="2342" d="M449 480Q375 480 302 502T181 567T132 675Q132 743 178 782T262 822Q293 822 318 806T335 764L273 629Q277 620 293 600T346 562T445 544Q570 544 643 617T716 808Q716 880 679 914T588
958T486 969H429Q422 969 422 988Q422 1007 428 1026T441 1045H493Q559 1045 616 1073T708 1151T743 1269Q743 1302 732 1336T690 1393T602 1417Q537 1417 508 1398T454 1345Q441 1317 430 1289T409 1239Q384 1185 337 1185Q307 1185 279 1203T250 1258Q250 1328
310 1378T459 1455T633 1482Q779 1482 866 1428T954 1278Q954 1200 909 1145T794 1057T646 1011Q720 1011 786 991T893 929T934 818Q934 708 865 633T686 519T449 480ZM906 0H761L1497 1419H1644L906 0ZM1846 0L1881 205H1384Q1377 205 1372 219T1369 250Q1372
274 1386 292L1769 953Q1794 980 1838 980Q1871 980 1905 962T1962 918T1981 874L1536 303H1896L1947 554L2115 568L2072 303H2225L2201 205H2057L2023 0H1846Z" />
<glyph unicode="&#xbf;" glyph-name="questiondown" horiz-adv-x="980" d="M799 1406Q799 1343 752 1297T639 1251Q584 1251 550 1285T516 1368Q516 1430 565 1479T678 1528Q732 1528 765 1492T799 1406ZM685 1131L666 1006Q652 903 613 831T522 705T421 603T333
501T285 371Q283 351 281 330T279 285Q279 231 293 181T345 98T453 65Q517 65 559 89T623 137T645 161L719 421Q727 444 747 451T799 459Q828 459 860 427T893 336Q893 266 853 202T747 88T601 9T443 -20Q309 -20 225 24T102 142T63 306Q63 342 69 378Q82 460 132
526T251 649T386 763T500 880T555 1016L573 1131H685Z" />
<glyph unicode="&#xc0;" glyph-name="Agrave" horiz-adv-x="1374" d="M973 132L911 447H416L245 132Q242 127 242 118Q242 95 284 93T387 88Q406 86 412 77T419 51Q418 40 409 20T382 0H-71Q-87 0 -92 20T-97 51Q-97 74 -90 80T-61 88Q-36 91 -1 91T69 106T125
165L820 1440H913L1190 165Q1202 121 1228 107T1284 92T1332 88Q1352 85 1359 80T1367 51Q1366 40 1357 20T1330 0H824Q807 0 800 20T793 51Q791 84 827 88Q890 92 932 93T975 121Q975 124 973 132ZM779 1114L464 535H893L779 1114ZM1055 1526Q923 1663 831 1726T717
1811Q689 1841 689 1878Q689 1898 698 1919T729 1959Q766 1992 806 1992Q831 1992 852 1982T886 1956Q906 1934 962 1830T1120 1584L1055 1526Z" />
<glyph unicode="&#xc1;" glyph-name="Aacute" horiz-adv-x="1374" d="M973 132L911 447H416L245 132Q242 127 242 118Q242 95 284 93T387 88Q406 86 412 77T419 51Q418 40 409 20T382 0H-71Q-87 0 -92 20T-97 51Q-97 74 -90 80T-61 88Q-36 91 -1 91T69 106T125
165L820 1440H913L1190 165Q1202 121 1228 107T1284 92T1332 88Q1352 85 1359 80T1367 51Q1366 40 1357 20T1330 0H824Q807 0 800 20T793 51Q791 84 827 88Q890 92 932 93T975 121Q975 124 973 132ZM779 1114L464 535H893L779 1114ZM777 1526L730 1584Q874 1726
961 1830T1076 1956Q1094 1971 1117 1981T1166 1992Q1207 1992 1233 1959Q1252 1935 1252 1906Q1252 1878 1237 1853T1201 1811Q1174 1789 1063 1726T777 1526Z" />
<glyph unicode="&#xc2;" glyph-name="Acircumflex" horiz-adv-x="1374" d="M973 132L911 447H416L245 132Q242 127 242 118Q242 95 284 93T387 88Q406 86 412 77T419 51Q418 40 409 20T382 0H-71Q-87 0 -92 20T-97 51Q-97 74 -90 80T-61 88Q-36 91 -1 91T69 106T125
165L820 1440H913L1190 165Q1202 121 1228 107T1284 92T1332 88Q1352 85 1359 80T1367 51Q1366 40 1357 20T1330 0H824Q807 0 800 20T793 51Q791 84 827 88Q890 92 932 93T975 121Q975 124 973 132ZM779 1114L464 535H893L779 1114ZM535 1545L832 1893Q852 1914
875 1929T935 1944Q972 1944 990 1927T1021 1884L1215 1545H1102L908 1766L653 1545H535Z" />
<glyph unicode="&#xc3;" glyph-name="Atilde" horiz-adv-x="1374" d="M973 132L911 447H416L245 132Q242 127 242 118Q242 95 284 93T387 88Q406 86 412 77T419 51Q418 40 409 20T382 0H-71Q-87 0 -92 20T-97 51Q-97 74 -90 80T-61 88Q-36 91 -1 91T69 106T125
165L820 1440H913L1190 165Q1202 121 1228 107T1284 92T1332 88Q1352 85 1359 80T1367 51Q1366 40 1357 20T1330 0H824Q807 0 800 20T793 51Q791 84 827 88Q890 92 932 93T975 121Q975 124 973 132ZM779 1114L464 535H893L779 1114ZM1013 1533Q953 1533 907 1564T818
1625T724 1656Q693 1656 671 1634T633 1589T606 1566Q590 1566 575 1584T560 1624Q560 1651 588 1692T664 1766T771 1799Q827 1799 873 1769T964 1707T1060 1676Q1091 1676 1113 1698T1152 1743T1178 1766Q1194 1766 1210 1748T1227 1708Q1227 1682 1198 1640T1121
1566T1013 1533Z" />
<glyph unicode="&#xc4;" glyph-name="Adieresis" horiz-adv-x="1374" d="M973 132L911 447H416L245 132Q242 127 242 118Q242 95 284 93T387 88Q406 86 412 77T419 51Q418 40 409 20T382 0H-71Q-87 0 -92 20T-97 51Q-97 74 -90 80T-61 88Q-36 91 -1 91T69 106T125
165L820 1440H913L1190 165Q1202 121 1228 107T1284 92T1332 88Q1352 85 1359 80T1367 51Q1366 40 1357 20T1330 0H824Q807 0 800 20T793 51Q791 84 827 88Q890 92 932 93T975 121Q975 124 973 132ZM779 1114L464 535H893L779 1114ZM1067 1546Q1020 1546 997 1574T973
1647Q973 1713 1008 1763T1107 1814Q1154 1814 1177 1786T1201 1712Q1201 1648 1165 1597T1067 1546ZM643 1546Q596 1546 573 1574T549 1647Q549 1713 584 1763T683 1814Q730 1814 753 1786T777 1712Q777 1648 741 1597T643 1546Z" />
<glyph unicode="&#xc5;" glyph-name="Aring" horiz-adv-x="1374" d="M973 132L911 447H416L245 132Q242 127 242 118Q242 95 284 93T387 88Q406 86 412 77T419 51Q418 40 409 20T382 0H-71Q-87 0 -92 20T-97 51Q-97 74 -90 80T-61 88Q-36 91 -1 91T69 106T125
165L820 1440H913L1190 165Q1202 121 1228 107T1284 92T1332 88Q1352 85 1359 80T1367 51Q1366 40 1357 20T1330 0H824Q807 0 800 20T793 51Q791 84 827 88Q890 92 932 93T975 121Q975 124 973 132ZM779 1114L464 535H893L779 1114ZM863 1452Q757 1452 687 1510T617
1668Q617 1755 661 1822T778 1928T940 1967Q1046 1967 1116 1909T1186 1749Q1186 1663 1142 1596T1025 1490T863 1452ZM879 1557Q965 1557 1014 1606T1063 1741Q1063 1793 1031 1828T924 1863Q839 1863 790 1814T741 1679Q741 1627 772 1592T879 1557Z" />
<glyph unicode="&#xc6;" glyph-name="AE" horiz-adv-x="1988" d="M-87 0Q-103 0 -107 20T-111 51Q-108 74 -101 80T-74 88Q55 95 95 165L772 1331H504Q463 1331 463 1378Q463 1389 472 1404T499 1419H1913L1902 1095Q1900 1078 1884 1070T1856 1061Q1840 1061
1827 1068T1813 1096Q1813 1116 1806 1154T1779 1234T1725 1303T1635 1332L1242 1331L1168 773H1446Q1472 773 1493 808T1528 886T1547 948Q1552 968 1571 974T1607 981Q1618 981 1632 973T1644 947L1596 504Q1595 487 1579 479T1552 470Q1536 470 1517 477T1498
503Q1499 525 1494 569T1474 650T1431 687H1157L1089 175Q1089 129 1114 115T1177 101H1558Q1623 101 1670 136T1749 221T1798 314T1821 373Q1826 392 1844 399T1879 406Q1918 406 1918 372L1823 0H712Q696 0 689 17T682 46Q682 84 719 88Q744 91 778 97T841 117T872
152L918 495H420L236 159Q228 148 228 140Q228 111 269 101T395 88Q415 86 420 77T424 51Q423 40 413 20T386 0H-87ZM470 581H929L1029 1331H888L470 581Z" />
<glyph unicode="&#xc7;" glyph-name="Ccedilla" horiz-adv-x="1315" d="M739 -30Q571 -30 433 44T213 261T131 609Q131 772 181 905T316 1139T506 1310T724 1414T939 1449Q1057 1449 1128 1434T1242 1398T1316 1361L1288 1051Q1289 1028 1264 1019T1227 1010Q1214
1010 1201 1016T1184 1039Q1186 1202 1133 1277T929 1353Q848 1353 753 1318T573 1202T433 985T378 646Q378 496 417 364T533 148T728 65Q861 65 927 106T1025 217T1080 373Q1093 406 1120 406Q1131 406 1160 399T1188 375L1161 108Q1157 94 1100 61T948 -1T739
-30ZM624 -488Q554 -488 508 -473T437 -439Q426 -431 436 -417Q447 -402 458 -384T477 -356Q487 -344 500 -349Q516 -355 544 -364T618 -374Q672 -374 711 -345T750 -271Q750 -239 713 -214T609 -191L675 18H792L732 -130Q821 -137 868 -175T916 -271Q916 -321
883 -371T785 -454T624 -488Z" />
<glyph unicode="&#xc8;" glyph-name="Egrave" horiz-adv-x="1338" d="M592 1331L511 773H791Q818 777 841 812T882 887T903 948Q906 968 923 974T957 981Q968 981 983 973T996 947L946 504Q943 487 927 479T899 470Q883 470 866 477T849 503Q849 525 843 569T821
650T777 687H499L425 174Q425 131 450 116T505 97H896Q958 97 1007 133T1093 219T1151 314T1178 373Q1185 392 1198 399T1227 406Q1269 406 1268 372L1173 0H44Q27 0 21 20T17 51Q17 84 51 88Q84 91 121 97T185 117T214 152L374 1234Q379 1277 351 1296T283 1322T213
1331Q182 1334 182 1353Q182 1375 193 1397T224 1419H1263L1249 1096Q1248 1079 1233 1071T1206 1062Q1190 1062 1178 1069T1163 1095Q1164 1110 1157 1148T1132 1228T1080 1301T995 1331H592ZM1005 1526Q873 1663 781 1726T667 1811Q639 1841 639 1878Q639 1898
648 1919T679 1959Q716 1992 756 1992Q781 1992 802 1982T836 1956Q856 1934 912 1830T1070 1584L1005 1526Z" />
<glyph unicode="&#xc9;" glyph-name="Eacute" horiz-adv-x="1338" d="M592 1331L511 773H791Q818 777 841 812T882 887T903 948Q906 968 923 974T957 981Q968 981 983 973T996 947L946 504Q943 487 927 479T899 470Q883 470 866 477T849 503Q849 525 843 569T821
650T777 687H499L425 174Q425 131 450 116T505 97H896Q958 97 1007 133T1093 219T1151 314T1178 373Q1185 392 1198 399T1227 406Q1269 406 1268 372L1173 0H44Q27 0 21 20T17 51Q17 84 51 88Q84 91 121 97T185 117T214 152L374 1234Q379 1277 351 1296T283 1322T213
1331Q182 1334 182 1353Q182 1375 193 1397T224 1419H1263L1249 1096Q1248 1079 1233 1071T1206 1062Q1190 1062 1178 1069T1163 1095Q1164 1110 1157 1148T1132 1228T1080 1301T995 1331H592ZM727 1526L680 1584Q824 1726 911 1830T1026 1956Q1044 1971 1067 1981T1116
1992Q1157 1992 1183 1959Q1202 1935 1202 1906Q1202 1878 1187 1853T1151 1811Q1124 1789 1013 1726T727 1526Z" />
<glyph unicode="&#xca;" glyph-name="Ecircumflex" horiz-adv-x="1338" d="M592 1331L511 773H791Q818 777 841 812T882 887T903 948Q906 968 923 974T957 981Q968 981 983 973T996 947L946 504Q943 487 927 479T899 470Q883 470 866 477T849 503Q849 525 843
569T821 650T777 687H499L425 174Q425 131 450 116T505 97H896Q958 97 1007 133T1093 219T1151 314T1178 373Q1185 392 1198 399T1227 406Q1269 406 1268 372L1173 0H44Q27 0 21 20T17 51Q17 84 51 88Q84 91 121 97T185 117T214 152L374 1234Q379 1277 351 1296T283
1322T213 1331Q182 1334 182 1353Q182 1375 193 1397T224 1419H1263L1249 1096Q1248 1079 1233 1071T1206 1062Q1190 1062 1178 1069T1163 1095Q1164 1110 1157 1148T1132 1228T1080 1301T995 1331H592ZM485 1545L782 1893Q802 1914 825 1929T885 1944Q922 1944
940 1927T971 1884L1165 1545H1052L858 1766L603 1545H485Z" />
<glyph unicode="&#xcb;" glyph-name="Edieresis" horiz-adv-x="1338" d="M592 1331L511 773H791Q818 777 841 812T882 887T903 948Q906 968 923 974T957 981Q968 981 983 973T996 947L946 504Q943 487 927 479T899 470Q883 470 866 477T849 503Q849 525 843 569T821
650T777 687H499L425 174Q425 131 450 116T505 97H896Q958 97 1007 133T1093 219T1151 314T1178 373Q1185 392 1198 399T1227 406Q1269 406 1268 372L1173 0H44Q27 0 21 20T17 51Q17 84 51 88Q84 91 121 97T185 117T214 152L374 1234Q379 1277 351 1296T283 1322T213
1331Q182 1334 182 1353Q182 1375 193 1397T224 1419H1263L1249 1096Q1248 1079 1233 1071T1206 1062Q1190 1062 1178 1069T1163 1095Q1164 1110 1157 1148T1132 1228T1080 1301T995 1331H592ZM1017 1546Q970 1546 947 1574T923 1647Q923 1713 958 1763T1057 1814Q1104
1814 1127 1786T1151 1712Q1151 1648 1115 1597T1017 1546ZM593 1546Q546 1546 523 1574T499 1647Q499 1713 534 1763T633 1814Q680 1814 703 1786T727 1712Q727 1648 691 1597T593 1546Z" />
<glyph unicode="&#xcc;" glyph-name="Igrave" horiz-adv-x="798" d="M52 43Q52 63 59 75T88 88Q137 91 187 105T242 152L402 1234Q403 1239 403 1249Q403 1285 380 1301T325 1323T264 1331Q233 1334 233 1352Q233 1355 234 1359T235 1368Q235 1379 248 1399T278
1419H783Q800 1419 805 1399T808 1368Q803 1334 768 1331Q719 1327 668 1314T612 1267L454 185Q453 179 453 169Q453 134 476 118T531 97T592 88Q609 86 616 82T624 63Q624 56 623 51Q621 40 610 20T582 0H77Q62 0 57 15T52 43ZM732 1526Q600 1663 508 1726T394
1811Q366 1841 366 1878Q366 1898 375 1919T406 1959Q443 1992 483 1992Q508 1992 529 1982T563 1956Q583 1934 639 1830T797 1584L732 1526Z" />
<glyph unicode="&#xcd;" glyph-name="Iacute" horiz-adv-x="798" d="M52 43Q52 63 59 75T88 88Q137 91 187 105T242 152L402 1234Q403 1239 403 1249Q403 1285 380 1301T325 1323T264 1331Q233 1334 233 1352Q233 1355 234 1359T235 1368Q235 1379 248 1399T278
1419H783Q800 1419 805 1399T808 1368Q803 1334 768 1331Q719 1327 668 1314T612 1267L454 185Q453 179 453 169Q453 134 476 118T531 97T592 88Q609 86 616 82T624 63Q624 56 623 51Q621 40 610 20T582 0H77Q62 0 57 15T52 43ZM454 1526L407 1584Q551 1726 638
1830T753 1956Q771 1971 794 1981T843 1992Q884 1992 910 1959Q929 1935 929 1906Q929 1878 914 1853T878 1811Q851 1789 740 1726T454 1526Z" />
<glyph unicode="&#xce;" glyph-name="Icircumflex" horiz-adv-x="798" d="M52 43Q52 63 59 75T88 88Q137 91 187 105T242 152L402 1234Q403 1239 403 1249Q403 1285 380 1301T325 1323T264 1331Q233 1334 233 1352Q233 1355 234 1359T235 1368Q235 1379 248 1399T278
1419H783Q800 1419 805 1399T808 1368Q803 1334 768 1331Q719 1327 668 1314T612 1267L454 185Q453 179 453 169Q453 134 476 118T531 97T592 88Q609 86 616 82T624 63Q624 56 623 51Q621 40 610 20T582 0H77Q62 0 57 15T52 43ZM212 1545L509 1893Q529 1914 552
1929T612 1944Q649 1944 667 1927T698 1884L892 1545H779L585 1766L330 1545H212Z" />
<glyph unicode="&#xcf;" glyph-name="Idieresis" horiz-adv-x="798" d="M52 43Q52 63 59 75T88 88Q137 91 187 105T242 152L402 1234Q403 1239 403 1249Q403 1285 380 1301T325 1323T264 1331Q233 1334 233 1352Q233 1355 234 1359T235 1368Q235 1379 248 1399T278
1419H783Q800 1419 805 1399T808 1368Q803 1334 768 1331Q719 1327 668 1314T612 1267L454 185Q453 179 453 169Q453 134 476 118T531 97T592 88Q609 86 616 82T624 63Q624 56 623 51Q621 40 610 20T582 0H77Q62 0 57 15T52 43ZM744 1546Q697 1546 674 1574T650
1647Q650 1713 685 1763T784 1814Q831 1814 854 1786T878 1712Q878 1648 842 1597T744 1546ZM320 1546Q273 1546 250 1574T226 1647Q226 1713 261 1763T360 1814Q407 1814 430 1786T454 1712Q454 1648 418 1597T320 1546Z" />
<glyph unicode="&#xd0;" glyph-name="Eth" horiz-adv-x="1534" d="M8 51Q8 84 44 88Q77 91 116 97T184 117T215 152L297 694H148Q136 695 130 705T124 728Q124 747 131 767T148 791H312L379 1234Q384 1277 356 1296T288 1322T218 1331Q187 1334 187 1353Q187 1356
189 1368Q188 1379 200 1399T229 1419H702Q931 1419 1075 1365T1297 1223T1405 1031T1435 824Q1435 573 1331 388T1030 102T553 0H37Q20 0 13 20T8 51ZM424 153Q430 134 437 123T477 106T595 101Q780 101 917 176T1129 412T1205 827Q1205 1093 1069 1212T667 1331H597L518
791H927Q939 790 945 780T951 757Q951 738 945 719T927 694H503L424 153Z" />
<glyph unicode="&#xd1;" glyph-name="Ntilde" horiz-adv-x="1571" d="M17 0Q3 0 -3 14T-9 42Q-9 84 28 88Q60 91 99 98T168 122T204 172L382 1204Q383 1209 383 1219Q383 1257 358 1280T297 1316T234 1331Q189 1335 192 1368Q193 1379 205 1399T234 1419H586L1189
314H1201L1347 1234Q1348 1238 1348 1245Q1348 1283 1315 1300T1239 1323T1167 1331Q1136 1334 1136 1353Q1136 1374 1149 1396T1180 1419H1645Q1662 1419 1667 1399T1671 1368Q1665 1335 1631 1331Q1600 1328 1561 1322T1490 1296T1451 1234L1267 113Q1264 94
1264 82T1262 40Q1259 -2 1235 -16T1190 -30Q1174 -30 1155 -24T1130 -8L495 1178H478L313 165Q308 132 342 117T423 97T500 88Q517 86 524 82T532 63Q532 30 519 15T492 0H17ZM1059 1533Q999 1533 953 1564T864 1625T770 1656Q739 1656 717 1634T679 1589T652
1566Q636 1566 621 1584T606 1624Q606 1651 634 1692T710 1766T817 1799Q873 1799 919 1769T1010 1707T1106 1676Q1137 1676 1159 1698T1198 1743T1224 1766Q1240 1766 1256 1748T1273 1708Q1273 1682 1244 1640T1167 1566T1059 1533Z" />
<glyph unicode="&#xd2;" glyph-name="Ograve" horiz-adv-x="1496" d="M721 -29Q534 -29 401 55T198 285T127 621Q127 786 179 935T328 1200T556 1382T849 1449Q1036 1449 1166 1369T1365 1145T1434 812Q1434 647 1383 496T1238 227T1012 40T721 -29ZM723 65Q857
65 947 132T1090 314T1165 567T1188 851Q1188 1009 1159 1122T1054 1295T841 1356Q706 1356 615 1289T470 1108T393 855T369 570Q369 414 400 301T508 126T723 65ZM1077 1526Q945 1663 853 1726T739 1811Q711 1841 711 1878Q711 1898 720 1919T751 1959Q788 1992
828 1992Q853 1992 874 1982T908 1956Q928 1934 984 1830T1142 1584L1077 1526Z" />
<glyph unicode="&#xd3;" glyph-name="Oacute" horiz-adv-x="1496" d="M721 -29Q534 -29 401 55T198 285T127 621Q127 786 179 935T328 1200T556 1382T849 1449Q1036 1449 1166 1369T1365 1145T1434 812Q1434 647 1383 496T1238 227T1012 40T721 -29ZM723 65Q857
65 947 132T1090 314T1165 567T1188 851Q1188 1009 1159 1122T1054 1295T841 1356Q706 1356 615 1289T470 1108T393 855T369 570Q369 414 400 301T508 126T723 65ZM799 1526L752 1584Q896 1726 983 1830T1098 1956Q1116 1971 1139 1981T1188 1992Q1229 1992 1255
1959Q1274 1935 1274 1906Q1274 1878 1259 1853T1223 1811Q1196 1789 1085 1726T799 1526Z" />
<glyph unicode="&#xd4;" glyph-name="Ocircumflex" horiz-adv-x="1496" d="M721 -29Q534 -29 401 55T198 285T127 621Q127 786 179 935T328 1200T556 1382T849 1449Q1036 1449 1166 1369T1365 1145T1434 812Q1434 647 1383 496T1238 227T1012 40T721 -29ZM723
65Q857 65 947 132T1090 314T1165 567T1188 851Q1188 1009 1159 1122T1054 1295T841 1356Q706 1356 615 1289T470 1108T393 855T369 570Q369 414 400 301T508 126T723 65ZM557 1545L854 1893Q874 1914 897 1929T957 1944Q994 1944 1012 1927T1043 1884L1237 1545H1124L930
1766L675 1545H557Z" />
<glyph unicode="&#xd5;" glyph-name="Otilde" horiz-adv-x="1496" d="M721 -29Q534 -29 401 55T198 285T127 621Q127 786 179 935T328 1200T556 1382T849 1449Q1036 1449 1166 1369T1365 1145T1434 812Q1434 647 1383 496T1238 227T1012 40T721 -29ZM723 65Q857
65 947 132T1090 314T1165 567T1188 851Q1188 1009 1159 1122T1054 1295T841 1356Q706 1356 615 1289T470 1108T393 855T369 570Q369 414 400 301T508 126T723 65ZM1035 1533Q975 1533 929 1564T840 1625T746 1656Q715 1656 693 1634T655 1589T628 1566Q612 1566
597 1584T582 1624Q582 1651 610 1692T686 1766T793 1799Q849 1799 895 1769T986 1707T1082 1676Q1113 1676 1135 1698T1174 1743T1200 1766Q1216 1766 1232 1748T1249 1708Q1249 1682 1220 1640T1143 1566T1035 1533Z" />
<glyph unicode="&#xd6;" glyph-name="Odieresis" horiz-adv-x="1496" d="M721 -29Q534 -29 401 55T198 285T127 621Q127 786 179 935T328 1200T556 1382T849 1449Q1036 1449 1166 1369T1365 1145T1434 812Q1434 647 1383 496T1238 227T1012 40T721 -29ZM723 65Q857
65 947 132T1090 314T1165 567T1188 851Q1188 1009 1159 1122T1054 1295T841 1356Q706 1356 615 1289T470 1108T393 855T369 570Q369 414 400 301T508 126T723 65ZM1089 1546Q1042 1546 1019 1574T995 1647Q995 1713 1030 1763T1129 1814Q1176 1814 1199 1786T1223
1712Q1223 1648 1187 1597T1089 1546ZM665 1546Q618 1546 595 1574T571 1647Q571 1713 606 1763T705 1814Q752 1814 775 1786T799 1712Q799 1648 763 1597T665 1546Z" />
<glyph unicode="&#xd7;" glyph-name="multiply" horiz-adv-x="1317" d="M1132 915L763 558L1069 194L969 99L658 468L267 99L183 194L570 550L246 915L347 1011L674 639L1049 1011L1132 915Z" />
<glyph unicode="&#xd8;" glyph-name="Oslash" horiz-adv-x="1496" d="M721 -29Q534 -29 401 55T198 285T127 621Q127 786 179 935T328 1200T556 1382T849 1449Q1036 1449 1166 1369T1365 1145T1434 812Q1434 647 1383 496T1238 227T1012 40T721 -29ZM723 65Q857
65 947 132T1090 314T1165 567T1188 851Q1188 1009 1159 1122T1054 1295T841 1356Q706 1356 615 1289T470 1108T393 855T369 570Q369 414 400 301T508 126T723 65ZM1291 1448L1172 1264L1148 1221L475 105L450 71L349 -80Q343 -87 332 -87Q307 -87 285 -68T263
-30L368 131L388 152L1061 1270L1086 1315L1204 1498Q1210 1507 1224 1507Q1245 1507 1268 1485T1291 1448Z" />
<glyph unicode="&#xd9;" glyph-name="Ugrave" horiz-adv-x="1549" d="M752 -29Q518 -29 383 78T247 417Q247 446 249 473T253 523L357 1256Q361 1292 337 1306T278 1324T216 1332T186 1352Q186 1374 197 1396T228 1419H753Q768 1419 773 1402T779 1369Q779 1334
741 1331Q706 1328 667 1322T600 1302T568 1267L467 543Q463 505 461 470T459 403Q459 247 537 156T764 65Q919 65 1010 124T1148 286T1210 521L1312 1233Q1317 1276 1279 1303T1173 1331Q1142 1331 1142 1352Q1142 1374 1153 1396T1184 1419H1580Q1596 1419 1600
1401T1605 1370Q1605 1332 1568 1331Q1503 1327 1459 1303T1410 1230L1311 523Q1279 223 1137 97T752 -29ZM1138 1526Q1006 1663 914 1726T800 1811Q772 1841 772 1878Q772 1898 781 1919T812 1959Q849 1992 889 1992Q914 1992 935 1982T969 1956Q989 1934 1045
1830T1203 1584L1138 1526Z" />
<glyph unicode="&#xda;" glyph-name="Uacute" horiz-adv-x="1549" d="M752 -29Q518 -29 383 78T247 417Q247 446 249 473T253 523L357 1256Q361 1292 337 1306T278 1324T216 1332T186 1352Q186 1374 197 1396T228 1419H753Q768 1419 773 1402T779 1369Q779 1334
741 1331Q706 1328 667 1322T600 1302T568 1267L467 543Q463 505 461 470T459 403Q459 247 537 156T764 65Q919 65 1010 124T1148 286T1210 521L1312 1233Q1317 1276 1279 1303T1173 1331Q1142 1331 1142 1352Q1142 1374 1153 1396T1184 1419H1580Q1596 1419 1600
1401T1605 1370Q1605 1332 1568 1331Q1503 1327 1459 1303T1410 1230L1311 523Q1279 223 1137 97T752 -29ZM860 1526L813 1584Q957 1726 1044 1830T1159 1956Q1177 1971 1200 1981T1249 1992Q1290 1992 1316 1959Q1335 1935 1335 1906Q1335 1878 1320 1853T1284
1811Q1257 1789 1146 1726T860 1526Z" />
<glyph unicode="&#xdb;" glyph-name="Ucircumflex" horiz-adv-x="1549" d="M752 -29Q518 -29 383 78T247 417Q247 446 249 473T253 523L357 1256Q361 1292 337 1306T278 1324T216 1332T186 1352Q186 1374 197 1396T228 1419H753Q768 1419 773 1402T779 1369Q779
1334 741 1331Q706 1328 667 1322T600 1302T568 1267L467 543Q463 505 461 470T459 403Q459 247 537 156T764 65Q919 65 1010 124T1148 286T1210 521L1312 1233Q1317 1276 1279 1303T1173 1331Q1142 1331 1142 1352Q1142 1374 1153 1396T1184 1419H1580Q1596 1419
1600 1401T1605 1370Q1605 1332 1568 1331Q1503 1327 1459 1303T1410 1230L1311 523Q1279 223 1137 97T752 -29ZM618 1545L915 1893Q935 1914 958 1929T1018 1944Q1055 1944 1073 1927T1104 1884L1298 1545H1185L991 1766L736 1545H618Z" />
<glyph unicode="&#xdc;" glyph-name="Udieresis" horiz-adv-x="1549" d="M752 -29Q518 -29 383 78T247 417Q247 446 249 473T253 523L357 1256Q361 1292 337 1306T278 1324T216 1332T186 1352Q186 1374 197 1396T228 1419H753Q768 1419 773 1402T779 1369Q779
1334 741 1331Q706 1328 667 1322T600 1302T568 1267L467 543Q463 505 461 470T459 403Q459 247 537 156T764 65Q919 65 1010 124T1148 286T1210 521L1312 1233Q1317 1276 1279 1303T1173 1331Q1142 1331 1142 1352Q1142 1374 1153 1396T1184 1419H1580Q1596 1419
1600 1401T1605 1370Q1605 1332 1568 1331Q1503 1327 1459 1303T1410 1230L1311 523Q1279 223 1137 97T752 -29ZM1150 1546Q1103 1546 1080 1574T1056 1647Q1056 1713 1091 1763T1190 1814Q1237 1814 1260 1786T1284 1712Q1284 1648 1248 1597T1150 1546ZM726 1546Q679
1546 656 1574T632 1647Q632 1713 667 1763T766 1814Q813 1814 836 1786T860 1712Q860 1648 824 1597T726 1546Z" />
<glyph unicode="&#xdd;" glyph-name="Yacute" horiz-adv-x="1260" d="M249 43Q249 83 299 88Q333 91 371 92T439 105T475 152L539 534L220 1254Q193 1315 167 1326T105 1341Q74 1344 74 1368Q74 1392 87 1405T117 1419H611Q625 1419 631 1408T638 1386Q638 1370
625 1351T590 1331Q532 1331 485 1327T438 1297L705 639L1126 1258Q1138 1276 1138 1290Q1138 1309 1110 1320T1013 1331Q995 1331 986 1344T977 1372Q977 1381 988 1400T1019 1419H1424Q1441 1419 1446 1404T1450 1378Q1446 1356 1438 1350T1408 1341Q1371 1337
1337 1327T1258 1254L748 541L684 152Q684 116 714 104T786 92T863 88Q881 86 892 82T904 60Q904 43 891 22T862 0H277Q262 0 256 15T249 43ZM743 1526L696 1584Q840 1726 927 1830T1042 1956Q1060 1971 1083 1981T1132 1992Q1173 1992 1199 1959Q1218 1935 1218
1906Q1218 1878 1203 1853T1167 1811Q1140 1789 1029 1726T743 1526Z" />
<glyph unicode="&#xde;" glyph-name="Thorn" horiz-adv-x="1258" d="M53 0Q37 0 32 17T26 47Q26 84 61 88Q110 92 160 105T213 152L375 1234Q381 1273 360 1293T304 1320T235 1331Q203 1334 203 1353Q203 1379 216 1399T246 1419H751Q768 1419 773 1399T777 1368Q775
1335 739 1331Q690 1327 641 1314T584 1267L572 1164H715Q873 1164 983 1129T1150 1011T1208 781Q1208 623 1123 516T900 355T601 300H438L423 172Q423 135 446 119T503 97T565 88Q585 86 592 80T597 51Q596 40 586 20T558 0H53ZM698 1076H563L449 386H585Q699
386 788 426T930 551T982 764Q982 933 918 1004T698 1076Z" />
<glyph unicode="&#xdf;" glyph-name="germandbls" horiz-adv-x="1110" d="M238 0H32L186 1061Q205 1188 268 1302T442 1487T716 1559Q854 1559 937 1510T1021 1350Q1021 1274 992 1223T921 1133T835 1063T763 995T734 911Q734 861 766 816T845 723T940 620T1019
497T1051 340Q1051 223 994 141T844 15T647 -29Q512 -29 450 22T388 135Q388 187 425 215T494 244Q539 244 542 222L587 89Q587 89 601 72T653 55Q743 55 794 119T846 271Q846 337 817 398T745 518T659 633T586 747T557 866Q557 924 584 966T650 1043T729 1116T795
1203T822 1324Q822 1395 782 1434T675 1474Q640 1474 598 1465T513 1419T437 1305T385 1093L238 0Z" />
<glyph unicode="&#xe0;" glyph-name="agrave" horiz-adv-x="1173" d="M357 -30Q251 -30 188 14T98 134T70 304Q70 430 120 555T256 784T453 950T684 1013Q772 1013 815 993T904 939Q929 953 960 975T1015 997Q1025 997 1033 991T1039 967L899 168Q897 154 897
147Q897 125 909 111T956 96Q977 96 1009 104T1056 113Q1065 113 1073 109T1081 83Q1081 71 1076 59T1056 41Q1007 19 942 3T821 -13Q701 -13 701 110Q701 118 708 163T725 263T741 355Q723 306 686 241T598 113T485 11T357 -30ZM413 107Q463 107 517 157T623 284T716
445T780 596L824 819Q809 861 781 889T687 918Q591 918 516 862T388 717T308 525T281 328Q281 212 318 160T413 107ZM698 1096Q566 1233 474 1296T360 1381Q332 1409 332 1450Q332 1469 341 1489T372 1529Q409 1562 449 1562Q474 1562 495 1552T529 1526Q549 1504
605 1400T763 1154L698 1096Z" />
<glyph unicode="&#xe1;" glyph-name="aacute" horiz-adv-x="1173" d="M357 -30Q251 -30 188 14T98 134T70 304Q70 430 120 555T256 784T453 950T684 1013Q772 1013 815 993T904 939Q929 953 960 975T1015 997Q1025 997 1033 991T1039 967L899 168Q897 154 897
147Q897 125 909 111T956 96Q977 96 1009 104T1056 113Q1065 113 1073 109T1081 83Q1081 71 1076 59T1056 41Q1007 19 942 3T821 -13Q701 -13 701 110Q701 118 708 163T725 263T741 355Q723 306 686 241T598 113T485 11T357 -30ZM413 107Q463 107 517 157T623 284T716
445T780 596L824 819Q809 861 781 889T687 918Q591 918 516 862T388 717T308 525T281 328Q281 212 318 160T413 107ZM620 1101L569 1159Q671 1257 727 1337T810 1439Q828 1454 851 1464T900 1475Q941 1475 967 1442Q986 1418 986 1389Q986 1361 971 1337T935 1294Q917
1278 869 1254T755 1193T620 1101Z" />
<glyph unicode="&#xe2;" glyph-name="acircumflex" horiz-adv-x="1173" d="M357 -30Q251 -30 188 14T98 134T70 304Q70 430 120 555T256 784T453 950T684 1013Q772 1013 815 993T904 939Q929 953 960 975T1015 997Q1025 997 1033 991T1039 967L899 168Q897 154
897 147Q897 125 909 111T956 96Q977 96 1009 104T1056 113Q1065 113 1073 109T1081 83Q1081 71 1076 59T1056 41Q1007 19 942 3T821 -13Q701 -13 701 110Q701 118 708 163T725 263T741 355Q723 306 686 241T598 113T485 11T357 -30ZM413 107Q463 107 517 157T623
284T716 445T780 596L824 819Q809 861 781 889T687 918Q591 918 516 862T388 717T308 525T281 328Q281 212 318 160T413 107ZM338 1130L651 1498Q671 1519 694 1534T754 1549Q791 1549 809 1532T840 1489L1018 1130H905L727 1371L456 1130H338Z" />
<glyph unicode="&#xe3;" glyph-name="atilde" horiz-adv-x="1173" d="M357 -30Q251 -30 188 14T98 134T70 304Q70 430 120 555T256 784T453 950T684 1013Q772 1013 815 993T904 939Q929 953 960 975T1015 997Q1025 997 1033 991T1039 967L899 168Q897 154 897
147Q897 125 909 111T956 96Q977 96 1009 104T1056 113Q1065 113 1073 109T1081 83Q1081 71 1076 59T1056 41Q1007 19 942 3T821 -13Q701 -13 701 110Q701 118 708 163T725 263T741 355Q723 306 686 241T598 113T485 11T357 -30ZM413 107Q463 107 517 157T623 284T716
445T780 596L824 819Q809 861 781 889T687 918Q591 918 516 862T388 717T308 525T281 328Q281 212 318 160T413 107ZM799 1126Q747 1126 706 1155T626 1213T544 1242Q517 1242 497 1221T463 1179T439 1157Q426 1157 413 1174T399 1212Q399 1237 424 1275T491 1345T585
1376Q634 1376 675 1347T756 1289T841 1260Q868 1260 888 1281T922 1324T945 1345Q959 1345 973 1328T988 1290Q988 1266 963 1227T894 1157T799 1126Z" />
<glyph unicode="&#xe4;" glyph-name="adieresis" horiz-adv-x="1173" d="M357 -30Q251 -30 188 14T98 134T70 304Q70 430 120 555T256 784T453 950T684 1013Q772 1013 815 993T904 939Q929 953 960 975T1015 997Q1025 997 1033 991T1039 967L899 168Q897 154 897
147Q897 125 909 111T956 96Q977 96 1009 104T1056 113Q1065 113 1073 109T1081 83Q1081 71 1076 59T1056 41Q1007 19 942 3T821 -13Q701 -13 701 110Q701 118 708 163T725 263T741 355Q723 306 686 241T598 113T485 11T357 -30ZM413 107Q463 107 517 157T623 284T716
445T780 596L824 819Q809 861 781 889T687 918Q591 918 516 862T388 717T308 525T281 328Q281 212 318 160T413 107ZM876 1182Q829 1182 806 1210T782 1283Q782 1300 785 1316Q796 1375 828 1412T916 1450Q963 1450 986 1422T1010 1348Q1010 1333 1007 1316Q997
1258 964 1220T876 1182ZM452 1182Q405 1182 382 1210T358 1283Q358 1300 361 1316Q372 1375 404 1412T492 1450Q539 1450 562 1422T586 1348Q586 1333 583 1316Q573 1258 540 1220T452 1182Z" />
<glyph unicode="&#xe5;" glyph-name="aring" horiz-adv-x="1173" d="M357 -30Q251 -30 188 14T98 134T70 304Q70 430 120 555T256 784T453 950T684 1013Q772 1013 815 993T904 939Q929 953 960 975T1015 997Q1025 997 1033 991T1039 967L899 168Q897 154 897 147Q897
125 909 111T956 96Q977 96 1009 104T1056 113Q1065 113 1073 109T1081 83Q1081 71 1076 59T1056 41Q1007 19 942 3T821 -13Q701 -13 701 110Q701 118 708 163T725 263T741 355Q723 306 686 241T598 113T485 11T357 -30ZM413 107Q463 107 517 157T623 284T716 445T780
596L824 819Q809 861 781 889T687 918Q591 918 516 862T388 717T308 525T281 328Q281 212 318 160T413 107ZM682 1134Q576 1134 506 1192T436 1350Q436 1437 480 1504T597 1610T759 1649Q865 1649 935 1591T1005 1431Q1005 1345 961 1278T844 1172T682 1134ZM698
1239Q784 1239 833 1291T882 1423Q882 1475 850 1510T743 1545Q658 1545 613 1500T562 1391Q547 1239 698 1239Z" />
<glyph unicode="&#xe6;" glyph-name="ae" horiz-adv-x="1565" d="M292 -27Q193 -27 138 19T59 134T36 272Q36 402 89 532T238 771T459 945T729 1011Q827 1011 882 987T963 909Q1028 959 1102 986T1252 1014Q1360 1014 1421 981T1508 900T1535 804Q1537 724 1488
660T1354 547T1160 464T934 407Q934 259 967 167T1098 75Q1271 75 1416 215Q1421 221 1426 225T1438 225L1475 192Q1480 188 1480 183Q1480 178 1476 174T1470 164Q1403 79 1300 25T1069 -29Q954 -29 872 28T750 182T718 396Q677 284 612 188T464 32T292 -27ZM938
484Q1137 526 1243 608T1348 838Q1347 885 1316 909T1247 933Q1137 933 1048 815T938 484ZM336 113Q434 113 505 180T632 352T739 571Q755 624 776 679T828 757Q848 830 813 878T708 926Q603 926 516 867T365 712T266 506T231 294Q231 214 256 164T336 113Z" />
<glyph unicode="&#xe7;" glyph-name="ccedilla" horiz-adv-x="929" d="M590 1014Q715 1014 801 960T888 787Q888 725 852 694T784 662Q755 662 739 666T714 705L660 914Q638 933 574 933Q498 933 432 865T323 669T281 360Q281 204 335 140T463 75Q549 75 615 111T750
215Q755 221 760 225T772 225L809 192Q814 188 814 183Q814 178 810 174T803 164Q736 79 647 26T432 -28Q254 -28 159 83T64 381Q64 516 108 631T228 832T398 966T590 1014ZM325 -488Q255 -488 209 -473T138 -439Q127 -431 137 -417Q148 -402 159 -384T178 -356Q188
-344 201 -349Q217 -355 245 -364T319 -374Q373 -374 412 -345T451 -271Q451 -239 414 -214T310 -191L376 18H493L433 -130Q522 -137 569 -175T617 -271Q617 -321 584 -371T486 -454T325 -488Z" />
<glyph unicode="&#xe8;" glyph-name="egrave" horiz-adv-x="966" d="M896 800Q896 721 847 658T712 546T520 464T295 407V360Q295 204 351 140T482 75Q571 75 639 111T777 215Q782 221 787 225T799 225Q819 214 836 192Q841 185 841 183Q841 178 837 174T831 164Q764
79 673 25T453 -29Q272 -29 175 87T78 393Q78 525 123 638T244 836T416 967T613 1014Q723 1014 784 980T871 897T896 800ZM608 933Q498 933 409 815T299 484Q498 526 604 608T709 838Q708 885 677 909T608 933ZM635 1096Q503 1233 411 1296T297 1381Q269 1409 269
1450Q269 1469 278 1489T309 1529Q346 1562 386 1562Q411 1562 432 1552T466 1526Q486 1504 542 1400T700 1154L635 1096Z" />
<glyph unicode="&#xe9;" glyph-name="eacute" horiz-adv-x="966" d="M896 800Q896 721 847 658T712 546T520 464T295 407V360Q295 204 351 140T482 75Q571 75 639 111T777 215Q782 221 787 225T799 225Q819 214 836 192Q841 185 841 183Q841 178 837 174T831 164Q764
79 673 25T453 -29Q272 -29 175 87T78 393Q78 525 123 638T244 836T416 967T613 1014Q723 1014 784 980T871 897T896 800ZM608 933Q498 933 409 815T299 484Q498 526 604 608T709 838Q708 885 677 909T608 933ZM557 1101L506 1159Q608 1257 664 1337T747 1439Q765
1454 788 1464T837 1475Q878 1475 904 1442Q923 1418 923 1389Q923 1361 908 1337T872 1294Q854 1278 806 1254T692 1193T557 1101Z" />
<glyph unicode="&#xea;" glyph-name="ecircumflex" horiz-adv-x="966" d="M896 800Q896 721 847 658T712 546T520 464T295 407V360Q295 204 351 140T482 75Q571 75 639 111T777 215Q782 221 787 225T799 225Q819 214 836 192Q841 185 841 183Q841 178 837 174T831
164Q764 79 673 25T453 -29Q272 -29 175 87T78 393Q78 525 123 638T244 836T416 967T613 1014Q723 1014 784 980T871 897T896 800ZM608 933Q498 933 409 815T299 484Q498 526 604 608T709 838Q708 885 677 909T608 933ZM275 1130L588 1498Q608 1519 631 1534T691
1549Q728 1549 746 1532T777 1489L955 1130H842L664 1371L393 1130H275Z" />
<glyph unicode="&#xeb;" glyph-name="edieresis" horiz-adv-x="966" d="M896 800Q896 721 847 658T712 546T520 464T295 407V360Q295 204 351 140T482 75Q571 75 639 111T777 215Q782 221 787 225T799 225Q819 214 836 192Q841 185 841 183Q841 178 837 174T831
164Q764 79 673 25T453 -29Q272 -29 175 87T78 393Q78 525 123 638T244 836T416 967T613 1014Q723 1014 784 980T871 897T896 800ZM608 933Q498 933 409 815T299 484Q498 526 604 608T709 838Q708 885 677 909T608 933ZM813 1182Q766 1182 743 1210T719 1283Q719
1300 722 1316Q733 1375 765 1412T853 1450Q900 1450 923 1422T947 1348Q947 1333 944 1316Q934 1258 901 1220T813 1182ZM389 1182Q342 1182 319 1210T295 1283Q295 1300 298 1316Q309 1375 341 1412T429 1450Q476 1450 499 1422T523 1348Q523 1333 520 1316Q510
1258 477 1220T389 1182Z" />
<glyph unicode="&#xec;" glyph-name="igrave" horiz-adv-x="609" d="M245 -13Q187 -13 162 6T130 53T123 102Q123 128 125 142L249 785Q250 793 250 799T251 812Q251 859 230 875T179 894T128 903Q118 908 113 916T110 943Q112 955 120 970T140 987Q238 993 319
995T442 997Q450 997 459 989T466 957L321 150Q321 126 333 111T380 96Q401 96 433 104T480 113Q489 113 497 109T505 83Q505 54 480 41Q441 22 384 5T245 -13ZM387 1096Q255 1233 163 1296T49 1381Q21 1409 21 1450Q21 1469 30 1489T61 1529Q98 1562 138 1562Q163
1562 184 1552T218 1526Q238 1504 294 1400T452 1154L387 1096Z" />
<glyph unicode="&#xed;" glyph-name="iacute" horiz-adv-x="609" d="M245 -13Q187 -13 162 6T130 53T123 102Q123 128 125 142L249 785Q250 793 250 799T251 812Q251 859 230 875T179 894T128 903Q118 908 113 916T110 943Q112 955 120 970T140 987Q238 993 319
995T442 997Q450 997 459 989T466 957L321 150Q321 126 333 111T380 96Q401 96 433 104T480 113Q489 113 497 109T505 83Q505 54 480 41Q441 22 384 5T245 -13ZM309 1101L258 1159Q360 1257 416 1337T499 1439Q517 1454 540 1464T589 1475Q630 1475 656 1442Q675
1418 675 1389Q675 1361 660 1337T624 1294Q606 1278 558 1254T444 1193T309 1101Z" />
<glyph unicode="&#xee;" glyph-name="icircumflex" horiz-adv-x="609" d="M245 -13Q187 -13 162 6T130 53T123 102Q123 128 125 142L249 785Q250 793 250 799T251 812Q251 859 230 875T179 894T128 903Q118 908 113 916T110 943Q112 955 120 970T140 987Q238 993
319 995T442 997Q450 997 459 989T466 957L321 150Q321 126 333 111T380 96Q401 96 433 104T480 113Q489 113 497 109T505 83Q505 54 480 41Q441 22 384 5T245 -13ZM27 1130L340 1498Q360 1519 383 1534T443 1549Q480 1549 498 1532T529 1489L707 1130H594L416
1371L145 1130H27Z" />
<glyph unicode="&#xef;" glyph-name="idieresis" horiz-adv-x="609" d="M245 -13Q187 -13 162 6T130 53T123 102Q123 128 125 142L249 785Q250 793 250 799T251 812Q251 859 230 875T179 894T128 903Q118 908 113 916T110 943Q112 955 120 970T140 987Q238 993
319 995T442 997Q450 997 459 989T466 957L321 150Q321 126 333 111T380 96Q401 96 433 104T480 113Q489 113 497 109T505 83Q505 54 480 41Q441 22 384 5T245 -13ZM565 1182Q518 1182 495 1210T471 1283Q471 1300 474 1316Q485 1375 517 1412T605 1450Q652 1450
675 1422T699 1348Q699 1333 696 1316Q686 1258 653 1220T565 1182ZM141 1182Q94 1182 71 1210T47 1283Q47 1300 50 1316Q61 1375 93 1412T181 1450Q228 1450 251 1422T275 1348Q275 1333 272 1316Q262 1258 229 1220T141 1182Z" />
<glyph unicode="&#xf0;" glyph-name="eth" horiz-adv-x="1119" d="M487 -29Q350 -29 258 26T118 177T71 392Q71 518 110 627T217 819T375 947T563 994Q646 994 705 973T805 913V934Q804 985 783 1054T721 1195T618 1320L434 1178L377 1260L552 1375Q502 1414 442
1442T314 1481L342 1571Q434 1555 513 1525T657 1450L850 1602L905 1514L728 1400Q874 1270 944 1090T1014 729Q1014 587 978 452T874 208T708 35T487 -29ZM496 66Q574 66 633 122T732 270T792 475T813 698Q813 739 810 782Q777 843 706 860T565 877Q494 877 441
831T353 708T301 534T283 339Q283 211 327 139T496 66Z" />
<glyph unicode="&#xf1;" glyph-name="ntilde" horiz-adv-x="1208" d="M1028 766L936 175Q934 159 934 151Q934 127 946 112T993 96Q1014 96 1046 104T1093 113Q1102 113 1110 109T1118 83Q1118 53 1093 41Q1025 9 960 -2T858 -13Q800 -13 775 6T743 53T736 102Q736
119 737 130T738 142L835 784Q837 792 837 798T837 810Q837 848 815 861T746 874Q691 874 629 846T511 775T423 689L314 0H122L243 778Q245 786 245 792T245 806Q245 853 221 870T165 892T111 903Q101 908 96 916T93 943Q95 955 103 970T123 987Q221 993 303 995T427
997Q435 997 445 989T451 957L425 785Q445 806 483 844T575 921T691 987T824 1014Q877 1014 924 999T1002 943T1032 821Q1032 808 1031 795T1028 766ZM756 1126Q704 1126 663 1155T583 1213T501 1242Q474 1242 454 1221T420 1179T396 1157Q383 1157 370 1174T356
1212Q356 1237 381 1275T448 1345T542 1376Q591 1376 632 1347T713 1289T798 1260Q825 1260 845 1281T879 1324T902 1345Q916 1345 930 1328T945 1290Q945 1266 920 1227T851 1157T756 1126Z" />
<glyph unicode="&#xf2;" glyph-name="ograve" horiz-adv-x="1100" d="M93 424Q93 533 129 638T234 828T398 963T613 1014Q753 1014 839 955T966 796T1006 568Q1006 407 944 271T767 54T490 -28Q354 -28 266 31T136 192T93 424ZM486 59Q570 59 628 107T722 237T774
417T790 617Q790 754 756 840T612 926Q528 926 470 878T375 750T323 573T306 376Q306 237 341 148T486 59ZM648 1096Q516 1233 424 1296T310 1381Q282 1409 282 1450Q282 1469 291 1489T322 1529Q359 1562 399 1562Q424 1562 445 1552T479 1526Q499 1504 555 1400T713
1154L648 1096Z" />
<glyph unicode="&#xf3;" glyph-name="oacute" horiz-adv-x="1100" d="M93 424Q93 533 129 638T234 828T398 963T613 1014Q753 1014 839 955T966 796T1006 568Q1006 407 944 271T767 54T490 -28Q354 -28 266 31T136 192T93 424ZM486 59Q570 59 628 107T722 237T774
417T790 617Q790 754 756 840T612 926Q528 926 470 878T375 750T323 573T306 376Q306 237 341 148T486 59ZM570 1101L519 1159Q621 1257 677 1337T760 1439Q778 1454 801 1464T850 1475Q891 1475 917 1442Q936 1418 936 1389Q936 1361 921 1337T885 1294Q867 1278
819 1254T705 1193T570 1101Z" />
<glyph unicode="&#xf4;" glyph-name="ocircumflex" horiz-adv-x="1100" d="M93 424Q93 533 129 638T234 828T398 963T613 1014Q753 1014 839 955T966 796T1006 568Q1006 407 944 271T767 54T490 -28Q354 -28 266 31T136 192T93 424ZM486 59Q570 59 628 107T722
237T774 417T790 617Q790 754 756 840T612 926Q528 926 470 878T375 750T323 573T306 376Q306 237 341 148T486 59ZM288 1130L601 1498Q621 1519 644 1534T704 1549Q741 1549 759 1532T790 1489L968 1130H855L677 1371L406 1130H288Z" />
<glyph unicode="&#xf5;" glyph-name="otilde" horiz-adv-x="1100" d="M93 424Q93 533 129 638T234 828T398 963T613 1014Q753 1014 839 955T966 796T1006 568Q1006 407 944 271T767 54T490 -28Q354 -28 266 31T136 192T93 424ZM486 59Q570 59 628 107T722 237T774
417T790 617Q790 754 756 840T612 926Q528 926 470 878T375 750T323 573T306 376Q306 237 341 148T486 59ZM749 1126Q697 1126 656 1155T576 1213T494 1242Q467 1242 447 1221T413 1179T389 1157Q376 1157 363 1174T349 1212Q349 1237 374 1275T441 1345T535 1376Q584
1376 625 1347T706 1289T791 1260Q818 1260 838 1281T872 1324T895 1345Q909 1345 923 1328T938 1290Q938 1266 913 1227T844 1157T749 1126Z" />
<glyph unicode="&#xf6;" glyph-name="odieresis" horiz-adv-x="1100" d="M93 424Q93 533 129 638T234 828T398 963T613 1014Q753 1014 839 955T966 796T1006 568Q1006 407 944 271T767 54T490 -28Q354 -28 266 31T136 192T93 424ZM486 59Q570 59 628 107T722 237T774
417T790 617Q790 754 756 840T612 926Q528 926 470 878T375 750T323 573T306 376Q306 237 341 148T486 59ZM826 1182Q779 1182 756 1210T732 1283Q732 1300 735 1316Q746 1375 778 1412T866 1450Q913 1450 936 1422T960 1348Q960 1333 957 1316Q947 1258 914 1220T826
1182ZM402 1182Q355 1182 332 1210T308 1283Q308 1300 311 1316Q322 1375 354 1412T442 1450Q489 1450 512 1422T536 1348Q536 1333 533 1316Q523 1258 490 1220T402 1182Z" />
<glyph unicode="&#xf7;" glyph-name="divide" horiz-adv-x="1317" d="M594 949Q594 1011 634 1054T739 1098Q798 1098 828 1060T858 967Q858 902 817 860T716 817Q650 817 622 856T594 949ZM199 492L211 618H1138L1126 492H199ZM494 153Q494 215 534 258T639 302Q698
302 728 264T758 171Q758 106 717 64T616 21Q550 21 522 60T494 153Z" />
<glyph unicode="&#xf8;" glyph-name="oslash" horiz-adv-x="1100" d="M93 424Q93 533 129 638T234 828T398 963T613 1014Q753 1014 839 955T966 796T1006 568Q1006 407 944 271T767 54T490 -28Q354 -28 266 31T136 192T93 424ZM486 59Q570 59 628 107T722 237T774
417T790 617Q790 754 756 840T612 926Q528 926 470 878T375 750T323 573T306 376Q306 237 341 148T486 59ZM904 1297L272 153Q268 146 255 146Q230 146 209 165T190 203L821 1347Q827 1356 841 1356Q862 1356 884 1334T904 1297Z" />
<glyph unicode="&#xf9;" glyph-name="ugrave" horiz-adv-x="1178" d="M406 -28Q342 -28 284 -12T190 50T154 189Q154 222 160 262L243 822Q244 829 244 840Q244 873 227 883T185 894Q164 894 141 889T104 883Q80 883 75 912Q73 923 80 937T104 957Q240 1007 310
1007Q368 1007 396 987T434 940T444 889Q444 873 442 863T440 852L352 243Q351 232 350 221T348 198Q348 155 372 124T466 93Q553 93 617 128T725 201L832 993L997 994Q1030 994 1030 966L914 151Q914 127 926 112T973 96Q994 96 1026 104T1073 113Q1082 113 1090
109T1098 83Q1098 71 1093 59T1073 41Q1004 18 940 3T838 -13Q780 -13 755 6T723 53T716 102V115Q687 84 637 51T526 -5T406 -28ZM673 1096Q541 1233 449 1296T335 1381Q307 1409 307 1450Q307 1469 316 1489T347 1529Q384 1562 424 1562Q449 1562 470 1552T504
1526Q524 1504 580 1400T738 1154L673 1096Z" />
<glyph unicode="&#xfa;" glyph-name="uacute" horiz-adv-x="1178" d="M406 -28Q342 -28 284 -12T190 50T154 189Q154 222 160 262L243 822Q244 829 244 840Q244 873 227 883T185 894Q164 894 141 889T104 883Q80 883 75 912Q73 923 80 937T104 957Q240 1007 310
1007Q368 1007 396 987T434 940T444 889Q444 873 442 863T440 852L352 243Q351 232 350 221T348 198Q348 155 372 124T466 93Q553 93 617 128T725 201L832 993L997 994Q1030 994 1030 966L914 151Q914 127 926 112T973 96Q994 96 1026 104T1073 113Q1082 113 1090
109T1098 83Q1098 71 1093 59T1073 41Q1004 18 940 3T838 -13Q780 -13 755 6T723 53T716 102V115Q687 84 637 51T526 -5T406 -28ZM595 1101L544 1159Q646 1257 702 1337T785 1439Q803 1454 826 1464T875 1475Q916 1475 942 1442Q961 1418 961 1389Q961 1361 946
1337T910 1294Q892 1278 844 1254T730 1193T595 1101Z" />
<glyph unicode="&#xfb;" glyph-name="ucircumflex" horiz-adv-x="1178" d="M406 -28Q342 -28 284 -12T190 50T154 189Q154 222 160 262L243 822Q244 829 244 840Q244 873 227 883T185 894Q164 894 141 889T104 883Q80 883 75 912Q73 923 80 937T104 957Q240 1007
310 1007Q368 1007 396 987T434 940T444 889Q444 873 442 863T440 852L352 243Q351 232 350 221T348 198Q348 155 372 124T466 93Q553 93 617 128T725 201L832 993L997 994Q1030 994 1030 966L914 151Q914 127 926 112T973 96Q994 96 1026 104T1073 113Q1082 113
1090 109T1098 83Q1098 71 1093 59T1073 41Q1004 18 940 3T838 -13Q780 -13 755 6T723 53T716 102V115Q687 84 637 51T526 -5T406 -28ZM313 1130L626 1498Q646 1519 669 1534T729 1549Q766 1549 784 1532T815 1489L993 1130H880L702 1371L431 1130H313Z" />
<glyph unicode="&#xfc;" glyph-name="udieresis" horiz-adv-x="1178" d="M406 -28Q342 -28 284 -12T190 50T154 189Q154 222 160 262L243 822Q244 829 244 840Q244 873 227 883T185 894Q164 894 141 889T104 883Q80 883 75 912Q73 923 80 937T104 957Q240 1007
310 1007Q368 1007 396 987T434 940T444 889Q444 873 442 863T440 852L352 243Q351 232 350 221T348 198Q348 155 372 124T466 93Q553 93 617 128T725 201L832 993L997 994Q1030 994 1030 966L914 151Q914 127 926 112T973 96Q994 96 1026 104T1073 113Q1082 113
1090 109T1098 83Q1098 71 1093 59T1073 41Q1004 18 940 3T838 -13Q780 -13 755 6T723 53T716 102V115Q687 84 637 51T526 -5T406 -28ZM851 1182Q804 1182 781 1210T757 1283Q757 1300 760 1316Q771 1375 803 1412T891 1450Q938 1450 961 1422T985 1348Q985 1333
982 1316Q972 1258 939 1220T851 1182ZM427 1182Q380 1182 357 1210T333 1283Q333 1300 336 1316Q347 1375 379 1412T467 1450Q514 1450 537 1422T561 1348Q561 1333 558 1316Q548 1258 515 1220T427 1182Z" />
<glyph unicode="&#xfd;" glyph-name="yacute" horiz-adv-x="1146" d="M71 -449Q-5 -449 -30 -422T-55 -373Q-55 -320 -9 -299T95 -278Q179 -278 229 -276T320 -236Q371 -191 402 -158T459 -91T522 -9Q459 -9 428 -4T396 33Q396 186 373 339T313 624T233 840Q220
867 196 867Q171 867 145 843T104 801Q88 780 78 780Q66 780 56 794T45 824Q45 837 52 851Q100 934 168 974T284 1015Q333 1015 368 994T433 905Q462 839 485 744T524 538T551 319T566 115Q567 97 567 82T567 55Q621 125 674 213T772 395T844 581T871 750Q871 798
865 829T859 904Q859 965 888 989T955 1014Q1022 1014 1048 968T1075 863Q1075 745 1006 596T820 270T560 -105Q508 -178 436 -258T273 -393T71 -449ZM606 1101L555 1159Q657 1257 713 1337T796 1439Q814 1454 837 1464T886 1475Q927 1475 953 1442Q972 1418 972
1389Q972 1361 957 1337T921 1294Q903 1278 855 1254T741 1193T606 1101Z" />
<glyph unicode="&#xfe;" glyph-name="thorn" horiz-adv-x="1132" d="M4 -443L89 126L94 127L281 1368Q281 1404 255 1416T194 1435T136 1455Q129 1460 124 1466T118 1488Q118 1499 127 1518T150 1539Q230 1544 301 1545T423 1546H465Q473 1546 481 1539T490 1514Q490
1513 490 1511T489 1506L428 1104L369 815Q437 923 532 968T703 1013Q822 1013 891 958T989 813T1018 617Q1018 559 1010 492Q994 358 930 241T760 52T516 -20Q441 -20 369 -4T238 36L224 -117L175 -444L4 -443ZM364 719L282 173Q297 140 355 108T493 75Q590 75
654 129T755 277T804 492Q809 537 811 578T814 657Q814 767 780 831T647 895Q598 895 543 869T441 802T364 719Z" />
<glyph unicode="&#xff;" glyph-name="ydieresis" horiz-adv-x="1146" d="M71 -449Q-5 -449 -30 -422T-55 -373Q-55 -320 -9 -299T95 -278Q179 -278 229 -276T320 -236Q371 -191 402 -158T459 -91T522 -9Q459 -9 428 -4T396 33Q396 186 373 339T313 624T233 840Q220
867 196 867Q171 867 145 843T104 801Q88 780 78 780Q66 780 56 794T45 824Q45 837 52 851Q100 934 168 974T284 1015Q333 1015 368 994T433 905Q462 839 485 744T524 538T551 319T566 115Q567 97 567 82T567 55Q621 125 674 213T772 395T844 581T871 750Q871 798
865 829T859 904Q859 965 888 989T955 1014Q1022 1014 1048 968T1075 863Q1075 745 1006 596T820 270T560 -105Q508 -178 436 -258T273 -393T71 -449ZM862 1182Q815 1182 792 1210T768 1283Q768 1300 771 1316Q782 1375 814 1412T902 1450Q949 1450 972 1422T996
1348Q996 1333 993 1316Q983 1258 950 1220T862 1182ZM438 1182Q391 1182 368 1210T344 1283Q344 1300 347 1316Q358 1375 390 1412T478 1450Q525 1450 548 1422T572 1348Q572 1333 569 1316Q559 1258 526 1220T438 1182Z" />
<glyph unicode="&#x2013;" glyph-name="endash" horiz-adv-x="1317" d="M109 496L127 622H1225L1207 496H109Z" />
<glyph unicode="&#x2014;" glyph-name="emdash" horiz-adv-x="1755" d="M109 496L127 622H1663L1645 496H109Z" />
<glyph unicode="&#x2018;" glyph-name="quoteleft" horiz-adv-x="400" d="M452 1681Q467 1681 479 1673T492 1651Q492 1641 486 1629T462 1602Q402 1553 376 1494T343 1384T337 1312Q338 1307 364 1299T417 1269T444 1197Q444 1129 408 1089T303 1048Q239 1048
199 1097T158 1205Q158 1295 187 1372T261 1510T349 1612T424 1673Q437 1681 452 1681Z" />
<glyph unicode="&#x2019;" glyph-name="quoteright" horiz-adv-x="400" d="M195 1048Q180 1048 168 1056T155 1078Q155 1089 161 1101T185 1127Q245 1177 271 1236T304 1345T310 1417Q309 1423 283 1430T230 1460T203 1532Q203 1600 240 1640T344 1681Q408 1681
448 1632T489 1524Q489 1434 460 1357T386 1219T298 1117T223 1056Q210 1048 195 1048Z" />
<glyph unicode="&#x201a;" glyph-name="quotesinglbase" horiz-adv-x="400" d="M-15 -396Q-30 -396 -42 -388T-55 -366Q-55 -355 -49 -343T-25 -317Q35 -267 61 -208T94 -99T100 -27Q99 -21 73 -14T20 16T-7 88Q-7 156 30 196T134 237Q198 237 238 188T279 80Q279
-10 250 -87T176 -225T88 -327T13 -388Q0 -396 -15 -396Z" />
<glyph unicode="&#x201c;" glyph-name="quotedblleft" horiz-adv-x="790" d="M435 1681Q450 1681 462 1673T475 1651Q475 1641 469 1629T445 1602Q385 1553 359 1494T326 1384T320 1312Q321 1307 347 1299T400 1269T427 1197Q427 1129 391 1089T286 1048Q222 1048
182 1097T141 1205Q141 1295 170 1372T244 1510T332 1612T407 1673Q420 1681 435 1681ZM846 1681Q861 1681 873 1673T886 1651Q886 1641 880 1629T856 1602Q796 1553 770 1494T738 1384T731 1312Q732 1307 758 1299T811 1269T838 1197Q838 1129 802 1089T697 1048Q633
1048 593 1097T552 1205Q552 1295 581 1372T655 1510T743 1612T818 1673Q831 1681 846 1681Z" />
<glyph unicode="&#x201d;" glyph-name="quotedblright" horiz-adv-x="790" d="M199 1048Q184 1048 172 1056T159 1078Q159 1089 165 1101T189 1127Q249 1177 275 1236T308 1345T314 1417Q313 1423 287 1430T234 1460T207 1532Q207 1600 244 1640T348 1681Q412
1681 452 1632T493 1524Q493 1434 464 1357T390 1219T302 1117T227 1056Q214 1048 199 1048ZM610 1048Q595 1048 583 1056T570 1078Q570 1089 576 1101T600 1127Q660 1177 686 1236T719 1345T725 1417Q724 1423 698 1430T645 1460T618 1532Q618 1600 655 1640T759
1681Q823 1681 863 1632T904 1524Q904 1434 875 1357T801 1219T713 1117T638 1056Q625 1048 610 1048Z" />
<glyph unicode="&#x201e;" glyph-name="quotedblbase" horiz-adv-x="790" d="M-9 -396Q-24 -396 -36 -388T-49 -366Q-49 -355 -43 -343T-19 -317Q41 -267 67 -208T100 -99T106 -27Q105 -21 79 -14T26 16T-1 88Q-1 156 36 196T140 237Q204 237 244 188T285 80Q285
-10 256 -87T182 -225T94 -327T19 -388Q6 -396 -9 -396ZM422 -396Q407 -396 395 -388T382 -366Q382 -355 388 -343T412 -317Q472 -267 498 -208T531 -99T537 -27Q536 -21 510 -14T457 16T430 88Q430 156 467 196T571 237Q635 237 675 188T716 80Q716 -10 687 -87T613
-225T525 -327T450 -388Q437 -396 422 -396Z" />
<glyph unicode="&#x2022;" glyph-name="bullet" horiz-adv-x="804" d="M374 292Q281 292 217 359T152 529Q152 604 188 671T292 780T448 822Q541 822 606 755T671 584Q671 510 634 443T531 334T374 292Z" />
<glyph unicode="&#x2039;" glyph-name="guilsinglleft" horiz-adv-x="850" d="M607 15L134 450L151 569L744 986L723 840L330 499L628 139L607 15Z" />
<glyph unicode="&#x203a;" glyph-name="guilsinglright" horiz-adv-x="850" d="M263 986L736 551L719 432L126 15L147 161L540 502L242 862L263 986Z" />
</font>
</defs>
</svg>
